<?xml version="1.0" encoding="UTF-8"?>
<svg xmlns="http://www.w3.org/2000/svg" id="a" width="865.76" height="682.89" viewBox="0 0 865.76 682.89">
  <g>
    <g>
      <polygon points="578.77 352.44 591.5 412.7 587.12 412.7 575.37 354.14 578.77 352.44"></polygon>
      <path d="M399.53,145.92l-42.13,202.87c-.93,4.49,2.54,8.68,7.12,8.61l301.84-4.79c5.85-.09,10.86-4.23,12.06-9.96l41.21-197.51c.89-4.25-2.36-8.24-6.7-8.24H410.63c-5.37,0-10.01,3.77-11.1,9.03h0Z"></path>
      <g>
        <path d="M717.07,145.13l-35.16,168.53-.02,.1-6.03,28.88c-1.2,5.73-6.2,9.87-12.06,9.96l-301.84,4.79c-4.58,.08-8.05-4.12-7.12-8.61l6.48-31.19,35.66-171.68c1.09-5.26,5.73-9.03,11.1-9.03h302.3c4.34,0,7.59,3.99,6.7,8.24h-.01Z" fill="#fff"></path>
        <path d="M361.84,357.89c-2.29,0-4.43-1.01-5.89-2.77-1.49-1.8-2.07-4.15-1.59-6.43l42.14-202.87c1.14-5.46,6.01-9.43,11.59-9.43h302.3c2.22,0,4.3,.99,5.7,2.71s1.94,3.96,1.49,6.13l-35.17,168.61-6.04,28.9c-1.25,6-6.41,10.26-12.54,10.36l-301.84,4.79h-.15Zm46.24-220.51c-5.11,0-9.57,3.63-10.61,8.63l-42.14,202.87c-.41,1.99,.09,4.03,1.39,5.59,1.3,1.57,3.22,2.44,5.24,2.41l301.84-4.79c5.66-.09,10.42-4.02,11.58-9.57l6.05-28.96,35.16-168.56c.39-1.88-.07-3.8-1.28-5.29-1.21-1.49-3-2.34-4.92-2.34H408.08Z"></path>
      </g>
      <g>
        <polygon points="712.01 360.08 724.93 412.99 760.34 412.99 772.26 360.08 712.01 360.08" fill="#3f8d4c"></polygon>
        <path d="M760.74,413.49h-36.2l-13.17-53.91h61.52l-12.15,53.91Zm-35.42-1h34.62l11.7-51.91h-58.99l12.68,51.91h-.01Z"></path>
      </g>
      <g>
        <path d="M681.91,313.66l-6.05,28.98c-1.2,5.73-6.2,9.87-12.06,9.96l-301.84,4.79c-4.58,.08-8.05-4.12-7.12-8.61l6.48-31.19,320.6-3.94h-.01Z" fill="#fff"></path>
        <path d="M361.84,357.89c-2.29,0-4.43-1.01-5.89-2.77-1.49-1.8-2.07-4.15-1.59-6.43l6.56-31.58,321.62-3.95-6.18,29.59c-1.25,6-6.41,10.26-12.54,10.36l-301.84,4.79h-.14Zm-.11-39.81l-6.39,30.79c-.41,1.99,.09,4.03,1.39,5.59,1.3,1.57,3.22,2.44,5.24,2.41l301.84-4.79c5.66-.09,10.42-4.02,11.58-9.57l5.92-28.37-319.57,3.93h0Z"></path>
      </g>
      <path d="M717.07,145.13l-35.16,168.53-.02,.1-14.87-.36,35.64-167.18-291.94-.85-35.93,172.32-13.49-.09,35.66-171.68c1.09-5.26,5.73-9.03,11.1-9.03h302.3c4.34,0,7.59,3.99,6.7,8.24h0Z"></path>
      <g>
        <polygon points="507.16 355.04 519.46 413.09 587.12 413.09 575.37 354.14 507.16 355.04" fill="#fff"></polygon>
        <path d="M587.73,413.59h-68.68l-12.51-59.04,69.24-.91,11.95,59.95Zm-67.87-1h66.65l-11.55-57.94-67.19,.89,12.09,57.06h0Z"></path>
      </g>
      <path d="M579.27,413.2h-30.7v-20.52h30.7v20.52Zm-29.7-1h28.7v-18.52h-28.7v18.52Z" fill="#ed1c24"></path>
      <g>
        <rect x="70.43" y="412.7" width="579.63" height="15.28" fill="#fff"></rect>
        <path d="M650.56,428.47H69.93v-16.28H650.56v16.28Zm-579.63-1H649.56v-14.28H70.93s0,14.28,0,14.28Z"></path>
      </g>
      <g>
        <polygon points="802.81 427.97 802.81 412.7 650.06 412.7 650.06 427.97 672.12 427.97 672.12 439.01 667.88 439.01 675.52 462.77 689.09 462.77 641.57 639.1 658.54 639.1 706.07 461.92 721.34 461.92 748.88 639.1 765.88 639.1 739.16 461.92 780.75 461.92 773.11 439.01 768.87 439.01 768.87 427.97 802.81 427.97" fill="#fff"></polygon>
        <path d="M766.46,639.6h-18.01l-.07-.42-27.47-176.76h-14.46l-47.52,177.18h-18.01l47.52-176.34h-13.29l-7.96-24.76h4.43v-10.03h-22.06v-16.28h153.76v16.28h-33.95v10.03h4.1l7.97,23.91h-41.7l26.72,177.18h0Zm-17.15-.99h15.99l-26.72-177.18h41.47l-7.3-21.91h-4.38v-12.03h33.95v-14.28h-151.76v14.28h22.06v12.03h-4.06l7.32,22.76h13.87l-47.52,176.34h15.94l47.52-177.18h16.09l.07,.42,27.47,176.76h-.01Z"></path>
      </g>
      <g>
        <polygon points="667.88 439.01 656.85 439.01 650.06 462.77 675.52 462.77 667.88 439.01" fill="#fff"></polygon>
        <path d="M676.2,463.27h-26.81l7.08-24.76h11.77l7.96,24.76h0Zm-25.48-1h24.11l-7.32-22.76h-10.29l-6.5,22.76Z"></path>
      </g>
      <g>
        <polygon points="678.06 462.77 630.54 639.1 641.57 639.1 689.09 462.77 678.06 462.77" fill="#fff"></polygon>
        <path d="M641.95,639.6h-12.07l47.79-177.34h12.07l-47.79,177.34Zm-10.76-1h10l47.25-175.34h-10l-47.25,175.34Z"></path>
      </g>
      <g>
        <polygon points="711.08 461.98 738.32 639.1 748.5 639.1 721.34 461.92 711.08 461.98" fill="#fff"></polygon>
        <path d="M749.08,639.6h-11.19l-.07-.42-27.32-177.7,11.27-.06,27.31,178.19h0Zm-10.34-1.01h9.17l-27-176.18-9.25,.05,27.08,176.13Z"></path>
      </g>
      <path d="M772.26,404.71h-16.12c-.28,0-.5-.22-.5-.5s.22-.5,.5-.5h15.74l6.53-25.31h-16.33c-.28,0-.5-.22-.5-.5s.22-.5,.5-.5h16.97c.15,0,.3,.07,.4,.19s.13,.28,.09,.43l-6.79,26.31c-.06,.22-.26,.38-.48,.38h-.01Z"></path>
      <path d="M750.2,412.35s-.07,0-.11-.01c-.27-.06-.44-.33-.38-.6l11.74-51.31c.06-.27,.33-.44,.6-.38,.27,.06,.44,.33,.38,.6l-11.74,51.31c-.05,.23-.26,.39-.49,.39Z"></path>
      <path d="M75.38,349.4c-.08-.31-.12-.61-.14-.95l1-.09,.12,.84-.98,.2Z" fill="#ed1c24"></path>
      <g>
        <path d="M357.21,569.64l-.1,.06h-13.26c-8.07,0-15.11-5.5-17.06-13.33l-51.55-206.95c-.67-2.71-3.11-4.61-5.89-4.61H79.29c-2.04,0-3.59,1.69-3.54,3.62l-.53-3.84c-.29-2.12,1.37-4.02,3.51-4.02h199.93c4.31,0,8.07,2.92,9.13,7.09l52.14,204.56c1.49,5.86,5.02,11.06,10.09,14.34,2.02,1.31,4.41,2.43,7.19,3.08Z" fill="#fff"></path>
        <path d="M357.25,570.2h-13.39c-8.32,0-15.53-5.64-17.54-13.71l-51.55-206.95c-.62-2.49-2.84-4.23-5.4-4.23H79.29c-.83,0-1.6,.32-2.17,.91s-.89,1.39-.87,2.2l-1,.08-.53-3.84c-.16-1.16,.19-2.32,.96-3.2s1.88-1.39,3.04-1.39h199.93c4.54,0,8.5,3.07,9.62,7.47l52.14,204.56c1.51,5.91,5.02,10.9,9.88,14.05,2.19,1.42,4.56,2.43,7.03,3.01l1.22,.29-1.3,.76h.01ZM79.29,344.3h190.07c3.03,0,5.65,2.05,6.38,4.99l51.55,206.95c1.9,7.63,8.71,12.95,16.57,12.95h10.25c-1.51-.58-2.96-1.32-4.35-2.22-5.07-3.28-8.73-8.48-10.3-14.64l-52.14-204.56c-1.01-3.96-4.56-6.72-8.65-6.72H78.73c-.88,0-1.71,.38-2.29,1.04s-.84,1.54-.73,2.41l.22,1.58c.14-.2,.29-.4,.46-.57,.76-.78,1.79-1.22,2.89-1.22h.01Z"></path>
      </g>
      <g>
        <path d="M271.13,84.27h0c-14.76,0-26.73,11.97-26.73,26.73v4.32l-34.79,11.38-11.88,39.04-5.09,17.82c32.25-4.24,63.65,24.61,63.65,24.61,.65-6.24,1.51-13.85,2.44-21.73,3.71,1.95,7.93,3.06,12.41,3.06h0c14.76,0,26.73-11.97,26.73-26.73v-51.77c0-14.76-11.97-26.73-26.73-26.73h-.01Z" fill="#e57281"></path>
        <path d="M256.68,209.21l-.73-.67c-.31-.29-31.6-28.64-63.25-24.48l-.76,.1,5.3-18.55,11.96-39.3,34.7-11.34v-3.96c0-15.02,12.22-27.23,27.23-27.23s27.23,12.22,27.23,27.23v51.77c0,15.02-12.22,27.23-27.23,27.23-4.15,0-8.28-.96-12-2.79-.99,8.43-1.79,15.5-2.36,21.01l-.1,.99h0Zm-57.52-26.58c27.01,0,52.15,20.57,56.73,24.52,.58-5.52,1.37-12.51,2.34-20.77l.08-.72,.64,.34c3.74,1.96,7.95,3,12.18,3,14.46,0,26.23-11.77,26.23-26.23v-51.77c0-14.46-11.77-26.23-26.23-26.23s-26.23,11.77-26.23,26.23v4.69l-34.89,11.41-11.81,38.79-4.88,17.09c1.95-.23,3.9-.33,5.84-.33v-.02Z"></path>
      </g>
      <g>
        <path d="M263.27,151.79c.84,4.33,5.46,25.46,17.62,36.05,0,0-10.8,4.39-22.37-1.64l4.5-34.4c.02-.14,.22-.15,.25,0h0Z" fill="#e05f75"></path>
        <path d="M271.57,189.86c-3.86,0-8.52-.74-13.29-3.22l-.31-.16,4.54-34.74c.04-.31,.29-.54,.6-.55h.02c.3,0,.56,.21,.61,.51h0c.8,4.13,5.4,25.26,17.45,35.77l.61,.53-.75,.31c-.07,.03-3.94,1.56-9.5,1.56h.02Zm-12.52-3.96c9.37,4.74,18.24,2.56,20.86,1.73-10.41-9.59-15.16-26.82-16.69-33.61l-4.17,31.88Z"></path>
      </g>
      <g>
        <path d="M179.9,200.53s5.09-14.43,12.73-16.97c0,0,22.79-5.15,56.06,18.78,4.51,3.24,8.6,7.04,12.16,11.31l8.17,9.8s-44.98-22.06-89.11-22.91h0Z" fill="#ec5446"></path>
        <path d="M270.9,224.93l-2.11-1.03c-.45-.22-45.39-22.03-88.9-22.86h-.69l.23-.67c.21-.6,5.26-14.69,13.04-17.28,.28-.07,23.44-4.93,56.51,18.84,4.55,3.27,8.67,7.11,12.25,11.4l9.67,11.6Zm-90.28-24.88c38.22,.93,77.32,17.77,86.57,21.99l-6.73-8.07c-3.52-4.22-7.58-8-12.06-11.23-32.67-23.49-55.43-18.74-55.66-18.69-6.36,2.12-11.03,13.19-12.12,16h0Z"></path>
      </g>
      <g>
        <path d="M513.24,412.88l40.92-.18c13.58-15.28,16.97-11.88,16.97-11.88,7.64,2.55,5.09,11.88,5.09,11.88h5.94l.85-5.09,2.55,5.09c1.91,.38,4.33-.1,6.42-.74,2.43-.75,3.46-3.63,2.11-5.78l-10.45-16.59c-1.44-2.28-3.42-4.18-5.79-5.48-6.8-3.74-16.65-5.25-22.41-5.84-2.92-.3-5.86,.24-8.47,1.59l-25.92,13.33-13.58-2.55,3.39,15.28,2.36,6.97h.02Z" fill="#e57281"></path>
        <path d="M512.88,413.38l-2.48-7.31-3.57-16.07,14.15,2.65,25.77-13.25c2.69-1.38,5.72-1.95,8.75-1.64,5.45,.56,15.64,2.07,22.6,5.9,2.41,1.32,4.47,3.28,5.97,5.65l10.45,16.59c.74,1.17,.88,2.59,.4,3.89-.47,1.28-1.49,2.24-2.79,2.64-2.73,.84-4.98,1.09-6.67,.75l-.24-.05-1.97-3.94-.67,3.99h-7.02l.17-.63c.1-.36,2.33-8.91-4.77-11.28l-.11-.04-.08-.08s-3.43-2.55-16.25,11.86l-.15,.17-41.5,.18v.02Zm-4.74-22.12l3.23,14.54,2.23,6.58,40.33-.18c8.88-9.95,13.56-12.13,15.92-12.2,.85-.03,1.32,.23,1.52,.37,6.71,2.3,5.88,9.62,5.47,11.83h4.9l1.03-6.19,3.12,6.24c1.49,.23,3.54-.03,5.94-.77,1-.31,1.78-1.04,2.14-2.03,.37-1.01,.26-2.1-.31-3.01l-10.45-16.59c-1.4-2.23-3.34-4.07-5.6-5.31-6.81-3.74-16.85-5.23-22.22-5.78-2.84-.29-5.67,.24-8.19,1.53l-26.07,13.41-13-2.44h0Z"></path>
      </g>
      <path d="M325.91,369.92c-.08,0-.16-.02-.22-.04l-.39-.13,.06-.43c.05-.29,.26-.43,.64-.43h2.45l-2.25,.96c-.11,.05-.21,.07-.3,.07h0Zm0-1s-.08,0-.09,.01l.12,.27,.09-.27s-.08-.02-.11-.02h-.01Z" fill="#ed1c24"></path>
      <g>
        <polygon points="164.93 427.66 109.31 639.1 81.31 639.1 140.02 427.97 149.71 427.85 164.93 427.66" fill="#fff"></polygon>
        <path d="M109.7,639.6h-29.05l.18-.63,58.81-211.49,25.95-.33-55.88,212.45h0Zm-27.73-1h26.96l55.36-210.44-23.89,.3-58.43,210.13h0Z"></path>
      </g>
      <g>
        <polygon points="164.93 427.66 109.88 639.1 91.88 639.1 149.71 427.85 164.93 427.66" fill="#fff"></polygon>
        <path d="M110.27,639.6h-19.04l58.1-212.24,16.26-.21-.17,.63-55.15,211.82h0Zm-17.73-1h16.96l54.79-210.44-14.19,.18-57.55,210.25h0Z"></path>
      </g>
      <g>
        <polygon points="216.24 638.83 189.94 638.83 181.6 585.82 191.66 584.25 208.76 581.58 216.24 638.83" fill="#fff"></polygon>
        <path d="M216.81,639.33h-27.31l-8.48-53.93,28.16-4.4,7.63,58.33h0Zm-26.45-1h25.31l-7.35-56.18-26.16,4.09,8.19,52.09h.01Z"></path>
      </g>
      <g>
        <polygon points="216.24 638.83 200.13 638.83 191.66 584.25 208.76 581.58 216.24 638.83" fill="#fff"></polygon>
        <path d="M216.81,639.33h-17.11l-8.61-55.5,18.1-2.83,7.63,58.33h-.01Zm-16.26-1h15.12l-7.35-56.18-16.1,2.52,8.33,53.66h0Z"></path>
      </g>
      <g>
        <g>
          <path d="M529.55,501.81l-168.03-21.22c-19.52,6.79-34.49,20.67-34.49,20.67l12.91,50.96c4.73,16.46,17.18,17.48,17.18,17.48h89.27c9.78,1.73,13.31,10.07,14.58,15.28h35.49l-25.46,45.83-11.7-41.52h2.36v-.06l-77.16,.42,27.1,49.65h122.21l46.81-75.38c3.53-5.69,5.78-12.12,6.23-18.8,2.66-39.82-57.28-43.3-57.28-43.3h-.02Z" fill="#ec5446"></path>
          <path d="M534.07,639.79h-122.78l-.14-.26-27.5-50.38,78.46-.43,.08,1-.54,.06h-1.7l11.19,39.72,24.46-44.02h-35.03l-.09-.38c-1.18-4.84-4.59-13.21-14.18-14.9h-89.18c-.17,0-12.89-1.23-17.66-17.84l-12.99-51.26,.22-.2c.15-.14,15.27-14.03,34.67-20.78l.11-.04,168.13,21.23c.94,.06,34.28,2.34,49.82,19.95,5.87,6.65,8.53,14.69,7.92,23.89-.44,6.52-2.61,13.1-6.3,19.04l-46.96,75.61h0Zm-122.19-1.01h121.63l46.67-75.14c3.6-5.8,5.73-12.22,6.15-18.57,.6-8.92-1.98-16.71-7.67-23.16-15.4-17.45-48.81-19.59-49.15-19.61h-.03l-167.92-21.2c-17.88,6.25-32.07,18.61-33.99,20.33l12.84,50.66c4.57,15.9,16.61,17.1,16.73,17.11h89.23c9.99,1.75,13.65,10.15,14.97,15.27h35.95l-26.46,47.63-11.94-42.37-73.57,.4,26.55,48.65h0Z"></path>
        </g>
        <g>
          <path d="M460.96,584.97h-.15c.65,2.53,.81,3.96,.84,4.24h0s-.09-1.77-.69-4.24Z" fill="#ec5446"></path>
          <path d="M462.18,589.72h-.98l-.05-.45c-.03-.26-.19-1.66-.83-4.17l-.16-.62h1.19l.09,.38c.61,2.49,.7,4.26,.71,4.34l.03,.53h0Z"></path>
        </g>
      </g>
      <path d="M232.52,171.68s2.55-49.22,21.22-51.77c0,0,20.37-4.24,18.67,23.76h6.79v-17.82s-1.7-7.64,4.24-9.34c0,0,9.34-4.24,0-17.82,0,0,30.06-17.6,26.8-33.71-.86-4.23-5.97-6.1-9.26-3.31-.19,.16-.38,.33-.57,.52,0,0,.47-5.61-.33-10.58-.58-3.59-4.29-5.76-7.66-4.4-2.34,.94-5.33,2.85-8.98,6.49,0,0-.85-17.82-18.67-3.39,0,0-57.71-24.61-83.17,20.37,0,0-18.67,34.79,16.12,95.05l34.79,5.94h.01Z"></path>
      <g>
        <ellipse cx="255.01" cy="133.07" rx="10.61" ry="13.15" fill="#e57281"></ellipse>
        <path d="M255.01,146.72c-6.12,0-11.11-6.13-11.11-13.65s4.98-13.65,11.11-13.65,11.11,6.12,11.11,13.65-4.98,13.65-11.11,13.65Zm0-26.31c-5.57,0-10.11,5.68-10.11,12.65s4.53,12.65,10.11,12.65,10.11-5.68,10.11-12.65-4.53-12.65-10.11-12.65Z"></path>
      </g>
      <g>
        <path d="M179.9,200.53s-22.51,7.38-43.2,29.2c-17.99,18.98-27.32,44.57-26.14,70.7l1.82,40.34,166.27-.21s6.7-1.09,9.13,7.09l39.23,153.6s14.12-13.03,34.49-20.67c0,0-57.71-38.19-56.01-135.78l62.47,65.52c4.54,4.76,10.85,7.44,17.43,7.4l126.32-.78s7.64-16.12-4.24-28.01l-87.92-22.97c-4.09-1.07-7.75-3.37-10.48-6.59l-94.08-110.77c-4.57-5.39-10.32-9.65-16.8-12.47l-29.19-12.69s-36.49-20.37-89.11-22.91h0Z" fill="#3f8d4c"></path>
        <path d="M326.75,502.2l-.21-.81-39.23-153.6c-2.27-7.62-8.31-6.77-8.57-6.72l-166.83,.22-1.85-40.82c-1.19-26.3,8.39-52.2,26.27-71.06,20.54-21.66,43.18-29.26,43.41-29.33l.09-.03h.09c52.13,2.53,88.96,22.78,89.33,22.98l29.14,12.67c6.51,2.83,12.38,7.19,16.98,12.6l94.08,110.77c2.68,3.16,6.22,5.38,10.23,6.43l88.05,23,.1,.1c11.99,11.99,4.42,28.41,4.34,28.57l-.13,.28-126.64,.79h-.15c-6.64,0-13.06-2.75-17.65-7.55l-61.63-64.64c-.61,49.59,14.46,83.32,27.28,102.94,14,21.43,28.39,31.1,28.53,31.2l.82,.54-.92,.34c-20.03,7.51-34.19,20.44-34.33,20.57l-.62,.57h.02Zm-47.34-162.19c1.89,0,6.84,.68,8.87,7.5l39.03,152.83c2.91-2.53,15.75-13.17,33.16-19.89-3.2-2.33-15.76-12.16-28.01-30.89-13.01-19.9-28.33-54.23-27.45-104.77l.02-1.22,63.31,66.4c4.4,4.61,10.56,7.25,16.92,7.25h.14l126-.78c.92-2.18,6.34-16.43-4.17-27.06l-87.79-22.94c-4.21-1.1-7.92-3.43-10.74-6.75l-94.08-110.77c-4.5-5.3-10.25-9.56-16.62-12.33l-29.19-12.69c-.41-.23-37-20.34-88.84-22.87-1.54,.53-23.19,8.24-42.91,29.04-17.7,18.67-27.18,44.3-26,70.33l1.8,39.86,165.79-.21s.28-.04,.75-.04h.01Z"></path>
      </g>
      <path d="M261.37,288.45c-.23,0-.44-.16-.49-.39-5.09-22.92,10.16-38.5,10.32-38.65,.2-.2,.51-.2,.71,0,.2,.19,.2,.51,0,.71-.15,.15-15.02,15.36-10.05,37.73,.06,.27-.11,.54-.38,.6-.04,0-.07,.01-.11,.01h0Z"></path>
      <g>
        <path d="M461.66,589.22H162.09c-13.02,0-24.42-8.75-27.78-21.33l-58.45-218.62-.12-.84c-.05-1.93,1.5-3.62,3.54-3.62h190.07c2.78,0,5.22,1.9,5.89,4.61l51.55,206.95c1.95,7.83,8.99,13.33,17.06,13.33h102.53c12.73,1.7,15.28,19.52,15.28,19.52Z" fill="#66b0f0"></path>
        <path d="M462.23,589.72H162.09c-13.22,0-24.84-8.92-28.26-21.7l-58.45-218.62-.13-.9c-.03-1.13,.39-2.2,1.14-2.98,.76-.78,1.79-1.22,2.89-1.22h190.07c3.03,0,5.65,2.05,6.38,4.99l51.55,206.95c1.9,7.63,8.71,12.95,16.57,12.95h102.53c13.02,1.73,15.75,19.77,15.77,19.95l.08,.57h0ZM79.29,345.3c-.83,0-1.6,.32-2.17,.91s-.89,1.39-.87,2.2l.11,.78,58.43,218.56c3.3,12.34,14.52,20.96,27.29,20.96H461.06c-.57-3.02-3.81-17.06-14.75-18.52h-102.46c-8.32,0-15.53-5.63-17.54-13.71l-51.55-206.95c-.62-2.49-2.84-4.23-5.4-4.23H79.29Z"></path>
      </g>
      <g>
        <path d="M187.54,589.22c0,6.56,5.32,11.88,11.88,11.88h24.61s1.77,11.2,15.62,14.93c.45,.12,.9,.21,1.36,.31v22.65h19.52v-24.83c5.16-2.3,10.78-6.26,13.58-13.06h43.28s13.28,.64,16.82-11.99l-146.67,.1h0Z" fill="#66b0f0"></path>
        <path d="M261.02,639.48h-20.52v-22.74c-.33-.07-.66-.14-.98-.23-12.46-3.36-15.39-12.8-15.89-14.91h-24.21c-6.83,0-12.38-5.55-12.38-12.38v-.5l147.83-.1-.18,.64c-3.61,12.86-17.2,12.35-17.33,12.35h-42.92c-2.4,5.58-6.91,9.91-13.41,12.88v24.99Zm-19.53-1h18.52v-24.65l.3-.13c6.54-2.92,11.02-7.22,13.32-12.79l.13-.31h43.62c.54,.03,12.51,.45,16.15-10.98l-145.48,.1c.26,6.04,5.26,10.88,11.37,10.88h25.04l.07,.42c.02,.11,1.9,10.93,15.25,14.53,.33,.09,.66,.16,1,.23l.73,.16v22.55h-.02Z"></path>
      </g>
    </g>
    <g>
      <g>
        <polygon points="666.77 48.81 662.04 107.57 661.74 111.21 646.12 305.25 455 304.18 471.65 110.6 471.96 106.96 477.01 48.2 666.77 48.81" fill="#fff"></polygon>
        <path d="M646.58,305.75h-.46l-191.66-1.08,.05-.54,22.05-256.44,190.76,.61-.04,.54-20.68,256.9h-.02Zm-191.04-2.06l190.12,1.07,20.56-255.44-188.75-.61-21.92,254.98h0Z"></path>
      </g>
      <g>
        <polygon points="662.03 108.25 661.74 111.9 471.64 111.28 471.96 107.64 662.03 108.25" fill="#66b0f0"></polygon>
        <path d="M662.2,112.4l-191.1-.62,.4-4.64,191.08,.62-.38,4.64Zm-190.01-1.61l189.09,.61,.21-2.64-189.08-.61-.23,2.64h0Z"></path>
      </g>
      <g>
        <polygon points="488.26 90.84 584.62 90.92 584.15 96.84 487.79 96.53 488.26 90.84" fill="#fff"></polygon>
        <path d="M584.61,97.34l-97.36-.31,.56-6.69,97.36,.08-.56,6.92Zm-96.28-1.31l95.35,.31,.39-4.92-95.36-.08-.39,4.69h0Z"></path>
      </g>
      <g>
        <polygon points="485.42 126.36 573.57 126.88 573.55 132.8 484.94 132.28 485.42 126.36" fill="#fff"></polygon>
        <path d="M574.05,133.3l-89.65-.52,.55-6.92,89.12,.52-.02,6.92Zm-88.57-1.51l87.57,.51,.02-4.92-87.19-.51-.39,4.92h-.01Z"></path>
      </g>
      <g>
        <polygon points="484.69 138.21 545.52 138.63 545.5 144.55 484.22 144.13 484.69 138.21" fill="#fff"></polygon>
        <path d="M545.99,145.06l-62.32-.43,.55-6.92,61.78,.43-.02,6.92h.01Zm-61.23-1.42l60.24,.42v-4.92l-59.84-.42-.39,4.92h-.01Z"></path>
      </g>
      <g>
        <polygon points="473.56 271.66 537.8 272.1 537.78 278.02 473.08 277.58 473.56 271.66" fill="#fff"></polygon>
        <path d="M538.27,278.52l-65.73-.44,.55-6.92,65.2,.44-.02,6.92h0Zm-64.65-1.44l63.65,.43,.02-4.92-63.28-.43-.39,4.92Z"></path>
      </g>
      <g>
        <polygon points="472.84 283.51 517.71 283.88 517.69 289.8 472.36 289.43 472.84 283.51" fill="#fff"></polygon>
        <path d="M518.19,290.3l-46.37-.38,.55-6.92,45.84,.38-.02,6.92Zm-45.29-1.37l44.29,.37v-4.92l-43.9-.36-.39,4.92h0Z"></path>
      </g>
      <g>
        <polygon points="640.62 173.33 482.53 172.83 483.72 156.66 641.82 157.16 640.62 173.33" fill="#fff"></polygon>
        <path d="M641.09,173.84l-159.09-.51,1.26-17.17,159.09,.51-1.26,17.17Zm-158.02-1.51l157.09,.51,1.12-15.17-157.09-.51-1.12,15.17h0Z"></path>
      </g>
      <path d="M634.7,243.75h0l-157.54-.82c-.14,0-.27-.06-.37-.16-.09-.1-.14-.24-.13-.38l5.37-69.6c.02-.28,.29-.48,.54-.46,.28,.02,.48,.26,.46,.54l-5.33,69.07,156.54,.82,5.88-69.46c.02-.28,.28-.48,.54-.46,.28,.02,.48,.27,.46,.54l-5.92,69.92c-.02,.26-.24,.46-.5,.46h0Z"></path>
      <path d="M499.39,243h-.04c-.28-.02-.48-.26-.46-.54l5.57-69.64c.02-.28,.27-.48,.54-.46,.28,.02,.48,.26,.46,.54l-5.57,69.64c-.02,.26-.24,.46-.5,.46Z"></path>
      <path d="M589.83,243.38h-.04c-.28-.02-.48-.26-.46-.54l5.29-69.51c.02-.28,.28-.48,.54-.46,.28,.02,.48,.26,.46,.54l-5.29,69.51c-.02,.26-.24,.46-.5,.46h0Z"></path>
      <path d="M612.2,243.36h-.04c-.28-.02-.48-.26-.46-.54l5.35-69.64c.02-.28,.29-.48,.54-.46,.28,.02,.48,.26,.46,.54l-5.35,69.64c-.02,.26-.24,.46-.5,.46Z"></path>
      <path d="M639.52,187.08h0l-157.86-.51c-.28,0-.5-.23-.5-.5s.22-.5,.5-.5h0l157.86,.51c.28,0,.5,.23,.5,.5s-.22,.5-.5,.5Z"></path>
      <path d="M638.41,200.93h0l-157.64-.51c-.28,0-.5-.23-.5-.5s.24-.53,.5-.5l157.64,.51c.28,0,.5,.23,.5,.5s-.22,.5-.5,.5Z"></path>
      <path d="M637.22,215.27h0l-158.1-.51c-.28,0-.5-.23-.5-.5s.22-.51,.5-.5l158.1,.51c.28,0,.5,.23,.5,.5s-.22,.5-.5,.5Z"></path>
      <path d="M635.75,229.12h0l-157.69-.51c-.28,0-.5-.23-.5-.5s.22-.5,.5-.5h0l157.69,.51c.28,0,.5,.23,.5,.5s-.22,.5-.5,.5Z"></path>
      <g>
        <polygon points="589.35 250.85 588.64 259.28 632.6 259.42 633.31 250.99 589.35 250.85" fill="#ec5446"></polygon>
        <path d="M633.06,259.92l-44.97-.14,.79-9.43,44.97,.14-.79,9.43Zm-43.88-1.14l42.96,.14,.63-7.43-42.96-.14-.63,7.43h0Z"></path>
      </g>
      <g>
        <circle cx="677.01" cy="118.49" r="22.82" fill="#3f8d4c"></circle>
        <path d="M677.01,141.81c-12.86,0-23.32-10.46-23.32-23.32s10.46-23.32,23.32-23.32,23.32,10.46,23.32,23.32-10.46,23.32-23.32,23.32Zm0-45.64c-12.31,0-22.32,10.01-22.32,22.32s10.01,22.32,22.32,22.32,22.32-10.01,22.32-22.32-10.01-22.32-22.32-22.32Z"></path>
      </g>
      <path d="M673.26,125.87c-.13,0-.27-.05-.36-.16l-7.73-8.21c-.19-.2-.18-.52,.02-.71s.52-.18,.71,.02l7.39,7.85,16.06-14.88c.2-.19,.52-.18,.71,.03,.19,.2,.17,.52-.03,.71l-16.42,15.21c-.1,.09-.22,.13-.34,.13h-.01Z"></path>
      <g>
        <path d="M424.87,182.2l-60.49-.19c-2.78,0-4.97-2.37-4.78-5.14l4.33-60.77c.18-2.52,2.28-4.47,4.81-4.46l59.9,.19c2.76,0,4.95,2.34,4.78,5.1l-3.74,60.77c-.16,2.54-2.27,4.52-4.81,4.51h0Z" fill="#ec5446"></path>
        <path d="M424.88,182.7h-.02l-60.49-.19c-1.48,0-2.86-.61-3.87-1.69-1.01-1.09-1.51-2.5-1.4-3.98l4.33-60.77c.2-2.77,2.52-4.93,5.29-4.93h.02l59.9,.19c1.47,0,2.84,.6,3.85,1.68s1.51,2.48,1.42,3.95l-3.74,60.77c-.17,2.79-2.5,4.98-5.29,4.98h0Zm-.01-1.01h.01c2.27,0,4.16-1.77,4.3-4.04l3.74-60.77c.07-1.19-.34-2.33-1.16-3.21-.82-.87-1.93-1.36-3.13-1.36l-59.9-.19h-.01c-2.25,0-4.13,1.75-4.29,4l-4.33,60.77c-.09,1.2,.32,2.35,1.14,3.23,.82,.88,1.93,1.37,3.14,1.38l60.49,.19Z"></path>
      </g>
      <g>
        <g>
          <polygon points="406.58 124.73 380.46 169.07 387.07 169.09 413.18 124.75 406.58 124.73" fill="#fff"></polygon>
          <path d="M387.36,169.59l-7.76-.02,26.7-45.33,7.76,.03-26.7,45.33h0Zm-6.02-1.03l5.45,.02,25.52-43.34-5.45-.02-25.52,43.34h0Z"></path>
        </g>
        <g>
          <path d="M411.56,146.69c-5.19-.61-9.99,3.96-10.72,10.2-.74,6.25,2.87,11.81,8.05,12.42s9.99-3.95,10.72-10.2-2.87-11.81-8.05-12.42Zm-1.81,17.23c-1.7,0-3.07-2.66-3.06-5.93s1.4-5.92,3.09-5.91c1.7,0,3.07,2.66,3.06,5.93-.01,3.27-1.4,5.92-3.09,5.91Z" fill="#fff"></path>
          <path d="M409.82,169.87c-.33,0-.66-.02-.99-.06-5.45-.64-9.26-6.47-8.49-12.98,.77-6.51,5.81-11.29,11.28-10.64h0c5.45,.64,9.26,6.47,8.49,12.98-.72,6.12-5.23,10.7-10.29,10.7Zm.81-22.73c-4.56,0-8.63,4.21-9.3,9.82-.7,5.96,2.71,11.29,7.62,11.87,4.89,.58,9.46-3.8,10.17-9.76,.7-5.96-2.71-11.29-7.62-11.87h0c-.29-.03-.58-.05-.87-.05h0Zm-.88,17.28h0c-1.02,0-1.94-.72-2.61-2.01-.61-1.19-.95-2.76-.94-4.42,.01-3.6,1.59-6.41,3.59-6.41h0c1.02,0,1.94,.72,2.61,2.01,.61,1.19,.95,2.76,.94,4.42,0,1.66-.35,3.23-.97,4.42-.67,1.29-1.6,2-2.62,2h0Zm.03-11.86c-1.24,0-2.58,2.17-2.59,5.41,0,1.5,.29,2.91,.83,3.96,.48,.93,1.11,1.47,1.73,1.47h0c.62,0,1.25-.53,1.73-1.46,.55-1.05,.85-2.45,.86-3.95,0-1.5-.29-2.91-.83-3.96-.48-.93-1.11-1.47-1.73-1.47h0Z"></path>
        </g>
        <g>
          <path d="M392.58,136.93c.74-6.25-2.87-11.81-8.05-12.42s-9.99,3.95-10.72,10.2c-.74,6.25,2.87,11.81,8.05,12.42,5.19,.61,9.99-3.96,10.72-10.2Zm-12.92-1.12c.01-3.27,1.4-5.92,3.09-5.91,1.7,0,3.07,2.66,3.06,5.93-.01,3.27-1.4,5.92-3.09,5.91s-3.07-2.66-3.06-5.93Z" fill="#fff"></path>
          <path d="M382.78,147.68c-.33,0-.66-.02-.99-.06-5.45-.64-9.26-6.46-8.49-12.98,.37-3.14,1.74-5.97,3.85-7.98,2.13-2.03,4.77-2.98,7.43-2.66,2.66,.31,5,1.85,6.61,4.32,1.58,2.44,2.25,5.52,1.88,8.65-.72,6.12-5.23,10.7-10.29,10.7h0Zm.81-22.72c-2.06,0-4.07,.85-5.75,2.45-1.94,1.85-3.2,4.46-3.54,7.37-.7,5.96,2.71,11.29,7.62,11.87,4.89,.58,9.46-3.8,10.17-9.76,.34-2.91-.27-5.74-1.73-7.99-1.44-2.22-3.53-3.59-5.89-3.87-.29-.03-.59-.05-.88-.05v-.02Zm-.87,17.29h0c-1.02,0-1.94-.72-2.61-2.01-.61-1.19-.95-2.76-.94-4.42,0-1.66,.35-3.23,.97-4.42,.67-1.29,1.6-2,2.62-2h0c2,0,3.57,2.83,3.55,6.43-.01,3.6-1.59,6.41-3.59,6.41h0Zm.03-11.84c-.62,0-1.25,.53-1.73,1.46-.55,1.05-.85,2.45-.86,3.95h0c0,1.5,.29,2.91,.83,3.96,.48,.93,1.11,1.47,1.73,1.47h0c1.24,0,2.58-2.17,2.59-5.41,0-3.24-1.32-5.43-2.56-5.43h0Z"></path>
        </g>
      </g>
      <g>
        <path d="M751.71,279.2h-73.4c-1.68,0-3.01-1.43-2.89-3.11l3.44-46.37c.11-1.51,1.37-2.68,2.89-2.68h73.4c1.68,0,3.01,1.43,2.89,3.11l-3.44,46.37c-.11,1.51-1.37,2.68-2.89,2.68h0Z" fill="#3f8d4c"></path>
        <path d="M751.71,279.7h-73.4c-.94,0-1.85-.4-2.49-1.08-.64-.69-.97-1.62-.9-2.56l3.44-46.37c.13-1.76,1.62-3.15,3.39-3.15h73.4c.94,0,1.85,.4,2.49,1.09s.97,1.62,.9,2.56l-3.44,46.37c-.13,1.77-1.62,3.15-3.39,3.15h0Zm-69.96-52.17c-1.25,0-2.3,.98-2.39,2.22l-3.44,46.37c-.05,.67,.17,1.31,.63,1.81,.46,.49,1.08,.77,1.76,.77h73.4c1.25,0,2.3-.98,2.39-2.22l3.44-46.37c.05-.67-.18-1.31-.63-1.81-.46-.49-1.08-.77-1.76-.77h-73.4Z"></path>
      </g>
      <g>
        <path d="M690.41,242.25h3.62c2.53,0,4.59,2.06,4.59,4.59h0c0,2.53-2.06,4.59-4.59,4.59h-3.62c-2.53,0-4.59-2.06-4.59-4.59h0c0-2.53,2.06-4.59,4.59-4.59Z" fill="#fff"></path>
        <path d="M694.03,251.93h-3.62c-2.81,0-5.09-2.28-5.09-5.09s2.28-5.09,5.09-5.09h3.62c2.81,0,5.09,2.28,5.09,5.09s-2.28,5.09-5.09,5.09Zm-3.62-9.18c-2.25,0-4.09,1.83-4.09,4.09s1.83,4.09,4.09,4.09h3.62c2.25,0,4.09-1.83,4.09-4.09s-1.83-4.09-4.09-4.09h-3.62Z"></path>
      </g>
      <g>
        <polygon points="697.25 262.05 684.86 262.05 685.1 258.19 697.6 258.19 697.25 262.05" fill="#fff"></polygon>
        <path d="M697.71,262.55h-13.38l.3-4.86h13.52l-.44,4.86Zm-12.32-1h11.41l.26-2.86h-11.49l-.18,2.86Z"></path>
      </g>
      <g>
        <polygon points="734.89 262.05 748.37 262.05 748.37 258.19 735.15 258.19 734.89 262.05" fill="#fff"></polygon>
        <path d="M748.87,262.55h-14.51l.33-4.86h14.18v4.86Zm-13.44-1h12.44v-2.86h-12.25l-.19,2.86Z"></path>
      </g>
      <g>
        <polygon points="730.87 262.05 718.65 262.05 718.82 258.19 730.96 258.19 730.87 262.05" fill="#fff"></polygon>
        <path d="M731.36,262.55h-13.24l.22-4.86h13.13l-.11,4.86Zm-12.19-1h11.21l.06-2.86h-11.15l-.13,2.86h.01Z"></path>
      </g>
      <g>
        <polygon points="713.84 262.05 701.42 262.05 701.7 258.19 714.02 258.19 713.84 262.05" fill="#fff"></polygon>
        <path d="M714.32,262.55h-13.44l.36-4.86h13.3l-.22,4.86Zm-12.36-1h11.41l.13-2.86h-11.33l-.21,2.86h0Z"></path>
      </g>
      <g>
        <polygon points="734.6 265.19 733.88 272.68 747.16 272.68 747.4 265.19 734.6 265.19" fill="#fff"></polygon>
        <path d="M747.64,273.18h-14.32l.82-8.49h13.77l-.27,8.49Zm-13.21-1h12.25l.21-6.49h-11.83l-.63,6.49Z"></path>
      </g>
      <g>
        <path d="M666.37,412.39h-65.89c-1.77,0-3.16-1.51-3-3.28l8.33-96.19c.18-2.07,1.91-3.66,3.99-3.66h63.24c2.33,0,4.17,1.99,3.99,4.32l-7.65,96.02c-.12,1.57-1.43,2.78-3.01,2.78h0Z" fill="#3f8d4c"></path>
        <path d="M666.37,412.89h-65.89c-.98,0-1.93-.42-2.59-1.14s-1-1.7-.91-2.68l8.33-96.19c.2-2.34,2.13-4.11,4.48-4.11h63.24c1.25,0,2.46,.53,3.31,1.45s1.28,2.16,1.18,3.41l-7.65,96.02c-.14,1.82-1.68,3.24-3.5,3.24h0Zm-56.57-103.12c-1.83,0-3.33,1.38-3.49,3.2l-8.33,96.19c-.06,.71,.17,1.39,.65,1.92s1.14,.82,1.85,.82h65.89c1.3,0,2.41-1.02,2.51-2.32l7.65-96.02c.08-.99-.25-1.93-.92-2.65-.67-.73-1.58-1.13-2.57-1.13h-63.24Z"></path>
      </g>
      <path d="M669.18,336.32h-59.81c-.45,0-.79-.38-.75-.83l1.78-17.81c.04-.38,.36-.68,.75-.68h59.36c.44,0,.78,.37,.75,.81l-1.34,17.81c-.03,.39-.36,.7-.75,.7h.01Z"></path>
      <g>
        <polygon points="619.37 354.91 620.42 343.52 609.03 343.66 607.96 355.02 619.37 354.91" fill="#fff"></polygon>
        <path d="M607.41,355.52l1.16-12.36,12.39-.15-1.14,12.39-12.41,.11h0Zm2.08-11.36l-.98,10.36,10.4-.1,.96-10.38-10.38,.12h0Z"></path>
      </g>
      <g>
        <polygon points="617.85 371.4 618.94 359.59 607.53 359.6 606.41 371.51 617.85 371.4" fill="#fff"></polygon>
        <path d="M605.86,372.02l1.22-12.92h12.41l-1.18,12.8-12.44,.12h0Zm2.13-11.92l-1.03,10.91,10.43-.1,1-10.81h-10.4Z"></path>
      </g>
      <g>
        <polygon points="616.36 387.57 617.42 376.09 605.99 375.98 604.91 387.46 616.36 387.57" fill="#fff"></polygon>
        <path d="M616.81,388.08l-12.45-.12,1.17-12.48,12.43,.12-1.15,12.48h0Zm-11.36-1.11l10.44,.1,.97-10.48-10.42-.1-.99,10.48Z"></path>
      </g>
      <g>
        <polygon points="615.92 392.36 614.88 403.56 603.39 403.56 604.48 392.05 615.92 392.36" fill="#fff"></polygon>
        <path d="M615.34,404.06h-12.5l1.18-12.53,12.44,.34-1.12,12.19Zm-11.4-1h10.49l.94-10.22-10.44-.29-.99,10.51Z"></path>
      </g>
      <g>
        <polygon points="635.79 355.15 636.84 343.77 625.45 343.9 624.38 355.26 635.79 355.15" fill="#fff"></polygon>
        <path d="M623.84,355.76l1.16-12.36,12.39-.15-1.14,12.39-12.41,.11h0Zm2.07-11.36l-.97,10.36,10.4-.1,.96-10.38-10.38,.12h-.01Z"></path>
      </g>
      <g>
        <polygon points="634.27 371.64 635.36 359.83 623.95 359.84 622.83 371.75 634.27 371.64" fill="#fff"></polygon>
        <path d="M622.28,372.26l1.22-12.92h12.41l-1.18,12.8-12.44,.12h0Zm2.13-11.92l-1.03,10.91,10.43-.1,1-10.81h-10.4Z"></path>
      </g>
      <g>
        <polygon points="632.78 387.82 633.84 376.33 622.41 376.22 621.33 387.7 632.78 387.82" fill="#fff"></polygon>
        <path d="M633.24,388.32l-12.45-.12,1.17-12.48,12.43,.12-1.15,12.48h0Zm-11.36-1.11l10.44,.1,.97-10.48-10.42-.1-.99,10.48Z"></path>
      </g>
      <g>
        <polygon points="632.34 392.6 631.31 403.81 619.81 403.81 620.9 392.29 632.34 392.6" fill="#fff"></polygon>
        <path d="M631.76,404.31h-12.5l1.18-12.53,12.44,.34-1.12,12.19Zm-11.4-1h10.49l.94-10.22-10.44-.29-.99,10.51Z"></path>
      </g>
      <g>
        <polygon points="651.97 354.91 653.02 343.52 641.63 343.66 640.56 355.02 651.97 354.91" fill="#fff"></polygon>
        <path d="M640.01,355.52l1.16-12.36,12.39-.15-1.14,12.39-12.41,.11h0Zm2.07-11.36l-.97,10.36,10.4-.1,.96-10.38-10.38,.12h-.01Z"></path>
      </g>
      <g>
        <polygon points="650.45 371.4 651.54 359.59 640.13 359.6 639.01 371.51 650.45 371.4" fill="#fff"></polygon>
        <path d="M638.46,372.02l1.22-12.92h12.41l-1.18,12.8-12.44,.12h0Zm2.13-11.92l-1.03,10.91,10.43-.1,1-10.81h-10.4Z"></path>
      </g>
      <g>
        <polygon points="648.96 387.57 650.02 376.09 638.59 375.98 637.51 387.46 648.96 387.57" fill="#fff"></polygon>
        <path d="M649.42,388.08l-12.45-.12,1.17-12.48,12.43,.12-1.15,12.48h0Zm-11.36-1.11l10.44,.1,.97-10.48-10.42-.1-.99,10.48Z"></path>
      </g>
      <g>
        <polygon points="648.52 392.36 647.49 403.56 635.99 403.56 637.08 392.05 648.52 392.36" fill="#fff"></polygon>
        <path d="M647.94,404.06h-12.5l1.18-12.53,12.44,.34-1.12,12.19Zm-11.4-1h10.49l.94-10.22-10.44-.29-.99,10.51Z"></path>
      </g>
      <g>
        <polygon points="667.91 354.91 668.96 343.52 657.57 343.66 656.5 355.02 667.91 354.91" fill="#fff"></polygon>
        <path d="M655.95,355.52l1.16-12.36,12.39-.15-1.14,12.39-12.41,.11h0Zm2.07-11.36l-.97,10.36,10.4-.1,.96-10.38-10.38,.12h-.01Z"></path>
      </g>
      <g>
        <polygon points="666.39 371.4 667.48 359.59 656.07 359.6 654.95 371.51 666.39 371.4" fill="#fff"></polygon>
        <path d="M654.4,372.02l1.22-12.92h12.41l-1.18,12.8-12.44,.12h0Zm2.13-11.92l-1.03,10.91,10.43-.1,1-10.81h-10.4Z"></path>
      </g>
      <g>
        <polygon points="663.67 403.56 651.93 403.56 653.46 387.51 653.45 387.46 654.53 375.98 665.96 376.09 664.9 387.57 663.67 403.56" fill="#ec5446"></polygon>
        <path d="M664.13,404.06h-12.75l1.57-16.51v-.14l1.12-11.94,12.43,.12-1.11,12.02-1.27,16.44h.01Zm-11.65-.99h10.72l1.2-15.53,1.01-10.95-10.42-.1-1.03,10.94v.14l-1.47,15.5h-.01Z"></path>
      </g>
      <path d="M647.92,332.72l-1-.06c.29-4.75,.72-11.94,.72-12.29h1c0,.48-.65,11.13-.73,12.35h.01Z" fill="#fff"></path>
      <path d="M654.6,333.27h-.1l-2.89-.17c-.46-.03-.87-.23-1.18-.57-.3-.34-.45-.78-.43-1.24l.59-9.97c.06-.94,.84-1.66,1.81-1.6l2.89,.17c.94,.06,1.66,.87,1.6,1.81l-.59,9.98c-.03,.46-.23,.87-.57,1.18-.31,.28-.71,.43-1.13,.43v-.02Zm-.04-1c.2,.01,.37-.05,.51-.18,.14-.12,.23-.3,.24-.49l.59-9.98c.02-.39-.28-.73-.67-.75l-2.89-.17c-.4-.03-.73,.28-.75,.67l-.59,9.97c-.01,.19,.05,.37,.18,.51s.3,.23,.49,.24l2.89,.17h0Z" fill="#fff"></path>
      <path d="M663.53,333.52h-.1l-2.89-.17c-.46-.03-.87-.23-1.18-.57-.3-.34-.46-.78-.43-1.24l.59-9.97c.03-.46,.23-.87,.57-1.18,.34-.3,.8-.45,1.24-.43l2.89,.17c.46,.03,.87,.23,1.18,.57,.3,.34,.45,.78,.43,1.24l-.59,9.98c-.05,.91-.81,1.61-1.71,1.61h0Zm-.04-1.01c.38,.01,.73-.27,.75-.67l.59-9.98c.01-.19-.05-.37-.18-.51s-.3-.23-.49-.24l-2.89-.17c-.2-.01-.37,.05-.51,.18s-.23,.3-.24,.49l-.59,9.98c-.01,.19,.05,.37,.18,.51,.12,.14,.3,.23,.49,.24l2.89,.17h0Z" fill="#fff"></path>
    </g>
    <g>
      <g>
        <path d="M492,66.37l-.07,3.51,4.5,.09-.04,2.23-4.5-.09-.07,3.72,5.07,.1-.04,2.29-7.75-.15,.28-14.04,7.75,.15-.04,2.29-5.07-.1h-.02Z" fill="#3f8d4c"></path>
        <path d="M497.33,78.72l-8.75-.17,.29-15.04,8.75,.17-.06,3.29-5.07-.1-.05,2.52,4.5,.09-.06,3.23-4.5-.09-.05,2.72,5.07,.1-.06,3.29h-.01Zm-7.73-1.16l6.75,.13,.03-1.29-5.07-.1,.09-4.72,4.5,.09,.02-1.23-4.5-.09,.09-4.52,5.07,.1,.03-1.29-6.75-.13-.26,13.04h0Z"></path>
      </g>
      <g>
        <path d="M507.58,70.07l-.05,2.37-8.11-.16,.05-2.37,8.11,.16Z" fill="#3f8d4c"></path>
        <path d="M508.03,72.95l-9.11-.18,.07-3.37,9.11,.18-.07,3.37Zm-8.09-1.16l7.11,.14,.03-1.37-7.11-.14-.03,1.37Z"></path>
      </g>
      <g>
        <path d="M513.38,64.52l-.28,14.02-2.68-.05,.28-14.02s2.68,.05,2.68,.05Z" fill="#3f8d4c"></path>
        <path d="M513.59,79.04l-3.68-.07,.29-15.02,3.68,.07-.29,15.02h0Zm-2.66-1.05l1.68,.03,.26-13.02-1.68-.03-.26,13.02h0Z"></path>
      </g>
      <g>
        <path d="M527.17,78.81l-2.68-.05-5.88-9.74-.19,9.62-2.68-.05,.28-14.04,2.68,.05,5.88,9.76,.19-9.64,2.68,.05s-.28,14.04-.28,14.04Z" fill="#3f8d4c"></path>
        <path d="M527.66,79.32l-3.45-.07-5.13-8.49-.16,8.39-3.68-.07,.3-15.04,3.46,.07,5.12,8.51,.17-8.41,3.68,.07-.3,15.04h-.01Zm-2.88-1.06l1.9,.04,.26-13.04-1.68-.03-.21,10.87-6.63-11.01-1.9-.04-.26,13.04,1.68,.03,.21-10.85,6.63,10.98h0Z"></path>
      </g>
      <g>
        <path d="M542.08,65.08l-5.17,13.92-3.25-.06-4.62-14.11,2.87,.06,3.45,11.22,3.87-11.07,2.85,.06v-.02Z" fill="#3f8d4c"></path>
        <path d="M537.25,79.51l-3.96-.08-4.95-15.12,3.94,.08,3.11,10.11,3.49-9.98,3.92,.08-5.54,14.91h0Zm-3.23-1.06l2.54,.05,4.81-12.93-1.78-.04-4.26,12.17-3.8-12.33-1.81-.04,4.29,13.11h.01Z"></path>
      </g>
      <g>
        <path d="M546.18,78.4c-1.03-.64-1.85-1.51-2.44-2.61s-.87-2.34-.85-3.72,.36-2.59,.99-3.67,1.48-1.92,2.54-2.51c1.06-.59,2.21-.88,3.46-.86s2.41,.36,3.44,.99c1.03,.64,1.83,1.51,2.42,2.61,.58,1.1,.86,2.34,.84,3.7s-.35,2.61-.98,3.69-1.47,1.92-2.53,2.51c-1.06,.6-2.21,.88-3.46,.86s-2.39-.36-3.43-.99Zm5.61-2.05c.62-.37,1.11-.91,1.47-1.61s.55-1.52,.56-2.46-.14-1.76-.47-2.47c-.33-.71-.8-1.26-1.4-1.65-.61-.39-1.31-.59-2.11-.6s-1.52,.16-2.14,.52c-.63,.36-1.12,.89-1.48,1.59s-.55,1.51-.56,2.45,.14,1.76,.47,2.48c.33,.72,.8,1.27,1.41,1.67,.61,.39,1.32,.6,2.12,.61s1.51-.16,2.13-.53h0Z" fill="#3f8d4c"></path>
        <path d="M549.76,79.89h-.16c-1.33-.03-2.57-.39-3.68-1.07-1.1-.68-1.98-1.62-2.62-2.8-.63-1.18-.93-2.51-.91-3.97,.03-1.44,.38-2.76,1.06-3.91s1.59-2.06,2.72-2.69c1.13-.64,2.4-.94,3.72-.92,1.35,.03,2.59,.39,3.69,1.07s1.97,1.62,2.6,2.8c.62,1.17,.92,2.5,.9,3.95-.03,1.46-.38,2.78-1.05,3.93s-1.58,2.06-2.72,2.7c-1.09,.61-2.29,.92-3.56,.92h0Zm0-14.37c-1.1,0-2.14,.27-3.07,.79-.97,.55-1.77,1.33-2.35,2.33-.59,1-.9,2.15-.92,3.42-.03,1.29,.24,2.46,.79,3.48,.55,1.02,1.31,1.83,2.26,2.42h0c.95,.59,2.02,.9,3.17,.92,1.15,.03,2.23-.24,3.21-.79,.97-.55,1.76-1.33,2.34-2.33s.89-2.16,.91-3.45c.02-1.27-.24-2.44-.78-3.46-.54-1.02-1.29-1.83-2.24-2.42s-2.02-.89-3.18-.92h-.14Zm0,11.86h-.11c-.89-.02-1.7-.25-2.38-.69-.69-.44-1.23-1.08-1.6-1.88-.36-.78-.53-1.69-.51-2.7,.02-1.01,.23-1.91,.62-2.67,.4-.78,.96-1.38,1.67-1.79,.7-.41,1.49-.6,2.4-.59,.89,.02,1.69,.25,2.37,.68,.68,.44,1.22,1.06,1.59,1.85,.36,.78,.53,1.68,.51,2.69s-.23,1.91-.62,2.68c-.4,.79-.96,1.4-1.66,1.81-.67,.4-1.44,.6-2.29,.6h0Zm-.02-9.31c-.68,0-1.27,.15-1.79,.45-.55,.32-.97,.77-1.28,1.38-.32,.62-.49,1.37-.51,2.23s.13,1.62,.42,2.26c.29,.63,.69,1.11,1.23,1.45,.54,.35,1.15,.52,1.86,.53,.71,0,1.33-.14,1.87-.46s.96-.78,1.28-1.41c.32-.63,.49-1.39,.51-2.24s-.12-1.61-.42-2.25c-.29-.63-.69-1.1-1.22-1.43-.52-.33-1.15-.51-1.85-.52h-.1Z"></path>
      </g>
      <g>
        <path d="M561.39,65.46l-.28,14.02-2.68-.05,.28-14.02s2.68,.05,2.68,.05Z" fill="#3f8d4c"></path>
        <path d="M561.6,79.99l-3.68-.07,.29-15.02,3.68,.07s-.29,15.02-.29,15.02Zm-2.66-1.05l1.68,.03,.26-13.02-1.68-.03s-.26,13.02-.26,13.02Z"></path>
      </g>
      <g>
        <path d="M564.2,68.8c.61-1.08,1.44-1.91,2.48-2.5s2.2-.87,3.47-.85c1.49,.03,2.79,.46,3.9,1.28,1.11,.83,1.87,1.95,2.29,3.38l-3.08-.06c-.29-.68-.71-1.19-1.26-1.53-.55-.35-1.19-.53-1.91-.54-.78-.02-1.47,.16-2.09,.53-.61,.37-1.1,.9-1.45,1.59-.35,.69-.54,1.5-.56,2.44s.13,1.74,.46,2.45c.32,.71,.79,1.26,1.38,1.65,.6,.39,1.29,.6,2.06,.61,.73,.01,1.37-.14,1.93-.47s1-.83,1.32-1.49l3.08,.06c-.47,1.42-1.28,2.52-2.41,3.3-1.13,.77-2.45,1.15-3.96,1.12-1.28-.03-2.42-.35-3.44-.98-1.01-.63-1.81-1.49-2.38-2.59s-.84-2.33-.82-3.71,.35-2.61,.96-3.69h.03Z" fill="#3f8d4c"></path>
        <path d="M570.04,80.27h-.17c-1.36-.03-2.6-.38-3.69-1.06-1.09-.67-1.95-1.61-2.56-2.78s-.9-2.5-.87-3.95c.03-1.46,.38-2.78,1.03-3.92,.66-1.15,1.55-2.06,2.67-2.69,1.11-.63,2.35-.93,3.73-.91,1.59,.03,3,.5,4.19,1.38,1.19,.89,2.02,2.11,2.47,3.64l.19,.65-4.08-.08-.13-.29c-.26-.59-.61-1.01-1.07-1.31-.47-.29-1.02-.45-1.66-.46-.68-.02-1.28,.14-1.82,.46-.53,.32-.95,.79-1.26,1.39-.32,.62-.48,1.37-.5,2.22s.12,1.6,.41,2.23c.29,.63,.68,1.1,1.2,1.45,.52,.34,1.11,.52,1.8,.53,.63,.02,1.19-.12,1.67-.4s.85-.7,1.12-1.28l.14-.29,4.08,.08-.21,.64c-.51,1.52-1.38,2.72-2.6,3.55-1.17,.8-2.54,1.21-4.07,1.21h0Zm-.04-14.33c-1.12,0-2.16,.26-3.07,.78-.96,.54-1.73,1.32-2.29,2.31h0c-.57,1-.87,2.16-.9,3.45-.03,1.29,.23,2.45,.76,3.47,.53,1.01,1.27,1.82,2.2,2.39,.93,.58,2,.88,3.18,.91,1.39,.03,2.62-.32,3.66-1.03,.86-.59,1.52-1.39,1.97-2.4l-2.06-.04c-.35,.61-.81,1.09-1.37,1.42-.64,.38-1.38,.55-2.2,.54-.87-.02-1.66-.25-2.33-.7-.68-.44-1.2-1.07-1.56-1.87-.35-.77-.52-1.67-.5-2.67,.02-1.01,.23-1.9,.61-2.66,.39-.77,.94-1.37,1.63-1.79s1.5-.61,2.36-.6c.82,.02,1.55,.22,2.17,.62,.55,.35,.99,.84,1.31,1.46l2.05,.04c-.41-1.01-1.04-1.84-1.88-2.46-1.02-.76-2.23-1.16-3.61-1.18h-.13Z"></path>
      </g>
      <g>
        <path d="M581.36,68.12l-.07,3.51,4.5,.09-.04,2.23-4.5-.09-.07,3.72,5.07,.1-.04,2.29-7.75-.15,.28-14.04,7.75,.15-.04,2.29-5.07-.1h-.02Z" fill="#3f8d4c"></path>
        <path d="M586.69,80.48l-8.75-.17,.3-15.04,8.75,.17-.06,3.29-5.07-.1-.05,2.51,4.5,.09-.06,3.23-4.5-.09-.05,2.72,5.07,.1-.06,3.29h-.02Zm-7.73-1.15l6.75,.13,.03-1.29-5.07-.1,.09-4.72,4.5,.09,.02-1.23-4.5-.09,.09-4.51,5.07,.1,.03-1.29-6.75-.13-.26,13.04h0Z"></path>
      </g>
    </g>
  </g>
  <path d="M837.88,639.6H27.88c-.28,0-.5-.22-.5-.5s.22-.5,.5-.5H837.88c.28,0,.5,.22,.5,.5s-.22,.5-.5,.5Z"></path>
</svg>
