<?xml version="1.0" encoding="UTF-8"?>
<svg xmlns="http://www.w3.org/2000/svg" id="a" width="865.76" height="682.89" viewBox="0 0 865.76 682.89">
  <g>
    <rect x="132.1" y="508.93" width="201" height="39" rx="5.92" ry="5.92" fill="#ffbd00"></rect>
    <g>
      <path d="M152.1,541.93c-.55,0-1-.45-1-1v-25c0-.55,.45-1,1-1s1,.45,1,1v25c0,.55-.45,1-1,1Z" fill="#58232c"></path>
      <path d="M172.23,541.93c-.55,0-1-.45-1-1v-25c0-.55,.45-1,1-1s1,.45,1,1v25c0,.55-.45,1-1,1Z" fill="#58232c"></path>
      <path d="M192.35,541.93c-.55,0-1-.45-1-1v-25c0-.55,.45-1,1-1s1,.45,1,1v25c0,.55-.45,1-1,1Z" fill="#58232c"></path>
      <path d="M212.48,541.93c-.55,0-1-.45-1-1v-25c0-.55,.45-1,1-1s1,.45,1,1v25c0,.55-.45,1-1,1Z" fill="#58232c"></path>
      <path d="M232.6,541.93c-.55,0-1-.45-1-1v-25c0-.55,.45-1,1-1s1,.45,1,1v25c0,.55-.45,1-1,1Z" fill="#58232c"></path>
      <path d="M252.73,541.93c-.55,0-1-.45-1-1v-25c0-.55,.45-1,1-1s1,.45,1,1v25c0,.55-.45,1-1,1Z" fill="#58232c"></path>
      <path d="M272.85,541.93c-.55,0-1-.45-1-1v-25c0-.55,.45-1,1-1s1,.45,1,1v25c0,.55-.45,1-1,1Z" fill="#58232c"></path>
      <path d="M292.98,541.93c-.55,0-1-.45-1-1v-25c0-.55,.45-1,1-1s1,.45,1,1v25c0,.55-.45,1-1,1Z" fill="#58232c"></path>
      <path d="M313.1,541.93c-.55,0-1-.45-1-1v-25c0-.55,.45-1,1-1s1,.45,1,1v25c0,.55-.45,1-1,1Z" fill="#58232c"></path>
    </g>
  </g>
  <g>
    <rect x="140.1" y="469.93" width="201" height="39" rx="5.92" ry="5.92" fill="#ffbd00"></rect>
    <g opacity=".2">
      <rect x="140.1" y="469.93" width="201" height="39" rx="5.92" ry="5.92" fill="#fff"></rect>
    </g>
    <g>
      <path d="M160.1,502.93c-.55,0-1-.45-1-1v-25c0-.55,.45-1,1-1s1,.45,1,1v25c0,.55-.45,1-1,1Z" fill="#58232c"></path>
      <path d="M180.23,502.93c-.55,0-1-.45-1-1v-25c0-.55,.45-1,1-1s1,.45,1,1v25c0,.55-.45,1-1,1Z" fill="#58232c"></path>
      <path d="M200.35,502.93c-.55,0-1-.45-1-1v-25c0-.55,.45-1,1-1s1,.45,1,1v25c0,.55-.45,1-1,1Z" fill="#58232c"></path>
      <path d="M220.48,502.93c-.55,0-1-.45-1-1v-25c0-.55,.45-1,1-1s1,.45,1,1v25c0,.55-.45,1-1,1Z" fill="#58232c"></path>
      <path d="M240.6,502.93c-.55,0-1-.45-1-1v-25c0-.55,.45-1,1-1s1,.45,1,1v25c0,.55-.45,1-1,1Z" fill="#58232c"></path>
      <path d="M260.73,502.93c-.55,0-1-.45-1-1v-25c0-.55,.45-1,1-1s1,.45,1,1v25c0,.55-.45,1-1,1Z" fill="#58232c"></path>
      <path d="M280.85,502.93c-.55,0-1-.45-1-1v-25c0-.55,.45-1,1-1s1,.45,1,1v25c0,.55-.45,1-1,1Z" fill="#58232c"></path>
      <path d="M300.98,502.93c-.55,0-1-.45-1-1v-25c0-.55,.45-1,1-1s1,.45,1,1v25c0,.55-.45,1-1,1Z" fill="#58232c"></path>
      <path d="M321.1,502.93c-.55,0-1-.45-1-1v-25c0-.55,.45-1,1-1s1,.45,1,1v25c0,.55-.45,1-1,1Z" fill="#58232c"></path>
    </g>
  </g>
  <g>
    <path d="M24.15,422c-.1,2.77,1.05,6.59,6.53,10.2,1.51,.99,3.13,1.79,4.81,2.46l12.12,4.87-4.63-11.64c-1.05-2.63-2.52-5.08-4.44-7.16-2.25-2.43-5.41-4.79-9.04-4.42-2.94,.3-5.23,2.74-5.34,5.69h-.01Z" fill="#2e8440"></path>
    <path d="M51.22,412.81c-2.04,1.88-3.92,5.4-2.61,11.83,.36,1.77,.94,3.48,1.65,5.14l4.78,12.2,5.3-11.69c1.12-2.6,1.82-5.37,1.93-8.2,.13-3.31-.43-7.22-3.26-9.52-2.29-1.87-5.63-1.77-7.8,.24h0Z" fill="#2e8440"></path>
    <path d="M22.26,453.06c2.04,1.88,5.7,3.48,12,1.66,1.73-.5,3.4-1.22,5-2.05l11.57-6.05-11.86-4.04c-2.68-.91-5.5-1.38-8.33-1.27-3.31,.13-7.16,1-9.24,4-1.68,2.43-1.32,5.75,.86,7.76h0Z" fill="#2e8440"></path>
    <path d="M37.47,473.84c2.77,.19,6.62-.85,10.39-6.22,1.04-1.48,1.89-3.08,2.61-4.73l5.23-11.96-11.78,4.27c-2.66,.97-5.16,2.37-7.29,4.22-2.5,2.17-4.95,5.26-4.69,8.91,.21,2.95,2.58,5.31,5.53,5.51Z" fill="#2e8440"></path>
    <path d="M77.42,422.97c-2.77-.11-6.59,1.05-10.2,6.53-.99,1.51-1.79,3.13-2.47,4.8l-4.87,12.11,11.64-4.63c2.63-1.05,5.08-2.52,7.16-4.44,2.43-2.24,4.79-5.41,4.42-9.04-.3-2.94-2.73-5.23-5.69-5.34h0Z" fill="#2e8440"></path>
    <path d="M85.07,446.37c-1.54-1.46-4.33-2.73-9.17-1.4-1.33,.37-2.61,.9-3.85,1.52l-8.93,4.51,9.04,3.23c2.04,.73,4.2,1.12,6.37,1.07,2.53-.06,5.49-.69,7.12-2.97,1.31-1.84,1.07-4.39-.57-5.95h-.01Z" fill="#2e8440"></path>
    <path d="M63.38,476.97c1.51-1.49,2.87-4.24,1.69-9.12-.32-1.34-.81-2.64-1.4-3.89l-4.22-9.07-3.51,8.93c-.79,2.02-1.25,4.16-1.27,6.33-.02,2.53,.51,5.51,2.74,7.21,1.8,1.37,4.36,1.21,5.96-.38h.01Z" fill="#2e8440"></path>
    <path d="M147.73,407.61c-2.2-.16-5.27,.65-8.29,4.9-.83,1.17-1.51,2.44-2.09,3.75l-4.21,9.48,9.38-3.35c2.12-.76,4.11-1.86,5.82-3.33,1.99-1.71,3.96-4.16,3.77-7.06-.16-2.34-2.03-4.23-4.37-4.4h-.01Z" fill="#2e8440"></path>
    <path d="M154.26,429.37c-1.44-1.67-4.18-3.27-9.32-2.41-1.41,.24-2.79,.65-4.13,1.16l-9.83,3.45,9.13,4.54c2.03,.97,4.22,1.6,6.46,1.77,2.62,.2,5.74-.14,7.66-2.32,1.55-1.77,1.56-4.42,.03-6.2h0Z" fill="#2e8440"></path>
    <path d="M123.11,405.22c-1.55,1.57-2.93,4.43-1.66,9.48,.35,1.39,.87,2.73,1.49,4.03l4.47,9.36,3.55-9.3c.8-2.1,1.26-4.33,1.25-6.58,0-2.63-.59-5.72-2.92-7.45-1.88-1.4-4.53-1.21-6.18,.46Z" fill="#2e8440"></path>
    <path d="M106.18,416.71c-.23,2.19,.49,5.29,4.65,8.43,1.14,.87,2.39,1.59,3.68,2.21l9.35,4.5-3.06-9.48c-.69-2.14-1.73-4.16-3.15-5.91-1.65-2.04-4.04-4.09-6.94-3.98-2.35,.08-4.29,1.9-4.53,4.23h0Z" fill="#2e8440"></path>
    <path d="M145.44,449.9c.16-2.2-.65-5.27-4.9-8.29-1.17-.83-2.44-1.51-3.75-2.1l-9.48-4.22,3.34,9.38c.76,2.12,1.86,4.11,3.32,5.82,1.71,1.99,4.16,3.96,7.06,3.77,2.34-.16,4.23-2.02,4.4-4.37h0Z" fill="#2e8440"></path>
    <path d="M126.64,455.3c1.21-1.18,2.29-3.36,1.37-7.25-.25-1.07-.64-2.1-1.1-3.1l-3.33-7.22-2.82,7.09c-.64,1.6-1.01,3.3-1.03,5.03-.02,2.01,.39,4.38,2.15,5.74,1.43,1.1,3.46,.97,4.74-.29h.02Z" fill="#2e8440"></path>
    <path d="M102.95,437.2c1.14,1.24,3.28,2.4,7.2,1.6,1.08-.22,2.12-.57,3.13-1l7.32-3.09-6.99-3.04c-1.58-.69-3.27-1.11-4.99-1.19-2.01-.09-4.39,.25-5.8,1.97-1.14,1.39-1.08,3.42,.14,4.75h0Z" fill="#2e8440"></path>
    <path d="M92.21,325.93c-2.33,2.09-4.52,6.03-3.14,13.31,.38,2,1.01,3.95,1.77,5.83l5.56,13.65,5.81-12.9c1.31-2.92,2.14-6.04,2.32-9.23,.21-3.73-.36-8.15-3.52-10.81-2.55-2.15-6.33-2.09-8.81,.14h.01Z" fill="#2e8440"></path>
    <rect x="332.29" y="120.73" width="327.09" height="427.98" rx="16.33" ry="16.33" fill="#5eafb3"></rect>
    <rect x="296.94" y="145.79" width="303.31" height="404.21" rx="15.28" ry="15.28" fill="#bedddf"></rect>
    <rect x="324.9" y="209.73" width="264.76" height="72.62" rx="10.76" ry="10.76" fill="#fff"></rect>
    <rect x="336.46" y="220.01" width="52.69" height="53.34" rx="4.43" ry="4.43" fill="#5eafb3"></rect>
    <path d="M486.83,227.4h-84.83c-.89,0-1.61-.72-1.61-1.61s.72-1.61,1.61-1.61h84.83c.89,0,1.61,.72,1.61,1.61s-.72,1.61-1.61,1.61h0Z" fill="#bedddf"></path>
    <path d="M573.59,242.82h-171.58c-.89,0-1.61-.72-1.61-1.61s.72-1.61,1.61-1.61h171.58c.89,0,1.61,.72,1.61,1.61s-.72,1.61-1.61,1.61Z" fill="#5eafb3"></path>
    <path d="M573.59,257.6h-171.58c-.89,0-1.61-.72-1.61-1.61s.72-1.61,1.61-1.61h171.58c.89,0,1.61,.72,1.61,1.61s-.72,1.61-1.61,1.61Z" fill="#5eafb3"></path>
    <path d="M573.59,271.74h-171.58c-.89,0-1.61-.72-1.61-1.61s.72-1.61,1.61-1.61h171.58c.89,0,1.61,.72,1.61,1.61s-.72,1.61-1.61,1.61Z" fill="#5eafb3"></path>
    <g>
      <rect x="324.9" y="298.41" width="264.76" height="72.62" rx="10.76" ry="10.76" fill="#fff"></rect>
      <rect x="336.46" y="308.69" width="52.69" height="53.34" rx="4.43" ry="4.43" fill="#5eafb3"></rect>
      <path d="M486.83,316.08h-84.83c-.89,0-1.61-.72-1.61-1.61s.72-1.61,1.61-1.61h84.83c.89,0,1.61,.72,1.61,1.61s-.72,1.61-1.61,1.61h0Z" fill="#bedddf"></path>
      <path d="M573.59,331.5h-171.58c-.89,0-1.61-.72-1.61-1.61s.72-1.61,1.61-1.61h171.58c.89,0,1.61,.72,1.61,1.61s-.72,1.61-1.61,1.61Z" fill="#5eafb3"></path>
      <path d="M573.59,346.29h-171.58c-.89,0-1.61-.72-1.61-1.61s.72-1.61,1.61-1.61h171.58c.89,0,1.61,.72,1.61,1.61s-.72,1.61-1.61,1.61Z" fill="#5eafb3"></path>
      <path d="M573.59,360.42h-171.58c-.89,0-1.61-.72-1.61-1.61s.72-1.61,1.61-1.61h171.58c.89,0,1.61,.72,1.61,1.61s-.72,1.61-1.61,1.61Z" fill="#5eafb3"></path>
    </g>
    <g>
      <rect x="324.9" y="384.52" width="264.76" height="72.62" rx="10.76" ry="10.76" fill="#fff"></rect>
      <rect x="336.46" y="394.8" width="52.69" height="53.34" rx="4.43" ry="4.43" fill="#5eafb3"></rect>
      <path d="M486.83,402.19h-84.83c-.89,0-1.61-.72-1.61-1.61s.72-1.61,1.61-1.61h84.83c.89,0,1.61,.72,1.61,1.61s-.72,1.61-1.61,1.61h0Z" fill="#bedddf"></path>
      <path d="M573.59,417.62h-171.58c-.89,0-1.61-.72-1.61-1.61s.72-1.61,1.61-1.61h171.58c.89,0,1.61,.72,1.61,1.61s-.72,1.61-1.61,1.61Z" fill="#5eafb3"></path>
      <path d="M573.59,432.4h-171.58c-.89,0-1.61-.72-1.61-1.61s.72-1.61,1.61-1.61h171.58c.89,0,1.61,.72,1.61,1.61s-.72,1.61-1.61,1.61Z" fill="#5eafb3"></path>
      <path d="M573.59,446.53h-171.58c-.89,0-1.61-.72-1.61-1.61s.72-1.61,1.61-1.61h171.58c.89,0,1.61,.72,1.61,1.61s-.72,1.61-1.61,1.61Z" fill="#5eafb3"></path>
    </g>
    <g>
      <rect x="324.9" y="473.2" width="264.76" height="72.62" rx="10.76" ry="10.76" fill="#fff"></rect>
      <rect x="336.46" y="483.48" width="52.69" height="53.34" rx="4.43" ry="4.43" fill="#5eafb3"></rect>
      <path d="M486.83,490.87h-84.83c-.89,0-1.61-.72-1.61-1.61s.72-1.61,1.61-1.61h84.83c.89,0,1.61,.72,1.61,1.61s-.72,1.61-1.61,1.61h0Z" fill="#bedddf"></path>
      <path d="M573.59,506.3h-171.58c-.89,0-1.61-.72-1.61-1.61s.72-1.61,1.61-1.61h171.58c.89,0,1.61,.72,1.61,1.61s-.72,1.61-1.61,1.61Z" fill="#5eafb3"></path>
      <path d="M573.59,521.08h-171.58c-.89,0-1.61-.72-1.61-1.61s.72-1.61,1.61-1.61h171.58c.89,0,1.61,.72,1.61,1.61s-.72,1.61-1.61,1.61Z" fill="#5eafb3"></path>
      <path d="M573.59,535.21h-171.58c-.89,0-1.61-.72-1.61-1.61s.72-1.61,1.61-1.61h171.58c.89,0,1.61,.72,1.61,1.61s-.72,1.61-1.61,1.61Z" fill="#5eafb3"></path>
    </g>
    <path d="M222.72,293.91l-37.12,20.98c-5.96,3.37-11.44,7.54-16.17,12.49-1.3,1.36-2.46,3.32-3.26,4.45,0,0,21.85,1.93,33.42,53.98l17.99,81.61s2.57,7.07,10.28,7.07c0,0,69.4-11.57,100.89-39.84l4.5-4.5-9-30.2s-15.42-48.2-17.99-84.18l-4.95-25.37c-.11-.57-.61-.98-1.19-.98h-47.84l-29.56,4.5h0Z" fill="#2e8440"></path>
    <path d="M164.24,333.28c-1.94,2.76-4.12,7.14-5.22,13.73-.42,2.49-.55,5.03-.42,7.56l4.36,87.79,8.9,3.48c3.63,1.42,7.75,.79,10.79-1.66l25.43-20.5-9.91-45.72s-8.99-34.7-25.23-46.12c-2.82-1.98-6.71-1.37-8.69,1.45h0Z" fill="#ffbd00"></path>
    <path d="M227.86,474.49l2.22,3.33c1.02,1.53,1.27,3.43,.69,5.17-2.75,8.16-10.78,33.85-14.47,66.04l146.52-1.29s4.59-73.35-31.44-104.15l-3.67-7.89s-26.58,25.29-99.83,38.79h-.02Z" fill="#58232c"></path>
    <g opacity=".2">
      <path d="M231.12,480.64c-.17,0-.31-.13-.32-.3,0-.18,.13-.33,.3-.34,.65-.03,65.87-3.73,100.04-36.63,.13-.12,.33-.12,.45,0,.12,.13,.12,.33,0,.45-34.34,33.07-99.8,36.78-100.45,36.81h-.02Z"></path>
    </g>
    <path d="M343.9,477.97c-4.56,0-8.62-1.15-12.15-3.46-10.31-6.73-12.43-21.18-12.45-21.33-.02-.18,.1-.34,.27-.36,.18-.02,.34,.1,.36,.27,.02,.14,2.1,14.31,12.17,20.88,5.59,3.65,12.6,4.32,20.84,1.99,.17-.05,.35,.05,.4,.22s-.05,.35-.22,.4c-3.26,.92-6.34,1.38-9.22,1.38h0Z" fill="#fff"></path>
    <path d="M353.4,548.2c-.16,0-.3-.12-.32-.28-.05-.43-5.16-43.4-11.01-70.11-.04-.17,.07-.34,.25-.38,.17-.04,.34,.07,.38,.25,5.86,26.74,10.97,69.74,11.02,70.17,.02,.18-.11,.34-.28,.36h-.04Z" fill="#fff"></path>
    <path d="M280.56,352.07c-.1,0-.2-.05-.27-.14l-13.95-20.29-2.3,1.68c-.14,.1-.34,.07-.45-.07-.1-.14-.07-.34,.07-.45l2.57-1.87c.07-.05,.16-.07,.24-.06,.09,.01,.16,.06,.21,.13l14.14,20.56c.1,.15,.06,.35-.08,.45-.06,.04-.12,.06-.18,.06h0Z" fill="#58232c"></path>
    <path d="M315.78,417.47l-7.59-4.67-.02-.03-3.57-5.45-32.13-49.05,6.09-4.19,31.94,48.32,3.47,5.25,.14,.57,2.21,8.84c.08,.32-.27,.57-.55,.4h0Z" fill="#bedddf"></path>
    <polygon points="314.11 408.23 308.17 412.77 304.6 407.32 310.5 402.4 313.97 407.66 314.11 408.23" fill="#5eafb3"></polygon>
    <path d="M232.1,331.23c-3.27,0-6.5-.74-9.44-2.22-14.97-7.52-11.69-28.48-11.66-28.69,.03-.18,.2-.3,.37-.26,.18,.03,.29,.19,.26,.37-.03,.21-3.24,20.71,11.31,28.01,5.16,2.59,11.28,2.85,16.79,.71,9.16-3.55,20.56-13.27,22.78-39.48,.01-.18,.17-.3,.35-.29,.18,.02,.31,.17,.29,.35-2.25,26.54-13.85,36.42-23.19,40.03-2.55,.99-5.22,1.48-7.87,1.48h.01Z" fill="#fff"></path>
    <path d="M358.95,382.59s-13.83,24.91-32.3,26.92c0,0-17.69-52.24-25.45-119.35-.03-.24,.26-.37,.42-.2,3.57,3.9,25.62,29.22,57.33,92.63Z" fill="#ffbd00"></path>
    <circle cx="291.48" cy="166.67" r="34.7" fill="#ffbd00"></circle>
    <path d="M632.07,407.66l-12.85,44.98s-8.35,14.78,9.64,95.11h109.24l3.86-58.48s1.93-46.27-19.28-81.61h-90.61Z" fill="#58232c"></path>
    <g opacity=".2">
      <path d="M641.44,548.07c-.16,0-.29-.12-.32-.28l-11.04-77.85c-.6-4.24-.47-8.52,.39-12.71l9.64-47.07c.04-.17,.2-.29,.38-.25,.17,.04,.29,.21,.25,.38l-9.64,47.07c-.84,4.12-.97,8.33-.38,12.49l11.04,77.85c.02,.18-.1,.34-.27,.36h-.05Z" fill="#fff"></path>
      <path d="M653,548.71c-.16,0-.29-.12-.32-.28l-11.04-77.85c-.6-4.24-.47-8.52,.39-12.71l9.64-47.07c.04-.17,.2-.29,.38-.25,.17,.04,.29,.21,.25,.38l-9.64,47.07c-.84,4.12-.97,8.33-.38,12.49l11.04,77.85c.02,.18-.1,.34-.27,.36h-.05Z" fill="#fff"></path>
      <path d="M663.93,549.35c-.16,0-.29-.12-.32-.28l-11.04-77.85c-.6-4.24-.47-8.52,.39-12.71l9.64-47.07c.04-.17,.2-.29,.38-.25,.17,.04,.29,.21,.25,.38l-9.64,47.07c-.84,4.12-.97,8.33-.38,12.49l11.04,77.85c.02,.18-.1,.34-.27,.36h-.05Z" fill="#fff"></path>
      <path d="M674.85,549.99c-.16,0-.29-.12-.32-.28l-11.04-77.85c-.6-4.24-.47-8.52,.39-12.71l9.64-47.07c.04-.17,.2-.29,.38-.25,.17,.04,.29,.21,.25,.38l-9.64,47.07c-.84,4.12-.97,8.33-.38,12.49l11.04,77.85c.02,.18-.1,.34-.27,.36h-.05Z" fill="#fff"></path>
      <path d="M681.55,548.07c-.18,0-.32-.14-.32-.32v-133.66c0-.18,.14-.32,.32-.32s.32,.14,.32,.32v133.66c0,.18-.14,.32-.32,.32Z" fill="#fff"></path>
    </g>
    <g opacity=".2">
      <path d="M719.35,549.35h-.05c-.18-.03-.3-.19-.27-.36l11.04-77.85c.59-4.17,.46-8.37-.38-12.49l-9.64-47.07c-.04-.17,.08-.34,.25-.38s.34,.08,.38,.25l9.64,47.07c.86,4.2,.99,8.47,.39,12.71l-11.04,77.85c-.02,.16-.16,.28-.32,.28h0Z" fill="#fff"></path>
      <path d="M707.79,549.99h-.05c-.18-.03-.3-.19-.27-.36l11.04-77.85c.59-4.17,.46-8.37-.38-12.49l-9.64-47.07c-.04-.17,.08-.34,.25-.38s.34,.08,.38,.25l9.64,47.07c.86,4.2,.99,8.47,.39,12.71l-11.04,77.85c-.02,.16-.16,.28-.32,.28h0Z" fill="#fff"></path>
      <path d="M696.86,550.64h-.05c-.18-.03-.3-.19-.27-.36l11.04-77.85c.59-4.17,.46-8.37-.38-12.5l-9.64-47.07c-.04-.17,.08-.34,.25-.38s.34,.08,.38,.25l9.64,47.07c.86,4.2,.99,8.47,.39,12.71l-11.04,77.85c-.02,.16-.16,.28-.32,.28Z" fill="#fff"></path>
      <path d="M685.94,551.28h-.05c-.18-.03-.3-.19-.27-.36l11.04-77.85c.59-4.17,.46-8.37-.38-12.5l-9.64-47.07c-.04-.17,.08-.34,.25-.38s.34,.08,.38,.25l9.64,47.07c.86,4.2,.99,8.47,.39,12.71l-11.04,77.85c-.02,.16-.16,.28-.32,.28Z" fill="#fff"></path>
    </g>
    <path d="M621.78,264.99s-9.64-14.14-17.99,2.57l-35.34,86.11,14.14,42.41,35.99-51.41,22.49-33.42-19.28-46.27h0Z" fill="#ffbd00"></path>
    <path d="M718.18,264.99l2.57,76.47,38.56,32.13s23.78-3.86,32.77-29.56l-53.98-74.54-5.9-6.98s-8.88-9.09-14.02,2.48Z" fill="#ffbd00"></path>
    <path d="M643.63,261.14l-21.85,3.86-7.71,39.2s-2.57,26.35,4.5,40.48l17.99,49.48,83.54,2.57,.64-55.26-2.57-76.47-37.27-6.43-37.27,2.57h0Z" fill="#2e8440"></path>
    <rect x="677.69" y="294.55" width="26.99" height="7.71" fill="#fff"></rect>
    <polygon points="636.56 394.16 632.07 407.66 722.67 407.66 720.1 396.73 636.56 394.16" fill="#ffbd00"></polygon>
    <path d="M543.11,161.28c-1.64,0-3.21-.56-4.49-1.62-1.48-1.22-2.39-2.94-2.56-4.85l-3.16-35.7c-.23-2.63,.58-5.2,2.29-7.21s4.11-3.23,6.75-3.43c5.28-.4,9.87,3.42,10.46,8.67l3.55,31.43c.06,.55-.33,1.04-.88,1.11-.55,.06-1.04-.33-1.11-.88l-3.55-31.43c-.47-4.18-4.13-7.22-8.33-6.91-2.1,.16-4.01,1.12-5.37,2.73-1.36,1.6-2.01,3.64-1.83,5.74l3.16,35.7c.12,1.37,.77,2.61,1.84,3.48,1.06,.87,2.4,1.28,3.77,1.13,2.79-.29,4.82-2.8,4.53-5.59l-3.57-34.73c-.05-.51-.3-.97-.7-1.29s-.9-.47-1.41-.41c-1.04,.12-1.8,1.05-1.69,2.09l2.93,29.26c.05,.55-.35,1.04-.9,1.09-.56,.05-1.04-.35-1.09-.9l-2.93-29.26c-.21-2.12,1.34-4.04,3.46-4.28,1.04-.12,2.07,.18,2.89,.84s1.33,1.6,1.44,2.65l3.57,34.73c.4,3.88-2.43,7.37-6.31,7.78-.25,.03-.51,.04-.76,.04v.02Z" fill="#58232c"></path>
    <polygon points="650.06 243.15 650.06 256.64 643.63 261.14 655.2 284.27 680.9 258.57 675.76 253.43 676.41 221.94 650.06 243.15" fill="#cb6e00"></polygon>
    <path d="M655.2,246.36h0c-1.75,0-3.45-.22-5.07-.63-8.9-2.26-15.49-10.33-15.49-19.93v-21.21c0-11.36,9.21-20.56,20.56-20.56h0c11.36,0,20.56,9.21,20.56,20.56v21.21c0,4.7-1.58,9.03-4.23,12.49-3.76,4.91-9.68,8.07-16.34,8.07h.01Z" fill="#cb6e00"></path>
    <path d="M655.2,246.68c-1.74,0-3.48-.22-5.15-.64-.17-.04-.28-.22-.23-.39,.04-.17,.22-.28,.39-.23,1.62,.41,3.3,.62,4.99,.62,6.56,0,12.74-3.2,16.54-8.57,.1-.15,.3-.18,.45-.08,.14,.1,.18,.3,.08,.45-3.91,5.53-10.29,8.84-17.06,8.84h-.01Z" fill="#a63124"></path>
    <path d="M739.38,242.5s12.21,15.42-1.29,26.99l-6.1-6.75c-1.29-1.52-3.2-2.74-5.14-3.21-2.8-.67-6.14-.32-8.68,5.46l-37.27-6.43-5.14-5.14v-48.84s-22.49-1.93-29.56-10.28c0,0-3.26,3-10.31,3.43,0,0-1.26,3-1.26,6.86v1.29s-15.42-9-5.78-23.78c0,0,2.57-4.5,10.28-5.14,0,0,5.65-16.94,35.29-14.12,17.55,1.67,30.72,17.14,29.11,34.69l.06-.04c.31-.21,1.9-1.26,4.09-2.14,5.82-2.33,15.95-3.5,18.21,15.02,0,0,15.42-2.57,19.92,11.57,0,0,3.86,12.21-6.43,20.56Z" fill="#a63124"></path>
    <path d="M675.92,244.1v-4.63s25.82-11.09,27.61-41.94l.06-.04c.31-.21,1.9-1.26,4.09-2.14,.73,5.35,3.84,38.99-31.76,48.75Z" fill="#ffbd00"></path>
    <path d="M704.68,241.22s5.78,3.86,18.64,1.29l-.64-21.21s-1.66-23.12-19.15-23.77l1.15,43.69h0Z" fill="#ffbd00"></path>
    <ellipse cx="677.37" cy="218.73" rx="6.75" ry="8.35" fill="#cb6e00"></ellipse>
    <rect x="679.14" y="354.32" width="99.61" height="154.06" rx="6.86" ry="6.86" transform="translate(222.93 1110.59) rotate(-83.93)" fill="#bedddf"></rect>
    <path d="M791.35,346.46l12.21,13.71c2.42,2.72,2.76,6.71,.82,9.79-6.58,10.47-25.08,36.67-69.49,82.04,0,0,.64,35.99-9,33.42,0,0-2.57,5.78-10.92,3.21,0,0-4.5,6.43-9.64,0,0,0-4.94,3.29-8.23,.66-1.52-1.21-2.04-3.3-1.46-5.15l2.61-8.36s-5.14-7.07,4.5-17.99l14.14-15.42,42.41-68.76s21.21-2.57,32.05-27.14h0Z" fill="#cb6e00"></path>
    <path d="M705.32,488.95s-.07,0-.1-.02c-.17-.06-.26-.24-.2-.41l3.86-11.57c.06-.17,.24-.26,.41-.2s.26,.24,.2,.41l-3.86,11.57c-.04,.13-.17,.22-.3,.22h-.01Z" fill="#a63124"></path>
    <path d="M714.96,488.95s-.07,0-.11-.02c-.17-.06-.26-.24-.2-.41l3.63-10.33c.06-.17,.24-.25,.41-.2,.17,.06,.26,.24,.2,.41l-3.63,10.33c-.05,.13-.17,.21-.3,.21h0Z" fill="#a63124"></path>
    <path d="M725.89,485.73s-.06,0-.08-.01c-.17-.05-.27-.22-.23-.39l1.93-7.07c.05-.17,.22-.27,.39-.23,.17,.05,.27,.22,.23,.39l-1.93,7.07c-.04,.14-.17,.24-.31,.24h0Z" fill="#a63124"></path>
    <path d="M541.46,290.7l26.99,62.98,11.94,35.79s-13.91,25.56-24.69,15.81c-.87-.79-1.57-1.75-2.15-2.77-2.06-3.66-8.05-15.38-15.3-39.19l-15.42-63.62s-11.57-6.43-19.92-16.07l-16.62-17.19c-1.12-1.16-1.11-3,.04-4.15h0c1.03-1.03,2.67-1.16,3.85-.29l10.75,7.94c.45,.33,1.04-.19,.76-.68l-11.01-19.28c-.59-1.03-.39-2.38,.55-3.09,.48-.36,1.15-.57,2.07-.37,.6,.13,1.2-.27,1.36-.86,.26-.98,1.05-2.18,3.33-2.47,.62-.08,1.2-.36,1.61-.82,.71-.8,2.11-1.8,4.22-.61,.58,.33,1.08,.79,1.52,1.3,2.74,3.24,16.44,19.23,23.93,23.84l-.64-10.92s-.62-10.49,7.82-7.89c.31,.1,.52,.4,.51,.73-.09,2.32-.27,11.49,1.95,18.73,0,0,6.43,14.78,2.57,23.13l-.02,.02Z" fill="#cb6e00"></path>
    <path d="M514.47,264.67c-.1,0-.2-.05-.26-.13l-15.42-21.21c-.1-.14-.07-.34,.07-.45s.34-.07,.45,.07l15.42,21.21c.1,.14,.07,.34-.07,.45-.06,.04-.12,.06-.19,.06h0Z" fill="#a63124"></path>
    <path d="M507.4,269.17c-.11,0-.22-.06-.28-.16l-13.44-22.52c-.09-.15-.04-.35,.11-.44s.35-.04,.44,.11l13.44,22.52c.09,.15,.04,.35-.11,.44-.05,.03-.11,.05-.16,.05h0Z" fill="#a63124"></path>
    <path d="M526.68,285.88c-.13,0-.25-.08-.3-.2-5.17-12.93,2.6-18.95,2.68-19.01,.14-.11,.34-.08,.45,.06,.11,.14,.08,.34-.06,.45-.07,.06-7.45,5.8-2.47,18.26,.07,.16-.01,.35-.18,.42-.04,.02-.08,.02-.12,.02h0Z" fill="#a63124"></path>
    <g opacity=".2">
      <circle cx="291.48" cy="166.67" r="26.99" fill="#fff"></circle>
    </g>
    <g>
      <path d="M302.18,181.12h-19.89c-.89,0-1.61-.72-1.61-1.61s.72-1.61,1.61-1.61h19.89c2.66,0,4.81-2.16,4.81-4.81s-2.16-4.82-4.81-4.82h-21.4c-4.43,0-8.03-3.6-8.03-8.03s3.6-8.03,8.03-8.03h19.89c.89,0,1.61,.72,1.61,1.61s-.72,1.61-1.61,1.61h-19.89c-2.65,0-4.81,2.16-4.82,4.81,0,2.65,2.16,4.81,4.82,4.81h21.4c4.43,0,8.03,3.6,8.03,8.03s-3.6,8.03-8.03,8.03h0Z" fill="#58232c"></path>
      <path d="M291.48,155.44c-.89,0-1.61-.72-1.61-1.61v-7.13c0-.89,.72-1.61,1.61-1.61s1.61,.72,1.61,1.61v7.13c0,.89-.72,1.61-1.61,1.61Z" fill="#58232c"></path>
      <path d="M291.48,181.12c-.89,0-1.61-.72-1.61-1.61v-11.92c0-.89,.72-1.61,1.61-1.61s1.61,.72,1.61,1.61v11.92c0,.89-.72,1.61-1.61,1.61Z" fill="#58232c"></path>
      <path d="M291.48,188.26c-.89,0-1.61-.72-1.61-1.61v-7.14c0-.89,.72-1.61,1.61-1.61s1.61,.72,1.61,1.61v7.14c0,.89-.72,1.61-1.61,1.61Z" fill="#58232c"></path>
    </g>
    <g>
      <path d="M376.7,170.29v3.61h-4.9v14.89h-4.51v-14.89h-4.9v-3.61h14.31Z" fill="#5eafb3"></path>
      <path d="M390.48,185.52h-6.9l-1.11,3.27h-4.72l6.69-18.5h5.22l6.69,18.5h-4.77l-1.11-3.27h0Zm-1.16-3.48l-2.29-6.77-2.27,6.77h4.56Z" fill="#5eafb3"></path>
      <path d="M409.71,188.79l-3.77-5.66-3.32,5.66h-5.11l5.93-9.41-6.06-9.09h5.24l3.71,5.59,3.27-5.59h5.11l-5.88,9.33,6.11,9.17h-5.23Z" fill="#5eafb3"></path>
      <path d="M436.17,179.18c-.49,.89-1.25,1.6-2.27,2.15-1.02,.54-2.28,.82-3.79,.82h-2.79v6.64h-4.51v-18.5h7.3c1.48,0,2.72,.26,3.74,.76,1.02,.51,1.78,1.21,2.29,2.11s.76,1.92,.76,3.08c0,1.07-.25,2.05-.74,2.94h.01Zm-4.48-1.23c.42-.4,.63-.97,.63-1.71s-.21-1.31-.63-1.71c-.42-.4-1.06-.61-1.92-.61h-2.45v4.64h2.45c.86,0,1.5-.2,1.92-.61h0Z" fill="#5eafb3"></path>
      <path d="M443.75,173.9v3.74h6.03v3.48h-6.03v4.06h6.82v3.61h-11.33v-18.5h11.33v3.61h-6.82Z" fill="#5eafb3"></path>
      <path d="M470.05,188.79h-4.51l-7.54-11.41v11.41h-4.51v-18.5h4.51l7.54,11.46v-11.46h4.51v18.5Z" fill="#5eafb3"></path>
      <path d="M484.83,185.52h-6.9l-1.11,3.27h-4.72l6.69-18.5h5.22l6.69,18.5h-4.77l-1.11-3.27h0Zm-1.16-3.48l-2.29-6.77-2.27,6.77h4.56Z" fill="#5eafb3"></path>
      <path d="M497.24,185.31h5.9v3.48h-10.41v-18.5h4.51v15.02Z" fill="#5eafb3"></path>
      <path d="M518.61,170.29v3.61h-4.9v14.89h-4.51v-14.89h-4.9v-3.61h14.31Z" fill="#5eafb3"></path>
      <path d="M536.73,170.29l-6.4,12.38v6.11h-4.51v-6.11l-6.4-12.38h5.11l3.58,7.75,3.56-7.75h5.06Z" fill="#5eafb3"></path>
    </g>
    <path d="M214.03,274.54l8.69,19.38-.56,13.4c-.12,2.94,.91,5.85,3.01,7.9,.99,.97,2.28,1.84,3.98,2.42,3.35,1.15,7.04,.55,10.04-1.33,5-3.11,12.65-10.53,13.08-26.9,0,0-3.86-3.86-6.43-11.57l-26.35-12.21-5.48,8.9h.02Z" fill="#cb6e00"></path>
    <path d="M216.37,216.41h0c11.39-5.61,25.17-.92,30.78,10.47l10.79,21.91c5.61,11.39,.92,25.17-10.47,30.78h0c-11.39,5.61-25.17,.92-30.78-10.47l-10.79-21.91c-5.61-11.39-.92-25.17,10.47-30.78Z" fill="#cb6e00"></path>
    <path d="M237.3,282.29c-5.24,0-10.42-1.77-14.65-5.19-.14-.11-.16-.31-.05-.45s.31-.16,.45-.05c6.55,5.29,15.41,6.52,23.13,3.23,.16-.07,.35,0,.42,.17,.07,.16,0,.35-.17,.42-2.94,1.26-6.05,1.87-9.14,1.87h0Z" fill="#a63124"></path>
    <path d="M220.09,274.48s-8.29,2.08-14.72-4.35c0,0-14.14-14.14-14.14-21.85,0,0-11.57-9-8.35-18.64,0,0-7.71-6.43,1.93-12.21,0,0,7.07-3.86,7.71-8.35,0,0-1.93-10.28,22.49-10.28,0,0,0-.07-.04-.19-1.63-8.47,5.21-16.18,13.82-15.68,1.79,.1,3.75,.34,5.77,.79,12.59,2.8,20.31,15.83,16.1,28.02-1.17,3.38-3.22,6.94-6.63,10.42,0,0-2.87-2.99-5.67-4.5,0,0-6.66,4.91-21.44,4.91,0,0-16.07,2.57-6.43,28.28l5.28,16.48,1.84,3.67s1.12,2.04,2.46,3.47h.02Z" fill="#a63124"></path>
    <ellipse cx="210.84" cy="258.56" rx="8.03" ry="10.28" transform="translate(-88.65 111.55) rotate(-24.66)" fill="#cb6e00"></ellipse>
    <path d="M257.63,330.22h0c1.68-1.16,3.99-.73,5.15,.95l15.78,22.95-6.09,4.19-15.78-22.95c-1.16-1.68-.73-3.99,.95-5.15h0Z" fill="#5eafb3"></path>
    <path d="M162.96,442.36s.64,37.27,16.07,46.27c0,0,14.14,9.64,31.49-12.85l55.26-66.19,25.7-12.85s15.74-6.75,11.25-17.03c0,0,.32-4.82-3.53-7.39,0,0,2.57-6.43-4.5-8.35,0,0,0-10.28-14.14-.64l-7.07,3.86s3.86-7.07-.64-11.57l-12.21,13.49s-9,9.64-9,19.92l-43.56,34.66-25.43,20.5c-3.04,2.45-7.15,3.08-10.79,1.66l-8.9-3.48h0Z" fill="#cb6e00"></path>
    <path d="M170.35,475.77h-.02c-.18-.01-.31-.16-.3-.34,1.28-22.38,12.31-31.42,12.42-31.51,.14-.11,.34-.09,.45,.05,.11,.14,.09,.34-.05,.45-.11,.09-10.92,8.97-12.18,31.04,0,.17-.15,.3-.32,.3h0Z" fill="#a63124"></path>
    <path d="M278.63,373.92c-.11,0-.22-.06-.28-.16-.09-.15-.04-.35,.11-.44l16.07-9.64c.15-.09,.35-.04,.44,.11s.04,.35-.11,.44l-16.07,9.64s-.11,.05-.17,.05h.01Z" fill="#a63124"></path>
    <path d="M283.77,381.63c-.11,0-.22-.06-.28-.16-.09-.15-.04-.35,.12-.44l15.42-9c.15-.09,.35-.04,.44,.12,.09,.15,.04,.35-.12,.44l-15.42,9s-.11,.04-.16,.04Z" fill="#a63124"></path>
    <path d="M287.95,388.38c-.11,0-.22-.06-.28-.16-.09-.15-.03-.35,.12-.44l14.78-8.35c.15-.09,.35-.03,.44,.12s.03,.35-.12,.44l-14.78,8.35s-.1,.04-.16,.04Z" fill="#a63124"></path>
    <rect x="26.72" y="547.75" width="818.69" height="25.7" rx="12.85" ry="12.85" fill="#2e8440"></rect>
    <path d="M327.3,408.87l7.24,18.71s2.85,10.95-9.5,58.81l-9.14,33.73s-22.49,7.07-27.63,17.35l-10.5,23.92c-.61,1.39-.11,3.02,1.18,3.83h0c1.55,.97,3.59,.38,4.38-1.26l8.03-16.57c.15-.32,.63-.18,.6,.17l-2.11,22.64c-.16,1.75,1.21,3.26,2.97,3.26h0c1.45,0,2.69-1.05,2.94-2.48l3.2-18.66c.03-.18,.3-.17,.31,.02l.46,8.3c.07,1.26,.22,2.52,.45,3.76l.91,4.87c.36,1.9,2.28,3.07,4.12,2.51h0c1.66-.5,2.64-2.21,2.22-3.9l-.59-2.37c-.8-3.2-.63-6.56,.47-9.67l1.23-3.45c.05-.15,.28-.11,.28,.05v10.09l.46,1.85c.42,1.69,2.3,2.55,3.85,1.77h0c1.21-.61,1.79-2.01,1.36-3.29l-.08-.23c-.7-2.11-.51-4.42,.55-6.39l2.91-5.41c.97-1.8,2.52-3.24,4.41-4.02,5.09-2.11,15.93-8.38,21.23-24.77,0,0,21.21-62.33,25.06-94.46,0,0,.64-25.06-13.49-39.84,0,0-9.98,18.49-27.8,21.13h.02Z" fill="#cb6e00"></path>
    <path d="M84.23,512.48l-11.47,36.9c-1.48,4.77,2.08,9.61,7.07,9.61h33.82c4.99,0,8.56-4.84,7.07-9.61l-11.47-36.9h-25.02Z" fill="#ffbd00"></path>
    <ellipse cx="96.74" cy="512.48" rx="12.51" ry="2.35" fill="#58232c"></ellipse>
    <path d="M96.35,513.22c-.18,0-.32-.14-.32-.32v-166.53c0-.18,.14-.32,.32-.32s.32,.14,.32,.32v166.53c0,.18-.14,.32-.32,.32Z" fill="#58232c"></path>
    <path d="M120.92,340.68c-3.13-.17-7.47,1.06-11.64,7.18-1.15,1.68-2.08,3.5-2.88,5.38l-6.15,13.46,13.64-4.88c2.99-1.13,5.79-2.75,8.17-4.88,2.79-2.49,5.52-6.02,5.17-10.12-.28-3.33-2.99-5.95-6.32-6.14h.01Z" fill="#2e8440"></path>
    <path d="M65.52,348.79c.08,3.13,1.65,7.36,8.08,11.04,1.77,1.01,3.65,1.8,5.59,2.44l13.99,4.64-6.03-12.8c-1.36-2.89-3.2-5.55-5.51-7.76-2.7-2.58-6.43-5.02-10.5-4.35-3.29,.55-5.7,3.45-5.62,6.79h0Z" fill="#2e8440"></path>
    <path d="M60.61,377.45c2.02,2.39,5.89,4.7,13.21,3.55,2.01-.32,3.98-.89,5.88-1.6l13.82-5.15-12.72-6.2c-2.87-1.4-5.97-2.32-9.15-2.6-3.72-.32-8.16,.11-10.91,3.19-2.23,2.49-2.28,6.26-.13,8.81h0Z" fill="#2e8440"></path>
    <path d="M133.26,369.92c-2.09-2.33-6.03-4.52-13.31-3.15-2,.38-3.95,1-5.83,1.77l-13.65,5.56,12.9,5.81c2.91,1.31,6.04,2.14,9.23,2.32,3.73,.21,8.16-.36,10.81-3.51,2.15-2.55,2.09-6.32-.13-8.81h-.02Z" fill="#2e8440"></path>
    <path d="M120.28,394.49c-.02-2.4-1.18-5.65-6.07-8.54-1.34-.79-2.78-1.42-4.25-1.93l-10.67-3.7,4.48,9.87c1.01,2.23,2.39,4.29,4.14,6,2.04,2.01,4.87,3.92,8,3.44,2.53-.38,4.4-2.58,4.38-5.14h-.01Z" fill="#2e8440"></path>
    <path d="M78.41,400.93c2.4,.05,5.69-1,8.73-5.79,.84-1.32,1.51-2.73,2.06-4.19l4.04-10.55-10,4.17c-2.26,.94-4.36,2.25-6.13,3.94-2.07,1.98-4.07,4.75-3.7,7.88,.3,2.54,2.44,4.48,5,4.54h0Z" fill="#2e8440"></path>
    <path d="M118.23,374.83h-42.99c-.18,0-.32-.14-.32-.32s.14-.32,.32-.32h42.99c.18,0,.32,.14,.32,.32s-.14,.32-.32,.32Z" fill="#58232c"></path>
    <path d="M96.4,370.25c-.08,0-.16-.03-.22-.08l-17.25-15.75c-.13-.12-.14-.32-.02-.45s.32-.14,.45-.02l17.04,15.55,16.92-15.55c.13-.12,.33-.11,.45,.02,.12,.13,.11,.33-.02,.45l-17.14,15.75c-.06,.06-.14,.08-.22,.08h.01Z" fill="#58232c"></path>
    <path d="M109.64,389.68c-.08,0-.15-.03-.21-.08l-13.08-11.54-13.08,11.54c-.13,.12-.34,.11-.45-.03-.12-.13-.1-.34,.03-.45l13.29-11.73c.12-.11,.3-.11,.43,0l13.29,11.73c.13,.12,.15,.32,.03,.45-.06,.07-.15,.11-.24,.11h-.01Z" fill="#58232c"></path>
    <path d="M96.19,486.95c-.08,0-.16-.03-.22-.09l-56.49-54.68c-.13-.12-.13-.33,0-.45,.12-.13,.33-.13,.45,0l56.49,54.68c.13,.12,.13,.33,0,.45-.06,.06-.15,.1-.23,.1h0Z" fill="#58232c"></path>
    <path d="M44.61,463.04c-.08,0-.16-.03-.22-.09-.13-.12-.13-.33,0-.45l26.48-27.36c.12-.13,.33-.13,.45,0,.13,.12,.13,.33,0,.45l-26.48,27.36c-.06,.06-.15,.1-.23,.1h0Z" fill="#58232c"></path>
    <path d="M34.08,448.03c-.17,0-.31-.13-.32-.3,0-.18,.12-.33,.3-.34l20.35-1.26,.53-20.31c0-.18,.17-.31,.33-.31,.18,0,.32,.15,.31,.33l-.54,20.61c0,.17-.14,.3-.3,.31l-20.65,1.28h-.01Z" fill="#58232c"></path>
    <path d="M58.88,467.21h-.02c-.18,0-.31-.16-.31-.34l.72-15.68c0-.16,.13-.29,.3-.31l15.65-1.23c.18-.02,.33,.12,.35,.29,.01,.18-.12,.33-.3,.35l-15.36,1.21-.71,15.4c0,.17-.15,.31-.32,.31Z" fill="#58232c"></path>
    <path d="M96.35,462.38c-.08,0-.17-.03-.23-.1-.12-.13-.12-.33,0-.45l43.03-42.38c.13-.12,.33-.12,.45,0,.12,.13,.12,.33,0,.45l-43.03,42.38c-.06,.06-.14,.09-.23,.09h.01Z" fill="#58232c"></path>
    <path d="M135.78,444.84c-.08,0-.17-.03-.23-.1l-20.98-21.81c-.12-.13-.12-.33,0-.45,.13-.12,.33-.12,.45,0l20.98,21.81c.12,.13,.12,.33,0,.45-.06,.06-.14,.09-.22,.09h0Z" fill="#58232c"></path>
    <path d="M143.81,432.54h-.02l-16.35-1.01c-.17-.01-.3-.15-.3-.31l-.43-16.44c0-.18,.14-.32,.31-.33,.17,0,.32,.14,.33,.31l.42,16.14,16.06,1c.18,.01,.31,.16,.3,.34,0,.17-.15,.3-.32,.3h0Z" fill="#58232c"></path>
    <path d="M124.05,447.72c-.17,0-.31-.13-.32-.31l-.52-12.18-12.15-1c-.18-.01-.31-.17-.29-.35,.01-.18,.17-.3,.35-.29l12.43,1.02c.16,.01,.29,.14,.29,.31l.53,12.46c0,.18-.13,.33-.31,.33h-.01Z" fill="#58232c"></path>
    <path d="M103.45,490.77c-1.28,.2-2.93,1.08-4.09,3.92-.32,.78-.54,1.6-.7,2.43l-1.14,6,4.92-3.17c1.11-.72,2.1-1.61,2.88-2.68,.91-1.25,1.71-2.91,1.21-4.55-.4-1.32-1.73-2.15-3.09-1.94h0Z" fill="#2e8440"></path>
    <path d="M96.32,505.22c-.06,0-.12-.02-.18-.05-.15-.1-.19-.3-.09-.44l5.22-8.03c.1-.15,.3-.19,.44-.09s.19,.3,.09,.44l-5.22,8.03c-.06,.09-.16,.15-.27,.15h0Z" fill="#58232c"></path>
    <g>
      <ellipse cx="640.42" cy="215.19" rx="1.93" ry="2.25" fill="#a63124"></ellipse>
      <ellipse cx="657.13" cy="215.83" rx="1.93" ry="2.25" fill="#a63124"></ellipse>
      <path d="M636.24,205.87c-.09,0-.19-.04-.25-.12-.11-.14-.09-.34,.05-.45s3.42-2.67,8.04-.69c.16,.07,.24,.26,.17,.42s-.26,.24-.42,.17c-4.26-1.83-7.26,.5-7.38,.6-.06,.05-.13,.07-.2,.07h0Z" fill="#a63124"></path>
      <path d="M661.95,207.8c-.08,0-.16-.03-.23-.09-3.67-3.67-8.61-1.87-8.66-1.85-.17,.06-.35-.02-.41-.19s.02-.35,.19-.41c.05-.02,5.38-1.96,9.34,2,.13,.13,.13,.33,0,.45-.06,.06-.15,.09-.23,.09h0Z" fill="#a63124"></path>
      <path d="M642.03,229.65c-.09,0-.18-.04-.25-.12l-2.58-3.1c-.47-.56-.52-1.35-.12-1.96l5.25-8.17c.1-.15,.29-.19,.44-.1,.15,.1,.19,.29,.1,.44l-5.25,8.17c-.24,.38-.21,.86,.07,1.2l2.58,3.1c.11,.14,.1,.34-.04,.45-.06,.05-.13,.07-.21,.07v.02Z" fill="#a63124"></path>
      <path d="M646.38,238.08c-2.3,0-3.82-.74-3.85-.75-.16-.08-.22-.27-.14-.43s.27-.22,.43-.14c.05,.03,5.04,2.42,10.58-1.89,.14-.11,.34-.08,.45,.06s.08,.34-.06,.45c-2.75,2.14-5.39,2.71-7.41,2.71h0Z" fill="#a63124"></path>
    </g>
    <path d="M676.73,221.3c-.07,0-.13-.02-.19-.06-.14-.11-.17-.31-.06-.45,1.76-2.34,.07-4.66,0-4.76-.11-.14-.08-.34,.07-.45,.14-.11,.34-.08,.45,.06,.02,.03,2.05,2.79,0,5.53-.06,.08-.16,.13-.26,.13h-.01Z" fill="#a63124"></path>
    <g>
      <path d="M217.08,240.9c-.05,0-.11,0-.16-.04-.16-.09-.21-.28-.12-.44,.03-.06,3.4-5.96,9.95-5.3,.18,.02,.31,.18,.29,.35-.02,.18-.18,.3-.35,.29-6.13-.61-9.3,4.92-9.33,4.98-.06,.11-.17,.17-.28,.17h0Z" fill="#a63124"></path>
      <path d="M237.33,231.58c-.18,0-.32-.14-.32-.32,0-.06,0-1.54,1.21-2.59,.97-.86,2.42-1.18,4.29-.94,.18,.02,.3,.18,.28,.36-.02,.18-.19,.3-.36,.28-1.69-.21-2.96,.05-3.79,.78-.98,.87-.99,2.1-.99,2.11,0,.18-.14,.32-.32,.32h0Z" fill="#a63124"></path>
      <ellipse cx="228.01" cy="247.65" rx="2.25" ry="2.89" transform="translate(-93.28 147.18) rotate(-30)" fill="#a63124"></ellipse>
      <ellipse cx="245.36" cy="238.65" rx="2.25" ry="2.89" transform="translate(-86.45 154.65) rotate(-30)" fill="#a63124"></ellipse>
      <path d="M248.25,257.29c-.18,0-.32-.14-.32-.32v-4.35l-11.46-10.19c-.13-.12-.14-.32-.03-.45,.12-.13,.32-.14,.45-.03l11.57,10.28c.07,.06,.11,.15,.11,.24v4.5c0,.18-.14,.32-.32,.32h0Z" fill="#a63124"></path>
      <path d="M241.44,268.89c-.53,0-.87-.03-.93-.04-.18-.02-.31-.18-.29-.35,.02-.18,.18-.3,.35-.29,.06,0,6.28,.57,9.35-3.72,.1-.15,.3-.18,.45-.07s.18,.3,.07,.45c-2.58,3.61-7.06,4.03-9,4.03h0Z" fill="#a63124"></path>
    </g>
    <path d="M211.47,261.78c-.06,0-.11-.01-.17-.05-3.36-2.01-2.75-6.55-2.72-6.75,.03-.17,.19-.3,.36-.27,.18,.02,.3,.19,.27,.36,0,.04-.57,4.31,2.42,6.11,.15,.09,.2,.29,.11,.44-.06,.1-.17,.16-.28,.16h0Z" fill="#a63124"></path>
  </g>
</svg>
