<?xml version="1.0" encoding="UTF-8"?>
<svg xmlns="http://www.w3.org/2000/svg" id="a" width="865.76" height="682.89" viewBox="0 0 865.76 682.89">
  <g>
    <g>
      <circle cx="230.77" cy="245.5" r="12.13" fill="#002346"></circle>
      <path d="M242.86,241.97c1.94,6.67-1.9,13.67-8.56,15.61-6.67,1.94-13.67-1.9-15.61-8.56s1.9-13.67,8.56-15.61c6.67-1.94,13.67,1.9,15.61,8.56Zm-23.28,6.79c1.8,6.17,8.29,9.73,14.46,7.93,6.17-1.8,9.73-8.29,7.93-14.46-1.8-6.17-8.29-9.73-14.46-7.93-6.17,1.8-9.73,8.29-7.93,14.46Z" fill="#0d2445"></path>
    </g>
    <g>
      <circle cx="238.23" cy="252.16" r="9.33" fill="#57bb54"></circle>
      <path d="M247.63,249.42c1.51,5.19-1.48,10.63-6.66,12.14-5.18,1.51-10.63-1.48-12.14-6.66s1.48-10.63,6.66-12.14c5.18-1.51,10.63,1.48,12.14,6.66Zm-17.91,5.22c1.37,4.69,6.3,7.39,10.99,6.03s7.39-6.3,6.03-10.99-6.3-7.39-10.99-6.03-7.39,6.3-6.03,10.99Z" fill="#002346"></path>
    </g>
  </g>
  <g>
    <g>
      <g>
        <path d="M642.17,113.02l13.13,3.31,5.49-21.69-13.38-3.38c.3-8.35-1.27-16.65-4.58-24.32l12.56-7.92-11.93-18.96-13.38,8.44c-4.7-4.52-10.14-8.2-16.1-10.85l4.14-16.31-21.69-5.49-4.29,16.91c-7.14-.16-14.24,1.04-20.93,3.54l-7.34-12.53-19.3,11.31,7.64,13c-4.88,4.6-8.9,10.04-11.86,16.06l-13.4-3.39-5.49,21.69,13.13,3.32c-.45,7.17,.49,14.36,2.76,21.18l-14.69,9.26,11.93,18.92,13.88-8.75c4.68,5.34,10.32,9.76,16.64,13l-3.81,14.9,21.69,5.5,3.61-14.27c7.16,.56,14.35-.25,21.2-2.4l6.87,11.73,19.31-11.31-6.58-11.21c6.27-5.28,11.31-11.86,14.77-19.29Zm-60.77,13.92c-20.79-6.12-32.6-28.24-26.37-49.42,6.23-21.18,28.13-33.4,48.92-27.29,20.79,6.11,32.6,28.24,26.37,49.42-6.23,21.18-28.13,33.38-48.92,27.29Z" fill="#e6e7e8"></path>
        <path d="M583.36,160.37l-22.66-5.75,3.84-15c-6.13-3.2-11.56-7.44-16.15-12.61l-13.94,8.79-12.46-19.77,14.78-9.32c-2.17-6.67-3.07-13.58-2.69-20.58l-13.21-3.34,5.74-22.66,13.49,3.41c2.92-5.83,6.79-11.06,11.5-15.56l-7.69-13.09,20.16-11.82,7.38,12.6c6.53-2.38,13.36-3.55,20.32-3.43l4.32-17.01,22.66,5.73-4.16,16.39c5.75,2.62,10.99,6.15,15.58,10.5l13.47-8.5,12.46,19.81-12.62,7.96c3.15,7.46,4.69,15.65,4.47,23.74l13.47,3.4-5.74,22.66-13.21-3.33c-3.4,7.17-8.37,13.66-14.4,18.81l6.62,11.28-20.17,11.82-6.92-11.82c-6.69,2.05-13.61,2.83-20.59,2.33l-3.63,14.35Zm-21.44-6.47l20.72,5.25,3.59-14.19,.42,.03c7.12,.55,14.19-.24,21.01-2.38l.38-.12,6.82,11.64,18.45-10.8-6.54-11.14,.32-.27c6.17-5.19,11.24-11.8,14.64-19.12l.17-.38,13.05,3.29,5.25-20.72-13.29-3.36v-.4c.31-8.22-1.26-16.55-4.52-24.1l-.17-.39,12.5-7.88-11.4-18.11-13.29,8.38-.28-.27c-4.67-4.5-10.04-8.12-15.96-10.75l-.38-.17,4.12-16.23-20.72-5.24-4.27,16.81h-.4c-7.11-.15-14.09,1.02-20.74,3.5l-.39,.15-7.3-12.46-18.44,10.8,7.59,12.91-.29,.27c-4.85,4.58-8.81,9.93-11.75,15.92l-.18,.36-13.31-3.37-5.24,20.72,13.05,3.3-.03,.41c-.44,7.14,.48,14.2,2.74,20.99l.12,.37-14.6,9.2,11.4,18.07,13.82-8.71,.28,.32c4.66,5.32,10.2,9.66,16.49,12.88l.35,.18-3.78,14.8Zm30.33-24.91c-3.64,0-7.32-.51-10.98-1.58h0c-21.02-6.19-33-28.64-26.71-50.04,6.3-21.41,28.52-33.81,49.54-27.63,10.19,2.99,18.57,9.85,23.62,19.3,5.04,9.45,6.14,20.37,3.09,30.74-5.2,17.68-21.28,29.21-38.56,29.21Zm-10.7-2.54c20.49,6,42.16-6.09,48.3-26.95,2.98-10.12,1.91-20.77-3.01-29.99-4.92-9.22-13.09-15.9-23.02-18.81-20.49-6.02-42.16,6.07-48.3,26.95-6.14,20.87,5.54,42.76,26.03,48.8h0Z" fill="#002346"></path>
      </g>
      <g>
        <path d="M594.3,82.68v199.26c0,6.03-4.88,10.91-10.91,10.91H281.63c-6.03,0-10.91-4.88-10.91-10.91V82.68c0-6.02,4.89-10.9,10.91-10.9h301.72c6.03-.02,10.93,4.86,10.95,10.89h0Z" fill="#fff"></path>
        <path d="M583.39,293.35H281.63c-6.29,0-11.41-5.12-11.41-11.41V82.67c0-6.29,5.12-11.4,11.41-11.4h301.75c3.04,0,5.9,1.18,8.05,3.32,2.16,2.15,3.36,5.02,3.37,8.07v199.27c0,6.29-5.12,11.41-11.41,11.41ZM281.63,72.28c-5.73,0-10.4,4.67-10.41,10.4v199.26c0,5.74,4.67,10.41,10.41,10.41h301.75c5.75,0,10.42-4.67,10.42-10.41V82.66c0-2.78-1.1-5.4-3.07-7.36-1.97-1.96-4.64-3.05-7.38-3.03H281.63Z" fill="#002346"></path>
      </g>
      <g>
        <rect x="432.28" y="126.43" width="161.66" height="139.86" fill="#fff"></rect>
        <path d="M594.44,266.78h-162.66V125.92h162.66v140.86Zm-161.66-1h160.66V126.92h-160.66v138.86Z" fill="#002346"></path>
      </g>
      <g>
        <path d="M594.3,82.68v30.54H270.72v-30.54c0-6.02,4.89-10.9,10.91-10.9h301.72c6.03-.02,10.93,4.86,10.95,10.89h0Z" fill="#57bb54"></path>
        <path d="M594.3,113.71H270.72c-.28,0-.5-.22-.5-.5v-30.54c0-6.29,5.12-11.4,11.41-11.4h301.75c3.04,0,5.9,1.18,8.05,3.32,2.16,2.15,3.36,5.02,3.37,8.07h0v30.55c0,.28-.22,.5-.5,.5Zm-323.08-1h322.58v-30.05c0-2.78-1.1-5.4-3.07-7.36-1.97-1.96-4.57-3.03-7.35-3.03H281.63c-5.73,0-10.4,4.67-10.41,10.4v30.04Z" fill="#002346"></path>
      </g>
      <g>
        <circle cx="319.1" cy="94.97" r="6.39" fill="#fff"></circle>
        <path d="M319.1,101.86c-3.8,0-6.89-3.09-6.89-6.89s3.09-6.89,6.89-6.89,6.89,3.09,6.89,6.89-3.09,6.89-6.89,6.89Zm0-12.78c-3.25,0-5.89,2.64-5.89,5.89s2.64,5.89,5.89,5.89,5.89-2.64,5.89-5.89-2.64-5.89-5.89-5.89Z" fill="#002346"></path>
      </g>
      <g>
        <circle cx="295.3" cy="94.97" r="6.39" fill="#fff"></circle>
        <path d="M295.3,101.86c-3.8,0-6.89-3.09-6.89-6.89s3.09-6.89,6.89-6.89,6.89,3.09,6.89,6.89-3.09,6.89-6.89,6.89Zm0-12.78c-3.25,0-5.89,2.64-5.89,5.89s2.64,5.89,5.89,5.89,5.89-2.64,5.89-5.89-2.64-5.89-5.89-5.89Z" fill="#002346"></path>
      </g>
      <g>
        <circle cx="342.89" cy="94.97" r="6.39" fill="#fff"></circle>
        <path d="M342.89,101.86c-3.8,0-6.89-3.09-6.89-6.89s3.09-6.89,6.89-6.89,6.89,3.09,6.89,6.89-3.09,6.89-6.89,6.89Zm0-12.78c-3.25,0-5.89,2.64-5.89,5.89s2.64,5.89,5.89,5.89,5.89-2.64,5.89-5.89-2.64-5.89-5.89-5.89Z" fill="#002346"></path>
      </g>
      <g>
        <rect x="303.86" y="131.87" width="57.13" height="4.26" fill="#57bb54"></rect>
        <path d="M360.99,136.62h-57.13c-.28,0-.5-.22-.5-.5v-4.26c0-.28,.22-.5,.5-.5h57.13c.28,0,.5,.22,.5,.5v4.26c0,.28-.22,.5-.5,.5Zm-56.63-1h56.13v-3.26h-56.13v3.26Z" fill="#002346"></path>
      </g>
      <g>
        <rect x="367.02" y="131.47" width="45.06" height="4.66" fill="#57bb54"></rect>
        <path d="M412.08,136.62h-45.06c-.28,0-.5-.22-.5-.5v-4.66c0-.28,.22-.5,.5-.5h45.06c.28,0,.5,.22,.5,.5v4.66c0,.28-.22,.5-.5,.5Zm-44.56-1h44.06v-3.66h-44.06v3.66Z" fill="#002346"></path>
      </g>
      <g>
        <rect x="303.86" y="145" width="120.64" height="3.9" fill="#57bb54"></rect>
        <path d="M424.5,149.4h-120.64c-.28,0-.5-.22-.5-.5v-3.9c0-.28,.22-.5,.5-.5h120.64c.28,0,.5,.22,.5,.5v3.9c0,.28-.22,.5-.5,.5Zm-120.14-1h119.64v-2.9h-119.64v2.9Z" fill="#002346"></path>
      </g>
      <g>
        <rect x="457.73" y="250.2" width="55.01" height="4.26" fill="#57bb54"></rect>
        <path d="M512.74,254.95h-55.01c-.28,0-.5-.22-.5-.5v-4.26c0-.28,.22-.5,.5-.5h55.01c.28,0,.5,.22,.5,.5v4.26c0,.28-.22,.5-.5,.5Zm-54.51-1h54.01v-3.26h-54.01v3.26Z" fill="#002346"></path>
      </g>
      <g>
        <rect x="518.55" y="249.8" width="43.39" height="4.66" fill="#57bb54"></rect>
        <path d="M561.94,254.95h-43.39c-.28,0-.5-.22-.5-.5v-4.66c0-.28,.22-.5,.5-.5h43.39c.28,0,.5,.22,.5,.5v4.66c0,.28-.22,.5-.5,.5Zm-42.89-1h42.39v-3.66h-42.39v3.66Z" fill="#002346"></path>
      </g>
      <g>
        <rect x="457.73" y="264.33" width="116.17" height="3.9" fill="#57bb54"></rect>
        <path d="M573.9,268.73h-116.17c-.28,0-.5-.22-.5-.5v-3.9c0-.28,.22-.5,.5-.5h116.17c.28,0,.5,.22,.5,.5v3.9c0,.28-.22,.5-.5,.5Zm-115.67-1h115.17v-2.9h-115.17v2.9Z" fill="#002346"></path>
      </g>
      <g>
        <rect x="457.73" y="275.82" width="91.59" height="3.9" fill="#57bb54"></rect>
        <path d="M549.32,280.21h-91.59c-.28,0-.5-.22-.5-.5v-3.9c0-.28,.22-.5,.5-.5h91.59c.28,0,.5,.22,.5,.5v3.9c0,.28-.22,.5-.5,.5Zm-91.09-1h90.59v-2.9h-90.59v2.9Z" fill="#002346"></path>
      </g>
      <g>
        <rect x="455.91" y="211.72" width="23.39" height="16.51" fill="#57bb54"></rect>
        <path d="M479.3,228.73h-23.39c-.28,0-.5-.22-.5-.5v-16.51c0-.28,.22-.5,.5-.5h23.39c.28,0,.5,.22,.5,.5v16.51c0,.28-.22,.5-.5,.5Zm-22.89-1h22.39v-15.51h-22.39v15.51Z" fill="#002346"></path>
      </g>
      <g>
        <rect x="489.84" y="199.64" width="23.39" height="29.19" fill="#fbe493"></rect>
        <path d="M513.73,229.32h-24.39v-30.19h24.39v30.19Zm-23.39-1h22.39v-28.19h-22.39v28.19Z" fill="#002346"></path>
      </g>
      <g>
        <rect x="521.33" y="186.19" width="23.39" height="42.95" fill="#e6e7e8"></rect>
        <path d="M545.22,229.63h-24.39v-43.95h24.39v43.95Zm-23.39-1h22.39v-41.95h-22.39v41.95Z" fill="#002346"></path>
      </g>
      <g>
        <rect x="553.43" y="173.35" width="23.39" height="56.1" fill="#fff"></rect>
        <path d="M577.32,229.95h-24.39v-57.1h24.39v57.1Zm-23.39-1h22.39v-55.1h-22.39v55.1Z" fill="#002346"></path>
      </g>
      <g>
        <path d="M374.82,179.94c27.64,2.91,47.69,27.68,44.78,55.32-2.91,27.64-27.68,47.69-55.32,44.78-25.64-2.7-45.09-24.33-45.06-50.11h50.44l5.16-50Z" fill="#57bb54"></path>
        <path d="M369.59,280.82c-1.77,0-3.56-.09-5.36-.28-25.97-2.73-45.54-24.49-45.51-50.6,0-.28,.22-.5,.5-.5h49.99l5.11-49.55c.01-.13,.08-.25,.18-.34,.1-.08,.23-.13,.37-.11,13.5,1.42,25.64,8.02,34.19,18.57,8.54,10.55,12.46,23.8,11.04,37.3-2.75,26.07-24.86,45.51-50.51,45.51Zm-49.87-50.39c.22,25.38,19.32,46.45,44.61,49.11,27.32,2.86,51.9-17.01,54.77-44.34,1.39-13.24-2.45-26.22-10.83-36.57-8.27-10.22-19.98-16.65-33.02-18.15l-5.11,49.5c-.03,.25-.24,.45-.5,.45h-49.94Z" fill="#002346"></path>
      </g>
      <g>
        <path d="M333.94,176.56l27.29,45.81,8.31-52.22s-18.75-4.75-35.6,6.41Z" fill="#fff"></path>
        <path d="M361.51,223.81l-28.24-47.4,.4-.26c16.84-11.15,35.81-6.53,36-6.48l.44,.11-8.6,54.03Zm-26.89-47.09l26.34,44.21,8.02-50.39c-2.9-.61-19.42-3.47-34.36,6.18Z" fill="#002346"></path>
      </g>
      <g>
        <path d="M317.3,172.76l26.35,43.68-52.46,1.18s-1.89-29.9,26.11-44.86Z" fill="#e6e7e8"></path>
        <path d="M290.73,218.13l-.03-.48c-.02-.3-1.59-30.39,26.37-45.33l.42-.22,27.04,44.83-53.8,1.21Zm26.4-44.71c-25.04,13.67-25.52,39.82-25.44,43.68l51.1-1.15-25.66-42.53Z" fill="#002346"></path>
      </g>
      <g>
        <path d="M703.3,160.16l7.14-.27-.45-11.83-7.3,.28c-1.09-4.29-3.12-8.29-5.95-11.69l5.2-5.9-8.85-7.81-5.54,6.28c-3.06-1.59-6.37-2.65-9.79-3.11l-.34-8.9-11.83,.45,.35,9.23c-3.65,.98-7.08,2.65-10.11,4.92l-5.6-5.26-8.11,8.62,5.83,5.49c-1.79,3.06-3.02,6.42-3.63,9.92l-7.31,.28,.45,11.84,7.16-.28c.85,3.7,2.39,7.21,4.56,10.33l-6.08,6.9,8.89,7.83,5.74-6.52c3.17,2.03,6.7,3.43,10.4,4.14l.3,8.1,11.87-.46-.3-7.79c3.72-.78,7.25-2.27,10.41-4.38l5.24,4.93,8.12-8.63-5-4.71c2.36-3.63,3.9-7.72,4.53-12Zm-28.79,16.13c-11.68,.2-21.32-9.1-21.53-20.79s9.1-21.32,20.79-21.53c11.68-.2,21.32,9.1,21.53,20.79,0,.12,0,.24,0,.37,.09,11.57-9.19,21.03-20.76,21.16h-.03Z" fill="#e6e7e8"></path>
        <path d="M667.95,193.71l-.3-8.2c-3.49-.72-6.79-2.03-9.82-3.91l-5.79,6.58-9.64-8.49,6.15-6.98c-2.02-2.99-3.47-6.27-4.32-9.78l-7.25,.28-.49-12.84,7.41-.28c.62-3.29,1.77-6.43,3.42-9.34l-5.91-5.56,8.79-9.35,5.66,5.32c2.9-2.11,6.11-3.67,9.56-4.65l-.35-9.33,12.83-.49,.34,8.98c3.21,.48,6.29,1.46,9.19,2.92l5.61-6.36,9.6,8.47-5.25,5.96c2.64,3.27,4.59,7.11,5.68,11.16l7.4-.28,.49,12.83-7.23,.27c-.65,4.04-2.14,7.97-4.32,11.44l5.06,4.77-8.81,9.36-5.32-5c-3.02,1.96-6.33,3.35-9.84,4.14l.3,7.87-12.87,.5Zm-10.31-13.41l.36,.23c3.13,2,6.57,3.37,10.23,4.07l.39,.08,.3,8,10.87-.42-.3-7.71,.41-.09c3.67-.77,7.12-2.22,10.24-4.31l.33-.22,5.17,4.86,7.44-7.9-4.94-4.65,.23-.35c2.3-3.54,3.84-7.62,4.45-11.8l.06-.41,7.06-.27-.41-10.83-7.2,.28-.1-.39c-1.06-4.19-3.09-8.17-5.85-11.49l-.27-.33,5.15-5.85-8.1-7.15-5.47,6.2-.35-.18c-3.02-1.57-6.26-2.6-9.63-3.06l-.42-.06-.34-8.82-10.83,.41,.35,9.13-.39,.1c-3.61,.97-6.95,2.6-9.94,4.84l-.34,.25-5.54-5.21-7.43,7.89,5.76,5.42-.2,.34c-1.77,3.02-2.97,6.3-3.57,9.75l-.07,.4-7.21,.28,.41,10.84,7.07-.28,.09,.4c.83,3.66,2.34,7.08,4.48,10.16l.22,.32-6.01,6.82,8.14,7.17,5.69-6.47Zm16.5-3.51c-11.77,0-21.44-9.47-21.65-21.28-.1-5.79,2.06-11.26,6.08-15.42,4.02-4.16,9.42-6.51,15.2-6.61,11.97-.21,21.83,9.34,22.04,21.28v.38c.09,11.81-9.44,21.53-21.25,21.66l-.04-.5v.5c-.12,0-.25,0-.38,0Zm.01-42.32c-.12,0-.24,0-.37,0-5.52,.1-10.67,2.34-14.5,6.31-3.83,3.97-5.89,9.19-5.79,14.71,.2,11.39,9.66,20.52,21.02,20.3h.04c11.26-.13,20.35-9.39,20.26-20.66v-.36c-.2-11.27-9.43-20.3-20.65-20.3Z" fill="#002346"></path>
      </g>
      <g>
        <path d="M193.36,653.66h0c1.78,0,3.25-1.41,3.33-3.19l6.5-150.32h-7.41l-5.74,150c-.1,1.83,1.29,3.4,3.12,3.5,.07,0,.13,0,.2,0Z" fill="#e6e7e8"></path>
        <path d="M193.37,654.16h-.22c-2.11-.13-3.72-1.94-3.6-4.04l5.76-150.47h8.41l-6.52,150.84c-.09,2.05-1.77,3.67-3.83,3.67Zm2.9-153.51l-5.72,149.52c-.09,1.56,1.1,2.9,2.65,2.99h.17c1.52,0,2.76-1.19,2.83-2.71l6.48-149.8h-6.41Z" fill="#002346"></path>
      </g>
      <g>
        <path d="M161.24,500.16l-41.75,150.78c-.44,1.6-1.9,2.71-3.56,2.71h0c-2.04,0-3.7-1.67-3.69-3.71,0-.32,.04-.65,.13-.96l42.14-154.57,6.73,5.75Z" fill="#e6e7e8"></path>
        <path d="M115.94,654.15h0c-2.32,0-4.2-1.9-4.19-4.21,0-.37,.05-.73,.15-1.09l42.35-155.33,7.57,6.47-.08,.31-41.75,150.78c-.5,1.81-2.16,3.08-4.04,3.08Zm38.85-158.85l-41.93,153.81c-.07,.27-.11,.55-.11,.83,0,1.76,1.43,3.2,3.19,3.21h0c1.43,0,2.69-.96,3.07-2.34l41.67-150.47-5.89-5.03Z" fill="#002346"></path>
      </g>
      <g>
        <path d="M281.63,653.66h0c2,0,3.65-1.58,3.73-3.58l6.25-148h-7.51l-6.19,147.66c-.1,2.06,1.48,3.81,3.54,3.92,.06,0,.12,0,.18,0Z" fill="#e6e7e8"></path>
        <path d="M281.64,654.16h-.21c-1.13-.06-2.17-.56-2.93-1.39-.76-.84-1.14-1.92-1.08-3.05l6.21-148.13h8.51l-6.27,148.52c-.09,2.28-1.95,4.06-4.23,4.06Zm2.95-151.58l-6.17,147.18c-.04,.87,.25,1.69,.83,2.33,.58,.64,1.37,1.02,2.23,1.06h.16s0,0,0,0c1.74,0,3.16-1.36,3.23-3.1l6.23-147.48h-6.51Z" fill="#002346"></path>
      </g>
      <g>
        <path d="M214.62,357.2s-11-21.37-28.87-23.59c-4.78-.59-9.56,1.03-13,4.4-4.93,4.85-11.56,14.8-14.33,34.48,0,0-4.11,42.72-1.13,67.26h22.47s27-.56,30.81,49.35v13h83.91l-40.58-49.76-33.82-11-2.6-68.33-2.86-15.81Z" fill="#fff"></path>
        <path d="M295.54,502.61h-85.46v-13.5c-3.73-48.78-30.07-48.83-30.3-48.85h-22.92l-.05-.44c-2.95-24.31,1.09-66.94,1.13-67.37,2.77-19.71,9.4-29.8,14.48-34.79,3.57-3.5,8.46-5.15,13.41-4.54,17.93,2.23,29.14,23.64,29.25,23.86l.05,.14,2.86,15.81,2.59,68.05,33.63,10.94,.09,.11,41.25,50.58Zm-84.46-1h82.36l-39.82-48.83-34.01-11.06-2.61-68.68-2.84-15.66c-.69-1.29-11.54-21.16-28.45-23.26-4.65-.57-9.24,.98-12.59,4.26-4.96,4.88-11.45,14.78-14.19,34.19-.04,.4-4.02,42.41-1.18,66.69h22.04c.8,0,27.53,.51,31.29,49.81v12.54Z" fill="#002346"></path>
      </g>
      <g>
        <path d="M341.69,445.45s-25,7.25-50.72,54.7c0,0-7.15-7.67-25.26-5.38,0,0-74.06,18.34-73.14-45.39,0,0,2.61-17.69,9.33-25.58l48.47,1.75h11.46l6.15,5.06s53.75,4.9,73.71,14.84Z" fill="#fbe493"></path>
        <path d="M291.08,501l-.48-.5c-.07-.08-7.23-7.46-24.83-5.23-.31,.08-37.28,8.98-58.61-7.97-10.26-8.15-15.34-20.91-15.09-37.92,.11-.79,2.71-17.99,9.45-25.9l.16-.18,48.71,1.76h11.62l6.17,5.08c3.21,.3,54.45,5.27,73.73,14.88l1.14,.57-1.23,.36c-.25,.07-25.12,7.79-50.42,54.46l-.33,.61Zm-18.81-7.15c11.29,0,16.94,4.08,18.57,5.5,22.33-40.93,44.38-51.85,49.57-53.95-20.44-9.45-71.95-14.23-72.47-14.28h-.15s-6.13-5.06-6.13-5.06h-11.28l-48.24-1.74c-6.44,7.78-9.04,24.97-9.06,25.14-.24,16.62,4.71,29.11,14.71,37.06,20.95,16.64,57.44,7.86,57.81,7.77,2.42-.31,4.64-.44,6.68-.44Z" fill="#002346"></path>
      </g>
      <g>
        <rect x="246.99" y="288.85" width="14.94" height="21.28" fill="#f2b3c1"></rect>
        <path d="M262.43,310.63h-15.94v-22.28h15.94v22.28Zm-14.94-1h13.94v-20.28h-13.94v20.28Z" fill="#002346"></path>
      </g>
      <g>
        <rect x="239.28" y="247.43" width="45" height="53" rx="22.5" ry="22.5" fill="#f2b3c1"></rect>
        <path d="M261.78,300.93c-12.68,0-23-10.32-23-23v-8c0-12.68,10.32-23,23-23s23,10.32,23,23v8c0,12.68-10.32,23-23,23Zm0-53c-12.13,0-22,9.87-22,22v8c0,12.13,9.87,22,22,22s22-9.87,22-22v-8c0-12.13-9.87-22-22-22Z" fill="#002346"></path>
      </g>
      <g>
        <path d="M265.39,432.01c7-.35,7-23.52,7-23.52l22.65-5.8,10.36-23.35h0c7.54-1.21,16.46,.89,16.46,.89l12.3-1.64c.85-.12,1.44-.9,1.33-1.74-.01-.09-.03-.17-.06-.26l-1.83-5.65-8.46-25.11-1.24-3.69c-.25-.82-1.1-1.3-1.93-1.09l-24.24,5.25h0l-3.34,.73c-16.53-30.19-31.2-34.09-31.2-34.09,2.73,6.39,14.14,31.61,14.14,31.61,4.69,13.51-1.75,27.91-1.75,27.91l-11.76,42.84s-5.44,17.07,1.57,16.71Z" fill="#57bb54"></path>
        <path d="M265.18,432.51c-1.14,0-2.05-.43-2.7-1.28-2.98-3.86,.71-15.59,.87-16.09l11.75-42.82c.09-.21,6.33-14.45,1.76-27.61-.1-.21-11.43-25.26-14.13-31.58l-.4-.94,.99,.26c.61,.16,14.96,4.27,31.33,34l27.22-5.9c1.08-.27,2.19,.36,2.51,1.43l9.7,28.79,1.83,5.65c.04,.12,.06,.23,.08,.34,.07,.54-.07,1.08-.4,1.52-.33,.44-.81,.72-1.35,.79l-12.39,1.65-.09-.02c-.09-.02-8.7-2.01-16-.92l-10.35,23.32-22.51,5.76c-.03,3.18-.52,23.28-7.47,23.63h0c-.08,0-.16,0-.24,0Zm-1.06-118.7c3.33,7.67,13.56,30.29,13.67,30.52,4.72,13.58-1.68,28.17-1.75,28.32l-11.73,42.77c-.04,.14-3.7,11.75-1.04,15.2,.49,.64,1.19,.92,2.1,.88h0c5.35-.27,6.52-16.71,6.52-23.02v-.39l22.79-5.84,10.37-23.38,.27-.04c7.23-1.16,15.55,.65,16.56,.88l12.21-1.63c.28-.04,.52-.18,.69-.41,.17-.22,.24-.5,.2-.78,0-.06-.02-.12-.04-.17l-1.83-5.64-9.7-28.79c-.18-.58-.76-.9-1.33-.76l-27.96,6.06-.18-.33c-13.7-25.02-26.21-31.9-29.84-33.45Z" fill="#002346"></path>
      </g>
      <g>
        <path d="M263.19,312.94v-5c0-.51-.38-.94-.89-1l-15.32-1.19h-6.2c-.55,0-1,.45-1,1v6.67s11.63-3.56,20.77,13.9c0,0,13.72,21.29,7.15,44.21,0,0-6.14,27.32-13,36.29,0,0-4,4.42-4.32,17.62h11.46c.36-3.46,1.03-6.89,2-10.23l11.76-42.84s7-15.88,1.75-27.91l-14.16-31.52Z" fill="#fff"></path>
        <path d="M262.3,425.94h-12.42v-.51c.33-13.23,4.29-17.76,4.46-17.94,6.69-8.75,12.82-35.79,12.88-36.06,6.44-22.47-6.95-43.62-7.08-43.83-8.84-16.89-19.74-13.83-20.2-13.69l-.64,.19v-7.34c0-.83,.67-1.5,1.5-1.5h6.2l15.36,1.19c.78,.08,1.36,.73,1.35,1.5v4.89l14.12,31.42c5.28,12.1-1.46,27.66-1.75,28.32l-11.74,42.77c-.96,3.31-1.63,6.72-1.98,10.15l-.05,.45Zm-11.4-1h10.5c.37-3.33,1.03-6.65,1.97-9.87l11.76-42.83c.09-.23,6.87-15.89,1.77-27.58l-14.2-31.61v-5.11c0-.26-.19-.48-.44-.5l-15.3-1.19h-6.16c-.28,0-.5,.23-.5,.5v6.05c2.62-.44,12.72-.99,20.71,14.29,.12,.18,13.74,21.71,7.19,44.58-.24,1.09-6.24,27.5-13.08,36.46-.06,.07-3.8,4.41-4.2,16.82Z" fill="#002346"></path>
      </g>
      <g>
        <path d="M216.61,300.98s7.19-11.46,8.2-34.28c0,0,.82-19.16,12.44-19,0,0,14.67-14.85,33.47-7.28,0,0,12.84,3,17.2,24.53,0,0,10.31,43.1,2.06,53.19,0,0-1.15-21.78-3.21-27.74l1.6,30.72-3.64,3.52-.94-15.67-.69,17h-3s-.67-.75-1.76-1.89c.35-4.46,1.13-16.54-.15-23.28,0,0-.4,13.12-1.34,21.76-3.61-3.6-9.33-8.28-13.68-9.6v-4.71s.17-1.25-1.27-1.24l-.62-6.58s20.45,.65,23.19-24.63c.25-4.62-.55-9.25-2.33-13.52h-12.49l-4-4.71,1.07,3.66-7.8,1.69s-5.54-5.86-6.88-8.72c0,0-.46,10.55-4,13.45l-8.53,8.57s-1.55-2.87-4.07-3.53c-.84-.21-1.71,.21-2.07,1-.74,1.69-1.42,5.25,1.83,10.9,0,0,2.95,4.94,7.79,4.22,.64,1.09,1.36,2.13,2.13,3.13,.62,.82,1.29,1.61,2,2.36v11.73h-6.2c-.55,0-1,.45-1,1v6.67s-6.24,2.56-11.89,11c-2.69-1.45-5.2-3.21-7.46-5.26,2-3,5-8.19,5.8-13.3-1.98,4.18-4.42,8.14-7.27,11.79-.49-.51-1-1-1.44-1.6,4.31-7.16,7.71-20.08,7.71-20.08-1.26,4.78-6.35,13.64-9.12,18.26h0c-1.02-1.4-1.59-3.08-1.62-4.81,0-3.02,.67-6,1.98-8.72Z" fill="#002346"></path>
        <path d="M283.58,326.48h-3.7l-.15-.17s-.67-.75-1.75-1.88l-.15-.16,.02-.22c.25-3.22,.67-9.67,.53-15.54-.22,4.37-.55,9.82-1.02,14.11l-.11,1.04-.74-.74c-3.58-3.57-9.26-8.2-13.47-9.48l-.35-.11v-5.08c0-.06,.03-.36-.13-.55-.12-.13-.38-.21-.63-.19h-.46s-.72-7.6-.72-7.6l.57,.02c.82,.03,20.02,.33,22.68-24.18,.24-4.38-.51-8.87-2.17-12.97h-12.39l-2.63-3.1,.56,1.92-8.6,1.86-.19-.2c-.19-.21-4.13-4.39-6.13-7.41-.29,3.13-1.23,9.86-4.06,12.18l-8.97,9.01-.32-.59s-1.48-2.69-3.76-3.29c-.6-.15-1.23,.15-1.49,.72-.68,1.55-1.35,4.96,1.81,10.45,.02,.04,2.85,4.64,7.28,3.97l.33-.05,.17,.29c.63,1.06,1.33,2.1,2.1,3.08,.61,.81,1.27,1.59,1.97,2.32l.14,.14v12.43h-6.7c-.28,0-.5,.22-.5,.5v7l-.31,.13c-.06,.03-6.18,2.62-11.67,10.82l-.25,.38-.4-.21c-2.72-1.46-5.27-3.26-7.56-5.33l-.32-.29,.24-.36c1.28-1.92,3.24-5.16,4.55-8.73-1.54,2.72-3.29,5.34-5.21,7.81l-.36,.46-.67-.7c-.41-.42-.83-.85-1.21-1.37l-.2-.27,.17-.29c1.81-3.01,3.47-7.09,4.78-10.77-1.81,3.48-3.85,7-5.33,9.47l-.39,.65-.44-.61c-1.09-1.49-1.68-3.25-1.72-5.1,0-3.08,.7-6.17,2.03-8.95l.03-.05c.07-.11,7.13-11.64,8.12-34.04,.03-.8,.97-19.42,12.74-19.48,1.64-1.55,16-14.43,33.86-7.24,.46,.1,13.13,3.3,17.5,24.89,.42,1.75,10.27,43.44,1.96,53.61l-.82,1-.07-1.29c0-.16-.67-12.47-1.86-21.01l1.26,24.16-4.59,4.43-.41-6.83-.31,7.54Zm-3.26-1h2.3l.67-16.52h1s.88,14.58,.88,14.58l2.69-2.61-1.77-34.03,1.16,3.34c1.77,5.12,2.85,21.35,3.15,26.39,6.48-11.63-2.86-51.15-2.96-51.56-4.24-20.94-16.7-24.13-16.83-24.16-18.34-7.38-32.85,7-33,7.15l-.15,.15h-.21c-11.04-.16-11.93,18.33-11.93,18.52-.98,22.16-7.87,33.86-8.26,34.5-1.26,2.63-1.92,5.56-1.92,8.48,.03,1.37,.41,2.7,1.1,3.87,2.88-4.84,7.42-12.89,8.64-17.36,0-.04,.02-.06,.02-.08,0,0,0,0,0,0l.97,.25h0s-.02,.06-.03,.1c-.32,1.19-3.55,12.96-7.56,19.82,.25,.31,.51,.59,.79,.88,2.67-3.49,4.98-7.27,6.86-11.24l1.48-3.12-.53,3.41c-.8,5.1-3.78,10.29-5.64,13.14,2.03,1.8,4.27,3.37,6.65,4.69,4.95-7.22,10.22-10.04,11.55-10.67v-6.35c0-.83,.67-1.5,1.5-1.5h5.7v-11.03c-.67-.71-1.31-1.47-1.9-2.26-.71-.92-1.38-1.89-1.99-2.89-4.91,.51-7.83-4.29-7.96-4.5-3.38-5.87-2.61-9.63-1.86-11.36,.46-1.02,1.57-1.56,2.65-1.28,2.01,.53,3.42,2.29,4.04,3.21l8.08-8.12c3.37-2.76,3.85-13.02,3.85-13.12l.09-2.03,.86,1.84c1.15,2.46,5.62,7.33,6.6,8.38l7-1.52-1.58-5.4,5.37,6.32h12.59l.13,.31c1.8,4.32,2.62,9.07,2.37,13.74-2.5,23.09-19.78,24.95-23.14,25.09l.53,5.63c.39,.07,.7,.24,.93,.5,.46,.52,.38,1.19,.37,1.27v4.28c4.06,1.37,9.1,5.33,12.79,8.88,.85-8.5,1.23-20.57,1.23-20.69l.14-4.56,.85,4.49c1.25,6.61,.56,18.25,.17,23.19,.71,.75,1.23,1.31,1.47,1.57Z" fill="#002346"></path>
      </g>
      <g>
        <path d="M241.74,642.03l2.94,.47,10.45-27.25,2.82-.59,1.06,23c.35,14.56,29.59,12.33,29.59,12.33,7.4-1.17-9.79-15.25-9.79-15.25h0c-3.92-1.21-7.96-2-12.05-2.36,0,0,.78-17-4.33-24.75,0,0,10.05-12.88,6.34-20.62-17.13-5-19.62,12.25-19.62,12.25l-7.41,42.77Z" fill="#57bb54"></path>
        <path d="M284.39,650.63c-6.07,0-17.01-.75-22.53-5.74-2.15-1.95-3.28-4.37-3.35-7.21l-1.03-22.4-1.98,.41-10.5,27.37-3.84-.61,7.5-43.27c.04-.3,1.19-7.8,7.01-11.54,3.52-2.27,7.98-2.64,13.25-1.1l.21,.06,.1,.2c3.54,7.38-4.68,18.87-6.18,20.86,4.52,7.26,4.33,21.44,4.24,24.27,3.96,.38,7.88,1.17,11.68,2.34l.17,.09c1.31,1.08,12.81,10.63,11.75,14.54-.23,.86-.97,1.4-2.2,1.59-.23,.02-1.88,.14-4.3,.14Zm-25.96-36.57l1.09,23.59c.06,2.56,1.08,4.74,3.02,6.5,7.4,6.69,25.85,5.37,26.04,5.36,1.16-.19,1.3-.7,1.35-.86,.67-2.46-6.57-9.52-11.34-13.44-3.85-1.18-7.84-1.96-11.85-2.31l-.48-.04,.02-.48c0-.17,.71-16.93-4.25-24.45l-.2-.3,.22-.28c.1-.12,9.64-12.5,6.38-19.89-4.88-1.38-8.98-1.03-12.2,1.04-5.43,3.49-6.55,10.79-6.57,10.86l-7.33,42.28,2.04,.33,10.4-27.13,3.66-.77Z" fill="#002346"></path>
      </g>
      <g>
        <path d="M309.96,597.94c-2.75,6.2,1.32,11.92,1.32,11.92,8.33,11.1,9.52,17,9.52,17h13.86c-6.23-4.36-9.91-26.17-9.91-26.17-.39-9.51,7.54-29.32,7.54-29.32l23-77c10.71-40.52-13.59-49-13.59-49-7.93,2-20.51,13.77-20.51,13.77l-12.32,106.62,.86,14.77-3.21,2.29c4.92,5.83,3.44,15.12,3.44,15.12Z" fill="#f2b3c1"></path>
        <path d="M336.25,627.36h-15.85l-.08-.4c-.01-.06-1.29-5.95-9.43-16.8-.18-.25-4.18-6-1.4-12.36,.11-.8,1.17-9.32-3.34-14.66l-.35-.41,3.43-2.45-.84-14.49,12.34-106.89,.13-.13c.52-.48,12.77-11.88,20.73-13.89l.15-.04,.14,.05c.25,.09,24.61,9.1,13.91,49.6l-23,77.02c-.09,.24-7.9,19.86-7.52,29.16,.03,.15,3.71,21.59,9.7,25.78l1.3,.91Zm-15.06-1h12.13c-5.68-5.86-8.92-24.74-9.06-25.59-.4-9.57,7.24-28.78,7.57-29.59l22.99-76.96c10.04-37.97-11.22-47.56-13.14-48.33-7.29,1.94-18.64,12.24-20,13.49l-12.3,106.44,.88,14.96-3,2.14c4.6,5.94,3.27,14.72,3.21,15.1l-.04,.12c-2.6,5.86,1.23,11.37,1.27,11.43,7.18,9.57,9.09,15.27,9.5,16.79Z" fill="#002346"></path>
      </g>
      <g>
        <path d="M294.3,641.84h2.41l7.23-28.77c4.55,1.88,8.76,8.82,10.68,12.36,.67,1.27,.97,2.71,.84,4.15-.87,12.23,9.74,12,9.74,12h22.46c4.67-3.92-13-14.65-13-14.65h-13.86s-1.19-5.94-9.52-17c0,0-4.07-5.72-1.32-11.92,0,0,1.48-9.3-3.44-15.13l-6.67,5.22c-7.73,5.88-5.5,12.61-4.15,15.27,.45,.9,.65,1.9,.58,2.9l-1.98,35.57Z" fill="#57bb54"></path>
        <path d="M297.1,642.33h-3.33l2.01-36.1c.06-.92-.12-1.83-.53-2.65-1.39-2.74-3.75-9.77,4.29-15.89l7.04-5.51,.31,.37c5.01,5.94,3.61,15.14,3.55,15.53l-.04,.12c-2.6,5.86,1.23,11.37,1.27,11.43,7.19,9.54,9.09,15.27,9.5,16.79h13.61l.12,.07c.56,.34,13.64,8.34,14.02,13.23,.07,.89-.25,1.64-.96,2.23l-.14,.12h-22.64c-.17,0-4.51,.06-7.52-3.11-2.09-2.2-3-5.37-2.71-9.43,.12-1.35-.15-2.69-.78-3.88-1.96-3.61-5.78-9.81-9.9-11.89l-7.18,28.56Zm-2.27-1h1.49l7.28-28.95,.53,.22c4.6,1.9,8.82,8.7,10.93,12.58,.72,1.37,1.03,2.9,.9,4.43-.27,3.75,.55,6.67,2.43,8.65,2.7,2.85,6.76,2.81,6.8,2.81h22.28c.36-.35,.51-.76,.47-1.27-.27-3.6-9.66-10.08-13.42-12.38h-14.13l-.08-.4c-.01-.06-1.29-5.99-9.43-16.8-.18-.25-4.18-6-1.41-12.36,.11-.79,1.12-8.94-3.03-14.29l-6.28,4.92c-7.45,5.67-5.29,12.13-4.01,14.65,.49,.98,.71,2.07,.63,3.16l-1.95,35.04Z" fill="#002346"></path>
      </g>
      <g>
        <path d="M192.56,582.82s-4.35-8.24-11.33-8.77h-30.32c-3.27-.04-6.45,1.06-9,3.11-2.31,1.92-4.09,4.4-5.19,7.19,0,0-1.18,3.52-3.78,3.21,0,0-2.91-.92-.77-5.5,1.51-3.69,3.83-6.98,6.79-9.64,2.57-2.1,5.79-3.23,9.11-3.2h34.93c.84,0,1.67,.13,2.47,.39,2.93,.95,5.52,2.72,7.46,5.11l-.37,8.1Z" fill="#fff"></path>
        <path d="M133.28,588.08c-.13,0-.26,0-.39-.02-.14-.03-1.18-.38-1.71-1.57-.52-1.19-.34-2.75,.54-4.64,1.52-3.71,3.91-7.11,6.91-9.8,2.67-2.19,6-3.38,9.45-3.33h34.92c.89,0,1.78,.14,2.62,.42,3.02,.98,5.68,2.8,7.69,5.27l.12,.15-.46,10.12-.86-1.62c-.04-.08-4.31-8-10.93-8.5h-30.28c-3.15-.04-6.23,1.03-8.69,3-2.23,1.86-3.97,4.28-5.04,6.98-.04,.13-1.22,3.55-3.91,3.55Zm14.66-18.36c-3.15,0-6.22,1.09-8.65,3.09-2.87,2.58-5.18,5.85-6.64,9.44-.75,1.6-.94,2.92-.55,3.82,.33,.78,.99,1.01,1.02,1.02,2.08,.22,3.14-2.86,3.15-2.89,1.13-2.89,2.98-5.44,5.34-7.42,2.64-2.12,5.94-3.27,9.33-3.23h30.31c5.45,.41,9.28,5.16,10.91,7.61l.29-6.27c-1.87-2.24-4.33-3.9-7.11-4.8-.75-.24-1.53-.37-2.32-.37h-34.93s-.09,0-.14,0Z" fill="#002346"></path>
      </g>
      <g>
        <path d="M281.3,569.22h-72.8s-5.26,.56-8.44,3.65l-.43,10s1.75-6.62,14.57-7.8h66.77l.33-5.85Z" fill="#fff"></path>
        <path d="M198.95,587.26l.63-14.61,.14-.14c3.27-3.17,8.51-3.77,8.74-3.79h73.38s-.39,6.85-.39,6.85h-67.24c-12.22,1.13-14.07,7.37-14.09,7.43l-1.17,4.26Zm1.61-14.17l-.33,7.61c1.58-2.15,5.34-5.34,13.93-6.13h66.34s.27-4.85,.27-4.85h-72.27s-4.92,.56-7.95,3.37Z" fill="#002346"></path>
      </g>
      <g>
        <path d="M335.11,393.16c.66,.13,1.34,.11,2-.05,.92-.29,1.43-1.28,1.13-2.2-.1-.31-.28-.59-.53-.8-2.39-2.15-9-7.72-15.79-9.92,0,0-10.59-2.39-16.46-.89l-5.46,12.27s10,4.83,13.89,5.21h14.3s1.68,0,1.31-1.31c0,0,3.73,2.52,5.14,.37,.58-.77,.75-1.76,.47-2.68Z" fill="#f2b3c1"></path>
        <path d="M328.19,397.28h-14.3c-3.98-.39-13.7-5.06-14.11-5.26l-.44-.21,5.76-12.93,.23-.06c5.92-1.51,16.26,.79,16.69,.89,6.86,2.22,13.48,7.76,16.01,10.04,.31,.26,.55,.62,.67,1.02,.38,1.18-.28,2.45-1.46,2.83-.51,.13-1.02,.18-1.53,.15,.07,.85-.17,1.71-.69,2.4-.35,.53-.86,.88-1.52,1.01-1.24,.25-2.7-.37-3.56-.83-.05,.12-.1,.21-.16,.29-.49,.65-1.49,.67-1.61,.67Zm-27.54-5.95c1.96,.93,9.98,4.63,13.28,4.95h14.25c.24,0,.67-.09,.81-.28,.02-.03,.1-.13,.02-.4l-.37-1.31,1.13,.76c.58,.39,2.35,1.36,3.55,1.11,.39-.08,.68-.28,.9-.6,.5-.66,.64-1.5,.41-2.26l-.24-.8,.82,.16c.59,.11,1.2,.1,1.78-.04,.62-.2,.99-.91,.78-1.56-.07-.22-.2-.42-.38-.57-2.5-2.25-8.99-7.68-15.62-9.83-.06-.01-10.21-2.27-15.95-.94l-5.16,11.6Z" fill="#002346"></path>
      </g>
      <g>
        <path d="M327.4,352.54s10.7-6.07,19.46-6.23c.63,0,1.26,.04,1.89,.13,3.54,.49,14.71,2.48,10.23,7.78,0,0,1.39,2.78-2.36,2.64,0,0,2.08,3.9-1.95,4,0,0,1.81,2.64-2.23,2.5,0,0-9-1.94-13.05-1.27-.83,.12-1.45,.82-1.48,1.65,0,.73,.4,1.55,2,1.93,0,0,8.77-1.06,6.55,2.42-2.45,1.49-5.31,2.14-8.16,1.85-1.55-.27-2.99-.96-4.17-2-.48-.37-1.11-.49-1.69-.32l-5.04-15.08Z" fill="#f2b3c1"></path>
        <path d="M339.61,370.5c-.45,0-.9-.02-1.35-.07-1.68-.29-3.2-1.02-4.45-2.12-.33-.25-.79-.34-1.22-.22l-.46,.14-5.32-15.93,.36-.2c.44-.25,10.91-6.13,19.7-6.29,.67,0,1.33,.04,1.97,.14,3.79,.52,10.33,1.86,11.51,4.94,.41,1.07,.15,2.22-.79,3.42,.16,.45,.35,1.32-.11,2.04-.38,.58-1.07,.92-2.07,1,.26,.73,.5,1.89-.03,2.79-.36,.62-1,1.01-1.91,1.16,.15,.44,.24,1.01-.05,1.54-.41,.75-1.39,1.1-2.96,1.03-.18-.03-9.04-1.92-12.95-1.28-.59,.09-1.04,.58-1.06,1.18,0,.24,0,1.01,1.53,1.4,1.2-.14,6.07-.59,7.15,1.13,.25,.4,.41,1.08-.21,2.06l-.06,.1-.1,.06c-2.14,1.3-4.62,1.99-7.12,1.99Zm-6.63-3.46c.52,0,1.04,.17,1.47,.5,1.13,1,2.49,1.65,3.95,1.9,2.65,.27,5.4-.34,7.71-1.72,.23-.39,.28-.69,.15-.89-.57-.91-4.02-.94-6.28-.66h-.09s-.09,0-.09,0c-2.07-.49-2.38-1.72-2.38-2.42,.04-1.09,.85-1.99,1.91-2.14,4.09-.68,12.86,1.2,13.23,1.28,1.01,.04,1.76-.16,1.96-.52,.21-.38-.12-1.01-.25-1.21l-.51-.76,.91-.02c.94-.02,1.55-.27,1.82-.73,.45-.77-.06-2.09-.3-2.54l-.41-.77,.87,.03c1.02,.05,1.7-.15,1.96-.55,.33-.52-.06-1.36-.06-1.37l-.15-.29,.21-.25c.84-1,1.11-1.86,.81-2.65-1.06-2.77-8.48-4-10.72-4.31-.6-.09-1.21-.12-1.82-.12-7.64,.14-16.93,4.93-18.86,5.97l4.77,14.27c.06,0,.13,0,.19,0Z" fill="#002346"></path>
      </g>
      <g>
        <path d="M354.67,401.94h83.11l2.57-11h0l11.16-47.48c.36-1.54-.59-3.08-2.12-3.44-.22-.05-.44-.08-.67-.08h-78.17c-.86,0-1.61,.59-1.81,1.43l-14.07,60.57Z" fill="#fbe493"></path>
        <path d="M438.18,402.44h-84.14l14.21-61.18c.25-1.07,1.2-1.82,2.3-1.82h78.17c.26-.01,.52,.03,.78,.09,.87,.21,1.61,.74,2.08,1.5,.47,.76,.62,1.67,.41,2.54l-13.82,58.87Zm-82.88-1h82.08l2.48-10.61,11.16-47.48c.15-.61,.04-1.25-.29-1.78-.33-.54-.85-.91-1.46-1.06-.18-.04-.37-.07-.55-.06h-78.17c-.63,0-1.18,.43-1.32,1.04l-13.93,59.96Z" fill="#002346"></path>
      </g>
      <g>
        <circle cx="404.73" cy="373.35" r="6.87" fill="#fff"></circle>
        <path d="M404.73,380.71c-4.06,0-7.37-3.31-7.37-7.37s3.31-7.37,7.37-7.37,7.37,3.31,7.37,7.37-3.31,7.37-7.37,7.37Zm0-13.74c-3.51,0-6.37,2.86-6.37,6.37s2.86,6.37,6.37,6.37,6.37-2.86,6.37-6.37-2.86-6.37-6.37-6.37Z" fill="#002346"></path>
      </g>
      <g>
        <path d="M370.55,339.94h-5.63c-.83,0-1.55,.56-1.74,1.36l-13.59,55.48h-33.69c-2.82,0-5.49,1.29-7.23,3.51l-1.25,1.6h47.25l14.07-60.52s.11-1.07,1.81-1.43Z" fill="#fff"></path>
        <path d="M355.07,402.39h-48.67l1.88-2.41c1.85-2.35,4.63-3.7,7.62-3.7h33.3l13.5-55.1c.25-1.03,1.16-1.74,2.21-1.74h10.42l-4.68,.99c-1.29,.27-1.41,.97-1.42,1l-14.17,60.96Zm-46.62-1h45.83l13.98-60.13h0s.04-.39,.39-.82h-3.73c-.6,0-1.11,.4-1.25,.98l-13.68,55.86h-34.08c-2.69,0-5.18,1.21-6.84,3.32l-.62,.79Z" fill="#002346"></path>
      </g>
      <g>
        <path d="M266.75,632.4c4.09,.36,8.13,1.15,12.05,2.36h0v-14.08c1.06-15.33,24-45.28,24-45.28,26.25-39.64,36.47-78.4,36.47-78.4,8.64-27.13-18.06-37.78-18.06-37.78-16.13,14.37-30.2,40.94-30.2,40.94-4.06,10.55-6.53,53-6.53,53-1.77,18.85-15.69,33.83-15.69,33.83,3.71,7.74-6.34,20.62-6.34,20.62,5.08,7.78,4.3,24.79,4.3,24.79Z" fill="#f2b3c1"></path>
        <path d="M279.3,635.44l-.65-.2c-3.88-1.19-7.9-1.98-11.95-2.34l-.48-.04,.02-.48c0-.17,.71-16.94-4.22-24.49l-.2-.3,.22-.28c.1-.13,9.82-12.73,6.28-20.1l-.15-.31,.23-.25c.14-.15,13.83-15.08,15.56-33.54,.1-1.72,2.52-42.63,6.56-53.13,.17-.32,14.32-26.87,30.33-41.13l.23-.21,.29,.11c.27,.11,27.03,11.14,18.35,38.4-.1,.36-10.54,39.27-36.53,78.53-.25,.33-22.88,30.03-23.92,45.04v14.72Zm-12.03-3.49c3.73,.36,7.44,1.08,11.03,2.14v-13.41c1.06-15.34,23.16-44.36,24.1-45.58,25.88-39.08,36.28-77.84,36.38-78.22,8.03-25.2-14.51-35.8-17.48-37.07-15.78,14.2-29.72,40.33-29.86,40.59-3.96,10.3-6.45,52.37-6.47,52.79-1.64,17.5-13.79,31.84-15.6,33.89,3.17,7.39-4.85,18.59-6.32,20.56,4.5,7.28,4.3,21.47,4.21,24.31Z" fill="#002346"></path>
      </g>
      <path d="M483.78,489.88c-3-.68-4.75-1.59-5.35-2.72-.21-.34-.26-.76-.14-1.14l1,.35s-.13,1.35,4.73,2.47l-.24,1.04Z" fill="#fff"></path>
      <path d="M483.14,636.57c-1.82-1.24-3.43-2.76-4.77-4.5l.84-.66c1.28,1.65,2.81,3.1,4.54,4.28l-.61,.88Z" fill="#fff"></path>
      <g>
        <ellipse cx="239.78" cy="279.8" rx="6.44" ry="9.69" transform="translate(-97.93 132.37) rotate(-25.82)" fill="#f2b3c1"></ellipse>
        <path d="M242.04,289.45c-3.08,0-6.55-2.58-8.51-6.64-2.45-5.06-1.64-10.53,1.81-12.2h0c3.44-1.66,8.24,1.09,10.69,6.15,1.17,2.42,1.64,5,1.33,7.28-.32,2.35-1.44,4.1-3.14,4.92-.68,.33-1.41,.49-2.17,.49Zm-6.27-17.93h0c-2.95,1.43-3.55,6.3-1.34,10.86,2.21,4.56,6.4,7.11,9.35,5.69,1.39-.67,2.31-2.15,2.59-4.16,.28-2.08-.16-4.46-1.24-6.7-2.21-4.56-6.4-7.11-9.35-5.69Z" fill="#002346"></path>
      </g>
      <path d="M287.32,374.8c-.17,0-.33-.08-.42-.23-1.28-2.05-1.12-4.66-.75-6.49,.17-.86,.49-1.73,.99-2.74,8.21-16.43-14.25-40.55-14.48-40.79-.19-.2-.18-.52,.02-.71,.2-.19,.52-.18,.71,.02,.95,1.01,23.17,24.87,14.65,41.92-.46,.93-.75,1.72-.9,2.49-.33,1.65-.49,3.99,.62,5.76,.15,.23,.08,.54-.16,.69-.08,.05-.17,.08-.26,.08Z" fill="#002346"></path>
      <path d="M354.67,361.43c-.14,0-.28-.06-.38-.17-.03-.03-2.98-3.35-9.86-3.83-.28-.02-.48-.26-.46-.53s.25-.48,.53-.46c7.32,.51,10.42,4.02,10.54,4.17,.18,.21,.16,.52-.05,.7-.09,.08-.21,.12-.33,.12Z" fill="#002346"></path>
      <path d="M356.62,357.35c-.13,0-.27-.05-.37-.16-.04-.04-3.91-4.13-11.76-3.71-.27,.03-.51-.2-.53-.47-.01-.28,.2-.51,.47-.53,8.33-.44,12.38,3.84,12.54,4.03,.19,.2,.17,.52-.03,.71-.1,.09-.22,.13-.34,.13Z" fill="#002346"></path>
      <path d="M358.98,354.71c-.14,0-.29-.06-.38-.18-.04-.05-4.29-4.98-14.07-3.82-.28,.04-.52-.16-.56-.44-.03-.27,.16-.52,.44-.55,10.34-1.24,14.77,3.95,14.95,4.17,.18,.21,.15,.53-.07,.7-.09,.08-.21,.12-.32,.12Z" fill="#002346"></path>
      <path d="M335.11,393.66c-.09,0-.19-.03-.27-.08l-13.45-8.84c-.23-.15-.29-.46-.14-.69,.15-.23,.46-.29,.69-.14l13.45,8.84c.23,.15,.29,.46,.14,.69-.1,.15-.26,.23-.42,.23Z" fill="#002346"></path>
      <path d="M329.5,395.96c-.1,0-.19-.03-.28-.08l-12.57-8.38c-.23-.15-.29-.46-.14-.69,.15-.23,.46-.29,.69-.14l12.57,8.38c.23,.15,.29,.46,.14,.69-.1,.14-.25,.22-.42,.22Z" fill="#002346"></path>
      <path d="M318.28,396.93c-.08,0-.17-.02-.25-.07l-7-4c-.24-.14-.32-.44-.19-.68,.14-.24,.44-.32,.68-.19l7,4c.24,.14,.32,.44,.19,.68-.09,.16-.26,.25-.43,.25Z" fill="#002346"></path>
      <path d="M201.48,458.58c-.27,0-.5-.22-.5-.49-.3-16.85,9.75-28.81,9.85-28.93,.18-.21,.5-.24,.71-.06,.21,.18,.23,.49,.06,.7-.1,.12-9.9,11.8-9.61,28.26,0,.28-.22,.5-.49,.51h0Z" fill="#002346"></path>
      <path d="M231.3,442.33c-.12,0-.23-.04-.33-.12-.21-.18-.23-.5-.05-.71,10.06-11.64,30.75-11.43,31.63-11.42,.28,0,.5,.23,.49,.51s-.19,.49-.51,.49c-.21,0-21.1-.21-30.85,11.08-.1,.11-.24,.17-.38,.17Z" fill="#002346"></path>
      <g>
        <path d="M251.3,433.87c-.77-3.64-2.43-15,3.11-24.76,2.05-3.5,3.84-7.14,5.36-10.9,4.57-11.69,13.39-34.93,8.12-52.37,0,0-7.32-34.66-27.1-32.64-.73,.08-1.43,.31-2.07,.68-3.52,2-14.79,10.1-21.4,34-5.26,16.99-8.44,34.56-9.48,52.32,0,0-.35,7-4.56,12.12,0,0-7.55,7.37,.87,13.52,0,0,17.77,11.95,46.22,9.25,.58-.06,1-.59,.94-1.17,0-.02,0-.03,0-.05Z" fill="#57bb54"></path>
        <path d="M242.14,435.98c-23.5,0-38.11-9.62-38.27-9.73-2.61-1.9-4.01-4.11-4.18-6.57-.3-4.21,3.1-7.58,3.24-7.72,4.01-4.89,4.41-11.72,4.41-11.79,1.04-17.79,4.23-35.43,9.5-52.44,6.7-24.21,18.25-32.37,21.63-34.29,.7-.4,1.46-.65,2.26-.74,20.01-2.05,27.34,31.6,27.64,33.03,5.42,17.95-4.08,42.27-8.14,52.66-1.53,3.78-3.34,7.47-5.39,10.97-5.55,9.78-3.74,21.15-3.05,24.4v.09c.11,.86-.51,1.63-1.36,1.73-2.87,.27-5.64,.39-8.29,.39Zm.28-122.37c-.52,0-1.04,.03-1.58,.08-.66,.07-1.29,.28-1.87,.62-3.3,1.88-14.57,9.84-21.17,33.7-5.25,16.95-8.43,34.52-9.46,52.22-.01,.29-.41,7.22-4.67,12.41-.07,.07-3.25,3.24-2.98,6.98,.16,2.15,1.42,4.11,3.76,5.82,.16,.11,17.95,11.8,45.88,9.16,.3-.03,.52-.31,.49-.62l.49-.1-.49,.1c-.71-3.34-2.57-15.02,3.16-25.11,2.03-3.47,3.82-7.11,5.33-10.84,4.02-10.28,13.44-34.38,8.1-52.04-.08-.37-7.06-32.37-24.99-32.37Z" fill="#002346"></path>
      </g>
      <path d="M238.21,457.65c-.09,0-.17-.02-.25-.07-.24-.14-.32-.45-.18-.68,11.91-20.25,27.66-23.42,27.82-23.45,.27-.05,.53,.13,.58,.4,.05,.27-.13,.53-.4,.58-.15,.03-15.48,3.14-27.14,22.97-.09,.16-.26,.25-.43,.25Z" fill="#002346"></path>
      <path d="M295.67,487.99c-.08,0-.17-.02-.24-.06-10.32-5.77-24.76-2.72-24.91-2.7-30.67,6.27-49.47-.84-49.65-.91-.26-.1-.38-.39-.28-.65,.1-.26,.39-.39,.65-.28,.18,.07,18.74,7.07,49.08,.87,.6-.13,14.94-3.16,25.6,2.8,.24,.13,.33,.44,.19,.68-.09,.16-.26,.26-.44,.26Z" fill="#002346"></path>
      <g>
        <polygon points="288.86 411.56 258.14 653.66 251.95 653.66 271.44 411.56 288.86 411.56" fill="#fff"></polygon>
        <path d="M258.59,654.16h-7.17l19.57-243.11h18.45l-30.85,243.11Zm-6.09-1h5.21l30.59-241.11h-16.39l-19.41,241.11Z" fill="#002346"></path>
      </g>
      <g>
        <rect x="243.1" y="401.92" width="300.11" height="13.57" fill="#e6e7e8"></rect>
        <path d="M543.71,415.99H242.6v-14.57h301.11v14.57Zm-300.11-1h299.11v-12.57H243.6v12.57Z" fill="#002346"></path>
      </g>
      <g>
        <path d="M243.1,324.21s8.24,5.46,11.71,27.34c0,0,.97,17.38,20.77,20.91l29.92,6.87-12.81,27.75h-25.31c-17.61,0-34-9.8-41.61-25.68-5.07-10.58-6.8-24.62,.65-42.44" fill="#57bb54"></path>
        <path d="M292.69,407.57h-25.31c-17.99,0-34.5-10.19-42.06-25.97-6.12-12.77-5.9-27.19,.64-42.85,.11-.26,.4-.37,.65-.27,.25,.11,.38,.4,.27,.65-6.43,15.38-6.65,29.53-.66,42.03,7.39,15.43,23.55,25.4,41.16,25.4h24.99l12.42-26.9-29.32-6.73c-19.94-3.55-21.15-21.19-21.16-21.36-3.38-21.29-11.4-26.9-11.48-26.96-.23-.15-.29-.46-.14-.69,.15-.23,.46-.29,.69-.14,.34,.23,8.46,5.83,11.92,27.68,.05,.74,1.2,17.08,20.37,20.49l29.94,6.88c.15,.03,.27,.13,.34,.27,.07,.14,.07,.29,0,.43l-12.81,27.75c-.08,.18-.26,.29-.45,.29Z" fill="#002346"></path>
      </g>
      <path d="M284.87,491.04c-.08,0-.16-.02-.23-.06-.24-.13-.34-.43-.21-.68,20.45-38.62,43.14-46.09,43.36-46.16,.26-.09,.54,.06,.63,.33,.08,.26-.06,.54-.33,.63-.22,.07-22.54,7.46-42.78,45.68-.09,.17-.26,.27-.44,.27Z" fill="#002346"></path>
      <g>
        <path d="M179.51,334.09s-18.58-6.65-25.31,11.75c0,0-8.86,13.52-9.17,49.9,0,0-.91,67.56,8.56,106.38h57v-30.88s-.09-31.18-30.81-31.48h-22.48s-2-35.17,1.13-67.26c-.04,0,3.29-32.51,21.08-38.41Z" fill="#e6e7e8"></path>
        <path d="M211.09,502.61h-57.89l-.09-.38c-9.38-38.44-8.58-105.83-8.57-106.5,.3-35.38,8.54-49.05,9.22-50.12,6.84-18.59,25.74-12.07,25.93-12l1.37,.49-1.38,.46c-16.59,5.5-20.42,35.08-20.72,37.76h0l-.02,.23c-2.9,29.68-1.37,62.41-1.15,66.71h22.01c30.86,.3,31.31,31.66,31.31,31.98v31.38Zm-57.11-1h56.11v-30.38c0-1.25-.45-30.69-30.31-30.98h-22.95l-.03-.47c-.02-.35-1.97-35.58,1.13-67.34h0c.17-2.18,3.67-31.36,20-38.3-4.39-1.13-17.78-3.16-23.28,11.86l-.05,.1c-.09,.13-8.78,13.87-9.09,49.63,0,.68-.8,67.5,8.45,105.88Z" fill="#002346"></path>
      </g>
      <g>
        <path d="M574.72,312.43h157.65c11.68,0,21.14,9.52,21.14,21.27v296.47c0,11.75-9.46,21.27-21.14,21.27h-157.65c-11.68,0-21.14-9.52-21.14-21.27V333.71c0-11.75,9.46-21.27,21.14-21.27Z" fill="#e6e7e8"></path>
        <path d="M732.37,651.95h-157.65c-11.93,0-21.64-9.77-21.64-21.77V333.71c0-12.01,9.71-21.77,21.64-21.77h157.65c11.93,0,21.64,9.77,21.64,21.77v296.47c0,12.01-9.71,21.77-21.64,21.77Zm-157.65-339.02c-11.38,0-20.64,9.32-20.64,20.77v296.47c0,11.46,9.26,20.77,20.64,20.77h157.65c11.38,0,20.64-9.32,20.64-20.77V333.71c0-11.46-9.26-20.77-20.64-20.77h-157.65Z" fill="#002346"></path>
      </g>
      <g>
        <rect x="540.13" y="312.75" width="199.93" height="336.88" rx="21.14" ry="21.14" fill="#e6e7e8"></rect>
        <path d="M718.92,650.12h-157.65c-11.93,0-21.64-9.71-21.64-21.64V333.89c0-11.93,9.71-21.64,21.64-21.64h157.65c11.93,0,21.64,9.71,21.64,21.64v294.6c0,11.93-9.71,21.64-21.64,21.64Zm-157.65-336.88c-11.38,0-20.64,9.26-20.64,20.64v294.6c0,11.38,9.26,20.64,20.64,20.64h157.65c11.38,0,20.64-9.26,20.64-20.64V333.89c0-11.38-9.26-20.64-20.64-20.64h-157.65Z" fill="#002346"></path>
      </g>
      <g>
        <rect x="677.33" y="533.32" width="43.34" height="96.49" rx="7.17" ry="7.17" fill="#e6e7e8"></rect>
        <path d="M713.5,630.31h-29c-4.23,0-7.67-3.44-7.67-7.67v-82.15c0-4.23,3.44-7.67,7.67-7.67h29c4.23,0,7.67,3.44,7.67,7.67v82.15c0,4.23-3.44,7.67-7.67,7.67Zm-29-96.49c-3.68,0-6.67,2.99-6.67,6.67v82.15c0,3.68,2.99,6.67,6.67,6.67h29c3.68,0,6.67-2.99,6.67-6.67v-82.15c0-3.68-2.99-6.67-6.67-6.67h-29Z" fill="#002346"></path>
      </g>
      <g>
        <rect x="680" y="475.79" width="43.34" height="43.34" rx="7.17" ry="7.17" fill="#e6e7e8"></rect>
        <path d="M716.17,519.64h-29c-4.23,0-7.67-3.44-7.67-7.67v-29c0-4.23,3.44-7.67,7.67-7.67h29c4.23,0,7.67,3.44,7.67,7.67v29c0,4.23-3.44,7.67-7.67,7.67Zm-29-43.34c-3.68,0-6.67,2.99-6.67,6.67v29c0,3.68,2.99,6.67,6.67,6.67h29c3.68,0,6.67-2.99,6.67-6.67v-29c0-3.68-2.99-6.67-6.67-6.67h-29Z" fill="#002346"></path>
      </g>
      <g>
        <rect x="558.63" y="349.73" width="165.53" height="48.61" rx="5.79" ry="5.79" fill="#fff"></rect>
        <path d="M718.37,398.85h-153.95c-3.47,0-6.29-2.82-6.29-6.29v-37.03c0-3.47,2.82-6.29,6.29-6.29h153.95c3.47,0,6.29,2.82,6.29,6.29v37.03c0,3.47-2.82,6.29-6.29,6.29Zm-153.95-48.61c-2.92,0-5.29,2.37-5.29,5.29v37.03c0,2.92,2.37,5.29,5.29,5.29h153.95c2.92,0,5.29-2.37,5.29-5.29v-37.03c0-2.92-2.37-5.29-5.29-5.29h-153.95Z" fill="#002346"></path>
      </g>
      <g>
        <rect x="561.19" y="419.58" width="43.34" height="43.34" rx="7.17" ry="7.17" fill="#e6e7e8"></rect>
        <path d="M597.36,463.41h-29c-4.23,0-7.67-3.44-7.67-7.67v-29c0-4.23,3.44-7.67,7.67-7.67h29c4.23,0,7.67,3.44,7.67,7.67v29c0,4.23-3.44,7.67-7.67,7.67Zm-29-43.34c-3.68,0-6.67,2.99-6.67,6.67v29c0,3.68,2.99,6.67,6.67,6.67h29c3.68,0,6.67-2.99,6.67-6.67v-29c0-3.68-2.99-6.67-6.67-6.67h-29Z" fill="#002346"></path>
      </g>
      <path d="M619.86,372.34v-9.6l1.37-3.66c1.15,.24,2.05,1.14,2.28,2.29v12.8l-.91,.91-2.74-2.74Zm2.74,3.66l.91,.91v12.8c-.23,1.15-1.13,2.05-2.28,2.29l-1.37-3.66v-9.6l2.74-2.74Z" fill="#002346"></path>
      <path d="M630.78,363.64v8.69l-2.74,2.74-.92-.91v-11.89l3.66,1.37Zm-3.66,25.15v-11.86l.92-.91,2.74,2.74v8.69l-3.66,1.34Zm16,3.2h-13.71c-1.15-.25-2.04-1.14-2.29-2.29l3.66-1.37h11l1.34,3.66Zm-1.38-29.26h-10.91l-3.66-1.37c.24-1.15,1.14-2.05,2.29-2.29h13.67l-1.39,3.66Zm.92,9.6v-9.6l1.37-3.66c1.15,.25,2.04,1.14,2.29,2.29v12.8l-.92,.91-2.74-2.74Zm2.74,3.66l.92,.91v12.8c-.25,1.15-1.14,2.04-2.29,2.29l-1.37-3.66v-9.6l2.74-2.74Z" fill="#002346"></path>
      <path d="M653.59,363.64v8.69l-2.74,2.74-.91-.91v-11.89l3.65,1.37Zm-3.65,25.15v-11.86l.91-.91,2.74,2.74v8.69l-3.65,1.34Zm16,3.2h-13.72c-1.15-.24-2.05-1.14-2.28-2.29l3.65-1.37h11l1.35,3.66Zm-1.37-29.26h-10.93l-3.66-1.37c.25-1.15,1.14-2.04,2.29-2.29h13.67l-1.37,3.66Zm.91,9.6v-9.6l1.37-3.66c1.15,.25,2.04,1.14,2.29,2.29v12.8l-.92,.91-2.74-2.74Zm2.74,3.66l.92,.91v12.8c-.25,1.15-1.14,2.04-2.29,2.29l-1.37-3.66v-9.6l2.74-2.74Z" fill="#002346"></path>
      <path d="M676.41,363.64v8.69l-2.75,2.74-.91-.91v-11.89l3.66,1.37Zm-3.66,25.15v-11.86l.91-.91,2.75,2.74v8.69l-3.66,1.34Zm16,3.2h-13.71c-1.15-.24-2.05-1.14-2.29-2.29l3.66-1.37h11l1.34,3.66Zm-1.37-29.26h-10.93l-3.65-1.37c.23-1.15,1.13-2.05,2.28-2.29h13.67l-1.37,3.66Zm.91,9.6v-9.6l1.38-3.66c1.14,.25,2.03,1.15,2.28,2.29v12.8l-.91,.91-2.75-2.74Zm2.75,3.66l.91,.91v12.8c-.25,1.14-1.14,2.04-2.28,2.29l-1.37-3.66v-9.6l2.74-2.74Z" fill="#002346"></path>
      <path d="M699.22,363.64v8.69l-2.74,2.74-.92-.91v-11.89l3.66,1.37Zm-3.66,25.15v-11.86l.92-.91,2.74,2.74v8.69l-3.66,1.34Zm16,3.2h-13.71c-1.15-.25-2.04-1.14-2.29-2.29l3.66-1.37h11l1.34,3.66Zm-1.37-29.26h-10.89l-3.66-1.37c.25-1.14,1.14-2.04,2.28-2.29h13.67l-1.4,3.66Zm.92,9.6v-9.6l1.37-3.66c1.15,.24,2.05,1.14,2.28,2.29v12.8l-.91,.91-2.74-2.74Zm2.74,3.66l.91,.91v12.8c-.23,1.15-1.13,2.05-2.28,2.29l-1.37-3.66v-9.6l2.74-2.74Z" fill="#002346"></path>
      <g>
        <rect x="621.26" y="419.12" width="43.34" height="43.34" rx="7.17" ry="7.17" fill="#e6e7e8"></rect>
        <path d="M657.43,462.95h-29c-4.23,0-7.67-3.44-7.67-7.67v-29c0-4.23,3.44-7.67,7.67-7.67h29c4.23,0,7.67,3.44,7.67,7.67v29c0,4.23-3.44,7.67-7.67,7.67Zm-29-43.34c-3.68,0-6.67,2.99-6.67,6.67v29c0,3.68,2.99,6.67,6.67,6.67h29c3.68,0,6.67-2.99,6.67-6.67v-29c0-3.68-2.99-6.67-6.67-6.67h-29Z" fill="#002346"></path>
      </g>
      <g>
        <path d="M476.89,492.54s2.69-12.08,27.3-9.4v15.22h-14.58s-12.57-.49-12.72-5.82Z" fill="#fbe493"></path>
        <path d="M504.69,498.86h-15.08c-.55-.02-13.06-.58-13.22-6.31v-.06s.01-.06,.01-.06c.11-.51,3.08-12.48,27.84-9.79l.45,.05v16.17Zm-27.3-6.27c.21,3.93,8.89,5.14,12.24,5.27h14.06v-14.27c-22.63-2.33-26.06,8.14-26.3,9Z" fill="#002346"></path>
      </g>
      <g>
        <rect x="557.53" y="417.92" width="43.34" height="43.34" rx="7.17" ry="7.17" fill="#fff"></rect>
        <path d="M593.7,461.75h-29c-4.23,0-7.67-3.44-7.67-7.67v-29c0-4.23,3.44-7.67,7.67-7.67h29c4.23,0,7.67,3.44,7.67,7.67v29c0,4.23-3.44,7.67-7.67,7.67Zm-29-43.34c-3.68,0-6.67,2.99-6.67,6.67v29c0,3.68,2.99,6.67,6.67,6.67h29c3.68,0,6.67-2.99,6.67-6.67v-29c0-3.68-2.99-6.67-6.67-6.67h-29Z" fill="#002346"></path>
      </g>
      <g>
        <polygon points="515.09 411.61 496.19 411.61 526.73 653.66 533.03 653.66 515.09 411.61" fill="#fff"></polygon>
        <path d="M533.57,654.16h-7.28l-30.67-243.06h19.93l.03,.46,17.98,242.6Zm-6.4-1h5.32l-17.87-241.06h-17.87l30.41,241.06Z" fill="#002346"></path>
      </g>
      <g>
        <path d="M489.3,396.29s-4.88,48.42,2,80.05l69.93-7.74,10-30.38s-7.78-19.43-32.3-11.33c0,0-15.62-24.61-34-33.59-.05,0-10.75,.43-15.63,2.99Z" fill="#57bb54"></path>
        <path d="M490.91,476.89l-.1-.44c-6.82-31.35-2.06-79.72-2.01-80.21l.03-.27,.24-.12c5.01-2.63,15.76-3.05,15.86-3.05h.12l.1,.05c17.14,8.38,32.05,30.49,33.99,33.44,24.4-7.84,32.48,11.54,32.55,11.74l.07,.17-10.16,30.86-70.7,7.83Zm-1.14-80.28c-.37,3.93-4.46,49.21,1.92,79.18l69.16-7.66,9.84-29.9c-.85-1.97-8.76-18.43-31.61-10.88l-.37,.12-.21-.33c-.15-.24-15.69-24.49-33.68-33.35-1.1,.05-10.45,.55-15.05,2.81Z" fill="#002346"></path>
      </g>
      <g>
        <path d="M504.88,393.31s39.57,0,62,38.72c0,0-9-11.55-28-5.13,.01,.04-14.96-23.54-34-33.59Z" fill="#57bb54"></path>
        <path d="M566.49,432.33c-.09-.11-9.03-11.19-27.45-4.96l-.37,.12-.26-.4c-1.59-2.43-16.01-23.97-33.76-33.34l-1.79-.94h2.02c.4,0,40.12,.45,62.43,38.97l-.83,.56Zm-16.7-7.85c7.14,0,12.06,2.67,14.82,4.77-19.2-30.15-49.35-34.66-57.59-35.33,16.61,9.67,29.92,29.13,32.07,32.38,4-1.31,7.56-1.82,10.7-1.82Z" fill="#002346"></path>
      </g>
      <g>
        <path d="M493.54,404.01s-4.24,44.93,1.76,64.17l3.64-3.85s-5.14-28.45-2.57-51.55c0,0,1.83,5.22,7.32,5.77,3.61,.28,7.06-1.54,8.86-4.68,1.06-1.82,1.87-3.77,2.43-5.8l-11.34-9-6.2,5.14-3.9-.2Z" fill="#fff"></path>
        <path d="M495.08,469.14l-.25-.82c-5.96-19.11-1.82-63.92-1.78-64.37l.04-.48,4.18,.21,6.36-5.27,11.92,9.46-.09,.32c-.57,2.07-1.4,4.06-2.48,5.92-1.89,3.29-5.54,5.22-9.33,4.93-3.8-.38-5.93-2.83-6.96-4.5-2.11,22.44,2.69,49.42,2.74,49.7l.04,.25-4.4,4.65Zm-1.08-64.61c-.42,4.8-3.69,44.41,1.54,62.67l2.87-3.04c-.5-2.87-4.95-29.68-2.53-51.44l.24-2.17,.73,2.05c.07,.2,1.8,4.93,6.9,5.44,3.39,.25,6.68-1.48,8.38-4.43,.98-1.69,1.75-3.49,2.29-5.37l-10.76-8.54-6.04,5.01-3.61-.19Z" fill="#002346"></path>
      </g>
      <g>
        <path d="M529.91,425.17l3.63,11.56,6.42-3.21s1.34,7-4.68,9.94c-2.71,1.29-5.85,1.29-8.56,0-2.7-1.12-4.6-3.58-5-6.48-.63-5.37,2.78-10.39,8-11.78l.19-.03Z" fill="#fff"></path>
        <path d="M531,444.94c-1.53,0-3.07-.34-4.49-1.02-2.83-1.17-4.86-3.8-5.28-6.86-.66-5.58,2.94-10.88,8.37-12.33l.67-.11,3.58,11.41,6.49-3.24,.12,.65c.01,.07,1.34,7.41-4.95,10.48-1.43,.68-2.97,1.03-4.5,1.03Zm-1.43-19.18c-4.77,1.4-7.94,6.16-7.35,11.16,.37,2.7,2.17,5.03,4.69,6.08,2.61,1.25,5.57,1.25,8.15,.01,4.54-2.22,4.62-6.97,4.48-8.72l-6.31,3.16-3.67-11.68Z" fill="#002346"></path>
      </g>
      <path d="M564.56,440.66c-.1,0-.2-.03-.28-.09l-12.41-8.56c-.23-.16-.28-.47-.13-.7s.47-.29,.7-.13l12.41,8.56c.23,.16,.28,.47,.13,.7-.1,.14-.25,.22-.41,.22Z" fill="#002346"></path>
      <g>
        <ellipse cx="575.67" cy="468.07" rx="24.33" ry="30.55" transform="translate(-117.81 204.31) rotate(-18.29)" fill="#57bb54"></ellipse>
        <path d="M579.07,498.57c-11.2,0-22.46-9.05-26.98-22.7-2.6-7.86-2.6-16.05,0-23.08,2.61-7.07,7.52-12.11,13.84-14.2s13.27-.97,19.57,3.15c6.27,4.1,11.15,10.68,13.75,18.54,2.6,7.86,2.6,16.05,0,23.08-2.61,7.07-7.52,12.11-13.84,14.2-2.08,.69-4.21,1.02-6.34,1.02Zm-6.75-60c-2.06,0-4.1,.32-6.08,.97-6.02,1.99-10.72,6.82-13.21,13.59-2.51,6.82-2.51,14.78,.02,22.42,5.2,15.73,19.58,25.17,32.06,21.05,6.02-1.99,10.72-6.82,13.21-13.59,2.51-6.82,2.51-14.78-.02-22.42-2.53-7.64-7.26-14.04-13.34-18.01-4.06-2.66-8.4-4.01-12.63-4.01Z" fill="#002346"></path>
      </g>
      <g>
        <rect x="681.33" y="419.12" width="43.34" height="43.34" rx="7.17" ry="7.17" fill="#e6e7e8"></rect>
        <path d="M717.5,462.95h-29c-4.23,0-7.67-3.44-7.67-7.67v-29c0-4.23,3.44-7.67,7.67-7.67h29c4.23,0,7.67,3.44,7.67,7.67v29c0,4.23-3.44,7.67-7.67,7.67Zm-29-43.34c-3.68,0-6.67,2.99-6.67,6.67v29c0,3.68,2.99,6.67,6.67,6.67h29c3.68,0,6.67-2.99,6.67-6.67v-29c0-3.68-2.99-6.67-6.67-6.67h-29Z" fill="#002346"></path>
      </g>
      <g>
        <rect x="617.59" y="417.45" width="43.34" height="43.34" rx="7.17" ry="7.17" fill="#fff"></rect>
        <path d="M653.76,461.29h-29c-4.23,0-7.67-3.44-7.67-7.67v-29c0-4.23,3.44-7.67,7.67-7.67h29c4.23,0,7.67,3.44,7.67,7.67v29c0,4.23-3.44,7.67-7.67,7.67Zm-29-43.34c-3.68,0-6.67,2.99-6.67,6.67v29c0,3.68,2.99,6.67,6.67,6.67h29c3.68,0,6.67-2.99,6.67-6.67v-29c0-3.68-2.99-6.67-6.67-6.67h-29Z" fill="#002346"></path>
      </g>
      <g>
        <rect x="676.33" y="474.13" width="43.34" height="43.34" rx="7.17" ry="7.17" fill="#fff"></rect>
        <path d="M712.5,517.96h-29c-4.23,0-7.67-3.44-7.67-7.67v-29c0-4.23,3.44-7.67,7.67-7.67h29c4.23,0,7.67,3.44,7.67,7.67v29c0,4.23-3.44,7.67-7.67,7.67Zm-29-43.34c-3.68,0-6.67,2.99-6.67,6.67v29c0,3.68,2.99,6.67,6.67,6.67h29c3.68,0,6.67-2.99,6.67-6.67v-29c0-3.68-2.99-6.67-6.67-6.67h-29Z" fill="#002346"></path>
      </g>
      <g>
        <rect x="673.66" y="529.47" width="43.34" height="100.16" rx="7.17" ry="7.17" fill="#fff"></rect>
        <path d="M709.83,630.12h-29c-4.23,0-7.67-3.44-7.67-7.67v-85.82c0-4.23,3.44-7.67,7.67-7.67h29c4.23,0,7.67,3.44,7.67,7.67v85.82c0,4.23-3.44,7.67-7.67,7.67Zm-29-100.16c-3.68,0-6.67,2.99-6.67,6.67v85.82c0,3.68,2.99,6.67,6.67,6.67h29c3.68,0,6.67-2.99,6.67-6.67v-85.82c0-3.68-2.99-6.67-6.67-6.67h-29Z" fill="#002346"></path>
      </g>
      <g>
        <ellipse cx="569.49" cy="469.68" rx="24.33" ry="30.55" transform="translate(-122.2 211.84) rotate(-19.07)" fill="#57bb54"></ellipse>
        <path d="M572.97,500.14c-4.34,0-8.77-1.35-12.95-4-6.32-4.01-11.29-10.53-14-18.35-2.7-7.82-2.82-16.01-.32-23.07,2.51-7.1,7.36-12.21,13.64-14.38h0c6.29-2.17,13.25-1.15,19.61,2.89,6.32,4.01,11.29,10.53,14,18.35,2.7,7.82,2.82,16.01,.32,23.07-2.51,7.1-7.36,12.21-13.64,14.38-2.16,.75-4.4,1.12-6.66,1.12Zm-6.96-59.92c-2.16,0-4.28,.35-6.33,1.06h0c-6,2.07-10.62,6.96-13.03,13.77-2.42,6.85-2.31,14.81,.32,22.42,2.63,7.61,7.46,13.94,13.59,17.83,6.1,3.87,12.76,4.86,18.75,2.79,6-2.07,10.62-6.96,13.03-13.77,2.42-6.85,2.31-14.81-.32-22.42-2.63-7.61-7.46-13.94-13.59-17.83-4.01-2.55-8.27-3.84-12.42-3.84Z" fill="#002346"></path>
      </g>
      <g>
        <ellipse cx="573.63" cy="470.4" rx="20.71" ry="25.52" transform="translate(-122.59 214.27) rotate(-19.16)" fill="#fff"></ellipse>
        <path d="M576.36,495.96c-3.66,0-7.39-1.11-10.9-3.28-5.37-3.33-9.59-8.77-11.86-15.32-4.71-13.55,.45-27.7,11.49-31.54h0c5.37-1.87,11.31-1.05,16.71,2.3,5.37,3.33,9.59,8.77,11.86,15.32,2.27,6.55,2.34,13.43,.19,19.37-2.16,5.98-6.31,10.3-11.68,12.17-1.88,.65-3.84,.98-5.82,.98Zm-11.1-49.67l.16,.47c-10.52,3.66-15.4,17.23-10.88,30.27,2.2,6.33,6.26,11.59,11.44,14.8,5.15,3.19,10.78,3.98,15.86,2.21,5.08-1.76,9.01-5.87,11.07-11.56,2.07-5.73,2-12.37-.19-18.71-2.2-6.33-6.26-11.59-11.44-14.8-5.15-3.19-10.78-3.98-15.86-2.21l-.16-.47Z" fill="#002346"></path>
      </g>
      <path d="M576.75,480.43c.16-.17,.31-.35,.46-.54,1.63-2.14,2.07-5.22,1.29-9.22,0,0,0,0,0,0-.12-.58-.68-.95-1.26-.84,0,0-.02,0-.03,0-.57,.12-.93,.68-.81,1.24,.64,3.3,.36,5.81-.84,7.44l-5.38-8.6c.58-.72,1.11-1.48,1.55-2.3,1.14-2.19,.86-4.85-.72-6.75-1.47-1.87-3.92-2.66-6.2-2-.44,.13-.83,.31-1.21,.52l-1.3-2.08c-.31-.5-.97-.66-1.47-.35-.5,.31-.66,.97-.35,1.48l1.43,2.28c-2.6,2.82-2.91,7.46-2.91,7.72,0,.06-.01,.11,0,.17,.01,.59,.5,1.06,1.09,1.05s1.06-.5,1.05-1.09c0-.05,.24-3.65,1.96-5.94l4.44,7.11c-1.4,1.73-2.25,3.84-2.45,6.07-.24,1.77,.31,3.56,1.51,4.89,1.43,1.28,3.32,1.92,5.24,1.77,.24,0,.48,0,.73,.07,.88-.1,1.71-.38,2.47-.79l.85,1.36c.19,.32,.54,.51,.91,.51,.2-.01,.4-.08,.56-.21,.5-.31,.65-.97,.34-1.47l-.94-1.5Zm-11.34-19.5c1.46-.46,3.05,.04,3.99,1.25,1.03,1.23,1.23,2.97,.49,4.4-.27,.49-.58,.96-.91,1.42l-4.25-6.8c.21-.11,.44-.2,.68-.27Zm7.02,19.47c-2.04,.09-3.49-.28-4.32-1.12-.75-.9-1.08-2.09-.89-3.25,.13-1.56,.67-3.05,1.54-4.33l5.13,8.21c-.46,.23-.94,.41-1.46,.49Z" fill="#002346"></path>
      <g>
        <ellipse cx="532.03" cy="482.73" rx="19.03" ry="27.51" fill="#57bb54"></ellipse>
        <path d="M532.03,510.74c-10.77,0-19.53-12.57-19.53-28.01s8.76-28.01,19.53-28.01,19.53,12.57,19.53,28.01-8.76,28.01-19.53,28.01Zm0-55.02c-10.22,0-18.53,12.12-18.53,27.01s8.31,27.01,18.53,27.01,18.53-12.12,18.53-27.01-8.31-27.01-18.53-27.01Z" fill="#002346"></path>
      </g>
      <g>
        <ellipse cx="517.22" cy="486.95" rx="34.4" ry="28.13" transform="translate(-129.16 781.62) rotate(-67.78)" fill="#57bb54"></ellipse>
        <path d="M513.16,521.05c-3.14,0-6.22-.59-9.14-1.78-14.61-5.97-20.58-25.32-13.31-43.14,3.52-8.61,9.57-15.59,17.05-19.65,7.51-4.08,15.56-4.73,22.65-1.83,7.1,2.9,12.39,9,14.89,17.17,2.5,8.13,1.93,17.36-1.59,25.97-3.52,8.61-9.57,15.59-17.05,19.65-4.42,2.4-9.03,3.61-13.52,3.61Zm8.13-67.18c-4.33,0-8.77,1.17-13.04,3.49-7.27,3.95-13.17,10.75-16.6,19.15-7.07,17.3-1.35,36.07,12.76,41.83,6.81,2.78,14.55,2.15,21.8-1.78,7.27-3.95,13.17-10.75,16.6-19.15,3.43-8.4,3.98-17.38,1.56-25.3-2.42-7.88-7.5-13.75-14.31-16.53-2.8-1.14-5.75-1.71-8.76-1.71Z" fill="#002346"></path>
      </g>
      <g>
        <ellipse cx="516.9" cy="486.22" rx="27.51" ry="22.49" transform="translate(-128.68 780.86) rotate(-67.78)" fill="#fff"></ellipse>
        <path d="M513.61,513.57c-2.48,0-4.94-.46-7.3-1.42-5.7-2.33-9.95-7.23-11.96-13.79-2-6.53-1.55-13.93,1.27-20.83s7.68-12.51,13.68-15.77c6.03-3.28,12.49-3.8,18.2-1.47,11.74,4.79,16.53,20.33,10.69,34.62-4.67,11.42-14.73,18.66-24.58,18.66Zm6.55-53.71c-3.44,0-6.98,.93-10.38,2.78-5.8,3.15-10.49,8.57-13.23,15.27h0c-2.74,6.7-3.18,13.86-1.24,20.16,1.92,6.27,5.97,10.94,11.39,13.16,11.23,4.58,24.94-2.9,30.57-16.69,5.63-13.79,1.08-28.74-10.14-33.32-2.22-.91-4.57-1.36-6.96-1.36Z" fill="#002346"></path>
      </g>
      <path d="M518.77,474.82c2.6,1.39,3.68,5,3.68,5,.01,.06,.03,.11,.05,.16,.21,.55,.83,.83,1.38,.62,.55-.21,.83-.83,.62-1.38-.05-.18-1.31-4.46-4.71-6.28-.74-.39-1.53-.63-2.34-.74l.16-2.52c.04-.59-.41-1.1-1.01-1.14s-1.1,.41-1.14,1.01l-.17,2.68c-.43,.07-.86,.18-1.28,.33-2.57,.76-4.54,2.85-5.15,5.46-.33,1.63-.27,4.6,3.87,6.17,.48,.15,1.1,.36,1.77,.64l-.68,10.79c-.27-.08-.53-.18-.79-.31-1.79-.89-3.12-2.79-3.94-5.79-.16-.57-.75-.9-1.32-.74-.57,.16-.9,.75-.74,1.32,.99,3.56,2.69,5.96,5.06,7.13,.51,.25,1.05,.43,1.59,.56l-.23,3.71s0,0,0,.01c-.03,.58,.42,1.08,1,1.12h.07c.57,0,1.04-.43,1.07-1l.23-3.64c1.49-.07,2.96-.4,4.33-.99,1.95-.75,3.36-2.46,3.74-4.51,.72-4.48-3.82-7.48-7.16-9.05l.57-9.09c.5,.09,.99,.22,1.45,.46Zm3.03,17.38c-.26,1.31-1.19,2.4-2.44,2.87-.95,.39-2.15,.74-3.39,.8l.63-10.06c2.79,1.45,5.63,3.68,5.2,6.4Zm-8.38-10.04c-2.66-1.01-2.67-2.6-2.45-3.71,.45-1.86,1.87-3.33,3.71-3.85,.16-.06,.32-.09,.48-.13l-.51,8.11c-.69-.26-1.16-.4-1.24-.42Z" fill="#002346"></path>
      <g>
        <path d="M554.3,498.34s44.71-46.77,55.94-79.78c0,0,36.69,40.12,44.25,47l-11.11,32.83-89.08-.05Z" fill="#57bb54"></path>
        <path d="M643.74,498.89h-.36l-90.25-.05,.81-.84c.45-.47,44.76-47.07,55.83-79.59l.27-.8,.57,.62c.37,.4,36.76,40.18,44.22,46.97l.24,.22-11.33,33.48Zm-88.28-1.05l87.56,.05,10.89-32.18c-7.44-6.9-38.85-41.15-43.47-46.19-10.71,30.25-48.96,71.89-54.98,78.32Z" fill="#002346"></path>
      </g>
      <g>
        <path d="M603.56,449.04s-20.17,34.62-36.45,49.29h-4.2s36.53-43.56,48.91-69.47c0,0,27.19,28.48,33.65,34.19l-6.37-.25-15.13-15.82s.46,8-9.4,8.71c0,0-7.8,.69-11.01-6.65Z" fill="#fff"></path>
        <path d="M567.31,498.83h-5.46l.69-.82c.37-.44,36.63-43.81,48.84-69.36l.31-.65,.5,.52c.27,.29,27.25,28.53,33.62,34.16l1.05,.93-7.97-.31-14.48-15.14c-.32,2.37-1.92,7.47-9.79,8.04-.07,.01-7.56,.58-11.09-6.09-3.15,5.3-21.3,35.29-36.07,48.6l-.14,.13Zm-3.33-1h2.94c16.01-14.52,36.01-48.7,36.21-49.04l.5-.85,.39,.9c3.02,6.92,10.21,6.38,10.51,6.35,9.24-.67,8.96-7.88,8.94-8.18l-.07-1.35,15.92,16.65,4.8,.19c-7.21-6.72-28.62-29.06-32.16-32.77-11.6,23.77-42.95,62.03-47.98,68.1Z" fill="#002346"></path>
      </g>
      <g>
        <path d="M602.96,498.34s-2.92-16.13,14.54-11.92c0,0,.07,8.62,2,12l-16.54-.08Z" fill="#fff"></path>
        <path d="M620.37,498.92l-17.82-.09-.07-.41c-.05-.29-1.22-7.04,2.78-10.82,2.61-2.46,6.77-3.03,12.37-1.68l.38,.09v.39c0,.08,.09,8.53,1.94,11.76l.43,.75Zm-16.97-1.08l15.3,.07c-1.42-3.34-1.65-9.47-1.69-11.1-5.05-1.15-8.78-.64-11.07,1.52-3.08,2.9-2.72,8.03-2.54,9.5Z" fill="#002346"></path>
      </g>
      <g>
        <ellipse cx="645.47" cy="489.14" rx="22.75" ry="26.08" fill="#57bb54"></ellipse>
        <path d="M645.47,515.71c-12.82,0-23.25-11.92-23.25-26.58s10.43-26.58,23.25-26.58,23.25,11.92,23.25,26.58-10.43,26.58-23.25,26.58Zm0-52.16c-12.27,0-22.25,11.48-22.25,25.58s9.98,25.58,22.25,25.58,22.25-11.47,22.25-25.58-9.98-25.58-22.25-25.58Z" fill="#002346"></path>
      </g>
      <g>
        <path d="M640.42,462.79c-12.57,0-22.75,11.68-22.75,26.08s10.18,26.07,22.75,26.07,22.75-11.68,22.75-26.08-10.19-26.07-22.75-26.07Zm0,46.3c-9.75,0-17.65-9-17.65-20.22s7.9-20.23,17.65-20.23,17.64,9.06,17.64,20.23-7.9,20.22-17.64,20.22Z" fill="#57bb54"></path>
        <path d="M640.42,515.44c-12.82,0-23.25-11.92-23.25-26.57s10.43-26.58,23.25-26.58,23.25,11.92,23.25,26.57-10.43,26.58-23.25,26.58Zm0-52.15c-12.27,0-22.25,11.48-22.25,25.58s9.98,25.57,22.25,25.57,22.25-11.48,22.25-25.58-9.98-25.57-22.25-25.57Zm0,46.3c-10.01,0-18.15-9.29-18.15-20.72s8.14-20.73,18.15-20.73,18.14,9.3,18.14,20.73-8.14,20.72-18.14,20.72Zm0-40.45c-9.46,0-17.15,8.85-17.15,19.73s7.69,19.72,17.15,19.72,17.14-8.85,17.14-19.72-7.69-19.73-17.14-19.73Z" fill="#002346"></path>
      </g>
      <g>
        <ellipse cx="640.4" cy="489.01" rx="17.65" ry="20.22" fill="#fff"></ellipse>
        <path d="M640.4,509.74c-10.01,0-18.15-9.29-18.15-20.72s8.14-20.72,18.15-20.72,18.15,9.29,18.15,20.72-8.14,20.72-18.15,20.72Zm0-40.44c-9.46,0-17.15,8.85-17.15,19.72s7.69,19.72,17.15,19.72,17.15-8.85,17.15-19.72-7.69-19.72-17.15-19.72Z" fill="#002346"></path>
      </g>
      <path d="M646.69,481.19c-.25-.04-6.13-1.07-10.13,2.19-1.6,1.31-2.66,3.14-3.13,5.42h-2.39c-.24,.03-.43,.22-.46,.46-.04,.3,.17,.57,.46,.61h2.22c-.07,.57-.11,1.16-.11,1.78,0,.24,.01,.48,.03,.72h-2.45s-.1,0-.15,0c-.3,.04-.5,.31-.46,.61,.04,.3,.31,.5,.61,.46h2.57c.74,4.33,4.21,7.79,8.69,8.4h.09l.05,.05c.29,.03,.55-.19,.58-.48,.03-.29-.19-.55-.48-.58-4.04-.45-7.19-3.52-7.87-7.39h9.94c.24-.03,.43-.22,.46-.46,.04-.3-.17-.57-.46-.61h-10.05c-.01-.22-.02-.43-.02-.65,0-.65,.05-1.26,.13-1.85h10.21s.1,0,.15,0c.3-.04,.5-.31,.46-.61s-.31-.5-.61-.46h-10.02c.44-1.92,1.34-3.44,2.68-4.55,3.58-3,9.21-2,9.27-2,.29,.05,.56-.14,.62-.43,.05-.29-.14-.57-.43-.63Z" fill="#002346"></path>
      <g>
        <path d="M476.89,492.54v158.4s-.44,16.11,16.56,16.11h172.75c5.19,0,9.4-4.21,9.4-9.4h0v-149.89c0-5.19-4.21-9.4-9.4-9.4h-174.47c-2.52,.02-5.03-.28-7.48-.87-3.24-.8-6.87-2.28-7.36-4.95Z" fill="#fbe493"></path>
        <path d="M666.2,667.54h-172.75c-5.31,0-9.5-1.54-12.47-4.59-4.73-4.86-4.6-11.75-4.59-12.04v-158.39l.99-.09c.45,2.45,4.05,3.83,6.99,4.55,2.4,.58,4.88,.85,7.36,.86h174.47c5.46,0,9.9,4.44,9.9,9.9v149.89c0,5.46-4.44,9.9-9.9,9.9Zm-188.81-172.91v156.3c0,.08-.12,6.78,4.32,11.33,2.77,2.84,6.72,4.28,11.74,4.28h172.75c4.91,0,8.9-3.99,8.9-8.9v-149.89c0-4.91-3.99-8.9-8.9-8.9h-174.47c-2.55-.01-5.11-.28-7.6-.88-3.27-.81-5.53-1.93-6.74-3.34Z" fill="#002346"></path>
      </g>
      <g>
        <rect x="677.66" y="417.45" width="43.34" height="43.34" rx="7.17" ry="7.17" fill="#fff"></rect>
        <path d="M713.83,461.29h-29c-4.23,0-7.67-3.44-7.67-7.67v-29c0-4.23,3.44-7.67,7.67-7.67h29c4.23,0,7.67,3.44,7.67,7.67v29c0,4.23-3.44,7.67-7.67,7.67Zm-29-43.34c-3.68,0-6.67,2.99-6.67,6.67v29c0,3.68,2.99,6.67,6.67,6.67h29c3.68,0,6.67-2.99,6.67-6.67v-29c0-3.68-2.99-6.67-6.67-6.67h-29Z" fill="#002346"></path>
      </g>
      <g>
        <path d="M502.93,507.66h-6c-.28,0-.5-.22-.5-.5s.22-.5,.5-.5h6c.28,0,.5,.22,.5,.5s-.22,.5-.5,.5Z" fill="#002346"></path>
        <path d="M649.13,507.66h-12.18c-.28,0-.5-.22-.5-.5s.22-.5,.5-.5h12.18c.28,0,.5,.22,.5,.5s-.22,.5-.5,.5Zm-24.37,0h-12.18c-.28,0-.5-.22-.5-.5s.22-.5,.5-.5h12.18c.28,0,.5,.22,.5,.5s-.22,.5-.5,.5Zm-24.37,0h-12.18c-.28,0-.5-.22-.5-.5s.22-.5,.5-.5h12.18c.28,0,.5,.22,.5,.5s-.22,.5-.5,.5Zm-24.37,0h-12.18c-.28,0-.5-.22-.5-.5s.22-.5,.5-.5h12.18c.28,0,.5,.22,.5,.5s-.22,.5-.5,.5Zm-24.37,0h-12.18c-.28,0-.5-.22-.5-.5s.22-.5,.5-.5h12.18c.28,0,.5,.22,.5,.5s-.22,.5-.5,.5Zm-24.37,0h-12.18c-.28,0-.5-.22-.5-.5s.22-.5,.5-.5h12.18c.28,0,.5,.22,.5,.5s-.22,.5-.5,.5Z" fill="#002346"></path>
        <path d="M667.31,513.66c-.28,0-.5-.22-.5-.5v-5.5h-5.5c-.28,0-.5-.22-.5-.5s.22-.5,.5-.5h6c.28,0,.5,.22,.5,.5v6c0,.28-.22,.5-.5,.5Z" fill="#002346"></path>
        <path d="M667.31,638.15c-.28,0-.5-.22-.5-.5v-12.45c0-.28,.22-.5,.5-.5s.5,.22,.5,.5v12.45c0,.28-.22,.5-.5,.5Zm0-24.9c-.28,0-.5-.22-.5-.5v-12.45c0-.28,.22-.5,.5-.5s.5,.22,.5,.5v12.45c0,.28-.22,.5-.5,.5Zm0-24.9c-.28,0-.5-.22-.5-.5v-12.45c0-.28,.22-.5,.5-.5s.5,.22,.5,.5v12.45c0,.28-.22,.5-.5,.5Zm0-24.9c-.28,0-.5-.22-.5-.5v-12.45c0-.28,.22-.5,.5-.5s.5,.22,.5,.5v12.45c0,.28-.22,.5-.5,.5Zm0-24.9c-.28,0-.5-.22-.5-.5v-12.45c0-.28,.22-.5,.5-.5s.5,.22,.5,.5v12.45c0,.28-.22,.5-.5,.5Z" fill="#002346"></path>
        <path d="M667.31,656.6h-6c-.28,0-.5-.22-.5-.5s.22-.5,.5-.5h5.5v-5.5c0-.28,.22-.5,.5-.5s.5,.22,.5,.5v6c0,.28-.22,.5-.5,.5Z" fill="#002346"></path>
        <path d="M649.05,656.6h-12.27c-.28,0-.5-.22-.5-.5s.22-.5,.5-.5h12.27c.28,0,.5,.22,.5,.5s-.22,.5-.5,.5Zm-24.53,0h-12.27c-.28,0-.5-.22-.5-.5s.22-.5,.5-.5h12.27c.28,0,.5,.22,.5,.5s-.22,.5-.5,.5Zm-24.53,0h-12.27c-.28,0-.5-.22-.5-.5s.22-.5,.5-.5h12.27c.28,0,.5,.22,.5,.5s-.22,.5-.5,.5Zm-24.53,0h-12.27c-.28,0-.5-.22-.5-.5s.22-.5,.5-.5h12.27c.28,0,.5,.22,.5,.5s-.22,.5-.5,.5Zm-24.53,0h-12.27c-.28,0-.5-.22-.5-.5s.22-.5,.5-.5h12.27c.28,0,.5,.22,.5,.5s-.22,.5-.5,.5Zm-24.53,0h-12.27c-.28,0-.5-.22-.5-.5s.22-.5,.5-.5h12.27c.28,0,.5,.22,.5,.5s-.22,.5-.5,.5Z" fill="#002346"></path>
        <path d="M501.85,656.6h-6c-.28,0-.5-.22-.5-.5s.22-.5,.5-.5h6c.28,0,.5,.22,.5,.5s-.22,.5-.5,.5Z" fill="#002346"></path>
      </g>
      <g>
        <rect x="636.6" y="570.33" width="44.19" height="34.37" rx="3.35" ry="3.35" fill="#e6e7e8"></rect>
        <path d="M677.44,605.2h-37.49c-2.12,0-3.85-1.73-3.85-3.85v-27.67c0-2.12,1.73-3.85,3.85-3.85h37.49c2.12,0,3.85,1.73,3.85,3.85v27.67c0,2.12-1.73,3.85-3.85,3.85Zm-37.49-34.37c-1.57,0-2.85,1.28-2.85,2.85v27.67c0,1.57,1.28,2.85,2.85,2.85h37.49c1.57,0,2.85-1.28,2.85-2.85v-27.67c0-1.57-1.28-2.85-2.85-2.85h-37.49Z" fill="#002346"></path>
      </g>
      <g>
        <rect x="634.33" y="573.34" width="44.19" height="34.37" rx="3.35" ry="3.35" fill="#fff"></rect>
        <path d="M675.17,608.21h-37.49c-2.12,0-3.85-1.73-3.85-3.85v-27.67c0-2.12,1.73-3.85,3.85-3.85h37.49c2.12,0,3.85,1.73,3.85,3.85v27.67c0,2.12-1.73,3.85-3.85,3.85Zm-37.49-34.37c-1.57,0-2.85,1.28-2.85,2.85v27.67c0,1.57,1.28,2.85,2.85,2.85h37.49c1.57,0,2.85-1.28,2.85-2.85v-27.67c0-1.57-1.28-2.85-2.85-2.85h-37.49Z" fill="#002346"></path>
      </g>
      <g>
        <circle cx="649.06" cy="589.22" r="8.69" fill="#57bb54"></circle>
        <path d="M649.06,598.41c-5.07,0-9.19-4.12-9.19-9.19s4.12-9.19,9.19-9.19,9.19,4.12,9.19,9.19-4.12,9.19-9.19,9.19Zm0-17.38c-4.52,0-8.19,3.67-8.19,8.19s3.67,8.19,8.19,8.19,8.19-3.67,8.19-8.19-3.67-8.19-8.19-8.19Z" fill="#002346"></path>
      </g>
      <path d="M557.35,101.5c-.13,0-.26-.05-.35-.15-.2-.2-.2-.51,0-.71l12.01-12.01c.2-.2,.51-.2,.71,0s.2,.51,0,.71l-12.01,12.01c-.1,.1-.23,.15-.35,.15Z" fill="#002346"></path>
      <path d="M569.09,102.45c-.13,0-.27-.05-.37-.16l-11.74-12.64c-.19-.2-.18-.52,.03-.71,.2-.19,.52-.18,.71,.03l11.74,12.64c.19,.2,.18,.52-.03,.71-.1,.09-.22,.13-.34,.13Z" fill="#002346"></path>
      <path d="M450.16,204.55c-.11,0-.22-.04-.31-.11-.21-.17-.25-.49-.08-.7l17.69-22.01c.15-.18,.4-.24,.61-.14l19.47,9.5,16.18-24.83c.07-.11,.19-.19,.32-.22,.13-.03,.27,0,.38,.08l19.49,13.37,12.56-25.4c.12-.24,.4-.34,.65-.24l18.28,8.03,18.97-28.63c.15-.23,.46-.29,.69-.14,.23,.15,.29,.46,.14,.69l-19.2,28.98c-.14,.2-.4,.28-.62,.18l-18.23-8.01-12.61,25.49c-.06,.13-.18,.23-.32,.26-.14,.04-.29,.01-.41-.07l-19.55-13.41-16.14,24.77c-.14,.21-.41,.29-.64,.18l-19.51-9.52-17.44,21.7c-.1,.12-.24,.19-.39,.19Z" fill="#002346"></path>
      <path d="M576.82,139.62c-.28,0-.5-.22-.5-.5v-7.13l-7.21,.37c-.28,.02-.51-.2-.53-.47-.01-.28,.2-.51,.47-.52l7.73-.4c.13-.02,.27,.04,.37,.14,.1,.09,.16,.23,.16,.36v7.66c0,.28-.22,.5-.5,.5Z" fill="#002346"></path>
    </g>
    <ellipse cx="263.18" cy="256.3" rx="18.5" ry="14" fill="#002346" stroke="#002346" stroke-miterlimit="10"></ellipse>
  </g>
</svg>
