<?xml version="1.0" encoding="UTF-8"?>
<svg xmlns="http://www.w3.org/2000/svg" width="865.76" height="682.89" viewBox="0 0 865.76 682.89">
  <g opacity="0.36">
    <rect x="45.52" y="184.62" width="239.95" height="142.25" rx="11.02" fill="#65cd81"></rect>
  </g>
  <g opacity="0.36">
    <rect x="57.3" y="195.82" width="239.95" height="142.25" rx="11.02" fill="#65cd81"></rect>
  </g>
  <g opacity="0.36">
    <rect x="81.39" y="278.37" width="180.97" height="6.93" rx="3.13" fill="#65cd81"></rect>
  </g>
  <g opacity="0.36">
    <rect x="81.64" y="296" width="180.97" height="6.93" rx="3.13" fill="#65cd81"></rect>
  </g>
  <g opacity="0.36">
    <rect x="81.64" y="311.79" width="70.27" height="6.93" rx="3.13" fill="#65cd81"></rect>
  </g>
  <rect x="274.87" y="255.75" width="71.22" height="44.71" rx="5.23" fill="#f35733"></rect>
  <rect x="281.69" y="272.28" width="16.45" height="16.45" fill="#fff"></rect>
  <path d="M343.11,264.84H281.69a.25.25,0,0,1-.25-.25.25.25,0,0,1,.25-.25h61.42a.25.25,0,0,1,.25.25A.25.25,0,0,1,343.11,264.84Z" fill="#fff"></path>
  <path d="M334.15,274.91H304.08a.25.25,0,0,1-.25-.25.25.25,0,0,1,.25-.25h30.07a.25.25,0,0,1,.25.25A.25.25,0,0,1,334.15,274.91Z" fill="#fff"></path>
  <path d="M334.15,277.83H304.08a.25.25,0,0,1,0-.5h30.07a.25.25,0,0,1,0,.5Z" fill="#fff"></path>
  <path d="M334.15,280.76H304.08a.25.25,0,1,1,0-.5h30.07a.25.25,0,0,1,0,.5Z" fill="#fff"></path>
  <path d="M322.28,286.61h-18.2a.25.25,0,0,1,0-.5h18.2a.25.25,0,0,1,0,.5Z" fill="#fff"></path>
  <path d="M590.48,194.33s4.79-1.19,7.74.64a3.67,3.67,0,0,1,1.66,3.64,17.67,17.67,0,0,1-1.77,5.63Z" fill="#594440"></path>
  <g opacity="0.2">
    <path d="M590.48,194.33s4.79-1.19,7.74.64a3.67,3.67,0,0,1,1.66,3.64,17.67,17.67,0,0,1-1.77,5.63Z"></path>
  </g>
  <path d="M466.22,235.29s-22.94-20.83-13.6-26c0,0-.55-7.41,9.06-8,0,0-1.1-9,7.13-4.23L462,178.66a2.88,2.88,0,0,1,2.12-3.83h0a2.87,2.87,0,0,1,3.18,1.57l10,20.65a13.32,13.32,0,0,1,4.57-1.25,4.31,4.31,0,0,1,4.5,3.53A126.15,126.15,0,0,1,488.17,221S474.83,224.43,466.22,235.29Z" fill="#f5ae97"></path>
  <path d="M559.29,216s-10,5.58-19.92,20.4l-16.74,25-30.2-41.31s-19.22,2.59-27.46,17.15l40.36,65.06s16.25,26.46,41.18,0l22.69-32.66s-8.36-23.64-12.46-33.19a24.68,24.68,0,0,1-2-7.93C554.58,225.65,558.44,218.14,559.29,216Z" fill="#65cd81"></path>
  <path d="M591.77,346.78l-12.7,129a33.71,33.71,0,0,0,.65,10.65l23.85,106.72h42L630.84,480.87l16.37-60.32,66.1,172.63,39.47-2.25S699,402.32,690,337.52l-19.47-19.23Z" fill="#594440"></path>
  <path d="M564.93,213.4s-16.19,3.69-9.53,20.24a360.07,360.07,0,0,1,20,62.17s.77,37.2,16.41,41.95v9s16.59,9.73,44.12,6.88l3.32,12.82s21.6,3.56,35.84-4.51l-1.9-17.57A60.83,60.83,0,0,0,690,337.52s-12.63-63.92-22.58-94.78a56.34,56.34,0,0,0-21.85-29.62,47.08,47.08,0,0,0-35.17-7.61l-12.3-1.27L579,213.54l-6.44-.82A23.55,23.55,0,0,1,564.93,213.4Z" fill="#65cd81"></path>
  <path d="M585.37,187.67l12.74,16.57s-6.84,14.37-17.44,19.11l-8.14-10.63Z" fill="#f5ae97"></path>
  <path d="M586,220s6.35-1.23,5.78,12.47c0,0,20.88-9.09,19.53-26.42a3.81,3.81,0,0,0-1.61-2.79L599.27,196S600.27,206.88,586,220Z" fill="#594440"></path>
  <path d="M564.93,213.4a28,28,0,0,0,4.75,14.07s2.39-6.7,9.2-6.45l-6.35-8.3A22.49,22.49,0,0,1,564.93,213.4Z" fill="#594440"></path>
  <polygon points="567.37 311.89 575.57 239.34 580.48 238.77 588.03 309.83 581.63 331.11 567.37 311.89" fill="#f35733"></polygon>
  <g opacity="0.4">
    <path d="M632.25,340l7,26.49s22,3.62,35.84-4.51l-2.71-26.73-15.29,2.48s0,9.92-2.28,15.08a33.77,33.77,0,0,1-7.43-13.63Z" fill="#fff"></path>
  </g>
  <g opacity="0.4">
    <path d="M660.83,337.61a.5.5,0,0,1-.49-.42l-15.52-95.82a25.19,25.19,0,0,0-9.62-16.15,92,92,0,0,0-14.52-8.75.51.51,0,0,1-.25-.66.52.52,0,0,1,.67-.25,93,93,0,0,1,14.7,8.86,26.2,26.2,0,0,1,10,16.79L661.33,337a.5.5,0,0,1-.42.57Z" fill="#fff"></path>
  </g>
  <g opacity="0.4">
    <path d="M465,237.25l13.45,21.68,9.61-6.86-2.19-14.82,11.53,8.23,9.5-5.63L492.43,220.1S473.76,222.15,465,237.25Z" fill="#fff"></path>
  </g>
  <g opacity="0.2">
    <polygon points="630.84 480.87 632.25 381.67 647.21 420.55 630.84 480.87"></polygon>
  </g>
  <g opacity="0.2">
    <path d="M591.77,337.76s11.63,7.12,30.13,7.12L611.68,249s13.53,34.18,15.19,54.35c0,0,2,28.68,5.38,36.65l3.64,13.67s-26.53,3.32-44.12-6.88Z"></path>
  </g>
  <g opacity="0.2">
    <path d="M688.26,328.9l-4.74,2.21-22.69-58.39,8.66,63,2.85-.46.81,9.16s10.92-2.84,16.86-6.88Z"></path>
  </g>
  <rect x="424.65" y="415.13" width="311.41" height="7.6" fill="#e6e7e8"></rect>
  <path d="M424.65,422.73l-71.53,207h22.16L445,476a42.33,42.33,0,0,1,38.54-24.83H677.14A42.34,42.34,0,0,1,715.68,476L785.42,629.7h20.89l-70.26-207Z" fill="#d1d3d4"></path>
  <path d="M647.21,367.28,656,401.21h64.66s-5.9-6.06-24.8-7.54l-23-5.61-5.45-22.89S661.42,367.17,647.21,367.28Z" fill="#f5ae97"></path>
  <path d="M694.41,401.71a.51.51,0,0,1-.42-.23c-.06-.08-3.69-5.28-17.33-6.13a.49.49,0,0,1-.46-.53.47.47,0,0,1,.53-.47c14.26.9,17.95,6.36,18.1,6.59a.49.49,0,0,1-.15.69A.5.5,0,0,1,694.41,401.71Z" fill="#f49a82"></path>
  <path d="M549.51,376.38H417.27a10.53,10.53,0,0,1-10.13-7.66L385.41,292a10.53,10.53,0,0,1,10.13-13.4H526.91a10.53,10.53,0,0,1,10.1,7.56l22.6,76.76A10.53,10.53,0,0,1,549.51,376.38Z" fill="#7f81b4"></path>
  <g opacity="0.4">
    <path d="M539,370.22H424.79a9.63,9.63,0,0,1-9.23-7l-18.77-66.31A9.6,9.6,0,0,1,406,284.72H519.51a9.64,9.64,0,0,1,9.2,6.89l19.52,66.3a9.6,9.6,0,0,1-9.2,12.31Zm-133-84.5a8.59,8.59,0,0,0-8.27,10.94L416.52,363a8.62,8.62,0,0,0,8.27,6.25H539a8.59,8.59,0,0,0,8.24-11l-19.52-66.31a8.65,8.65,0,0,0-8.24-6.17Z" fill="#fff"></path>
  </g>
  <path d="M473.71,390.81l-10.72-39a10.38,10.38,0,0,1,7.9-12.77h0A10.38,10.38,0,0,1,483,346.11l14.4,44.7h16.2a7.72,7.72,0,0,1,7.72,7.72v2.68H454.53v-2.83a7.72,7.72,0,0,1,7.82-7.72Z" fill="#7f81b4"></path>
  <g opacity="0.2">
    <path d="M473.71,390.81l-10.72-39a10.38,10.38,0,0,1,7.9-12.77h0A10.38,10.38,0,0,1,483,346.11l14.4,44.7h16.2a7.72,7.72,0,0,1,7.72,7.72v2.68H454.53v-2.83a7.72,7.72,0,0,1,7.82-7.72Z"></path>
  </g>
  <polygon points="720.75 592.75 724.45 602.09 746.3 614.66 750.93 609.59 746.97 591.26 720.75 592.75" fill="#f5ae97"></polygon>
  <path d="M697.77,625.36s-2.34-11.23,11.22-15.19a23.1,23.1,0,0,0,7.37-3.52,14.29,14.29,0,0,0,4-4.31,13.1,13.1,0,0,1,1.27-2c1.66-2.08,5.62-5.88,11.59-4.65a12.3,12.3,0,0,1,7.78,5.55,30.37,30.37,0,0,1,4.3,10.55s4.38-1.56,3.82-10.49c0,0,3.38,2.07,5,24.07Z" fill="#65cd81"></path>
  <rect x="697.77" y="625.36" width="56.38" height="4.34" fill="#594440"></rect>
  <rect x="605.74" y="593.18" width="23.91" height="17.22" fill="#f5ae97"></rect>
  <path d="M638.79,620.87l-23.23.11a10.77,10.77,0,0,0-4.9,1.28c-7.36,3.89-16.49,4.27-16.49,4.27H549.65c-.95-6.32,5.22-8.38,5.22-8.38a114.71,114.71,0,0,0,35-12.74,42,42,0,0,0,7.25-5.26c5.23-4.65,8.67-4.72,8.67-4.72,3.55-.37,3.86,6.24,3.86,8.68a7.41,7.41,0,0,0,.46,2.72c1.61,4.12,5.75,1.77,8.41-.34a16.19,16.19,0,0,0,3.28-3.67,9.68,9.68,0,0,1,3.94-3.48,5.77,5.77,0,0,1,7.83,3.33C635.85,609.24,638.79,620.87,638.79,620.87Z" fill="#65cd81"></path>
  <path d="M638.79,620.87v9.94H613.58v-6.33c-6.49,4.75-18.68,6.33-18.68,6.33H549.65v-4.28h44.52s9.13-.38,16.49-4.27a10.77,10.77,0,0,1,4.9-1.28Z" fill="#594440"></path>
  <g opacity="0.36">
    <rect x="105.29" y="41.88" width="366.35" height="202.14" rx="9.58" fill="#65cd81"></rect>
  </g>
  <rect x="110.37" y="46.23" width="350.22" height="184.05" rx="9.58" fill="#65cd81"></rect>
  <rect x="115.2" y="50.92" width="341.04" height="174.52" rx="2.36" fill="#fff"></rect>
  <g opacity="0.36">
    <path d="M450.35,222.08H121.58a3.5,3.5,0,0,1-3.5-3.5V56.83a3.5,3.5,0,0,1,3.5-3.49H450.35a3.49,3.49,0,0,1,3.49,3.49V218.58A3.5,3.5,0,0,1,450.35,222.08ZM121.58,54.34a2.5,2.5,0,0,0-2.5,2.49V218.58a2.5,2.5,0,0,0,2.5,2.5H450.35a2.5,2.5,0,0,0,2.49-2.5V56.83a2.5,2.5,0,0,0-2.49-2.49Z" fill="#65cd81"></path>
  </g>
  <g opacity="0.36">
    <rect x="173.87" y="53.84" width="1" height="167.74" fill="#65cd81"></rect>
  </g>
  <g opacity="0.36">
    <rect x="228.94" y="53.84" width="1" height="167.74" fill="#65cd81"></rect>
  </g>
  <g opacity="0.36">
    <rect x="285.46" y="54.38" width="1" height="167.74" fill="#65cd81"></rect>
  </g>
  <g opacity="0.36">
    <rect x="340.53" y="54.38" width="1" height="167.74" fill="#65cd81"></rect>
  </g>
  <g opacity="0.36">
    <rect x="396.69" y="54.38" width="1" height="167.74" fill="#65cd81"></rect>
  </g>
  <g opacity="0.36">
    <rect x="118.58" y="80.87" width="334.76" height="1" fill="#65cd81"></rect>
  </g>
  <g opacity="0.36">
    <rect x="118.58" y="108.04" width="334.76" height="1" fill="#65cd81"></rect>
  </g>
  <g opacity="0.36">
    <rect x="118.58" y="137.21" width="334.76" height="1" fill="#65cd81"></rect>
  </g>
  <g opacity="0.36">
    <rect x="118.58" y="164.38" width="334.76" height="1" fill="#65cd81"></rect>
  </g>
  <g opacity="0.36">
    <rect x="118.58" y="191.55" width="334.76" height="1" fill="#65cd81"></rect>
  </g>
  <polygon points="369.88 192.96 341.05 165.59 315.55 192.92 315.22 192.28 259.72 82.18 229.85 108.85 204.5 162.81 190.32 177.72 189.59 177.03 203.66 162.24 229.03 108.24 229.11 108.17 260.03 80.56 260.32 81.15 315.79 191.19 341.01 164.17 369.43 191.15 396.75 109.36 396.83 109.28 452.99 53.48 453.7 54.19 397.62 109.9 369.88 192.96" fill="#594440"></polygon>
  <path d="M397.19,165.38a.51.51,0,0,1-.36-.15l-55.78-56L315,138a.46.46,0,0,1-.36.17.51.51,0,0,1-.36-.15L286,109.25l-56.16,56a.5.5,0,0,1-.69,0L199.75,138.4l-22.12,21.94a.5.5,0,1,1-.71-.71l22.46-22.28a.51.51,0,0,1,.69,0l29.36,26.85,56.18-56A.51.51,0,0,1,286,108h0a.51.51,0,0,1,.36.15L314.57,137l26.09-28.77A.53.53,0,0,1,341,108a.58.58,0,0,1,.37.15L397.05,164,452.9,53.61a.49.49,0,0,1,.67-.22.5.5,0,0,1,.22.67L397.63,165.11a.48.48,0,0,1-.36.26Z" fill="#65cd81"></path>
  <circle cx="120.91" cy="202.22" r="68.03" fill="#65cd81"></circle>
  <path d="M578.88,221l-7.34-9.5,10.25-12.42S588.56,211.61,578.88,221Z" fill="#f49a82"></path>
  <path d="M532.6,167s2.57,6.74,8.76,8.52l-.46-1.94a22.06,22.06,0,0,1,.33-8.54S537.68,164.43,532.6,167Z" fill="#5a1f20"></path>
  <g opacity="0.2">
    <path d="M532.6,167s2.57,6.74,8.76,8.52l-.46-1.94a22.06,22.06,0,0,1,.33-8.54S537.68,164.43,532.6,167Z"></path>
  </g>
  <rect x="544.13" y="150.17" width="38.7" height="63.86" rx="17.47" transform="translate(-28.5 167.08) rotate(-16.46)" fill="#f5ae97"></rect>
  <path d="M530.36,168.22c3.24-2,10.35-5.33,17.77-1.3a67.07,67.07,0,0,0,25.36,2.6l1.23,6.31a4.4,4.4,0,0,0,4.89,3.52l11.91-1.57s7.33-11.72-3.62-23.83c0,0,.58-15.27-12.39-16.42,0,0-9.07-1.16-12-3.75,0,0-1.8,2.59,2.23,4.9,0,0-30.87-4.69-36.81,28.54A1,1,0,0,0,530.36,168.22Z" fill="#5a1f20"></path>
  <ellipse cx="585.37" cy="179.89" rx="6.4" ry="7.78" fill="#f5ae97"></ellipse>
  <circle cx="578.62" cy="230.44" r="9.42" fill="#f35733"></circle>
  <g opacity="0.2">
    <circle cx="578.62" cy="230.44" r="9.42"></circle>
  </g>
  <rect x="339.2" y="401.21" width="481.04" height="13.92" fill="#d1d3d4"></rect>
  <circle cx="127.55" cy="206.28" r="68.03" fill="#fff"></circle>
  <path d="M70.39,182.27l28,10.55,56.09-4,26.25-14.41s-18.47-34.74-61-29.85C119.67,144.59,87.6,146.58,70.39,182.27Z" fill="#7f81b4"></path>
  <path d="M96.59,197.43,68.36,187.21S50,247.28,115.2,266.94L120,238.22l-1.41-21.52Z" fill="#65cd81"></path>
  <path d="M120.91,267.61l4.64-36.05,23-10,30.58,19.15S164.68,269.14,120.91,267.61Z" fill="#f35733"></path>
  <path d="M183.48,178.7l-28.86,16.15,2.21,25.66,24.7,15.84S198.38,209.72,183.48,178.7Z" fill="#594440"></path>
  <circle cx="127.55" cy="206.77" r="32.34" fill="#fff"></circle>
  <path d="M127.55,236.85a30.08,30.08,0,1,1,30.08-30.08A30.12,30.12,0,0,1,127.55,236.85Zm0-59.15a29.08,29.08,0,1,0,29.08,29.07A29.11,29.11,0,0,0,127.55,177.7Z" fill="#65cd81"></path>
  <path d="M128.59,227.6v.08a2.23,2.23,0,0,1-2.23,2.23h0a2.23,2.23,0,0,1-2.23-2.23v-.13a2.26,2.26,0,0,0-1.62-2.14,9.91,9.91,0,0,1-7-8.07,2.23,2.23,0,0,1,2.21-2.61h1.21a2.24,2.24,0,0,1,2.18,1.79c.6,2.74,2.56,4.07,5.39,4.07,3.67,0,5.48-2.19,5.48-5.25,0-7.62-16.05-8.06-16.05-19.45a9.18,9.18,0,0,1,6.54-9.08,2.28,2.28,0,0,0,1.62-2.15v-.18a2.23,2.23,0,0,1,2.23-2.23h0a2.23,2.23,0,0,1,2.23,2.23v.11a2.28,2.28,0,0,0,1.65,2.15,9.56,9.56,0,0,1,6.59,7.55,2.22,2.22,0,0,1-2.19,2.64h-1.19a2.22,2.22,0,0,1-2.16-1.71,4.48,4.48,0,0,0-4.78-3.71c-3.12,0-4.93,1.75-4.93,4.49,0,7.5,16.11,7.5,16.11,19.39a10.1,10.1,0,0,1-7.42,10.06A2.24,2.24,0,0,0,128.59,227.6Z" fill="#65cd81"></path>
  <path d="M707.77,69.85a46.71,46.71,0,1,1-64.51-14.21A46.7,46.7,0,0,1,707.77,69.85Z" fill="#65cd81"></path>
  <g opacity="0.1">
    <path d="M643.26,55.64a46.7,46.7,0,0,0-14.2,64.5s28.44-16.42,28-31.82S643.26,55.64,643.26,55.64Z" fill="#fff"></path>
  </g>
  <path d="M697.31,75.66a35.5,35.5,0,1,1-49-10.8,35.5,35.5,0,0,1,49,10.8Z" fill="#65cd81"></path>
  <g opacity="0.2">
    <path d="M697.31,75.66a35.5,35.5,0,1,1-49-10.8,35.5,35.5,0,0,1,49,10.8Z"></path>
  </g>
  <path d="M698.94,76.37a35,35,0,1,1-48.38-10.7,35,35,0,0,1,48.38,10.7Z" fill="#65cd81"></path>
  <g opacity="0.2">
    <path d="M698.94,76.37a35,35,0,1,1-48.38-10.7,35,35,0,0,1,48.38,10.7Z" fill="#fff"></path>
  </g>
  <path d="M669,91.91l-4.82-7.54h0a18.05,18.05,0,0,1,4.68-1.52,15.41,15.41,0,0,1,2.63,0l-.05-.29-.56-3.47-.13-.79-2.26-.56-.46.71a16.22,16.22,0,0,0-6.47,1.92l-2.66-4.17L657,76l.63,1.07-1.81,1.07,2.7,4.24c-5.47,4.28-6.12,9.38-3.69,13.19,3.32,5.19,8.65,3.7,13.45,2.06l4.77,7.48a16.88,16.88,0,0,1-9.3,1.93l.75,4.91a19.35,19.35,0,0,0,11.18-2.82l2,3.14-1.44,1,2.09.07,3.07-2-2.68-4.18c5.49-4.35,6.19-9.44,3.75-13.25C679.14,88.69,673.77,90.28,669,91.91Zm-3.57,1.18c-2.57.76-4.69,1-5.86-.84s-.78-3.72,1.6-5.82Zm10.69,10-4.23-6.61c2.66-.8,4.82-1.06,6,.83,1,1.61.67,3.62-1.8,5.78Z" fill="#65cd81"></path>
  <g opacity="0.3">
    <path d="M669,91.91l-4.82-7.54h0a18.05,18.05,0,0,1,4.68-1.52,15.41,15.41,0,0,1,2.63,0l-.05-.29-.56-3.47-.13-.79-2.26-.56-.46.71a16.22,16.22,0,0,0-6.47,1.92l-2.66-4.17L657,76l.63,1.07-1.81,1.07,2.7,4.24c-5.47,4.28-6.12,9.38-3.69,13.19,3.32,5.19,8.65,3.7,13.45,2.06l4.77,7.48a16.88,16.88,0,0,1-9.3,1.93l.75,4.91a19.35,19.35,0,0,0,11.18-2.82l2,3.14-1.44,1,2.09.07,3.07-2-2.68-4.18c5.49-4.35,6.19-9.44,3.75-13.25C679.14,88.69,673.77,90.28,669,91.91Zm-3.57,1.18c-2.57.76-4.69,1-5.86-.84s-.78-3.72,1.6-5.82Zm10.69,10-4.23-6.61c2.66-.8,4.82-1.06,6,.83,1,1.61.67,3.62-1.8,5.78Z"></path>
  </g>
  <path d="M676.78,106.92l2.68,4.2-3.08,2-2.64-4.15a19.71,19.71,0,0,1-11.16,2.76l-.76-4.91a17.29,17.29,0,0,0,9.31-1.93l-4.79-7.49c-4.79,1.65-10.1,3.14-13.42-2.06-2.49-3.88-1.8-8.91,3.68-13.2l-2.72-4.24,3.08-2,2.65,4.17a19.13,19.13,0,0,1,9-2.58l.92,4.82a18.26,18.26,0,0,0-7.36,1.84l4.84,7.55c4.8-1.64,10.17-3.22,13.49,2C683,97.49,682.26,102.57,676.78,106.92Zm-13.3-14-4.26-6.66c-2.34,2.08-2.65,4.17-1.61,5.82s3.3,1.59,5.87.84ZM676,97.07c-1.17-1.83-3.34-1.6-6-.84l4.23,6.62c2.46-2.15,2.8-4.17,1.78-5.78Z" fill="#65cd81"></path>
  <path d="M646.69,134.87a1.7,1.7,0,0,1-.38-.19l-1-.59c-.45-.25-1-.59-1.63-1s-1.33-.87-2.07-1.46c-.37-.3-.76-.59-1.17-.89s-.79-.68-1.23-1.06c-.86-.71-1.69-1.54-2.58-2.41a46.17,46.17,0,0,1-9.2-13.2c-.5-1.13-1-2.22-1.35-3.26-.2-.52-.4-1-.53-1.47s-.3-1-.43-1.43c-.3-.87-.46-1.72-.65-2.43a17.37,17.37,0,0,1-.38-1.88c-.08-.53-.15-.88-.2-1.19a.21.21,0,1,1,.08,0c.06.3.15.7.25,1.17s.24,1.14.44,1.85.39,1.56.69,2.43c.15.45.3.91.45,1.4s.38,1,.54,1.46c.38,1,.88,2.09,1.37,3.23a54.43,54.43,0,0,0,4,6.94,52.22,52.22,0,0,0,5.12,6.17c.88.86,1.7,1.7,2.55,2.41.41.36.8.72,1.22,1.06l1.14.92c.73.59,1.43,1.05,2,1.47s1.14.79,1.59,1.06l1,.66A1.31,1.31,0,0,1,646.69,134.87Z" fill="#fff"></path>
  <path d="M657.49,96.84a3,3,0,0,1-1.42-.31,5.48,5.48,0,0,1-3.37-5.72,3,3,0,0,1,.41-1.41,7.4,7.4,0,0,0-.17,1.43,5.73,5.73,0,0,0,3.23,5.48C657,96.69,657.5,96.78,657.49,96.84Z" fill="#fff"></path>
  <path d="M656.85,81.11a6.29,6.29,0,0,1-1.6-2.52c.09,0,.5.46.94,1.14A3.11,3.11,0,0,1,656.85,81.11Z" fill="#fff"></path>
  <path d="M650.49,62.35a5.51,5.51,0,0,1-1,.59l-1.14.67-1.52.9a10.09,10.09,0,0,0-1.76,1.23c-.57.54-1.22,1-1.92,1.52a41.22,41.22,0,0,0-4,3.94,40.13,40.13,0,0,0-3.35,4.53c-.43.74-.92,1.46-1.23,2.12s-.68,1.31-1,1.91-.5,1.13-.71,1.61-.37.9-.49,1.24a5.74,5.74,0,0,1-.43,1.06,6.76,6.76,0,0,1,.3-1.09,13.17,13.17,0,0,1,.44-1.28c.19-.49.38-1,.67-1.65s.56-1.26.93-1.94.77-1.4,1.2-2.15A35.18,35.18,0,0,1,643,67c.69-.55,1.32-1.08,2-1.51s1.27-.88,1.79-1.2,1.08-.65,1.53-.91l1.16-.68Z" fill="#fff"></path>
  <path d="M697.05,129.27a5.67,5.67,0,0,1-.58.62,21.86,21.86,0,0,1-1.74,1.59,34.62,34.62,0,0,1-6.43,4.22,34.15,34.15,0,0,1-7.33,2.71c-1,.21-1.76.37-2.31.43a5,5,0,0,1-.86.1,3.54,3.54,0,0,1,.83-.23c.55-.1,1.33-.29,2.28-.55a37.46,37.46,0,0,0,13.67-6.87c.78-.62,1.39-1.14,1.82-1.5A3,3,0,0,1,697.05,129.27Z" fill="#fff"></path>
  <path d="M799.45,220a46.7,46.7,0,1,1-48.32-45A46.71,46.71,0,0,1,799.45,220Z" fill="#65cd81"></path>
  <g opacity="0.1">
    <path d="M751.13,174.9a46.7,46.7,0,0,0-45,48.32s32.83.32,40.26-13.17S751.13,174.9,751.13,174.9Z" fill="#fff"></path>
  </g>
  <path d="M787.49,219.62a35.5,35.5,0,1,1-36.73-34.23,35.51,35.51,0,0,1,36.73,34.23Z" fill="#65cd81"></path>
  <g opacity="0.2">
    <path d="M787.49,219.62a35.5,35.5,0,1,1-36.73-34.23,35.51,35.51,0,0,1,36.73,34.23Z"></path>
  </g>
  <path d="M788.53,221.07a35,35,0,1,1-36.21-33.82,35,35,0,0,1,36.21,33.82Z" fill="#65cd81"></path>
  <g opacity="0.2">
    <path d="M788.53,221.07a35,35,0,1,1-36.21-33.82,35,35,0,0,1,36.21,33.82Z" fill="#fff"></path>
  </g>
  <path d="M754.82,219.21l-.31-9h0a17.88,17.88,0,0,1,4.8,1.08,14.38,14.38,0,0,1,2.28,1.32l.1-.28,1.28-3.27.29-.76-1.66-1.63-.75.39a16.42,16.42,0,0,0-6.55-1.65l-.17-4.93-1.54-1.18v1.24h-2.1l.17,5c-6.89.9-10,5-9.89,9.48.22,6.15,5.57,7.58,10.53,8.61l.31,8.87a16.88,16.88,0,0,1-9-3.07l-1.85,4.61a19.38,19.38,0,0,0,11.05,3.26l.13,3.72-1.72.09,1.76,1.12,3.65-.14-.19-5c6.95-1,10.13-5,10-9.5C765.21,221.61,759.79,220.24,754.82,219.21Zm-3.67-.8c-2.6-.66-4.54-1.54-4.61-3.71s1.21-3.59,4.33-4.19Zm4.13,14-.27-7.84c2.69.66,4.69,1.54,4.76,3.78.06,1.91-1.26,3.46-4.49,4.06Z" fill="#65cd81"></path>
  <g opacity="0.3">
    <path d="M754.82,219.21l-.31-9h0a17.88,17.88,0,0,1,4.8,1.08,14.38,14.38,0,0,1,2.28,1.32l.1-.28,1.28-3.27.29-.76-1.66-1.63-.75.39a16.42,16.42,0,0,0-6.55-1.65l-.17-4.93-1.54-1.18v1.24h-2.1l.17,5c-6.89.9-10,5-9.89,9.48.22,6.15,5.57,7.58,10.53,8.61l.31,8.87a16.88,16.88,0,0,1-9-3.07l-1.85,4.61a19.38,19.38,0,0,0,11.05,3.26l.13,3.72-1.72.09,1.76,1.12,3.65-.14-.19-5c6.95-1,10.13-5,10-9.5C765.21,221.61,759.79,220.24,754.82,219.21Zm-3.67-.8c-2.6-.66-4.54-1.54-4.61-3.71s1.21-3.59,4.33-4.19Zm4.13,14-.27-7.84c2.69.66,4.69,1.54,4.76,3.78.06,1.91-1.26,3.46-4.49,4.06Z"></path>
  </g>
  <path d="M753.91,236.1l.17,5-3.64.13-.17-4.92a19.64,19.64,0,0,1-11-3.31l1.85-4.61a17.2,17.2,0,0,0,9,3.07l-.3-8.88c-5-1-10.3-2.43-10.52-8.59-.17-4.62,3-8.6,9.88-9.51l-.18-5,3.64-.12.17,4.93a19,19,0,0,1,9.1,2.38l-1.66,4.61a18.55,18.55,0,0,0-7.27-2.15l.32,9c5,1,10.4,2.4,10.61,8.57C764.05,231.14,760.85,235.15,753.91,236.1Zm-4.3-18.86-.28-7.9c-3.07.6-4.41,2.24-4.35,4.19s2,3.05,4.63,3.71Zm8.61,10c-.08-2.17-2.06-3.07-4.75-3.78l.28,7.86c3.21-.6,4.53-2.17,4.47-4.08Z" fill="#65cd81"></path>
  <path d="M713.79,244.86a2.13,2.13,0,0,1-.23-.35l-.6-1c-.26-.45-.57-1-.89-1.7s-.71-1.42-1.05-2.3c-.16-.45-.35-.89-.55-1.37s-.34-1-.52-1.54c-.39-1-.68-2.18-1-3.38a46.16,46.16,0,0,1-1.2-16.05c.14-1.23.26-2.41.49-3.49.09-.55.17-1.07.29-1.53s.24-1,.36-1.45c.18-.91.47-1.72.67-2.43a16.83,16.83,0,0,1,.63-1.81c.2-.49.33-.83.44-1.12a1.38,1.38,0,0,1,.18-.39,2.17,2.17,0,0,1-.11.42c-.11.29-.23.67-.38,1.13s-.37,1.11-.56,1.82-.46,1.53-.64,2.44c-.1.46-.21.94-.32,1.43s-.17,1-.28,1.54c-.2,1.07-.31,2.24-.46,3.47a55.18,55.18,0,0,0-.08,8,53,53,0,0,0,1.28,7.91c.32,1.19.6,2.33,1,3.37.16.52.32,1,.5,1.54l.53,1.37c.32.87.69,1.63,1,2.3s.59,1.26.83,1.72l.54,1.08A1.43,1.43,0,0,1,713.79,244.86Z" fill="#fff"></path>
  <path d="M742.43,217.61a3,3,0,0,1-1.06-1,5.48,5.48,0,0,1,0-6.64,3.05,3.05,0,0,1,1.08-1,7.59,7.59,0,0,0-.88,1.14,5.73,5.73,0,0,0,0,6.37C742.05,217.21,742.48,217.56,742.43,217.61Z" fill="#fff"></path>
  <path d="M749.89,203.74a3.1,3.1,0,0,1-.23-1.44,3.35,3.35,0,0,1,.12-1.54c.11,0,.2.65.23,1.46A3.26,3.26,0,0,1,749.89,203.74Z" fill="#fff"></path>
  <path d="M754,184.36a5.62,5.62,0,0,1-1.16,0H749.7a9.53,9.53,0,0,0-2.13.17c-.77.17-1.54.2-2.43.32a40.47,40.47,0,0,0-5.44,1.37,39.4,39.4,0,0,0-5.19,2.2c-.75.41-1.53.78-2.13,1.19s-1.26.79-1.8,1.16-1,.72-1.43,1-.78.58-1.06.81a4.64,4.64,0,0,1-.91.69,7.56,7.56,0,0,1,.82-.78c.27-.26.61-.55,1-.88s.86-.7,1.41-1.07,1.12-.8,1.78-1.2,1.39-.82,2.14-1.25a39.25,39.25,0,0,1,5.21-2.23,39.9,39.9,0,0,1,5.51-1.35c.87-.12,1.69-.26,2.46-.31s1.53-.1,2.15-.12,1.26,0,1.78,0h1.34Z" fill="#fff"></path>
  <path d="M760,265.65a4.45,4.45,0,0,1-.81.24,18.21,18.21,0,0,1-2.31.48,33.5,33.5,0,0,1-7.68.37,34,34,0,0,1-7.69-1.4c-.94-.31-1.71-.57-2.21-.8a4.31,4.31,0,0,1-.79-.35,3.29,3.29,0,0,1,.83.23c.52.18,1.29.41,2.25.68a37.77,37.77,0,0,0,15.26,1c1-.14,1.77-.28,2.32-.37A2.92,2.92,0,0,1,760,265.65Z" fill="#fff"></path>
  <path d="M816.9,106.77a35.78,35.78,0,1,1-37-34.51A35.78,35.78,0,0,1,816.9,106.77Z" fill="#65cd81"></path>
  <g opacity="0.1">
    <path d="M779.88,72.26a35.79,35.79,0,0,0-34.5,37s25.16.25,30.85-10.09S779.88,72.26,779.88,72.26Z" fill="#fff"></path>
  </g>
  <path d="M807.73,106.52A27.19,27.19,0,1,1,779.6,80.29a27.18,27.18,0,0,1,28.13,26.23Z" fill="#65cd81"></path>
  <g opacity="0.2">
    <path d="M807.73,106.52A27.19,27.19,0,1,1,779.6,80.29a27.18,27.18,0,0,1,28.13,26.23Z"></path>
  </g>
  <path d="M808.53,107.63a26.83,26.83,0,1,1-27.74-25.91,26.83,26.83,0,0,1,27.74,25.91Z" fill="#65cd81"></path>
  <g opacity="0.2">
    <path d="M808.53,107.63a26.83,26.83,0,1,1-27.74-25.91,26.83,26.83,0,0,1,27.74,25.91Z" fill="#fff"></path>
  </g>
  <path d="M782.71,106.2l-.24-6.85h0a13.72,13.72,0,0,1,3.68.82,10.8,10.8,0,0,1,1.74,1L788,101l1-2.51.22-.57-1.27-1.25-.58.29a12.61,12.61,0,0,0-5-1.26l-.13-3.78L781,91v1h-1.61l.12,3.85c-5.27.69-7.69,3.8-7.57,7.27.17,4.71,4.27,5.8,8.07,6.59l.24,6.8a12.91,12.91,0,0,1-6.89-2.36l-1.42,3.53a14.77,14.77,0,0,0,8.47,2.5l.09,2.85-1.31.07,1.35.86,2.79-.1-.14-3.81c5.32-.73,7.76-3.81,7.64-7.28C790.67,108,786.51,107,782.71,106.2Zm-2.82-.61c-2-.51-3.47-1.18-3.53-2.84s.93-2.76,3.32-3.22Zm3.17,10.74-.21-6c2.06.51,3.59,1.18,3.65,2.9,0,1.46-1,2.65-3.44,3.11Z" fill="#65cd81"></path>
  <g opacity="0.3">
    <path d="M782.71,106.2l-.24-6.85h0a13.72,13.72,0,0,1,3.68.82,10.8,10.8,0,0,1,1.74,1L788,101l1-2.51.22-.57-1.27-1.25-.58.29a12.61,12.61,0,0,0-5-1.26l-.13-3.78L781,91v1h-1.61l.12,3.85c-5.27.69-7.69,3.8-7.57,7.27.17,4.71,4.27,5.8,8.07,6.59l.24,6.8a12.91,12.91,0,0,1-6.89-2.36l-1.42,3.53a14.77,14.77,0,0,0,8.47,2.5l.09,2.85-1.31.07,1.35.86,2.79-.1-.14-3.81c5.32-.73,7.76-3.81,7.64-7.28C790.67,108,786.51,107,782.71,106.2Zm-2.82-.61c-2-.51-3.47-1.18-3.53-2.84s.93-2.76,3.32-3.22Zm3.17,10.74-.21-6c2.06.51,3.59,1.18,3.65,2.9,0,1.46-1,2.65-3.44,3.11Z"></path>
  </g>
  <path d="M782,119.14l.13,3.82-2.79.09-.13-3.76a15,15,0,0,1-8.43-2.54l1.41-3.53a13.23,13.23,0,0,0,6.89,2.36l-.23-6.81c-3.81-.78-7.9-1.86-8.06-6.59-.13-3.53,2.28-6.58,7.57-7.27l-.14-3.85L781,91l.13,3.78a14.64,14.64,0,0,1,7,1.83l-1.27,3.53a14.15,14.15,0,0,0-5.57-1.65l.25,6.87c3.8.79,8,1.83,8.12,6.56C789.77,115.34,787.32,118.41,782,119.14Zm-3.3-14.45-.21-6c-2.35.46-3.38,1.72-3.33,3.21s1.55,2.34,3.54,2.84Zm6.6,7.63c-.06-1.66-1.58-2.35-3.64-2.89l.21,6c2.46-.46,3.48-1.66,3.43-3.13Z" fill="#65cd81"></path>
  <path d="M751.27,125.86a2.31,2.31,0,0,1-.17-.27l-.46-.81c-.2-.34-.44-.77-.69-1.29s-.54-1.1-.8-1.77c-.13-.34-.27-.68-.42-1s-.26-.75-.4-1.17c-.3-.8-.52-1.68-.77-2.59a35.65,35.65,0,0,1-.92-12.3c.11-.94.2-1.85.38-2.67a10.75,10.75,0,0,1,.23-1.18c.09-.35.17-.75.27-1.11.14-.69.36-1.32.51-1.86a13.54,13.54,0,0,1,.49-1.39c.15-.38.24-.63.33-.86a1.11,1.11,0,0,1,.14-.29c0,.11,0,.21-.08.32s-.18.51-.3.87-.28.85-.42,1.39-.36,1.17-.5,1.87c-.08.35-.16.72-.24,1.09s-.13.79-.22,1.18c-.15.83-.23,1.72-.35,2.66a42.09,42.09,0,0,0-.06,6.15,40.19,40.19,0,0,0,1,6.07c.25.9.46,1.78.74,2.58.13.4.25.79.39,1.17l.4,1.05c.25.67.53,1.25.77,1.77s.44,1,.63,1.32l.41.82A1,1,0,0,1,751.27,125.86Z" fill="#fff"></path>
  <path d="M773.21,105a2.35,2.35,0,0,1-.81-.76,4.29,4.29,0,0,1-.86-2.54,4.35,4.35,0,0,1,.86-2.55,2.25,2.25,0,0,1,.83-.76,5.4,5.4,0,0,0-.68.87,4.42,4.42,0,0,0,0,4.88C772.92,104.67,773.25,104.94,773.21,105Z" fill="#fff"></path>
  <path d="M778.93,94.35a2.32,2.32,0,0,1-.18-1.1,2.61,2.61,0,0,1,.09-1.18c.09,0,.16.49.18,1.12A2.53,2.53,0,0,1,778.93,94.35Z" fill="#fff"></path>
  <path d="M782,79.5a4.41,4.41,0,0,1-.89,0h-2.37a7.33,7.33,0,0,0-1.63.13c-.59.13-1.18.15-1.86.25a28,28,0,0,0-8.14,2.73c-.58.32-1.18.6-1.64.92s-1,.6-1.38.88L763,85.2c-.32.24-.6.45-.81.63a4,4,0,0,1-.7.53,4.47,4.47,0,0,1,.63-.6c.21-.2.47-.43.78-.68s.66-.54,1.09-.82.86-.61,1.36-.92,1.06-.62,1.64-1a26.63,26.63,0,0,1,8.21-2.75c.67-.09,1.3-.2,1.88-.23s1.18-.09,1.65-.1,1,0,1.37,0h1Z" fill="#fff"></path>
  <path d="M786.68,141.78a5,5,0,0,1-.63.19,15,15,0,0,1-1.77.36,25.73,25.73,0,0,1-5.88.29,26.7,26.7,0,0,1-5.89-1.08,16.59,16.59,0,0,1-1.7-.61,3.24,3.24,0,0,1-.6-.27,2.45,2.45,0,0,1,.64.18c.4.14,1,.32,1.72.52a30,30,0,0,0,5.8,1,30.5,30.5,0,0,0,5.89-.2c.75-.11,1.36-.22,1.78-.29A2.3,2.3,0,0,1,786.68,141.78Z" fill="#fff"></path>
  <path d="M264.9,499.53s41.56-12.39,73.53,35.57h4.4S317.65,468,264.9,499.53Z" fill="#7c8951"></path>
  <path d="M306.06,443.18s31.57,31.17,38.77,91.92h6.39S348.42,464.36,306.06,443.18Z" fill="#7c8951"></path>
  <path d="M354,535.1s10.82-56.75,50.39-73.94c0,0-29.18,23.58-40,73.94Z" fill="#7c8951"></path>
  <g opacity="0.2">
    <path d="M306.06,443.18s31.57,31.17,38.77,91.92h6.39S348.42,464.36,306.06,443.18Z"></path>
    <path d="M354,535.1s10.82-56.75,50.39-73.94c0,0-29.18,23.58-40,73.94Z"></path>
  </g>
  <path d="M372.4,535.1s21.59-33.57,68.74-29.17c0,0-40.41-28.65-76.73,29.17Z" fill="#7c8951"></path>
  <path d="M347.63,535.1s2.79-55.15,29.17-94.72c0,0-13.59,54-18,94.72Z" fill="#7c8951"></path>
  <path d="M384.4,535.1S384,597.05,366.81,641H341.23s-18.78-43.17-17.59-105.91Z" fill="#594440"></path>
  <g opacity="0.2">
    <path d="M384.4,535.1S384,597.05,366.81,641h-9.44c12.83-56.89,4.84-105.91,4.84-105.91Z"></path>
  </g>
  <path d="M552,178a.49.49,0,0,1-.3-.1c-3.08-2.33-7.89,0-7.94,0a.5.5,0,0,1-.67-.23.51.51,0,0,1,.23-.67c.22-.1,5.4-2.62,9,.09a.5.5,0,0,1,.1.7A.51.51,0,0,1,552,178Z" fill="#5a1f20"></path>
  <path d="M573.06,180.87a.49.49,0,0,1-.32-.12c-7.72-6.64-14.68-2-14.75-2a.49.49,0,0,1-.69-.12.51.51,0,0,1,.12-.7c.08-.05,7.68-5.12,16,2a.49.49,0,0,1,.05.7A.48.48,0,0,1,573.06,180.87Z" fill="#5a1f20"></path>
  <ellipse cx="563.26" cy="183.04" rx="3.02" ry="1.64" transform="matrix(0.13, -0.99, 0.99, 0.13, 309.49, 718.17)" fill="#5a1f20"></ellipse>
  <ellipse cx="548.71" cy="183.01" rx="3.02" ry="1.64" transform="matrix(0.13, -0.99, 0.99, 0.13, 296.84, 703.71)" fill="#5a1f20"></ellipse>
  <path d="M552.51,196.57a.52.52,0,0,1-.37-.16A.54.54,0,0,1,552,196l3.55-15.15a.48.48,0,0,1,.6-.37.5.5,0,0,1,.38.6l-3.38,14.42,4.67-.76a.5.5,0,0,1,.57.41.49.49,0,0,1-.41.57l-5.41.89Z" fill="#f49a82"></path>
  <path d="M554.24,203.17a21.94,21.94,0,0,0,10-5.59S560.61,213.26,554.24,203.17Z" fill="#fff"></path>
  <path d="M585.9,183.39a.47.47,0,0,1-.3-.1.5.5,0,0,1-.1-.7c1.45-1.93,2-3.39,1.53-4.23s-2.12-1-2.71-1a.51.51,0,0,1-.53-.47.5.5,0,0,1,.47-.52c.12,0,2.76-.15,3.65,1.49.66,1.24.14,3-1.61,5.3A.51.51,0,0,1,585.9,183.39Z" fill="#5a1f20"></path>
</svg>
