<svg xmlns="http://www.w3.org/2000/svg" width="865.76" height="682.89" viewBox="0 0 865.76 682.89"><path d="M498.89,127.05S546.42,174.58,630,195.71c0,0,148.75,40.12,169.87,111.43,0,0,32.19,63.55,8.54,142.87-13.73,46.07-43.52,85.68-83.32,112.65C668.89,600.75,550.19,660,370.55,645c-2.74-.23-5.5-.36-8.25-.39-22.15-.23-142-5.7-238.19-95C77.86,506.71,51.17,446.77,49,383.72c-3.12-90.54,11.38-234.8,122.45-306C171.46,77.76,335.18-44.58,498.89,127.05Z" fill="#3b9a23"/><path d="M498.89,127.05S546.42,174.58,630,195.71c0,0,148.75,40.12,169.87,111.43,0,0,32.19,63.55,8.54,142.87-13.73,46.07-43.52,85.68-83.32,112.65C668.89,600.75,550.19,660,370.55,645c-2.74-.23-5.5-.36-8.25-.39-22.15-.23-142-5.7-238.19-95C77.86,506.71,51.17,446.77,49,383.72c-3.12-90.54,11.38-234.8,122.45-306C171.46,77.76,335.18-44.58,498.89,127.05Z" fill="#fff" opacity="0.7"/><path d="M538.83,559.53l-187.32-.13a31.76,31.76,0,0,1-31.66-29.78L293,103.88a34.92,34.92,0,0,1,34.62-37.14l185.8-1a32.9,32.9,0,0,1,33,30.73l28.31,424.7A36,36,0,0,1,538.83,559.53Z" fill="#3b9a23"/><path d="M538.83,559.53l-187.32-.13a31.76,31.76,0,0,1-31.66-29.78L293,103.88a34.92,34.92,0,0,1,34.62-37.14l185.8-1a32.9,32.9,0,0,1,33,30.73l28.31,424.7A36,36,0,0,1,538.83,559.53Z" opacity="0.2"/><path d="M553.9,559.44l-187.32-.11a31.74,31.74,0,0,1-31.66-29.75L308.1,104.45a34.88,34.88,0,0,1,34.62-37.08l185.79-1A32.87,32.87,0,0,1,561.5,97l28.29,424.1A35.94,35.94,0,0,1,553.9,559.44Z" fill="#3b9a23"/><path d="M579.59,520.59,553.24,96.48a26.71,26.71,0,0,0-26.57-24.55l-55.33-.39A4.8,4.8,0,0,0,466.51,76l-.86,11.36a3,3,0,0,1-3,2.74H404.8a3,3,0,0,1-2.89-2.28l-2.85-12a5.55,5.55,0,0,0-5.39-4.26l-51.49.06a27.45,27.45,0,0,0-27.45,29.2L342,526.12a26.71,26.71,0,0,0,26.66,25H550.89A28.75,28.75,0,0,0,579.59,520.59Z" fill="#ebebeb"/><rect x="409.22" y="75.76" width="10.39" height="7.24" rx="3.15" fill="#fff"/><rect x="425.91" y="75.76" width="36.06" height="7.24" rx="3.15" fill="#fff"/><path d="M536.48,84H517.19a.24.24,0,1,1,0-.48h19.29a.24.24,0,0,1,0,.48Z" fill="#3b9a23"/><path d="M536.48,89.69H517.19a.23.23,0,0,1-.24-.23.24.24,0,0,1,.24-.24h19.29a.23.23,0,0,1,.23.24A.23.23,0,0,1,536.48,89.69Z" fill="#3b9a23"/><path d="M537.42,95.36H518.13a.23.23,0,0,1-.23-.23.23.23,0,0,1,.23-.24h19.29a.24.24,0,0,1,.24.24A.23.23,0,0,1,537.42,95.36Z" fill="#3b9a23"/><circle cx="342.15" cy="89.62" r="7.09" fill="#3b9a23"/><path d="M339.31,92.37a.25.25,0,0,1-.16-.06.25.25,0,0,1,0-.34l4.72-5a.24.24,0,1,1,.35.32l-4.72,5A.24.24,0,0,1,339.31,92.37Z" fill="#fff"/><path d="M344,92.37a.24.24,0,0,1-.18-.07l-4.72-5a.24.24,0,1,1,.35-.32l4.72,5a.25.25,0,0,1,0,.34A.27.27,0,0,1,344,92.37Z" fill="#fff"/><path d="M358.31,410l2.18,26.32a1.08,1.08,0,0,0,1.08,1H545.48a1.09,1.09,0,0,0,1.09-1.17l-2-26.32a1.1,1.1,0,0,0-1.09-1H359.39A1.08,1.08,0,0,0,358.31,410Z" fill="#fff"/><path d="M363.34,467.91l2.19,26.32a1.08,1.08,0,0,0,1.08,1H550.52a1.09,1.09,0,0,0,1.09-1.18l-2-26.32a1.1,1.1,0,0,0-1.09-1H364.43A1.09,1.09,0,0,0,363.34,467.91Z" fill="#fff"/><polygon points="532.36 255.89 463.51 299.97 537.05 363.75 532.36 255.89" fill="#3b9a23"/><polygon points="361.51 363.75 356.6 255.89 430.19 299.43 361.51 363.75" fill="#3b9a23"/><polygon points="356.6 255.89 441.5 182.04 532.36 255.89 463.51 299.97 430.19 299.43 356.6 255.89" fill="#ac9b4d"/><path d="M515.28,146.14H352.4a15.35,15.35,0,1,1,0-30.7H515.28a15.35,15.35,0,1,1,0,30.7Z" fill="#fff"/><path d="M373.4,146.14h-21a15.35,15.35,0,1,1,0-30.7h19.71Z" fill="#3b9a23"/><circle cx="353.56" cy="129.85" r="5.43" fill="none" stroke="#fff" stroke-miterlimit="10" stroke-width="2"/><line x1="362.3" y1="137.8" x2="357.48" y2="133.61" fill="none" stroke="#fff" stroke-miterlimit="10" stroke-width="2"/><polygon points="361.51 363.75 445.91 284.71 537.05 363.75 361.51 363.75" fill="#ac9b4d"/><polygon points="369.55 200.94 372.7 265.42 430.19 299.43 445.91 284.71 463.51 299.97 516.67 265.93 513.33 200.94 369.55 200.94" fill="#fff"/><rect x="387.65" y="266.26" width="115.26" height="1" fill="#ac9b4d"/><rect x="396.41" y="278.94" width="99.16" height="1" fill="#ac9b4d"/><rect x="416.44" y="291.35" width="21.85" height="1" fill="#ac9b4d"/><rect x="454.15" y="291.35" width="22.05" height="1" fill="#ac9b4d"/><path d="M383,127.87l1,3.77c.21.83.41,1.6.55,2.37h0c.17-.76.42-1.55.66-2.35l1.22-3.79h1.13l1.15,3.71c.28.89.49,1.67.66,2.43h.05a20.19,20.19,0,0,1,.57-2.41l1.06-3.73h1.33L390,135.3h-1.23l-1.14-3.55c-.26-.83-.47-1.57-.66-2.44h0a21.5,21.5,0,0,1-.67,2.46l-1.2,3.53h-1.23l-2.24-7.43Z" fill="#3b9a23"/><path d="M394.46,127.87l1,3.77c.21.83.41,1.6.55,2.37h0c.17-.76.42-1.55.66-2.35l1.22-3.79h1.13l1.15,3.71c.28.89.49,1.67.66,2.43h.05a20.19,20.19,0,0,1,.57-2.41l1.06-3.73h1.33l-2.39,7.43h-1.23l-1.14-3.55c-.26-.83-.47-1.57-.66-2.44h0a21.5,21.5,0,0,1-.67,2.46l-1.2,3.53h-1.23l-2.24-7.43Z" fill="#3b9a23"/><path d="M405.94,127.87l1,3.77c.22.83.42,1.6.56,2.37h0c.17-.76.42-1.55.66-2.35l1.22-3.79h1.13l1.15,3.71c.28.89.49,1.67.66,2.43h.05a20.19,20.19,0,0,1,.57-2.41l1.06-3.73h1.33L413,135.3h-1.23l-1.14-3.55c-.26-.83-.47-1.57-.66-2.44h0a21.5,21.5,0,0,1-.67,2.46L408,135.3H406.8l-2.24-7.43Z" fill="#3b9a23"/><path d="M415.78,134.5a.92.92,0,1,1,.91,1A.91.91,0,0,1,415.78,134.5Z" fill="#3b9a23"/><path d="M359.5,390.9h1.34v9.22h4.42v1.12H359.5Z" fill="#3b9a23"/><path d="M373.21,397.47a3.63,3.63,0,0,1-3.7,3.94,3.53,3.53,0,0,1-3.56-3.82,3.63,3.63,0,0,1,3.68-3.95A3.52,3.52,0,0,1,373.21,397.47Zm-5.9.07c0,1.63.94,2.86,2.26,2.86s2.26-1.22,2.26-2.89c0-1.26-.63-2.85-2.23-2.85S367.31,396.13,367.31,397.54Z" fill="#3b9a23"/><path d="M381.31,393.81c0,.54-.06,1.14-.06,2v4.32c0,1.7-.34,2.74-1.06,3.39a4,4,0,0,1-2.7.89,4.79,4.79,0,0,1-2.47-.62l.34-1a4.26,4.26,0,0,0,2.18.58c1.38,0,2.39-.72,2.39-2.59V400h0a2.64,2.64,0,0,1-2.36,1.24,3.32,3.32,0,0,1-3.17-3.62c0-2.52,1.65-3.95,3.35-3.95a2.48,2.48,0,0,1,2.32,1.29h0l.06-1.12Zm-1.39,2.93a1.92,1.92,0,0,0-.08-.61A2,2,0,0,0,378,394.7c-1.29,0-2.21,1.09-2.21,2.81,0,1.46.74,2.67,2.2,2.67a2,2,0,0,0,1.87-1.38,2.57,2.57,0,0,0,.11-.72Z" fill="#3b9a23"/><path d="M384.9,391.73a.79.79,0,0,1-.86.82.8.8,0,0,1-.81-.82.82.82,0,0,1,.84-.85A.8.8,0,0,1,384.9,391.73Zm-1.5,9.51v-7.43h1.35v7.43Z" fill="#3b9a23"/><path d="M387,395.82c0-.76,0-1.39-.06-2h1.2l.07,1.23h0a2.73,2.73,0,0,1,2.46-1.4c1,0,2.62.62,2.62,3.17v4.43H392V397c0-1.2-.44-2.2-1.72-2.2a1.92,1.92,0,0,0-1.81,1.39,1.89,1.89,0,0,0-.09.62v4.47H387Z" fill="#3b9a23"/><path d="M395.19,395a.91.91,0,1,1,1.82,0,.91.91,0,1,1-1.82,0Zm0,5.42a.91.91,0,1,1,1.82,0,.91.91,0,1,1-1.82,0Z" fill="#3b9a23"/><path d="M449.66,252.62a19.19,19.19,0,0,1-9.38,2.11c-8.65,0-16-6.33-16-16.45,0-10.87,7.54-20.25,19.24-20.25,9.18,0,15.35,6.43,15.35,15.24,0,7.91-4.43,12.55-9.39,12.55-2.11,0-4.06-1.43-3.9-4.64h-.21c-1.85,3.11-4.27,4.64-7.43,4.64s-5.7-2.48-5.7-6.65a12.45,12.45,0,0,1,12.5-12.49,14,14,0,0,1,5.64,1.1l-1.79,9.55c-.79,4-.16,5.85,1.58,5.9,2.69.06,5.69-3.53,5.69-9.65,0-7.64-4.58-13.13-12.76-13.13-8.59,0-15.82,6.81-15.82,17.51,0,8.81,5.75,14.24,13.56,14.24a16.48,16.48,0,0,0,8-1.85Zm-2.9-22.78a9,9,0,0,0-2.64-.37c-4.64,0-8.38,4.38-8.38,9.49,0,2.32,1.16,4,3.48,4,3.06,0,5.85-3.9,6.43-7.17Z" fill="#3b9a23"/><path d="M364.54,449.91a15.28,15.28,0,0,1,2.57-.2,4.29,4.29,0,0,1,2.9.86,2.79,2.79,0,0,1,.9,2.16,3,3,0,0,1-.8,2.21,4.27,4.27,0,0,1-3.16,1.14,4.91,4.91,0,0,1-1.07-.09v4.14h-1.34Zm1.34,5a4.85,4.85,0,0,0,1.1.1c1.61,0,2.6-.78,2.6-2.21s-1-2-2.44-2a5.07,5.07,0,0,0-1.26.11Z" fill="#3b9a23"/><path d="M376.38,460.13l-.11-.94h0A2.74,2.74,0,0,1,374,460.3a2.12,2.12,0,0,1-2.27-2.13c0-1.8,1.59-2.78,4.46-2.77v-.15a1.53,1.53,0,0,0-1.68-1.72,3.79,3.79,0,0,0-1.94.55l-.3-.89a4.58,4.58,0,0,1,2.44-.66c2.27,0,2.82,1.55,2.82,3v2.78a10.76,10.76,0,0,0,.12,1.78Zm-.2-3.79c-1.48,0-3.15.23-3.15,1.67a1.19,1.19,0,0,0,1.27,1.29,1.85,1.85,0,0,0,1.8-1.24,1.63,1.63,0,0,0,.08-.43Z" fill="#3b9a23"/><path d="M379.47,458.75a3.57,3.57,0,0,0,1.79.54c1,0,1.44-.5,1.44-1.11s-.39-1-1.38-1.37c-1.34-.47-2-1.21-2-2.1a2.3,2.3,0,0,1,2.57-2.18,3.73,3.73,0,0,1,1.82.46l-.34,1a2.81,2.81,0,0,0-1.52-.43c-.79,0-1.24.46-1.24,1s.45.89,1.41,1.26c1.29.49,1.95,1.13,1.95,2.24,0,1.3-1,2.22-2.78,2.22a4.29,4.29,0,0,1-2.08-.5Z" fill="#3b9a23"/><path d="M385.55,458.75a3.57,3.57,0,0,0,1.78.54c1,0,1.45-.5,1.45-1.11s-.39-1-1.39-1.37c-1.33-.47-2-1.21-2-2.1a2.3,2.3,0,0,1,2.56-2.18,3.81,3.81,0,0,1,1.83.46l-.34,1a2.84,2.84,0,0,0-1.52-.43c-.8,0-1.24.46-1.24,1s.44.89,1.41,1.26c1.29.49,1.95,1.13,1.95,2.24,0,1.3-1,2.22-2.78,2.22a4.36,4.36,0,0,1-2.09-.5Z" fill="#3b9a23"/><path d="M392.35,452.7l1,3.78c.22.83.42,1.59.56,2.36h0c.17-.75.42-1.55.66-2.35l1.21-3.79h1.14l1.15,3.72c.28.89.49,1.67.66,2.42h.05a23.3,23.3,0,0,1,.56-2.41l1.06-3.73h1.34l-2.4,7.43h-1.22L397,456.58c-.26-.82-.47-1.56-.66-2.44h0a21.5,21.5,0,0,1-.67,2.46l-1.2,3.53h-1.23L391,452.7Z" fill="#3b9a23"/><path d="M409.68,456.35a3.64,3.64,0,0,1-3.7,3.95,3.53,3.53,0,0,1-3.56-3.82,3.63,3.63,0,0,1,3.68-4A3.52,3.52,0,0,1,409.68,456.35Zm-5.9.08c0,1.63.94,2.86,2.26,2.86s2.26-1.22,2.26-2.89c0-1.26-.63-2.85-2.23-2.85S403.78,455,403.78,456.43Z" fill="#3b9a23"/><path d="M411.38,455c0-.88,0-1.63-.06-2.32h1.18l.05,1.46h.06a2.23,2.23,0,0,1,2.06-1.63,1.46,1.46,0,0,1,.38.05v1.27a2.13,2.13,0,0,0-.46,0,1.89,1.89,0,0,0-1.81,1.73,4,4,0,0,0-.06.63v4h-1.34Z" fill="#3b9a23"/><path d="M422.66,449.23v9c0,.66,0,1.41.06,1.92h-1.21l-.06-1.29h0a2.75,2.75,0,0,1-2.53,1.46c-1.8,0-3.18-1.52-3.18-3.78,0-2.47,1.52-4,3.33-4a2.48,2.48,0,0,1,2.24,1.14h0v-4.44Zm-1.35,6.5a2.21,2.21,0,0,0-.06-.57,2,2,0,0,0-1.95-1.57c-1.4,0-2.22,1.23-2.22,2.87s.73,2.75,2.19,2.75a2,2,0,0,0,2-1.61,2.23,2.23,0,0,0,.06-.59Z" fill="#3b9a23"/><path d="M424.58,453.93a.92.92,0,1,1,1.83,0,.92.92,0,1,1-1.83,0Zm0,5.42a.92.92,0,1,1,.91.95A.91.91,0,0,1,424.58,459.35Z" fill="#3b9a23"/><polygon points="343.04 412.08 357 620.91 361.62 620.91 361.62 409.09 343.04 412.08" fill="#ad645c"/><polygon points="343.04 412.08 357 620.91 361.62 620.91 361.62 409.09 343.04 412.08" opacity="0.2"/><polygon points="83.63 405.91 69.67 614.74 65.05 614.74 65.05 402.92 83.63 405.91" fill="#ad645c"/><polygon points="83.63 405.91 69.67 614.74 65.05 614.74 65.05 402.92 83.63 405.91" opacity="0.2"/><polygon points="188.71 473.26 170.9 611.9 175.75 611.9 198.97 473.26 188.71 473.26" fill="#ad645c"/><polygon points="188.71 473.26 170.9 611.9 175.75 611.9 198.97 473.26 188.71 473.26" opacity="0.2"/><rect x="177.32" y="579.9" width="21.73" height="13.54" fill="#f4a797"/><rect x="252.42" y="575.8" width="21.41" height="23.46" fill="#f4a797"/><polygon points="113.42 326.55 113.42 475 250.3 475 250.38 458.81 121.14 457.72 122.99 323.08 113.42 326.55" fill="#ad645c"/><polygon points="121.14 457.72 250.38 458.81 212.22 407.51 185.76 329.86 122.99 323.08 121.14 457.72" fill="#ad645c"/><polygon points="121.14 457.72 250.38 458.81 212.22 407.51 185.76 329.86 122.99 323.08 121.14 457.72" opacity="0.2"/><polygon points="123.68 475 105.86 613.63 110.72 613.63 133.94 475 123.68 475" fill="#ad645c"/><polygon points="123.68 475 105.86 613.63 110.72 613.63 133.94 475 123.68 475" opacity="0.2"/><path d="M287.06,479.91l-4.7,95.26c-6.07,6.9-23.87,4.91-35.76,2.62-6.57-1.26-11.34-2.62-11.34-2.62L239,475l-23.29-13.35L199,443.44l-8.12-30.6h34.93c2,3.77,9.48,6.28,9.48,6.28l35,15.29C295.57,449.21,287.06,479.91,287.06,479.91Z" fill="#ac9b4d"/><path d="M250.3,468.29l-3.7,109.5c-6.57-1.26-11.34-2.62-11.34-2.62L239,475l-23.29-13.35L199,443.44l-8.12-30.6h11.56L210,428.11Z" opacity="0.2"/><path d="M204.71,294.27l-16.53-1.1c1,9.12-3.86,13.44-8.56,15.49a20.13,20.13,0,0,1-12.38,1.11C149.36,305.84,148.81,291,148.81,291H132.17C96.63,291.28,81.31,342,81.31,342c-12.08,39.55,1.92,51,1.92,51H229.75V329.38C225,295.84,204.71,294.27,204.71,294.27Zm-88.8,71L121.18,342l5.28,21.23Z" fill="#3b9a23"/><polygon points="207.76 342.01 207.76 320.33 212.22 329.86 207.76 342.01" opacity="0.2"/><g opacity="0.2"><path d="M172.12,368.12a6.54,6.54,0,0,1-2.78-2.6,19.19,19.19,0,0,0-6.91-7.23c-12.36-7.26-25.11-3.24-25.11-3.24-9.92,2.2-14.48-15.12-14.48-15.12,11.49-33.85,3.62-36.45,3.62-36.45-.63,30.31-27.24,65.58-27.24,65.58l16.62-3.76,5.26-23.24,5.27,21.19h.09l20.31-3.15c18.58-.79,20.47,13.54,20.47,13.54,9.13-.16,7.32,1.89,7.32,1.89h1.66C177.32,369.53,172.12,368.12,172.12,368.12Z"/><polygon points="115.84 365.3 115.83 365.34 126.38 363.29 126.37 363.25 115.91 365.28 115.84 365.3"/></g><path d="M148.81,291l39.37,2.21s3.39,14.66-15,17.05C173.14,310.22,151.87,311.35,148.81,291Z" fill="#e6e6e6"/><path d="M156.38,292.85l5-18.89,3.68-3.76,3.48,2.8s3,11.73,15,12.4l-1.5,11.74a5.25,5.25,0,0,1-2,3.52c-2,1.51-6,3-13,.7C167.08,301.36,158.74,299,156.38,292.85Z" fill="#f4a797"/><path d="M182.38,294.81l1.2-9.41-13.28-8.69A17.36,17.36,0,0,0,182.38,294.81Z" fill="#f29383"/><rect x="164.87" y="237.12" width="30.12" height="49.18" rx="13.1" transform="translate(-93.66 100.42) rotate(-24.97)" fill="#f4a797"/><path d="M162.83,250.18s18.63.65,24.83-6.53a30,30,0,0,1,1.89,3.06l4.7,10.09a11.46,11.46,0,0,0,1.17-7.72s6-.63,5.52-8.19c0,0-.95-3-5.67-1.26,0,0,4.09-6.14-1.26-11.18,0,0-8.82,2.52-17.32,1.26,0,0-15.75-8-18.43,6.93,0,0-13.06-4.25-11,17,0,0-.78,12.12,6.77,18.26l11.08-1.71s4.84,18.84,22.15,17.64a16,16,0,0,0,9.8-4.12c3.48-3.2,6.43-8.78,1.4-17.48,0,0-.81,2.05-4.12,2.05,0,0-6.23-2.24-12.36,5.09a7.73,7.73,0,0,1-11.27.59c-.24-.23-.47-.48-.71-.74,0,0-3.68-4.78-1.48-6.2,0,0,4.09-4.57-1.1-11.18Z" fill="#dc5634"/><circle cx="174.09" cy="320.33" r="3.23" fill="#fff"/><circle cx="173.14" cy="333.08" r="3.23" fill="#fff"/><path d="M78.61,352.22S77,385.75,116.85,388.43l49,2.68v1.94H83.23S71.85,383.09,78.61,352.22Z" opacity="0.2"/><path d="M199.05,389.22l16.67-59.36h80.71s-10.85,63.09-11.6,63.19-123.09,0-123.09,0v-3.36Z" fill="#f5ba76"/><polygon points="215.72 329.86 209.99 329.86 193.59 389.29 199.05 389.22 215.72 329.86" fill="#f5ba76"/><polygon points="215.72 329.86 209.99 329.86 193.59 389.29 199.05 389.22 215.72 329.86" opacity="0.2"/><path d="M174.56,375.52l-1.42,14s7.8.78,11.74-3.47l4.3,3.22,5.58,0-1.17-2h0a1.69,1.69,0,0,0,2.11-.28l.46-.49a1.69,1.69,0,0,0,.09-2.2l-3.5-4.37,3.15,1,2.29-8.3a7,7,0,0,0-9.55,0l-12.42,2.88Z" fill="#f4a797"/><path d="M188.1,380.16a10.34,10.34,0,0,1,5.49,7.11,10.37,10.37,0,0,1-5.49-7.11Z" fill="#f29383"/><path d="M193.59,374.31a3,3,0,0,1,3.29,3.05,3,3,0,0,1-3.29-3.05Z" fill="#f29383"/><path d="M184.88,386.07l-2-2.35s-5.8,1.72-9.38,2.35l-.36,3.47S180.62,390.79,184.88,386.07Z" fill="#f29383"/><ellipse cx="250.3" cy="362.45" rx="9.05" ry="10.23" fill="#fff"/><path d="M131.18,412.84s-11,22.51,9,39.52l25.66,26.51-4.09,104.69,46.13,0,7.86-113.11s2.22-18.56-5.73-30.67c0,0-16-20.45-19.14-26.9Z" fill="#ac9b4d"/><rect x="65.05" y="393" width="296.41" height="19.84" fill="#ad645c"/><circle cx="159.68" cy="271.91" r="5.67" fill="#f4a797"/><path d="M174.39,613.63h53.53s1.9-8.19-7.35-11.59l-21.52-11.31-22.88.8a1.83,1.83,0,0,0-1.78,1.83Z" fill="#3b9a23"/><path d="M249.12,614.54h53.52s1.9-8.2-7.34-11.6l-21.53-11.3-22.88.79a1.84,1.84,0,0,0-1.77,1.84Z" fill="#3b9a23"/><path d="M665.59,606.59s-1.85,6.45,8.39,3.7a5.85,5.85,0,0,1,.11-3.7A45.42,45.42,0,0,1,665.59,606.59Z" fill="#3b9a23"/><path d="M665.59,606.59s-1.85,6.45,8.39,3.7a5.85,5.85,0,0,1,.11-3.7A45.42,45.42,0,0,1,665.59,606.59Z" fill="#fff" opacity="0.5"/><path d="M769.25,240.07s-11.18,1.86-11.65,11c0,0-3.65,19.42,13.37,18.45l-3.14-13.26L771,242Z" fill="#3b9a23"/><path d="M774.45,239.25h-2.78a4,4,0,0,0-3.61,2.31c-2.33,5.06-6.48,17.55,2.91,27.95a2.63,2.63,0,0,0,2.09.86l5-.26Z" fill="#ac9b4d"/><path d="M674.62,611.6s-2.36,5.55,5.51,6.18h15.61s7.13-.13,4.66-6.6c0,0-1.54,2.9-12.79,2.9C687.61,614.08,678.32,615.81,674.62,611.6Z" fill="#3b9a23"/><path d="M674.62,611.6s-2.36,5.55,5.51,6.18h15.61s7.13-.13,4.66-6.6c0,0-1.54,2.9-12.79,2.9C687.61,614.08,678.32,615.81,674.62,611.6Z" fill="#fff" opacity="0.5"/><path d="M605.89,382.93l9.05,172.18s1.1,6.14-1.42,9c0,0-4.24,9,1.66,12.51,0,0-4.48,7.5,0,12.45,0,0,9.68-2.28,24.8,8.74,0,0,7.55-5.51,3.3-11.81,0,0-2.07-2.12-.39-4.15a8.42,8.42,0,0,0,1.87-5l2.77-56.69,3.31-100.3,2.36.32,8.51,140.29s-.93,11.25,1.71,17.37a9.79,9.79,0,0,1,.81,3.81v9.71a.84.84,0,0,0,1.37.65c2.92-2.41,10.48-7.06,22.49-3.58a1.71,1.71,0,0,0,2.19-1.83c-.38-3.46-.55-9.42,2.13-12.74,0,0,3.15-3.31,1.57-24.57l2-77.15,5.66-92.21-27.23-21.63-32.12-25.51-18.9-5.2-17.55,54.05Z" fill="#ac9b4d"/><path d="M605.89,381.63l.32,7.39s27.14,2.26,38-31.64c0,0,5.32,32.68,31.16,31.67l25.86-1.87.45-7.26-59.35-47.14-18.9-5.2Z" opacity="0.2"/><path d="M779.64,325.22l-30.39,6s-23.93,5-34.32-10.07l-25.51-29.44c.07.17,2.34,6.06,5.55,21.52h0c2.75,13.23,6.19,33.48,9.53,63.16a3.21,3.21,0,0,1-2.81,3.54l-30.22,3.56a7.59,7.59,0,0,1-1.51,0c-2.85-.18-9.14-1.69-13.29-11.05l-17.95-38.58-6.93,29A26,26,0,0,1,624.17,376c-4.72,4.36-12.3,8.09-24,6.61a2.42,2.42,0,0,1-2.09-2.82L611.32,304a8,8,0,0,1-.54,1.38c-1.81,3.69-9.12,13.28-36.15,12.13l-32.75-1.73,1.78-6,11.13-37.48,32.6,4.89s26.26-43,41.55-45.59l15.29-4.8,22.74.9s39,4.61,48.59,19.73l32.12,48.49,21.57-6.61Z" fill="#ac9b4d"/><path d="M644.23,226.81l-2.68,83s23.13-68.9,25.42-82.08Z" fill="#fff"/><path d="M615.89,249.48,611.32,304l-.54,1.41c-1.81,3.69-9.12,13.28-36.15,12.13l-32.75-1.73,1.78-6h49.78s11.11,0,17.25-31.18Z" opacity="0.2"/><path d="M704.5,376.38a3.21,3.21,0,0,1-2.81,3.54l-30.22,3.56a7.59,7.59,0,0,1-1.51,0h0s31.27-7.12,26.39-22.23a205.3,205.3,0,0,0-10.55-29.45L695,313.21h0C697.72,326.45,701.16,346.7,704.5,376.38Z" fill="#fff" opacity="0.2"/><path d="M640.92,607.07c-11.65-1.73-25.74,1.79-25.74,1.79-18.9,4-28.37,2.63-31.48,1.87a1.52,1.52,0,0,1-1.15-1.6c.77-8.75,11.15-8.59,12.55-8.52l.33,0c10.48-1.81,19.75-11.54,19.75-11.54,12.37-1.33,24.8,8.74,24.8,8.74Z" fill="#3b9a23"/><path d="M640.92,607.07v2.31a2.79,2.79,0,0,1-3,2.79c-12-.8-27,1.83-27,1.83-12.75,3.46-26.29.78-26.29.78-3.78-.94-2.16-5.65-2.16-5.65a1.52,1.52,0,0,0,1.15,1.6c3.11.76,12.58,2.17,31.48-1.87C615.18,608.86,629.27,605.34,640.92,607.07Z" fill="#3b9a23"/><path d="M640.92,607.07v2.31a2.79,2.79,0,0,1-3,2.79c-12-.8-27,1.83-27,1.83-12.75,3.46-26.29.78-26.29.78-3.78-.94-2.16-5.65-2.16-5.65a1.52,1.52,0,0,0,1.15,1.6c3.11.76,12.58,2.17,31.48-1.87C615.18,608.86,629.27,605.34,640.92,607.07Z" fill="#fff" opacity="0.5"/><path d="M665.59,592v14.58s1.36,1.1,8.5,0c0,0-3.25,8.35,10.13,8,0,0,19.21.94,16.38-6.46a20.49,20.49,0,0,0-9.45-12s-5.67-4.1-5-8.27A23.5,23.5,0,0,0,665.59,592Z" fill="#3b9a23"/><path d="M644.23,226.81,630.84,238s-6,5.26,0,13.81l6.62,14.06s-15.71,7.75-9.27,19.46L640,316.4l27-29.82s7.65-6.86-6.21-18.28l15.59-15.2s9.45-5.82.63-16.37l-6.59-8.54-3.42-.48s.24-.18-.62,2.92l-8,27.43-16.81,51.73Z" fill="#ac9b4d"/><path d="M644.23,226.81,630.84,238s-6,5.26,0,13.81l6.62,14.06s-15.71,7.75-9.27,19.46L640,316.4l27-29.82s7.65-6.86-6.21-18.28l15.59-15.2s9.45-5.82.63-16.37l-6.59-8.54-3.42-.48s.24-.18-.62,2.92l-8,27.43-16.81,51.73Z" fill="#fff" opacity="0.5"/><polygon points="689.42 291.69 689.42 280.37 705.79 250.59 694.3 281.29 693.05 295.87 689.42 291.69" opacity="0.2"/><polygon points="779.64 325.22 765.15 301.92 731.77 300.81 769.25 289.32 779.64 325.22" opacity="0.2"/><path d="M797.75,280.34s3.52-11.92-18.38-1.57a5.51,5.51,0,0,0-1.7,1.25l-8.42,9.3,5.92,20.47L785.62,304Z" fill="#f4a797"/><path d="M778.07,270.11v5.34h2.61l3.67,27.46a1.73,1.73,0,0,0,1.87,1.5l8.24-.7a1.74,1.74,0,0,0,1.57-2l-4.34-28.49,2.75-.13.16-3.46Z" fill="#ac9b4d"/><path d="M774.45,239.25s-6.3,6.14-4.1,18.74c0,0,1.26,11,7.72,12.12l16.53-.47s6-1.1,19.54,2c0,0,9.79,3.9,13.29,3.46,0,0-18-18.66-9-51.41C818.38,223.66,797.43,239.72,774.45,239.25Z" fill="#3b9a23"/><ellipse cx="832.76" cy="248.09" rx="14.8" ry="28.37" transform="translate(-25.58 112.87) rotate(-7.64)" fill="#ac9b4d"/><path d="M819.45,241.56l18.21,0,.71,11.57-16.84,3.31S819.26,247.49,819.45,241.56Z" fill="#3b9a23"/><ellipse cx="837.74" cy="247.36" rx="3.39" ry="5.83" fill="#3b9a23"/><ellipse cx="837.74" cy="247.36" rx="3.39" ry="5.83" opacity="0.2"/><path d="M545.89,302.29s-30.46-7.77-24.79-13.76c0,0-1-5.73,3.22-5,0,0-2.59-5.4,3.23-4.45,0,0-.95-4.64,5.59-.12,0,0,4.33,3.67,8.74,4.57,0,0-4.31-2-4.55-6.22a1.13,1.13,0,0,1,1.86-.91,7.93,7.93,0,0,0,4.9,2.2s6.39.73,7.37,4.93Z" fill="#f4a797"/><path d="M521.1,288.53a18,18,0,0,0,7.35,3.25c.38.08.77.13,1.15.22a12.32,12.32,0,0,1-8.5-3.47Z" fill="#f29383"/><path d="M524.32,283.54a11.84,11.84,0,0,0,3.89,3.32,16.29,16.29,0,0,0,2.66,1.12l.94.26c.41.11.84.18,1.26.29a12.9,12.9,0,0,1-1.94-.26,10.22,10.22,0,0,1-6.81-4.73Z" fill="#f29383"/><path d="M527.55,279.09a30.6,30.6,0,0,0,7.22,6.2c.38.26.77.49,1.16.75l-.62-.3a19.32,19.32,0,0,1-7.76-6.65Z" fill="#f29383"/><path d="M541.88,283.54a12.57,12.57,0,0,0,1.2,8.46,9.05,9.05,0,0,1-1.2-8.46Z" fill="#f29383"/><path d="M667,203.64v24.07s-3.37,8.23-13.92,6.5c0,0-9.14-1.42-8.82-7.4l1.89-11.34,15.21-12.4Z" fill="#f4a797"/><path d="M646.12,215.47l-1.89,11.34s12.8.79,16.16-14Z" fill="#f29383"/><rect x="636.51" y="169.5" width="27.56" height="50.39" rx="11.99" transform="translate(40.4 -103.33) rotate(9.38)" fill="#f4a797"/><path d="M646.75,178.79s-6.73,8.35-13.63,3.39a10.18,10.18,0,0,1-4.14-7.56,14.62,14.62,0,0,1,2.18-8.9s3.51-9,22.22,0c0,0,20.14-3.94,19.82,9.29,0,0,16.64,7.42,0,23.55,0,0,3.79,8.79-6.2,13.48s.56-14,.56-14-6.65-2.57-5.69-10.73C661.84,187.26,644.23,187.6,646.75,178.79Z" fill="#dc5634"/><path d="M661.86,192.33h6.4a4.93,4.93,0,0,1,4.93,4.93v1.47a4.93,4.93,0,0,1-4.93,4.93h-6.4a0,0,0,0,1,0,0V192.33a0,0,0,0,1,0,0Z" transform="translate(22.88 -65.11) rotate(5.68)" fill="#f4a797"/><path d="M795.51,281.68s7.62-1.55,3.67,6.67a5.2,5.2,0,0,1-1.27,6.31s1.09,6.53-10.4,5.63c0,0-3.47-.62,0-5.4,0,0-2.79-4.94,1.6-5.57,0,0-1.3-.93.28-2A20.88,20.88,0,0,0,795.51,281.68Z" fill="#f4a797"/><path d="M789.11,289.32c2.92-.27,7.19-.75,10.07-1a26.46,26.46,0,0,1-5,.94,24,24,0,0,1-5.08,0Z" fill="#f29383"/><path d="M787.51,294.89c3.07-.07,7.38-.27,10.4-.23a32.3,32.3,0,0,1-5.19.55,24.58,24.58,0,0,1-5.21-.32Z" fill="#f29383"/><path d="M776.65,285.54l19.21-7.71s3.62,3.77-9.61,11.49c0,0,2.57,4.62-2.65,9.55" fill="#f4a797"/><path d="M776.65,285.54a154.74,154.74,0,0,1,19.63-9.46l.64.73a4.35,4.35,0,0,1,.47,4.47c-2,4.35-6.54,6.8-10.58,9l.4-1.48c1.65,3.79-.38,8-3.61,10.08,2.26-2.88,3.48-6.68,1.2-9.86a60.61,60.61,0,0,0,7.11-5.42c1.3-1.31,3.09-2.91,2.86-4.75,0,0-.09-.14,0,0l1.6.34a151.45,151.45,0,0,1-19.75,6.36Z" fill="#f29383"/><path d="M827.67,220.35s-11.5,4.73-7.33,30.24c0,0,4.1,20.39,15.44,25.74,0,0-9,1.59-11.93-3.1,0,0-12.69-10.83-9.71-38.78C814.14,234.45,814.75,219.25,827.67,220.35Z" fill="#f5ba76"/></svg>