<?xml version="1.0" encoding="UTF-8"?>
<svg xmlns="http://www.w3.org/2000/svg" id="a" width="865.76" height="682.89" viewBox="0 0 865.76 682.89">
  <g id="b">
    <polygon points="272.36 568.45 73.05 600.24 440.24 663.86 741 611.81 272.36 568.45" fill="#4dc98b" stroke="#263238" stroke-miterlimit="10"></polygon>
  </g>
  <g id="c">
    <ellipse cx="399.17" cy="605.89" rx="101.46" ry="12.08" opacity=".15"></ellipse>
  </g>
  <g id="d">
    <path d="M777.22,135.06s-41.81-96.48-173.66-116.84c-131.85-20.37-190.69,16.14-228.33,65.39-37.64,49.25-64.32-10.72-174.73-15.01-39.12-1.51-83.31,5.49-110.19,36.8-20.69,24.11-28.74,61.47-9.11,88.65,17.41,24.1,57.21,60.37,37.83,93.26-24.65,41.81-56.81,106.12-22.51,154.36,34.3,48.24,70.75,68.61,176.87,48.24,106.12-20.37,143.64-62.17,195.1-36.45,51.45,25.73,157.58,65.39,220.82,50.38,63.25-15.01,42.88-92.19,38.59-118.99-4.29-26.8,65.39-54.67,67.53-126.49,2.14-71.82-6.43-96.51-18.22-123.31Z" fill="#4dc98b"></path>
    <path d="M777.22,135.06s-41.81-96.48-173.66-116.84c-131.85-20.37-190.69,16.14-228.33,65.39-37.64,49.25-64.32-10.72-174.73-15.01-39.12-1.51-83.31,5.49-110.19,36.8-20.69,24.11-28.74,61.47-9.11,88.65,17.41,24.1,57.21,60.37,37.83,93.26-24.65,41.81-56.81,106.12-22.51,154.36,34.3,48.24,70.75,68.61,176.87,48.24,106.12-20.37,143.64-62.17,195.1-36.45,51.45,25.73,157.58,65.39,220.82,50.38,63.25-15.01,42.88-92.19,38.59-118.99-4.29-26.8,65.39-54.67,67.53-126.49,2.14-71.82-6.43-96.51-18.22-123.31Z" fill="#fff" opacity=".7"></path>
  </g>
  <g>
    <g>
      <path d="M270.15,433.69s-9.29-8.04-28.23-2.32c0,0-15.54,2.5-22.69-.71,0,0-8.42-5.57-13.91-1.77-1.07,.74-1.14,2.31-.13,3.13l10.29,8.29-17.33,.18s-2.5,.18-1.97,3.04c0,0-7.68-6.97-11.26-5.36,0,0-4.64-3.04-6.43-.18,0,0-3.22,2.86,5,9.83l9.97,8.44c1.1,.93,2.42,1.53,3.84,1.75,7.71,1.17,34.93,4.57,69.26,.35l4.11-8.22-.54-16.44Z" fill="#fff" stroke="#263238" stroke-miterlimit="10"></path>
      <path d="M196.18,443.51s-.89,9.29,21.8,9.11" fill="none" stroke="#263238" stroke-linecap="round" stroke-linejoin="round"></path>
      <path d="M215.48,440.3s11.61-.36,20.55-2.68c0,0,13.58-4.82,22.87,.89" fill="none" stroke="#263238" stroke-linecap="round" stroke-linejoin="round"></path>
      <path d="M184.93,438.15s-3.75,2.68,.36,7.5l9.37,7.91c1.33,1.12,3.02,1.74,4.76,1.74h19.63" fill="none" stroke="#263238" stroke-linecap="round" stroke-linejoin="round"></path>
      <path d="M564.66,535.53l-16.34,19.81c-3.91,4.76-8.82,8.59-14.39,11.22l-14.7,6.98c-13.35,7.06-21.59,4.71-21.59,4.71-40.8-5.1-119.27-7.46-119.27-7.46l.78-10.59c-38.07,3.55-73.65-2.65-97.42-8.72-18.37-4.71-29.7-9.32-29.7-9.32-12.56-7.07-15.3-24.33-15.3-24.33-2.75-18.84,31.39-22.76,31.39-22.76,82.39-10.99,116.03-1.95,116.03-1.95l37.6-6.09,103.59,1.48,33.07,23.14c13.22,8.45,6.25,23.88,6.25,23.88Z" fill="#263238" stroke="#263238" stroke-miterlimit="10"></path>
      <path d="M287.76,502.51s25.63-.78,43.1,9.32c0,0,25.41,11.45,58.36,16.83,2.63,.43,5.32,.27,7.88-.48,14.13-4.17,65.42-18.51,99.95-17.52" fill="none" stroke="#fff" stroke-linecap="round" stroke-linejoin="round"></path>
      <path d="M407.3,538.57s-10.66,7.43-11.31,26.82l11.18,3.38c3.95,1.19,7.75,2.84,11.32,4.91l31.46,18.22s9.05,3.88,16.8-3.23l9.37-8.72s10.02-9.05-7.11-13.9c0,0,14.6,2.47,13.05-6.22-.46-2.61-2.18-4.82-4.47-6.15-6.23-3.59-22.81-11.66-46.45-11.89-2.42-.02-4.85-.25-7.24-.62l-16.61-2.6Z" fill="#fff" stroke="#263238" stroke-miterlimit="10"></path>
      <path d="M379.16,560.2l-.94,8.42c-23.27,3.23-53,17.45-53,17.45-14.22,5.17-21.01,0-21.01,0l-16.47-14.86c-4.85-4.85,.32-11.64,.32-11.64-9.05-.96-6.47-8.07-6.47-8.07h.14c23.77,6.06,59.35,12.25,97.42,8.7Z" fill="#fff" stroke="#263238" stroke-miterlimit="10"></path>
      <path d="M586.86,455.52l-43.07,18.11c-.15,.06-.28-.09-.2-.23,4.87-8.41,4.53-20.1,4.53-20.15h0c-2-14.97-10.32-18.8-11.87-19.39-.12-.04-.14-.19-.05-.28h0c2.9-2.69,3.59-7.01,1.67-10.47l-26.92-48.47c-.92-1.66-3.42-1.19-3.69,.68l-5.87,41.7c-.19,1.36-.05,2.74,.4,4.03l23.5,67.32c.03,.08-.01,.17-.09,.21-39.31,17.58-80.47,22.06-86.53,22.64-.47,.05-.94-.16-1.2-.55-4.1-6.09-5.96-16.32-6.41-19.18-.03-.18-.28-.19-.33-.02-2.01,7.29-3.07,17.12-3.37,20.28-.06,.6-.53,1.09-1.12,1.17-24.34,3.59-36.28-6.76-40.95-12.61-1.62-2.03-2.03-4.74-1.13-7.17,4.44-12.04,7.68-26.13,8.16-28.24,.03-.12-.09-.22-.21-.17-17.65,6.1-34.31,3.99-40.15,2.93-1.98-.36-3.98-.58-5.99-.71-29.05-1.85-65.19-1.59-67.38-1.57-.07,0-.12-.04-.14-.1-.35-.96-.64-1.98-.86-3.02-2.38-11.03,1.88-25.72,3.14-29.66,.21-.66,.33-1.02,.33-1.02,12.48,1.84,33.37-.37,33.43-.37h0c23.87-5.73,41.02-4.77,46.37-4.24,.97,.1,1.83-.63,1.91-1.6l7.72-92.38c.37-4.38,2.41-8.46,5.7-11.38l23.99-21.24s.05-.03,.08-.04l76.93-13.47s.06,0,.09,0c16.73,6.51,45.48,12.16,57.73,14.38,1.82,.34,3.23,1.5,4.48,2.86,2.16,2.35,3.67,5.21,4.54,8.28,8.88,31.63,19.86,64.9,33.51,99.36,4.54,11.47,9.18,22.62,13.92,33.43,1.45,4.13-.55,8.68-4.58,10.36Z" fill="#4dc98b" stroke="#263238" stroke-miterlimit="10"></path>
      <polygon points="413.23 276.36 413.23 286.24 421.64 291.31 433.26 291.31 456.49 274.22 456.22 254.77 443.27 245.11 436.86 241.77 413.23 276.36" fill="#fff" stroke="#263238" stroke-miterlimit="10"></polygon>
      <path d="M413.23,286.24l-7.8,8.27,23.02,63.27,35.6-71.2-2.9-12.07c-.37-1.53-2.17-2.18-3.43-1.25l-24.46,18.06h-11.62l-8.41-5.07Z" fill="#fff" stroke="#263238" stroke-miterlimit="10"></path>
      <path d="M405.43,294.5l-5.22,5.8,4.58,37.53c.15,1.22,1.18,2.14,2.41,2.14h2.68c.23,0,.35,.27,.2,.44-1.44,1.69-6.5,7.63-6.01,7.3,.58-.39,17.64,14.96,25.73,33.28l-1.35-23.22-23.02-63.27Z" fill="#fff" stroke="#263238" stroke-miterlimit="10"></path>
      <path d="M466.63,280.46l-2.57,6.11-35.6,71.2,1.93,32.89s11.12-31.63,27.25-55.2c.14-.21,.17-.47,.07-.7l-2.02-4.67c-.1-.24,.16-.47,.38-.34l3.75,2.22c.4,.24,.91,.05,1.07-.38l17.2-46.8c.27-.73-.1-1.53-.83-1.8l-8.84-3.3c-.71-.26-1.49,.08-1.78,.77Z" fill="#fff" stroke="#263238" stroke-miterlimit="10"></path>
      <path d="M543.34,473.81c-9.91,4.04-15.79,2.2-15.79,2.2,14.7-21.68,4.04-37.47,4.04-37.47l4.41-4.78s9.91,2.94,12.12,19.48c0,0,.36,12.12-4.78,20.57Z" fill="#fff" stroke="#263238" stroke-miterlimit="10"></path>
      <path d="M531.59,438.55s-31.29-10.32-37.68-4.56l-3.52,2.76c-2.11,1.65-2.45,4.7-.77,6.78l.02,.03c1.33,1.65,3.58,2.2,5.55,1.41,3.6-1.44,9.6-3.12,14.69-1.05,.81,.33,1.34,1.13,1.3,2.01,0,.05,0,.1,0,.15-.53,12.04-12.02,20.52-23.78,17.88-8.48-1.91-21.32-3.5-22.6,3.93,0,0-4.8-5.76-10.23-1.28,0,0-.96,1.28,.64,4.48,0,0-8.31,.96-1.92,7.68,0,0,14.07,13.11,40.3,8.31,0,0,16.12-2.93,33.97-11.06,0,0,14.86-19.47,4.04-37.47Z" fill="#fff" stroke="#263238" stroke-miterlimit="10"></path>
      <path d="M499.34,476.84s-18.87,3.84-34.54-8.95" fill="none" stroke="#263238" stroke-linecap="round" stroke-linejoin="round"></path>
      <path d="M484.95,482.91s-15.03,3.84-29.74-11.83" fill="none" stroke="#263238" stroke-linecap="round" stroke-linejoin="round"></path>
      <line x1="430.39" y1="390.66" x2="431.97" y2="483.97" fill="none" stroke="#263238" stroke-linecap="round" stroke-linejoin="round"></line>
      <circle cx="438.58" cy="396.29" r="3.47" fill="#263238" stroke="#263238" stroke-miterlimit="10"></circle>
      <circle cx="438.14" cy="421.12" r="3.47" fill="#263238" stroke="#263238" stroke-miterlimit="10"></circle>
      <circle cx="437.37" cy="445.02" r="3.47" fill="#263238" stroke="#263238" stroke-miterlimit="10"></circle>
      <circle cx="436.98" cy="470.86" r="3.47" fill="#263238" stroke="#263238" stroke-miterlimit="10"></circle>
      <circle cx="439.68" cy="493.23" r="3.47" fill="#263238" stroke="#263238" stroke-miterlimit="10"></circle>
      <rect x="461.66" y="355.56" width="34.71" height="10.41" rx="5.21" ry="5.21" fill="#fff" stroke="#263238" stroke-miterlimit="10"></rect>
      <path d="M392.37,464.62l3.17-26.43c.38-3.13,.16-6.3-.63-9.35l-15.77-60.55" fill="none" stroke="#263238" stroke-linecap="round" stroke-linejoin="round"></path>
      <path d="M277.57,462.24l-.41,.44-10.14-.49c-3.21-19.06,3.72-29.46,3.72-29.46l9.9-.24,.08,.09c-1.26,3.95-5.52,18.63-3.14,29.66Z" fill="#fff" stroke="#263238" stroke-miterlimit="10"></path>
      <polygon points="434.15 296.92 421.39 296.92 421.06 305.81 424.58 307.83 424.58 312.36 431.97 312.36 431.97 307.66 435.16 305.65 434.15 296.92" fill="#4db4d7" stroke="#263238" stroke-linecap="round" stroke-linejoin="round"></polygon>
      <polygon points="424.58 312.36 419.21 332.33 428.46 357.77 438.01 338.55 431.97 312.36 424.58 312.36" fill="#4db4d7" stroke="#263238" stroke-linecap="round" stroke-linejoin="round"></polygon>
      <g>
        <path d="M604.85,254.96l53.7-25.72,3.89,9.73-33.44,21.89-24.13-5.64c-.13-.03-.15-.2-.03-.26Z" fill="#fff" stroke="#263238" stroke-miterlimit="10"></path>
        <circle cx="398.48" cy="72.12" r="6.15" fill="#fff" stroke="#263238" stroke-miterlimit="10"></circle>
        <path d="M441.14,94.91c-6.15,10.23-18.73,16.01-25.93,18.61-3.75,1.35-7.95,.92-11.25-1.3-5.1-3.43-8.72-8.22-11.03-12.06-2.28-3.8-2.39-8.5-.35-12.43,3.92-7.54,11.43-19.97,19.95-23.6,0,0,6.79-3.26,17.51,6.5,4.96,4.52,8.82,10.2,10.77,16.62,.26,.84,.62,1.95,.93,3.04,.44,1.56,.23,3.23-.6,4.62Z" fill="#4db4d7" stroke="#263238" stroke-linecap="round" stroke-linejoin="round"></path>
        <path d="M266.36,130.8l28.42,34.15c.13,.16,.21,.35,.22,.56,.09,3.71-.04,39.18-37.76,56.52-.41,.19-.89,.06-1.16-.3l-27.34-37.72c-.34-.47-.18-1.12,.34-1.38,5.44-2.73,31.46-17.46,35.64-51.34,.1-.82,1.11-1.13,1.64-.5Z" fill="#fff" stroke="#263238" stroke-miterlimit="10"></path>
        <line x1="267.33" y1="143.6" x2="290.51" y2="172.31" fill="none" stroke="#263238" stroke-linecap="round" stroke-linejoin="round"></line>
        <line x1="263.64" y1="156.24" x2="286.82" y2="184.95" fill="none" stroke="#263238" stroke-linecap="round" stroke-linejoin="round"></line>
        <line x1="254.95" y1="170.99" x2="278.13" y2="199.7" fill="none" stroke="#263238" stroke-linecap="round" stroke-linejoin="round"></line>
        <line x1="244.15" y1="180.74" x2="267.33" y2="209.45" fill="none" stroke="#263238" stroke-linecap="round" stroke-linejoin="round"></line>
        <path d="M258.58,355.09l9.53,9.55s0,.02,0,.01c-.48-.14-5.2-1.52-11.66-2.09-10.66-.95-26.11,.28-35.31,12.84,0,0-13.5,.53-34.43,30.14-.75,1.08-1.53,2.2-2.31,3.35-.34,.51-1.09,.54-1.46,.05l-6.2-8.01-2.77,4.39c-.34,.54-1.12,.57-1.49,.05l-4.72-6.47-3.02,3.48c-.39,.45-1.09,.41-1.43-.08l-31.11-45.16c-.67-.97-.82-2.19-.43-3.3,2.77-7.8,16.12-37.61,56.58-29.52,0,0,6.77-27.63,49.49-27.03,1.18,.02,2.27,.62,2.94,1.59l32.31,47.2s0,.01,0,.01c-.18,0-6.14,0-9.57,.58l10.69,10.42s0,.02,0,.01c-.72-.17-10.58-2.58-15.63-2.01Z" fill="#fff" stroke="#263238" stroke-miterlimit="10"></path>
        <path d="M268.08,375.29s0,.01,0,.01l-39.17-1.57c-.91-.04-1.79,.5-2.07,1.38-.44,1.36-1.92,3.14-6.74,2.78-.8-.05-1.57,.33-1.98,1.03l-21.76,36.41c-.32,.53-1.07,.59-1.47,.12l-8.18-9.68v-.22c20.95-29.61,34.45-30.14,34.45-30.14,9.19-12.56,24.65-13.8,35.31-12.84l11.62,12.73Z" fill="#4db4d7" stroke="#263238" stroke-linecap="round" stroke-linejoin="round"></path>
        <path d="M176.74,400.94s15.46-25.43,44.41-25.54c0,0,7.26-17.21,37.43-20.32" fill="none" stroke="#263238" stroke-linecap="round" stroke-linejoin="round"></path>
        <path d="M167.75,398.91s20.16-29.74,53.4-23.5c0,0,10.79-28.12,42.37-28.74" fill="none" stroke="#263238" stroke-linecap="round" stroke-linejoin="round"></path>
        <line x1="188.35" y1="324.32" x2="221.15" y2="375.41" fill="none" stroke="#263238" stroke-linecap="round" stroke-linejoin="round"></line>
        <path d="M187.22,172.15l42.13-31.34c.31-.23,.75,.02,.71,.4-.92,7.32-4.75,50.82,34.73,43.51,.44-.08,.72,.45,.4,.75l-36.19,34.4c-.07,.07-.16,.11-.26,.12-2.45,.21-34.27,1.94-41.69-47.42-.02-.16,.04-.33,.18-.43Z" fill="#fff" stroke="#263238" stroke-miterlimit="10"></path>
        <line x1="192" y1="176" x2="223.08" y2="152.29" fill="none" stroke="#263238" stroke-linecap="round" stroke-linejoin="round"></line>
        <line x1="193.85" y1="186.01" x2="224.93" y2="162.3" fill="none" stroke="#263238" stroke-linecap="round" stroke-linejoin="round"></line>
        <line x1="198.06" y1="193.91" x2="229.14" y2="170.2" fill="none" stroke="#263238" stroke-linecap="round" stroke-linejoin="round"></line>
        <line x1="205.44" y1="204.44" x2="236.52" y2="180.74" fill="none" stroke="#263238" stroke-linecap="round" stroke-linejoin="round"></line>
        <line x1="213.34" y1="210.76" x2="244.42" y2="187.06" fill="none" stroke="#263238" stroke-linecap="round" stroke-linejoin="round"></line>
        <ellipse cx="425.06" cy="79.91" rx="6.37" ry="18.05" transform="translate(59.58 311.17) rotate(-42.97)" fill="#fff" stroke="#263238" stroke-miterlimit="10"></ellipse>
        <path d="M456.15,85.23c1.61,1.28,3.09,3.5,3.19,7.34,.07,2.95-.8,5.84-2.28,8.39-2.57,4.42-6.57,14.14,5.2,17.94,0,0,18.94,3.24,36.63-5.23,0,0,9.47-6.73-3.49-10.47,0,0-17.44-1.74-16.94-16.2,0,0,5.48-15.95-22.92-16.69,0,0-7.25-.12-11.4,3.09-3.61,2.8-2.5,8.33,1.86,9.7,1.28,.4,2.87,.64,4.84,.53s3.83,.43,5.32,1.61Z" fill="#fff" stroke="#263238" stroke-miterlimit="10"></path>
        <ellipse cx="497.38" cy="94.6" rx="4.61" ry="8.97" transform="translate(294.43 558.45) rotate(-77.14)" fill="#fff" stroke="#263238" stroke-miterlimit="10"></ellipse>
        <path d="M601.98,73.67l-52.96,76.4s50.93,37.18,51.61,37.18,53.86-76.85,53.86-76.85l-52.51-36.73Z" fill="#4db4d7" stroke="#263238" stroke-linecap="round" stroke-linejoin="round"></path>
        <path d="M611.67,80.39s-20.94,25.72-22.41,58.04c0,0-.14,16.4,13.58,22.08,3.18,1.31,6.74,1.38,9.98,.25l28.24-9.84s-3.86-21.86,8.27-44.27l-37.65-26.27Z" fill="#fff" stroke="#263238" stroke-miterlimit="10"></path>
        <path d="M616.27,147.81s-.92,6.98-8.82,13.78l57.12,6.25s6.61-3.58,5.51-14.6l-53.82-5.42Z" fill="#fff" stroke="#263238" stroke-miterlimit="10"></path>
        <polygon points="604.5 255.13 616.96 341.56 642.29 341.56 630.63 255.93 604.5 255.13" fill="#4db4d7" stroke="#263238" stroke-linecap="round" stroke-linejoin="round"></polygon>
        <path d="M669.14,229.86l-38.51,26.08,11.66,85.63,40.2-25.33-13.25-86.33s-.06-.07-.1-.04Z" fill="#fff" stroke="#263238" stroke-miterlimit="10"></path>
        <path d="M609.61,255l49.59-24.25,10.01-1.11c.1-.01,.15,.12,.07,.18l-38.66,26.11-21.02-.93Z" fill="#fff" stroke="#263238" stroke-miterlimit="10"></path>
        <polygon points="612.92 294.12 617.88 326.36 637.17 325.81 632.48 293.85 612.92 294.12" fill="#fff" stroke="#263238" stroke-miterlimit="10"></polygon>
        <ellipse cx="618.98" cy="274.42" rx="5.79" ry="8.13" transform="translate(-31.41 86.17) rotate(-7.77)" fill="#fff" stroke="#263238" stroke-miterlimit="10"></ellipse>
        <path d="M639.03,92.53l.45-.68c.92-1.4,.54-3.28-.85-4.2l-7.15-4.74c-1.4-.92-3.28-.54-4.2,.85l-.44,.66c-.29,.44-.89,.56-1.33,.27l-4.14-2.75c-.91-.61-2.15-.36-2.75,.56l-2.91,4.39c-.61,.91-.36,2.15,.56,2.76l22.21,14.76c.91,.61,2.15,.36,2.75-.56l2.91-4.39c.61-.91,.36-2.15-.56-2.76l-4.28-2.84c-.44-.29-.56-.89-.27-1.33Z" fill="#4dc98b" stroke="#263238" stroke-miterlimit="10"></path>
        <line x1="636" y1="89.9" x2="630.41" y2="86.14" fill="none" stroke="#263238" stroke-linecap="round" stroke-linejoin="round"></line>
      </g>
      <path d="M433.26,291.31l3.01,20.82c.09,.65,.89,.92,1.36,.46l26.42-26.02-2.9-12.07c-.37-1.53-2.17-2.18-3.43-1.25l-24.46,18.06Z" fill="#fff" stroke="#263238" stroke-miterlimit="10"></path>
      <path d="M421.64,291.31l-.63,15.52c-.03,.81-1.11,1.07-1.51,.36l-9.69-17.32,3.42-3.63,8.41,5.07Z" fill="#fff" stroke="#263238" stroke-miterlimit="10"></path>
      <rect x="382.12" y="186.47" width="52.97" height="90.45" rx="26.25" ry="26.25" transform="translate(-35.94 79.98) rotate(-10.71)" fill="#fff" stroke="#263238" stroke-miterlimit="10"></rect>
      <path d="M379.86,222.27s-12.44-4.82-8.4-16.95c0,0-7.93-18.66,2.18-24.11,0,0,2.64-.93,6.38,1.09,0,0,7.15,4.35,7.15-3.42,0,0-2.33-16.64,18.2-12.75,0,0,7.47,1.24,12.29-5.29,0,0,1.87-2.8,3.73,2.64,0,0,1.87,4.2,4.98-.62,0,0,3.27-6.07,11.04,3.89,0,0,2.33,7.93,12.75,2.02,0,0,14.78-6.84,16.17,12.13,0,0-.16,12.75-4.67,30.79,0,0-6.22,28.77-5.44,43.08,0,0-13.91,1.5-18.07-9.36l-6.34-34.03s-8.15-3.66-15.24-13.51c-.63-.88-1.84-1.1-2.75-.52l-17.37,11.06c-1.28,.81-2.78,1.19-4.29,1.07l-13.23-1.06s-1.16,6.83,.93,13.84Z" fill="#fff" stroke="#263238" stroke-miterlimit="10"></path>
      <ellipse cx="448.28" cy="232.02" rx="6.48" ry="10.95" fill="#fff" stroke="#263238" stroke-miterlimit="10"></ellipse>
      <line x1="448.28" y1="226.88" x2="448.28" y2="235.52" fill="none" stroke="#263238" stroke-linecap="round" stroke-linejoin="round"></line>
    </g>
    <path d="M405.11,231.38s6.01,5.63,12.6-2.38" fill="none" stroke="#263238" stroke-linecap="round" stroke-linejoin="round"></path>
    <path d="M385.48,234.15c1.94,1.74,4.92,1.58,6.66-.35,.15-.16,.28-.34,.41-.52" fill="none" stroke="#263238" stroke-linecap="round" stroke-linejoin="round"></path>
    <path d="M404.9,250.82c-3.32,1.54-8.36,1.13-9.06-.09-.7-1.23-1.27-18.75-1.27-18.75l-4.08-4.65s-3.37-3.43-6.42-.13" fill="none" stroke="#263238" stroke-linecap="round" stroke-linejoin="round"></path>
    <line x1="398.54" y1="260.15" x2="408.85" y2="258.15" fill="none" stroke="#263238" stroke-linecap="round" stroke-linejoin="round"></line>
    <path d="M419.23,221.44c-6.67-2.69-14.28-1.42-19.71,3.28" fill="none" stroke="#263238" stroke-linecap="round" stroke-linejoin="round"></path>
  </g>
  <g id="e">
    <ellipse cx="661.22" cy="446.82" rx="11.26" ry="29.52" fill="#4dc98b" stroke="#263238" stroke-miterlimit="10"></ellipse>
    <path d="M626.26,428.62c3.52,11.09,10.27,18.86,15.1,17.28,4.82-1.58,5.87-11.75,2.35-22.83s-10.28-18.86-15.1-17.27-5.88,11.75-2.35,22.82Z" fill="#4dc98b" stroke="#263238" stroke-miterlimit="10"></path>
    <path d="M708.83,495.39c11.46-1.94,20.05-7.56,19.21-12.55-.84-4.98-10.81-7.45-22.27-5.55-11.46,1.91-20.09,7.59-19.21,12.58s10.81,7.45,22.27,5.51Z" fill="#4dc98b" stroke="#263238" stroke-miterlimit="10"></path>
    <path d="M615.66,468.14c9.57,9.49,20.88,13.61,25.26,9.2,4.38-4.41,.17-15.68-9.41-25.17-9.57-9.48-20.86-13.61-25.25-9.2-4.38,4.41-.17,15.64,9.39,25.17Z" fill="#4dc98b" stroke="#263238" stroke-miterlimit="10"></path>
    <path d="M681.59,442.07c-9.25,13.42-12.01,27.57-6.16,31.6,5.86,4.03,18.09-3.57,27.34-17s12.01-27.56,6.16-31.6c-5.86-4.04-18.09,3.58-27.34,17Z" fill="#4dc98b" stroke="#263238" stroke-miterlimit="10"></path>
    <line x1="660.43" y1="474.87" x2="659.56" y2="564.66" fill="none" stroke="#263238" stroke-linecap="round" stroke-linejoin="round"></line>
    <line x1="661.48" y1="435.85" x2="660.43" y2="474.87" fill="none" stroke="#263238" stroke-linecap="round" stroke-miterlimit="10"></line>
    <line x1="661.41" y1="429.48" x2="661.48" y2="432.47" fill="none" stroke="#263238" stroke-linecap="round" stroke-miterlimit="10"></line>
    <path d="M675.47,471.77c-6.45,13.33-10.22,27.8-11.09,42.58v55.54" fill="none" stroke="#263238" stroke-linecap="round" stroke-linejoin="round"></path>
    <path d="M694.81,442.18c-7.73,8.96-14.23,18.91-19.33,29.58" fill="none" stroke="#263238" stroke-linecap="round" stroke-miterlimit="10"></path>
    <path d="M700.89,435.75s-1.16,1.11-3.08,3.11" fill="none" stroke="#263238" stroke-linecap="round" stroke-miterlimit="10"></path>
    <path d="M640.2,475.9c7.89,11.07,14.04,23.28,18.24,36.2" fill="none" stroke="#263238" stroke-linecap="round" stroke-miterlimit="10"></path>
    <path d="M627.26,461.05c4.77,4.54,9.1,9.51,12.94,14.85" fill="none" stroke="#263238" stroke-linecap="round" stroke-miterlimit="10"></path>
    <path d="M613.44,450.51c3.52,1.98,6.82,4.32,9.86,6.99" fill="none" stroke="#263238" stroke-linecap="round" stroke-miterlimit="10"></path>
    <path d="M640.68,443.15c6.23,19.62,14.61,48.62,18.51,73.78" fill="none" stroke="#263238" stroke-linecap="round" stroke-miterlimit="10"></path>
    <path d="M636.87,431.54c1.11,3.33,2.4,7.24,3.79,11.64" fill="none" stroke="#263238" stroke-linecap="round" stroke-miterlimit="10"></path>
    <path d="M632.99,420.25s1.11,3.01,2.84,8.15" fill="none" stroke="#263238" stroke-linecap="round" stroke-miterlimit="10"></path>
    <path d="M687.13,487.15c-7.76,2.96-18.43,11.19-22.13,21.98" fill="none" stroke="#263238" stroke-linecap="round" stroke-miterlimit="10"></path>
    <path d="M701.53,484.23c-4.93,.24-9.79,1.23-14.42,2.92" fill="none" stroke="#263238" stroke-linecap="round" stroke-miterlimit="10"></path>
    <path d="M710.85,484.46s-1.39-.19-3.67-.29" fill="none" stroke="#263238" stroke-linecap="round" stroke-miterlimit="10"></path>
    <path d="M686.36,538.55c10.53,4.91,20.8,5.18,22.94,.6,2.14-4.58-4.66-12.28-15.18-17.19-10.53-4.91-20.8-5.18-22.94-.6-2.14,4.58,4.66,12.28,15.18,17.19Z" fill="#4dc98b" stroke="#263238" stroke-miterlimit="10"></path>
    <path d="M686.69,525.22c-4.18-2.59-8.73-4.54-13.5-5.77-2.24-1.37-5.06-1.31-7.24,.13-1.42,.94-.94,8.06-.94,8.06v36.99" fill="none" stroke="#263238" stroke-linecap="round" stroke-linejoin="round"></path>
    <path d="M694.23,530.71s-1.03-.95-2.86-2.33" fill="none" stroke="#263238" stroke-linecap="round" stroke-miterlimit="10"></path>
    <path d="M610.8,495.39c-11.45-1.94-20.05-7.56-19.21-12.55s10.81-7.45,22.27-5.55c11.46,1.91,20.05,7.55,19.21,12.55-.84,4.99-10.81,7.49-22.27,5.55Z" fill="#4dc98b" stroke="#263238" stroke-miterlimit="10"></path>
    <path d="M632.25,487.06c1.39,.52,2.76,1.12,4.08,1.8,9.44,4.97,15.32,14.79,15.25,25.46v48.93" fill="none" stroke="#263238" stroke-linecap="round" stroke-linejoin="round"></path>
    <path d="M616.91,484.17c5.24,.16,10.42,1.14,15.35,2.9" fill="none" stroke="#263238" stroke-linecap="round" stroke-miterlimit="10"></path>
    <path d="M608.78,484.46s.92-.12,2.48-.22" fill="none" stroke="#263238" stroke-linecap="round" stroke-miterlimit="10"></path>
    <path d="M622.3,528.9c-10.06,5.81-20.28,6.95-22.79,2.57-2.52-4.38,3.58-12.63,13.65-18.43,10.07-5.8,20.28-6.95,22.79-2.57s-3.58,12.63-13.65,18.43Z" fill="#4dc98b" stroke="#263238" stroke-miterlimit="10"></path>
    <path d="M619.86,516.38c4.14-3.22,8.76-5.77,13.69-7.55,0,0,12.49-2.05,15.34,6.01" fill="none" stroke="#263238" stroke-linecap="round" stroke-miterlimit="10"></path>
    <path d="M613.78,521.77s.62-.68,1.77-1.75" fill="none" stroke="#263238" stroke-linecap="round" stroke-miterlimit="10"></path>
    <path d="M646.97,515.31s14.71-2.85,14.71,7.11-10.38,18.04-14.71,29.43c-4.33,11.39-12.35,11.87-16.64,.48-4.29-11.39,1.92-32.27,16.64-37.01Z" fill="#4dc98b" stroke="#263238" stroke-miterlimit="10"></path>
    <path d="M656.93,515.83s-12.81,5.22-16.64,21.84" fill="none" stroke="#263238" stroke-linecap="round" stroke-linejoin="round"></path>
    <line x1="655.99" y1="537.62" x2="655.99" y2="564.66" fill="none" stroke="#263238" stroke-linecap="round" stroke-linejoin="round"></line>
    <path d="M632.44,617.35c-3.52-11.21-5.32-22.88-5.32-34.63-.02-7.11,.7-14.21,2.13-21.17h59.9c1.43,6.97,2.15,14.06,2.13,21.17,0,11.75-1.8,23.42-5.32,34.63h-53.51Z" fill="#263238" stroke="#263238" stroke-miterlimit="10"></path>
    <path d="M690.7,571.45c.17,1.62,.3,3.27,.4,4.95h-63.82c.1-1.67,.23-3.33,.4-4.95h63.02Z" fill="#7a7a7a"></path>
    <path d="M628,596.74c-.2-1.64-.37-3.33-.5-4.95h63.47c-.13,1.66-.3,3.33-.5,4.95h-62.47Z" fill="#7a7a7a"></path>
    <path d="M683.55,583c-.05,1.43,1.07,2.62,2.49,2.67,1.43,.05,2.62-1.07,2.67-2.49,.05-1.43-1.07-2.62-2.49-2.67-.03,0-.07,0-.1,0-1.4-.02-2.55,1.1-2.57,2.5Z" fill="#8c8c8c"></path>
    <path d="M670.63,583c-.05,1.43,1.07,2.62,2.49,2.67,1.43,.05,2.62-1.07,2.67-2.49,.05-1.43-1.07-2.62-2.49-2.67-.03,0-.06,0-.09,0-1.4-.02-2.55,1.1-2.58,2.5Z" fill="#8c8c8c"></path>
    <path d="M657.72,583c-.05,1.43,1.07,2.62,2.49,2.67,1.43,.05,2.62-1.07,2.67-2.49,.05-1.43-1.07-2.62-2.49-2.67-.03,0-.06,0-.09,0-1.4-.02-2.56,1.09-2.58,2.49h0Z" fill="#8c8c8c"></path>
    <path d="M644.81,583c-.05,1.43,1.07,2.62,2.49,2.67,1.43,.05,2.62-1.07,2.67-2.49,.05-1.43-1.07-2.62-2.49-2.67-.03,0-.06,0-.09,0-1.4-.02-2.56,1.09-2.58,2.49h0Z" fill="#8c8c8c"></path>
    <path d="M631.88,583c-.05,1.43,1.07,2.62,2.49,2.67,1.43,.05,2.62-1.07,2.67-2.49,.05-1.43-1.07-2.62-2.49-2.67-.03,0-.06,0-.09,0-1.4-.02-2.55,1.1-2.58,2.5Z" fill="#8c8c8c"></path>
  </g>
  <g>
    <path d="M437.12,204.14c1.02,.12,2.05-.14,2.89-.73" fill="none" stroke="#263238" stroke-linecap="round" stroke-linejoin="round"></path>
    <path d="M416.59,190.53s5.92-4.73,9.38,1.18c2.12,3.55,4.88,8.29,7.88,10.82" fill="none" stroke="#263238" stroke-linecap="round" stroke-linejoin="round"></path>
    <path d="M432.71,211.49c3.67-.69,7.41-.88,11.13-.59,5.27,.59,4.73,4.73,10.54,4.73" fill="none" stroke="#263238" stroke-linecap="round" stroke-linejoin="round"></path>
    <path d="M389.22,184.73c.49,.6,1.05,1.15,1.66,1.63" fill="none" stroke="#263238" stroke-linecap="round" stroke-linejoin="round"></path>
    <path d="M413.43,184.79s-1.52,5.15-7.37-1.87c-5.86-7.02-9.92-15.15-16.57-8.18-1.61,1.45-2.44,3.58-2.23,5.74" fill="none" stroke="#263238" stroke-linecap="round" stroke-linejoin="round"></path>
    <path d="M374.43,186.7c-.58-1.19-.98-2.47-1.18-3.78" fill="none" stroke="#263238" stroke-linecap="round" stroke-linejoin="round"></path>
    <path d="M384.97,192.28s-5.62,.66-9.16-3.49" fill="none" stroke="#263238" stroke-linecap="round" stroke-linejoin="round"></path>
  </g>
</svg>
