<svg xmlns="http://www.w3.org/2000/svg" width="865.76" height="682.89" viewBox="0 0 865.76 682.89"><path d="M808.72,585.37C935.71,229,634.06,108.66,634.06,108.66c-172.07-80.75-348.8,7-387.88,53.63a125.46,125.46,0,0,0-23.08,42c-9,27.74-25.35,50.6-41.11,67.67a195.58,195.58,0,0,1-58,43C-57.87,403.69,44.48,585.45,44.48,585.45Z" fill="#7b5ac4"/><path d="M808.72,585.37C935.71,229,634.06,108.66,634.06,108.66c-172.07-80.75-348.8,7-387.88,53.63a125.46,125.46,0,0,0-23.08,42c-9,27.74-25.35,50.6-41.11,67.67a195.58,195.58,0,0,1-58,43C-57.87,403.69,44.48,585.45,44.48,585.45Z" fill="#fff" opacity="0.7"/><circle cx="200.48" cy="221.45" r="49.5" fill="#7b5ac4"/><circle cx="200.48" cy="221.45" r="49.5" fill="#fff" opacity="0.6"/><circle cx="788.48" cy="226.45" r="60.5" fill="#7b5ac4"/><circle cx="788.48" cy="226.45" r="60.5" fill="#fff" opacity="0.6"/><path d="M704.82,158H592.63V87H704.82Zm-111.19-1H703.82V88H593.63Z" fill="#7b5ac4"/><polygon points="646.24 133.57 645.93 133.31 592.8 87.86 593.46 87.1 646.27 132.28 704.01 87.08 704.63 87.87 646.24 133.57" fill="#7b5ac4"/><rect x="586.66" y="139.5" width="53.86" height="1" transform="translate(56.42 432.67) rotate(-40.56)" fill="#7b5ac4"/><rect x="682.36" y="111.14" width="1" height="56.3" transform="translate(134.84 569.84) rotate(-49.68)" fill="#7b5ac4"/><ellipse cx="432.98" cy="589.04" rx="417" ry="23.17" fill="#7b5ac4"/><ellipse cx="432.98" cy="589.04" rx="417" ry="23.17" fill="#fff" opacity="0.6"/><circle cx="740.91" cy="490.77" r="37.5" fill="#ef6f26"/><ellipse cx="725.28" cy="481.66" rx="4.59" ry="6.72" fill="#fff"/><ellipse cx="758.05" cy="481.66" rx="4.59" ry="6.72" fill="#fff"/><path d="M764.16,511.72a1,1,0,0,1-.95-.68c-5.86-17.6-22.09-17.43-22.28-17.43h-.34c-14.72,0-21.23,17.28-21.3,17.46a1,1,0,1,1-1.87-.69c.07-.19,7-18.77,23.13-18.77h.38c.13,0,17.86-.19,24.18,18.8a1,1,0,0,1-.64,1.26A.84.84,0,0,1,764.16,511.72Z" fill="#fff"/><circle cx="518.55" cy="576.21" r="24.68" fill="#21465d"/><circle cx="518.55" cy="576.21" r="24.68" opacity="0.2"/><circle cx="518.55" cy="576.21" r="7.07" opacity="0.2"/><circle cx="286.21" cy="575.66" r="24.68" fill="#17485c"/><circle cx="286.21" cy="575.66" r="24.68" opacity="0.2"/><circle cx="286.21" cy="575.66" r="7.07" opacity="0.2"/><path d="M279.61,237.43l-35.15-7.06-70.65,3.3s27.53,32.12,56.15,30.47c0,0,9-.13,13.25,1.23a2.49,2.49,0,0,1,1.69,2.1,6.51,6.51,0,0,0,1.23,2.85l12.46-7.1Z" fill="#ef6f26"/><path d="M357.16,470.51s4.45-6.75,12-1.22l6.11-20.9-5.5-13L354,444Z" fill="#ef6f26"/><path d="M357.16,470.51s4.45-6.75,12-1.22l6.11-20.9-5.5-13L354,444Z" opacity="0.2"/><path d="M693.81,335.23a6.89,6.89,0,0,0-3.34,1.74c-3.31,2.8-7.91,10-8.09,28.7a161.78,161.78,0,0,0,1.16,19.85s-38-11.2-46.43-31.57c0,0-9.55-10.46-17.81-12.11L564.51,329.5l-2.28-.51L470.3,367.18l1.73-2.73,4.1-6.5,1.24-1.94,2.6-4.12,2.44-3.87,2.22-3.5,8.24-13,20.36-32.21S531.58,264,560.39,275l24.35,11,37.1,16.74Z" fill="#7b5ac4"/><path d="M621.84,302.76l-1.44,4.39-55.89,22.36L470.3,367.18l22.56-35.78s-.48.25,0,.07a247.66,247.66,0,0,0,35.41-17s22.94-15.05,43.86-20.37c0,0,9.48-1.84,12.6-8.1Z" opacity="0.2"/><path d="M678.67,328.51,664,321.66,619.3,341.84a31.78,31.78,0,0,1,12.89,7.67Z" opacity="0.2"/><polygon points="458.81 276.52 496.35 278.36 495.98 290.29 464.53 295.36 458.81 276.52" fill="#ef6f26"/><polygon points="458.81 276.52 496.35 278.36 495.98 290.29 464.53 295.36 458.81 276.52" opacity="0.2"/><path d="M435.05,387.72A97.17,97.17,0,0,0,411.11,398c-1.64,1-3.23,2-4.77,3-2.63,1.75-5.11,3.58-7.44,5.44-1.91,1.52-3.72,3.07-5.44,4.62a116.17,116.17,0,0,0-23.38,28.82c-10.82,7.71-11.74,22.75-11.74,22.75a16.44,16.44,0,0,1-.36,6.26,6.42,6.42,0,0,1-8.31,4.26c-13.31-4.76-18.46-37.56-20-50.47a33.4,33.4,0,0,0-3-10.35l-3.34-7.05-1.26-2.67L313,383.31,356,276.14l4.41,2A210.88,210.88,0,0,1,377.24,296c3.59,4.25,6.82,8.43,9.73,12.46l5.14-4.41A143.58,143.58,0,0,1,384,285c-1.61-4.74-2.87-9.23-3.85-13.42l3.48-4.22,29.55,20,14.5,61.48c.87,5.9.6,9.95-.18,12.74-1.22,4.35-3.66,5.63-4.92,6a4.51,4.51,0,0,0-2.44,1.81,4.7,4.7,0,0,0-.74,2.14,4.55,4.55,0,0,0,2.07,4.17l.5.34C427.42,379.8,435.05,387.72,435.05,387.72Z" fill="#ef6f26"/><path d="M320.53,141.43s21.29-33,32.49-20.92c0,0,3.85,6.43,11.74,2.2,0,0,16.52-6.79,21.11,14.69L395,167.68Z" fill="#7b5ac4"/><path d="M320.53,141.43l3.94-5.83s42.46,2.47,65,12.41L395,167.68Z" opacity="0.2"/><path d="M292.77,216.07s-43.26-38.85-12.8-68.21c0,0,29-27,103.69,9.54,0,0,54.2,23.44,32.15,60.44Z" fill="#7b5ac4"/><ellipse cx="338.33" cy="208.88" rx="31.38" ry="46.89" fill="#f5c15c"/><path d="M305.06,167.61a44.6,44.6,0,0,0-2.88,11.08c0,3.34-1.71,6.76-2.9,8.74a8.19,8.19,0,0,1-2.15,2.32c-2.73,2.05-4.11,6.78-4.61,12.26-2.2-2.81-17.15-23.58,12.41-34.52Z" opacity="0.2"/><path d="M415.81,217.84l-.76-1.35s-1-21.86-20.34-39.1c0,0,25,14.47,22.9,37.08Z" opacity="0.2"/><path d="M369.34,214.85s-16.51-.38-36-20.75L319.8,172.45l6.24-3.86,27.89,21.29Z" fill="#f3ab2a"/><path d="M378,297.24l9,11.2,5.14-4.41s-9.18-20.74-11.93-32.48c0,0-18.72,2.2-18.36-11.56V239.65s-7.69,17.17-25.32,15.82c0,0,11.38,10.76,18.72,15.9C355.22,271.37,372.29,282.93,378,297.24Z" fill="#f5c15c"/><path d="M336.5,255.47l6.07,5.43s13.14-10.23,19.22-11.08l0-10.17S354.31,256.45,336.5,255.47Z" fill="#f3ab2a"/><path d="M286.92,234.14s-22.14-.36-34.18,25l-6.61,11.14a1.37,1.37,0,0,0,.7,2L275,282.56s27.89,84.05,38,100.75c0,0,38.05-16.23,60.19-41.73a16.35,16.35,0,0,0,4-11.84c-.32-4.75-1.57-11.8-5.28-21.12a227.68,227.68,0,0,0-16-32.48l-32.11-28.08Z" fill="#fff"/><path d="M465,295.22s1.79-12.29,16.65-10.27c0,0,10.65.36,14.68-6.61,0,0,20.93,7.89,13.22,27.16l-12.48,18.9s-6.58,11.93-13.57,5a15.34,15.34,0,0,0-1.3-5.51s-2.4-8.4-1.57-11.08a5.29,5.29,0,0,1,.84-2.68s5.51-10.46-.18-15.78C481.3,294.31,470.57,286.23,465,295.22Z" fill="#ef6f26"/><path d="M465,295.22s4-8.51,13.58-7.05a15.23,15.23,0,0,1,12.56,11.95c1.06,5.17-.29,11.36-10.77,14.37a6.35,6.35,0,0,1,1.1-4.4s6.06-10.09-.18-15.78C481.3,294.31,470.93,286.23,465,295.22Z" opacity="0.2"/><path d="M717.12,316.51c-14.13,6.61-49.55,9-49.55,9-40.56,21.29-67.9,21.11-67.9,21.11-11.2,8.44-31.2,18.53-31.2,18.53-7.53,2-7.34,7.71-7.34,7.71,0,7.89-9.91,12.67-9.91,12.67A14.45,14.45,0,0,0,544.06,396c0,7.52-24.22,31.38-24.22,31.38C507,435.17,495,449.54,487.77,459.19a77.25,77.25,0,0,0-9,15.81c-4.64,10.88-9.94,12.92-9.94,12.92a52.42,52.42,0,0,1-14.5,3.43c-29.89,3.31-75.24-7.83-75.24-7.83-19.46-15.42-9-43.68-9-43.68,22-41.85,65-52.12,65-52.12,17.07-3.31,86.62-60.93,86.62-60.93,8.44-11.38,12.85-7.53,12.85-7.53,6.6,0,9.91-3.3,9.91-3.3,5.69-9.91,11.74-1.83,11.74-1.83,4.77-7.53,16.52-3.86,16.52-3.86,2.39-6.24,13.21-4.59,13.21-4.59.37-5.5,14.13-4.77,14.13-4.77,16.52-7.52,55.79-14.68,55.79-14.68C660.05,280,666.1,282,666.1,282c4.22-7.52,12.85-8.08,12.85-8.08a48.64,48.64,0,0,0,23.12-6.05C705,278.34,717.12,316.51,717.12,316.51Z" fill="#7b5ac4"/><path d="M771.08,240.53S770.34,255.4,754,267.7c0,0-32.85,21.83-33.77,32.11,0,0-2.94-1.44-8.53-.08l-8.84-29.64a120.29,120.29,0,0,0,20.67-9.92A323.18,323.18,0,0,1,758.6,246C759.15,245.86,768.51,243.47,771.08,240.53Z" fill="#f5c15c"/><path d="M781.9,265.31c-.8.31-1.58.63-2.33,1-14.33,6.23-20.79,15-20.79,15-18,16.51-15.23,32.3-15.23,32.3-22.39-1.11-23.31-13.77-23.31-13.77C721.16,289.53,754,267.7,754,267.7c16.33-12.3,17.07-27.17,17.07-27.17l4.77-16.7c2.38-14.13,9.72-14.31,9.72-14.31l2.4.2,6.41.53c-2.38,5.51,3.67,29.37,3.67,29.37C800.25,259.07,781.9,265.31,781.9,265.31Z" fill="#ef6f26"/><path d="M781.9,265.31c-.8.31-1.58.63-2.33,1,7.4-11.39,6-37.48,6-37.48-.48-10.66.95-16.21,2.4-19.07l6.41.53c-2.38,5.51,3.67,29.37,3.67,29.37C800.25,259.07,781.9,265.31,781.9,265.31Z" opacity="0.2"/><path d="M756.58,296.88l47.16-2.94v3.49l-32.11,4.95c-18.91,1.65-28.08,11.2-28.08,11.2s-2.76-15.79,15.23-32.3c0,0,6.46-8.78,20.79-15,.75-.33,1.53-.65,2.33-1,0,0,18.35-6.24,16.15-25.69,0,0-6-23.86-3.67-29.37,6.06,1.47,11.93,19.27,11.93,19.27,8.81,29.92-7,31.94-7,31.94C755.84,280.54,756.58,296.88,756.58,296.88Z" fill="#21465d"/><path d="M794.38,360c-2.93,19.08-17.51,18.67-17.51,18.67v0a3.45,3.45,0,0,0,1.9-1s9.36-16.51,11.93-43.67C796.77,340.55,794.38,360,794.38,360Z" fill="#21465d"/><path d="M708.68,398.36s15.78-.55,25.51,3.86l33.21,14.31,1.66-3.67-39.64-19.27s-8.55-4.35,2.7-9.88C732.12,383.71,722.81,386.62,708.68,398.36Z" fill="#21465d"/><path d="M519.84,427.36c-.87,11.07-8.16,22.34-13.49,29.22a46.43,46.43,0,0,1-8.86,8.63c-7.06,5.32-11.7,15.3-11.7,15.3-3.85,12.66-31.5,11-31.5,11l0-.13a52.42,52.42,0,0,0,14.5-3.43s5.3-2,9.94-12.92a77.25,77.25,0,0,1,9-15.81C495,449.54,507,435.17,519.84,427.36Z" fill="#7b5ac4"/><path d="M519.84,427.36c-.87,11.07-8.16,22.34-13.49,29.22a46.43,46.43,0,0,1-8.86,8.63c-7.06,5.32-11.7,15.3-11.7,15.3-3.85,12.66-31.5,11-31.5,11l0-.13a52.42,52.42,0,0,0,14.5-3.43s5.3-2,9.94-12.92a77.25,77.25,0,0,1,9-15.81C495,449.54,507,435.17,519.84,427.36Z" opacity="0.2"/><path d="M246.6,222.17a21.43,21.43,0,0,1-9.29,17.56s-31.75,18.9-63.5-6.06c0,0-11.56-10.28-1.1-20.74,0,0,7.34-16.7,28.44-15a20,20,0,0,0,8.25-.33,12.51,12.51,0,0,0,7.6-5.95c1.62-2.84,5.75-6.86,15.72-4.37,0,0,6.53-1.12,9.85,1.28a4.46,4.46,0,0,1,1.89,3.86s.37,7-1.65,11a8.53,8.53,0,0,0,1,8,16.45,16.45,0,0,1,2.4,6A26.08,26.08,0,0,1,246.6,222.17Z" fill="#fff"/><path d="M257.56,212c0,2.61-1.7,6.74-11,10.17a26.08,26.08,0,0,0-.38-4.76,16.45,16.45,0,0,0-2.4-6,8.53,8.53,0,0,1-1-8c2-4,1.65-11,1.65-11a4.46,4.46,0,0,0-1.89-3.86l0-.07S255.66,185.22,256,190c0,0-1.46,11.38.92,19.46A5.21,5.21,0,0,1,257.56,212Z" fill="#ef6f26"/><path d="M282.66,205l-24,6.73-1.11.31a5.21,5.21,0,0,0-.62-2.55C254.56,201.37,256,190,256,190l5.15-.84,11-1.82S277,198.27,282.66,205Z" fill="#f5c15c"/><path d="M258.67,211.69l-1.11.31a5.21,5.21,0,0,0-.62-2.55C254.56,201.37,256,190,256,190l5.15-.84C260.21,194,258.37,204.42,258.67,211.69Z" fill="#f3ab2a"/><polygon points="474.41 426.74 498.82 462.89 563.61 434.63 527.82 407.47 474.41 426.74" fill="#ef6f26"/><polygon points="498.82 462.89 499.56 469.13 563.24 441.97 563.61 434.63 498.82 462.89" fill="#ef6f26"/><polygon points="498.82 462.89 499.56 469.13 563.24 441.97 563.61 434.63 498.82 462.89" opacity="0.2"/><polygon points="498.82 462.89 474.41 426.74 474.6 433.34 499.56 469.13 498.82 462.89" fill="#ef6f26"/><polygon points="498.82 462.89 474.41 426.74 474.6 433.34 499.56 469.13 498.82 462.89" opacity="0.2"/><path d="M499.56,469.13l1.83,16.33,5.87,7.89S559,467.48,559,468s.57-24.35.57-24.35Z" fill="#ef6f26"/><polygon points="480 441.54 499.56 469.13 501.39 485.46 482.86 457.2 480 441.54" fill="#ef6f26"/><polygon points="327.05 448.02 326.68 456.28 264.47 441.42 263 428.39 327.05 448.02" fill="#7b5ac4"/><polygon points="348.05 410.5 327.05 448.02 326.68 456.28 348.05 417.14 348.05 410.5" fill="#7b5ac4"/><g opacity="0.2"><polygon points="327.05 448.02 326.68 456.28 264.47 441.42 263 428.39 327.05 448.02"/><polygon points="348.05 410.5 327.05 448.02 326.68 456.28 348.05 417.14 348.05 410.5"/></g><polygon points="264.47 441.42 267.04 459.22 322.67 479.45 341.91 441.6 342.86 426.37 326.68 456.28 264.47 441.42" fill="#7b5ac4"/><path d="M262.74,555.1a5.47,5.47,0,0,1-4.76-8.19l37.67-66.07a3.4,3.4,0,0,1,5.9,3.37L265,548.31,540.48,548h0a3.4,3.4,0,1,1,0,6.79l-277.74.36Z" fill="#21465d"/><path d="M790.71,334c-2.57,27.16-11.93,43.67-11.93,43.67a3.45,3.45,0,0,1-1.9,1c-6.11,1.76-24.39,1.45-31.25,1.26a18.5,18.5,0,0,0-5.91.79c-10,3-19.39,8.95-25.17,13.1-3.66,2.64-5.87,4.56-5.87,4.56-13.14-5.42-14.38-20-14.49-22.95,0-.35,0-.54,0-.54,17.62-10.28,33.4-7.34,33.4-7.34,18.72,2.2,29.18-13.4,29.18-13.4,1-2,2-3.84,3-5.58,7.71-13.67,14.65-19.74,14.65-19.74,2.67-3.33,6.18-2.71,9.25-1A28.84,28.84,0,0,1,790.71,334Z" fill="#ef6f26"/><path d="M759.73,348.55c-1,1.74-2,3.6-3,5.58,0,0-10.46,15.6-29.18,13.4,0,0-15.78-2.94-33.4,7.34,0,0,0,.19,0,.54-9.31-10.36-11.6-8.67-11.6-8.67l-.21-1.07c.18-18.67,4.78-25.9,8.09-28.7l1-.16L705,342.37a24.52,24.52,0,0,0,9.87,1.87l18.53-.36a21.32,21.32,0,0,1,8.13,1.46C748.44,348,758.83,348.52,759.73,348.55Z" fill="#f5c15c"/><path d="M484.63,344.52l-2.22,3.5c-3.12-.43-2.79,2.44-2.44,3.87l-2.6,4.12-1.21-2.29a.71.71,0,0,0-.63-.37.64.64,0,0,0-.39.12.68.68,0,0,0-.27.81l1.26,3.67-4.1,6.5-.28.33-1-4.35a.9.9,0,0,0-.88-.7.88.88,0,0,0-.43.12.9.9,0,0,0-.43,1l1.65,5.58-5.14,3.67-11.82-31.51c-.82-4.15-3.59-6.32-9.28,3.78-3.56,6.31-5.32,5.59-6.14,4.17a3.23,3.23,0,0,1,0-3.17L465,295.22c5.37-9.17,16.29-.91,16.29-.91,5.87,4.58.18,15.78.18,15.78-2.75,3.3.73,13.76.73,13.76C484.66,329.06,484.69,340.77,484.63,344.52Z" fill="#f5c15c"/><path d="M457.26,273.75c6.05-39.64-31.94-44-31.94-44l-10.27-13.22c-2-21.29-17.44-36-17.44-36C373,151.71,344.5,163.24,344.5,163.24c-5-4.06-15.34-8-15.34-8-14-4.4-20.81,4.37-24.1,12.41a44.6,44.6,0,0,0-2.88,11.08c0,3.34-1.7,6.75-2.9,8.73a8.1,8.1,0,0,1-2.15,2.33c-2.73,2.05-4.11,6.78-4.61,12.26a74.46,74.46,0,0,0,.85,18.34c1.84,10.64-11.56,17.25-11.56,17.25l-24,10.83c-41.66,23.3-28.26,46.24-28.26,46.24-5.69-35.78,56-51,56-51l-26.06,21.66C227.67,289.9,271,338.72,271,338.72l2.57-32.49c1.84-22.38,48.63-55.05,48.63-55.05,5.88,11.93,25.88,23.12,25.88,23.12a74.17,74.17,0,0,1,24.78,22.76c16.88,32.48-20.93,46.06-20.93,46.06,16.15-1.65,22.21-12.48,22.21-12.48,23.86-30.83-18.9-59.27-18.9-59.27-17.62-13-24.41-22.39-24.41-22.39-22.94-25.33-20.19-51-20.19-51,4.77,4.77,9.73,1.65,9.73,1.65-5.51-2.75-7-14-7-14-1.28-12.48,10.1,8.08,10.1,8.08,7.52,8.07,17.62-.92,17.62-.92-12.3-4.41-16.52-16.88-16.52-16.88-2.94-6.24.37-4.78.37-4.78,16.15,25.88,44.4,43.69,44.4,43.69a55.79,55.79,0,0,1-7.52,24.8V260c-.18,12.11,14.32,11.56,14.32,11.56,11.38-.55,12.85,6.61,12.85,6.61a82.07,82.07,0,0,0,7.7,11.74c6.79,5.51,6.43,8.08,6.43,8.08.36,13.21,5.69,20.55,5.69,20.55a92.83,92.83,0,0,1,11,27c4.4,13,.18,14.5.18,14.5-12.11,7.34-14.68,14.86-14.68,14.86C410.77,367.7,426,359,434,354.72a64.07,64.07,0,0,0,18.23-14.41C479.41,309.14,457.26,273.75,457.26,273.75ZM454.69,267c-6.79-5-23.86-29.37-23.86-29.37C451.2,240,454.69,267,454.69,267Zm-19.46,82.76s19.09-28.07,24.23-40.55c0,0,2.75-2.21,2,2.2C461.48,311.4,455.79,336.17,435.23,349.75Z" fill="#6f3400"/><path d="M427.53,361.55c-1.22,4.35-3.66,5.63-4.92,6a4.51,4.51,0,0,0-2.44,1.81,4.7,4.7,0,0,0-.74,2.14,4.55,4.55,0,0,0,2.07,4.17l.5.34-.6.19S405.87,382,402.75,387a32.78,32.78,0,0,1,8.36,11,22.47,22.47,0,0,1,2.1,9.95l-6.06,5.51a47.79,47.79,0,0,0-.81-12.45c-1.4-6.37-4.82-12.53-12.95-11.22,0,0-9.54,3.85-6.61,5.69a105.4,105.4,0,0,1,12.12,11c4.63,5,8.62,10.76,7.7,15.09,0,0-2.75,3.12-7.7-4.59a19.49,19.49,0,0,0-5.44-5.88,32,32,0,0,0-5.39-3.3s-9-2.57-7-11.93c0,0-40.46,17.16-52.16,21.52,0,0-3-7.13-5.55-12.07-.51-1-1-1.9-1.45-2.64l.19,0c2.92-.43,38.11-5.84,60.26-18l-9.54-6.24,5.32-6.79L388.8,382l6.61-4s-.55-14.31,5.5-15.41l5.33,2s-2.94,7.53-2.39,11.93C403.85,376.52,418.16,364.43,427.53,361.55Z" fill="#ef6f26"/><path d="M427.53,361.55c-1.22,4.35-3.66,5.63-4.92,6a4.51,4.51,0,0,0-2.44,1.81,4.7,4.7,0,0,0-.74,2.14,4.55,4.55,0,0,0,2.07,4.17l.5.34-.6.19S405.87,382,402.75,387a32.78,32.78,0,0,1,8.36,11,22.47,22.47,0,0,1,2.1,9.95l-6.06,5.51a47.79,47.79,0,0,0-.81-12.45c-1.4-6.37-4.82-12.53-12.95-11.22,0,0-9.54,3.85-6.61,5.69a105.4,105.4,0,0,1,12.12,11c4.63,5,8.62,10.76,7.7,15.09,0,0-2.75,3.12-7.7-4.59a19.49,19.49,0,0,0-5.44-5.88,32,32,0,0,0-5.39-3.3s-9-2.57-7-11.93c0,0-40.46,17.16-52.16,21.52,0,0-3-7.13-5.55-12.07-.51-1-1-1.9-1.45-2.64l.19,0c2.92-.43,38.11-5.84,60.26-18l-9.54-6.24,5.32-6.79L388.8,382l6.61-4s-.55-14.31,5.5-15.41l5.33,2s-2.94,7.53-2.39,11.93C403.85,376.52,418.16,364.43,427.53,361.55Z" fill="#fff" opacity="0.4"/><line x1="558.58" y1="342.06" x2="533.19" y2="498.36" fill="none" stroke="#21465d" stroke-miterlimit="10"/><line x1="461.39" y1="328.28" x2="455.59" y2="492.56" fill="none" stroke="#21465d" stroke-miterlimit="10"/><path d="M168.84,226.16,238,253.49l33.58,222.06,147.82,10.2a3.77,3.77,0,0,1,3.5,4h0a3.78,3.78,0,0,1-4,3.49L265.38,482.16l-33.95-223.9-65.51-25.87Z" fill="#21465d"/><polygon points="327.05 448.02 263 428.39 293.83 397 348.05 410.5 327.05 448.02" fill="#7b5ac4"/><polygon points="240.79 297.35 623.07 351.13 577.74 501.61 268.87 478.86 240.79 297.35" fill="none" stroke="#21465d" stroke-miterlimit="10"/><line x1="608.98" y1="397.55" x2="251.44" y2="357.73" fill="none" stroke="#21465d" stroke-miterlimit="10"/><line x1="283.19" y1="303.9" x2="308.27" y2="481.9" fill="none" stroke="#21465d" stroke-miterlimit="10"/><line x1="343.75" y1="311.97" x2="351.27" y2="483.44" fill="none" stroke="#21465d" stroke-miterlimit="10"/><line x1="405.91" y1="321.03" x2="407.06" y2="487.48" fill="none" stroke="#21465d" stroke-miterlimit="10"/><line x1="259.77" y1="417.49" x2="594.84" y2="446.5" fill="none" stroke="#21465d" stroke-miterlimit="10"/><circle cx="161.42" cy="228.07" r="10.37" fill="#21465d"/><path d="M790.71,334c-2.57,27.16-11.93,43.67-11.93,43.67a3.45,3.45,0,0,1-1.9,1c-6.11,1.76-24.39,1.45-31.25,1.26a18.5,18.5,0,0,0-5.91.79c-10,3-19.39,8.95-25.17,13.11l-.18,0c24.22-22.2,39.64-16.15,39.64-16.15C767.4,380.74,772.73,360,772.73,360a176.47,176.47,0,0,1,10.9-32.18A28.84,28.84,0,0,1,790.71,334Z" opacity="0.2"/><circle cx="614.99" cy="349.66" r="44.78" fill="#21465d"/><path d="M599.16,321.56q5-7,15.62-7t15.66,7q5,7,5,19.24t-5,19.38q-5,7-15.69,7t-15.66-7q-4.93-7-4.93-19.38T599.16,321.56ZM620.32,331q-1.35-3.37-5.54-3.38T609.24,331c-.9,2.24-1.35,5.5-1.35,9.76s.44,7.66,1.32,9.9,2.73,3.38,5.57,3.38,4.7-1.13,5.57-3.38,1.32-5.55,1.32-9.9S621.22,333.28,620.32,331Z" fill="#fff"/><path d="M593.25,370.2a1.19,1.19,0,0,1-.37-.89,1.17,1.17,0,0,1,.37-.89,1.39,1.39,0,0,1,1.87,0,1.17,1.17,0,0,1,.37.89,1.19,1.19,0,0,1-.37.89,1.42,1.42,0,0,1-1.87,0Zm2,1.35V380h-2.12v-8.42Z" fill="#fff"/><path d="M599.8,373.3v4.07a.8.8,0,0,0,.21.62,1.05,1.05,0,0,0,.69.19h1V380h-1.34c-1.79,0-2.69-.87-2.69-2.61V373.3h-1v-1.75h1v-2.08h2.14v2.08h1.89v1.75Z" fill="#fff"/><path d="M611,376.4h-6.15a2.08,2.08,0,0,0,.64,1.43,2,2,0,0,0,1.38.51,1.75,1.75,0,0,0,1.69-1h2.29a3.79,3.79,0,0,1-1.4,2,4,4,0,0,1-2.53.79,4.38,4.38,0,0,1-2.18-.54,3.77,3.77,0,0,1-1.51-1.53,5.1,5.1,0,0,1,0-4.57,3.68,3.68,0,0,1,1.48-1.52,4.54,4.54,0,0,1,2.21-.53,4.49,4.49,0,0,1,2.15.51,3.71,3.71,0,0,1,1.47,1.47,4.42,4.42,0,0,1,.52,2.18A5.08,5.08,0,0,1,611,376.4ZM608.84,375a1.7,1.7,0,0,0-.59-1.31,2.11,2.11,0,0,0-1.41-.5,1.92,1.92,0,0,0-1.33.48,2.12,2.12,0,0,0-.66,1.33Z" fill="#fff"/><path d="M625.54,372.38a3.61,3.61,0,0,1,1,2.65V380h-2.13v-4.65a2.07,2.07,0,0,0-.5-1.51,1.79,1.79,0,0,0-1.37-.52,1.82,1.82,0,0,0-1.37.52,2.07,2.07,0,0,0-.51,1.51V380h-2.13v-4.65a2.07,2.07,0,0,0-.5-1.51,1.79,1.79,0,0,0-1.36-.52,1.84,1.84,0,0,0-1.39.52,2.07,2.07,0,0,0-.51,1.51V380h-2.13v-8.42h2.13v1a2.79,2.79,0,0,1,1-.83,3.21,3.21,0,0,1,1.42-.31,3.67,3.67,0,0,1,1.77.42,3.05,3.05,0,0,1,1.2,1.19,3.11,3.11,0,0,1,1.19-1.17,3.64,3.64,0,0,1,4.19.51Z" fill="#fff"/><path d="M629.88,379.73a3.15,3.15,0,0,1-1.3-1,2.52,2.52,0,0,1-.53-1.41h2.14a1.17,1.17,0,0,0,.48.81,1.69,1.69,0,0,0,1,.31,1.63,1.63,0,0,0,.95-.24.73.73,0,0,0,.34-.62.68.68,0,0,0-.41-.62,8.84,8.84,0,0,0-1.33-.44,12.75,12.75,0,0,1-1.54-.47,2.75,2.75,0,0,1-1-.75,2,2,0,0,1-.43-1.35,2.18,2.18,0,0,1,.4-1.28,2.83,2.83,0,0,1,1.16-.91,4.37,4.37,0,0,1,1.77-.33,3.63,3.63,0,0,1,2.4.75,2.81,2.81,0,0,1,1,2h-2a1.1,1.1,0,0,0-.42-.8,1.54,1.54,0,0,0-1-.3,1.48,1.48,0,0,0-.89.22.67.67,0,0,0-.31.59.69.69,0,0,0,.42.64,6.13,6.13,0,0,0,1.32.45,11.5,11.5,0,0,1,1.51.47,2.79,2.79,0,0,1,1,.76,2,2,0,0,1,.45,1.34,2.3,2.3,0,0,1-.4,1.31,2.73,2.73,0,0,1-1.16.9,4.3,4.3,0,0,1-1.75.33A4.37,4.37,0,0,1,629.88,379.73Z" fill="#fff"/><circle cx="702.74" cy="90.84" r="20.15" fill="#ef6f26"/><path d="M165.19,540.8s-9.4-20.51,1.33-40.71,13.86-25,7-29.13-10,16.18-10,16.18-5.72-14-1-28.58,7.76-38.45,1.26-41-1.25,29.72-6.89,40.72a94.59,94.59,0,0,1-5.53-24c-.77-11.74.44-30.49-4.7-35.31s-8.42-1.43-3.38,24.44a272.15,272.15,0,0,1,5,47s-11.17-34-18.58-35-7.48,10-1.06,19.57,18.69,26.62,20.71,35.44c0,0-12.24-25.6-23.25-17.75s9.58,23.29,18.8,28.87,15.57,40.6,15.57,40.6Z" fill="#ef6f26"/><path d="M165.19,540.8s-9.4-20.51,1.33-40.71,13.86-25,7-29.13-10,16.18-10,16.18-5.72-14-1-28.58,7.76-38.45,1.26-41-1.25,29.72-6.89,40.72a94.59,94.59,0,0,1-5.53-24c-.77-11.74.44-30.49-4.7-35.31s-8.42-1.43-3.38,24.44a272.15,272.15,0,0,1,5,47s-11.17-34-18.58-35-7.48,10-1.06,19.57,18.69,26.62,20.71,35.44c0,0-12.24-25.6-23.25-17.75s9.58,23.29,18.8,28.87,15.57,40.6,15.57,40.6Z" opacity="0.2" style="isolation:isolate"/><path d="M157.8,549.22s9.17-20.65-1.81-40.7-14.16-24.77-7.36-29,10.17,16,10.17,16,5.61-14.07.68-28.59-8.22-38.32-1.75-41,1.6,29.7,7.38,40.6a94.5,94.5,0,0,0,5.23-24.06c.64-11.77-.8-30.5,4.29-35.39s8.4-1.6,3.67,24.4a271,271,0,0,0-4.46,47.06s10.75-34.17,18.22-35.27,7.59,9.9,1.3,19.55S174.93,489.8,173,498.58c0,0,11.93-25.72,23-18.09s-9.3,23.45-18.4,29.17-15.12,40.8-15.12,40.8Z" fill="#ef6f26"/><polygon points="199.98 534.5 124.38 534.5 130.49 588.6 193.86 588.6 199.98 534.5" fill="#21465d"/></svg>