<svg id="b69d7b17-06cc-4f09-8815-a54864b33672" data-name="ff74957b-9f2b-4f65-b3d5-5f3220fbfc2f" xmlns="http://www.w3.org/2000/svg" width="865.76" height="682.89" viewBox="0 0 865.76 682.89"><path d="M238.32,206.4V191.24a2.74,2.74,0,0,0-2.65-2.66H231.6a2.41,2.41,0,0,1-2.5-1.87,55.18,55.18,0,0,0-7-16.41,2.55,2.55,0,0,1,.31-3.13l3-2.81a2.56,2.56,0,0,0,.13-3.62,1.59,1.59,0,0,0-.13-.13L214.25,150a2.72,2.72,0,0,0-3.85-.05l-.05.05-3,2.81a3.09,3.09,0,0,1-3.29.31,57.18,57.18,0,0,0-17.19-6.87,2.48,2.48,0,0,1-2-2.35v-4.06a2.74,2.74,0,0,0-2.66-2.66H166.43a2.64,2.64,0,0,0-2.66,2.62v3.79a2.14,2.14,0,0,1-1.94,2.34h-.06a55.27,55.27,0,0,0-17.19,6.87,2.8,2.8,0,0,1-3.28-.31l-3-2.81a2.73,2.73,0,0,0-3.86-.05l-.05.05-11.1,10.62a2.56,2.56,0,0,0-.13,3.62,1.59,1.59,0,0,0,.13.13l3,2.82a2.35,2.35,0,0,1,.31,3.12,48.06,48.06,0,0,0-7,16.41,2.5,2.5,0,0,1-2.5,1.88h-3.91a2.63,2.63,0,0,0-2.65,2.61v15.36a2.74,2.74,0,0,0,2.65,2.66H117a2.41,2.41,0,0,1,2.5,1.88,55.18,55.18,0,0,0,7,16.41,2.55,2.55,0,0,1-.31,3.12l-3,2.82a2.56,2.56,0,0,0-.13,3.62l.13.13,11.1,10.62a2.73,2.73,0,0,0,3.86,0l0,0,3-2.81a3.08,3.08,0,0,1,3.28-.31,62,62,0,0,0,17.19,6.88,2.47,2.47,0,0,1,2,2.34v3.75a2.74,2.74,0,0,0,2.66,2.66h15.78a2.63,2.63,0,0,0,2.66-2.6v-4.12a2.14,2.14,0,0,1,1.94-2.34h.06A55.27,55.27,0,0,0,204,244.09a2.84,2.84,0,0,1,3.29.31l3,2.81a2.72,2.72,0,0,0,3.85,0l.05,0,11.1-10.63a2.56,2.56,0,0,0,.13-3.62,1.59,1.59,0,0,0-.13-.13l-3-2.81a2.37,2.37,0,0,1-.31-3.13,48,48,0,0,0,7-16.41,2.49,2.49,0,0,1,2.5-1.87h3.91A2.16,2.16,0,0,0,238.32,206.4Zm-64.23,35.32c-24.7,0-44.55-19.07-44.55-42.82,0-23.6,19.85-42.83,44.55-42.83s44.54,19.07,44.54,42.83S198.78,241.72,174.09,241.72Z" fill="none" stroke="#dee3fc" stroke-miterlimit="10" stroke-width="0.79"/><path d="M310.84,257.82V247.5a1.76,1.76,0,0,0-1.81-1.71h-2.72a1.9,1.9,0,0,1-1.72-1.26,36.41,36.41,0,0,0-4.85-11.25,1.5,1.5,0,0,1,.32-2l2-1.88a1.63,1.63,0,0,0,.2-2.3l-.2-.2-7.5-7.34a1.8,1.8,0,0,0-2.54-.12l-.12.12-2,1.87a1.47,1.47,0,0,1-2,.16,43.18,43.18,0,0,0-11.73-4.69,1.7,1.7,0,0,1-1.4-1.72v-2.81a1.77,1.77,0,0,0-1.82-1.72h-11a1.77,1.77,0,0,0-1.87,1.67V215a2,2,0,0,1-1.41,1.71,35,35,0,0,0-11.72,4.69,1.44,1.44,0,0,1-2-.31l-2-1.87a1.78,1.78,0,0,0-2.51-.14,1.85,1.85,0,0,0-.14.14l-7.5,7.34a1.61,1.61,0,0,0-.24,2.26,1.36,1.36,0,0,0,.24.24l2,1.88a1.7,1.7,0,0,1,.31,2,40.1,40.1,0,0,0-4.84,11.25,1.69,1.69,0,0,1-1.72,1.25h-2.66A1.77,1.77,0,0,0,224,247.1v10.38a1.77,1.77,0,0,0,1.82,1.72h2.72a1.88,1.88,0,0,1,1.72,1.25A36,36,0,0,0,235,271.73a1.48,1.48,0,0,1-.31,2l-2,1.88a1.61,1.61,0,0,0-.24,2.26,1.36,1.36,0,0,0,.24.24l7.5,7.34a1.79,1.79,0,0,0,2.53.12l.12-.12,2-1.87a1.68,1.68,0,0,1,2-.31,42.53,42.53,0,0,0,11.8,4.73,1.71,1.71,0,0,1,1.41,1.72v2.66a1.77,1.77,0,0,0,1.82,1.72h10.84a1.77,1.77,0,0,0,1.87-1.67V289.7A2,2,0,0,1,276,288a33,33,0,0,0,11.56-4.68,1.46,1.46,0,0,1,2,.31l2,1.87a1.79,1.79,0,0,0,2.53.12l.12-.12,7.51-7.34a1.63,1.63,0,0,0,.2-2.3l-.2-.2-2-1.88a1.7,1.7,0,0,1-.31-2,40.26,40.26,0,0,0,4.85-11.25,1.67,1.67,0,0,1,1.72-1.25h2.65C310.06,259.7,310.84,258.91,310.84,257.82Zm-43.76,22.51c-15.94,0-28.6-12.35-28.6-27.51s12.81-27.51,28.6-27.51,28.6,12.35,28.6,27.51-12.81,27.51-28.6,27.51Z" fill="#dee3fc"/><ellipse cx="108.13" cy="527.11" rx="5.16" ry="5" fill="#9fe0b8"/><ellipse cx="807.22" cy="389.89" rx="5.16" ry="5" fill="#9fe0b8"/><ellipse cx="796.75" cy="210.62" rx="5.16" ry="5" fill="#9fe0b8"/><ellipse cx="609.2" cy="149.67" rx="3.28" ry="3.13" fill="#9fe0b8"/><path d="M128.45,107.78a3.27,3.27,0,0,1-3.28,3.13,3.17,3.17,0,0,1-3.28-3.06v-.07a3.27,3.27,0,0,1,3.28-3.13,3,3,0,0,1,3.27,2.7A3.12,3.12,0,0,1,128.45,107.78Z" fill="#9fe0b8"/><path d="M201.12,301.74a3.27,3.27,0,0,1-3.28,3.12,3.17,3.17,0,0,1-3.28-3.06v-.06a3.27,3.27,0,0,1,3.28-3.13,3.17,3.17,0,0,1,3.28,3.06Z" fill="#a4afff"/><path d="M80.94,532.27a3.27,3.27,0,0,1-3.29,3.12,3.17,3.17,0,0,1-3.28-3.06v-.06a3.29,3.29,0,0,1,3.28-3.13A3.07,3.07,0,0,1,80.93,532,2.44,2.44,0,0,1,80.94,532.27Z" fill="#9fe0b8"/><ellipse cx="730.8" cy="530.08" rx="5.16" ry="5" fill="#9fe0b8"/><ellipse cx="841.61" cy="530.08" rx="5.16" ry="5" fill="#9fe0b8"/><ellipse cx="218.63" cy="94.03" rx="5.16" ry="5" fill="#9fe0b8"/><path d="M578.72,322.52a6.88,6.88,0,1,1-7-6.72h.17a6.79,6.79,0,0,1,6.87,6.71Z" fill="#9fe0b8"/><path d="M63.59,239.38a6.81,6.81,0,0,1-6.88,6.72,6.72,6.72,0,0,1-6.88-6.54v-.18a6.81,6.81,0,0,1,6.88-6.72,6.72,6.72,0,0,1,6.88,6.54Z" fill="#9fe0b8"/><path d="M43.9,139H35.14A1.07,1.07,0,0,1,34.05,138V129.5a1.07,1.07,0,0,1,1.05-1.09h8.8a1.07,1.07,0,0,1,1.1,1v8.49A1.07,1.07,0,0,1,43.92,139Z" fill="#fff"/><path d="M58.43,139H49.68a1.07,1.07,0,0,1-1.1-1V129.5a1.07,1.07,0,0,1,1.05-1.09h8.8a1.05,1.05,0,0,1,1.09,1v8.5A1.05,1.05,0,0,1,58.46,139Z" fill="#fff"/><path d="M73,139H64.21A1.07,1.07,0,0,1,63.12,138V129.5a1.07,1.07,0,0,1,1.05-1.09H73a1.07,1.07,0,0,1,1.09,1.05v8.48A1.07,1.07,0,0,1,73,139Z" fill="#fff"/><path d="M781.43,505.07h-8.75a1.07,1.07,0,0,1-1.09-1.05v-8.48a1.07,1.07,0,0,1,1-1.1h8.8a1.07,1.07,0,0,1,1.1,1V504a1.07,1.07,0,0,1-1.07,1.07Z" fill="#dee3fc"/><path d="M795.81,505.07h-8.75A1.07,1.07,0,0,1,786,504v-8.44a1.07,1.07,0,0,1,1-1.1h8.8a1.07,1.07,0,0,1,1.1,1V504a1.07,1.07,0,0,1-1.07,1.07Z" fill="#dee3fc"/><path d="M810.35,505.07H801.6a1.07,1.07,0,0,1-1.1-1v-8.49a1.07,1.07,0,0,1,1-1.1h8.81a1.07,1.07,0,0,1,1.09,1.05V504a1.07,1.07,0,0,1-1.07,1.07Z" fill="#dee3fc"/><path d="M111.88,499.45h-8.75A1.07,1.07,0,0,1,102,498.4v-8.49a1.07,1.07,0,0,1,1-1.09h8.79a1.07,1.07,0,0,1,1.1,1v8.49a1.07,1.07,0,0,1-1,1.1Z" fill="#dee3fc"/><path d="M126.42,499.45h-8.75a1.07,1.07,0,0,1-1.1-1v-8.5a1.07,1.07,0,0,1,1.05-1.09h8.8a1.07,1.07,0,0,1,1.09,1.05v8.48a1.07,1.07,0,0,1-1,1.1Z" fill="#dee3fc"/><path d="M141,499.45h-8.8a1.07,1.07,0,0,1-1.09-1.05v-8.49a1.07,1.07,0,0,1,1-1.09H141a1.07,1.07,0,0,1,1.1,1v8.49C141.89,499,141.58,499.45,141,499.45Z" fill="#dee3fc"/><path d="M180.34,476.63H70.47a5.64,5.64,0,0,1-5.79-5.49V417.71a5.73,5.73,0,0,1,5.79-5.63H180.34a5.64,5.64,0,0,1,5.78,5.5V471a5.63,5.63,0,0,1-5.65,5.63Z" fill="#bad7e7"/><line x1="69.68" y1="420.52" x2="180.96" y2="420.52" fill="none" stroke="#fff" stroke-linecap="round" stroke-miterlimit="10" stroke-width="0.9"/><ellipse cx="177.99" cy="415.99" rx="1.41" ry="1.25" fill="#fff"/><ellipse cx="171.12" cy="415.99" rx="1.41" ry="1.25" fill="#fff"/><ellipse cx="163.93" cy="415.99" rx="1.41" ry="1.25" fill="#fff"/><g opacity="0.2"><path d="M90.47,429.27H71.4a1.77,1.77,0,0,1-1.87-1.67v-.05h0a1.69,1.69,0,0,1,1.65-1.73H90.31a1.77,1.77,0,0,1,1.88,1.66v.06h0a1.64,1.64,0,0,1-1.56,1.72Z" fill="#fff"/><path d="M90.47,437.55H71.4a1.77,1.77,0,0,1-1.87-1.67v0h0a1.68,1.68,0,0,1,1.63-1.73H90.31a1.77,1.77,0,0,1,1.88,1.66v.06h0C92.35,436.62,91.41,437.55,90.47,437.55Z" fill="#fff"/><path d="M90.47,445.84H71.4a1.77,1.77,0,0,1-1.87-1.67v-.05h0a1.68,1.68,0,0,1,1.63-1.73H90.31a1.77,1.77,0,0,1,1.88,1.66v.06h0C92.35,444.9,91.41,445.84,90.47,445.84Z" fill="#fff"/><path d="M90.47,454H71.4a1.78,1.78,0,0,1-1.87-1.69v0h0a1.68,1.68,0,0,1,1.63-1.73H90.31a1.77,1.77,0,0,1,1.88,1.66v.06h0A1.56,1.56,0,0,1,90.81,454Z" fill="#fff"/><path d="M90.47,462.25H71.4a1.77,1.77,0,0,1-1.87-1.67v-.05h0a1.69,1.69,0,0,1,1.65-1.73H90.31a1.77,1.77,0,0,1,1.88,1.66v.06h0a1.56,1.56,0,0,1-1.38,1.72Z" fill="#fff"/><path d="M90.47,470.69H71.4A1.77,1.77,0,0,1,69.53,469v0h0a1.69,1.69,0,0,1,1.65-1.73H90.31a1.77,1.77,0,0,1,1.88,1.66V469h0a1.64,1.64,0,0,1-1.59,1.69Z" fill="#fff"/></g><g opacity="0.4"><path d="M179.09,429.27H97.82a1.77,1.77,0,0,1-1.88-1.66v-.06h0a1.69,1.69,0,0,1,1.65-1.73h81.5A1.77,1.77,0,0,1,181,427.5v.05h0a1.77,1.77,0,0,1-1.82,1.72Z" fill="#fff"/><path d="M179.09,437.55H97.82a1.77,1.77,0,0,1-1.88-1.66v-.05h0a1.68,1.68,0,0,1,1.63-1.73h81.52a1.77,1.77,0,0,1,1.87,1.67v0h0A1.87,1.87,0,0,1,179.09,437.55Z" fill="#fff"/><path d="M179.09,445.84H97.82a1.77,1.77,0,0,1-1.88-1.66v-.06h0a1.68,1.68,0,0,1,1.63-1.73h81.52a1.77,1.77,0,0,1,1.87,1.67v.05h0A1.87,1.87,0,0,1,179.09,445.84Z" fill="#fff"/><path d="M179.09,454H97.82a1.78,1.78,0,0,1-1.88-1.68v0h0a1.68,1.68,0,0,1,1.63-1.73h81.52a1.77,1.77,0,0,1,1.87,1.67v0h0a1.69,1.69,0,0,1-1.65,1.73Z" fill="#fff"/><path d="M179.09,462.25H97.82a1.77,1.77,0,0,1-1.88-1.66v-.06h0a1.69,1.69,0,0,1,1.65-1.73h81.5a1.77,1.77,0,0,1,1.87,1.67v0h0a1.69,1.69,0,0,1-1.65,1.73Z" fill="#fff"/><path d="M179.09,470.69H97.82A1.77,1.77,0,0,1,95.94,469v0h0a1.69,1.69,0,0,1,1.65-1.73h81.5a1.76,1.76,0,0,1,1.9,1.62.38.38,0,0,1,0,.1h0a1.76,1.76,0,0,1-1.84,1.69Z" fill="#fff"/></g><ellipse cx="702.04" cy="127" rx="50.17" ry="48.29" fill="none" stroke="#dee3fc" stroke-miterlimit="10" stroke-width="0.79"/><ellipse cx="702.04" cy="127.16" rx="43.61" ry="42.04" fill="#9fe0b8" stroke="#dee3fc" stroke-miterlimit="10"/><path d="M706,127.16a3.91,3.91,0,1,1-4.07-3.75h.16a3.65,3.65,0,0,1,3.9,3.38C706,126.91,706,127,706,127.16Z" fill="#fff"/><path d="M701.57,126.38h0a1.25,1.25,0,0,1-1.72-.47h0L687,103.72a1.3,1.3,0,0,1,.47-1.72h0a1.25,1.25,0,0,1,1.71.45v0L702,124.66C702.35,125.44,702.2,126.07,701.57,126.38Z" fill="#fff"/><path d="M702.66,127.63h0a1.23,1.23,0,0,1,1.72,0l11.1,10.63a1.23,1.23,0,0,1,0,1.72h0a1.24,1.24,0,0,1-1.72,0l-11.1-10.63A1.24,1.24,0,0,1,702.66,127.63Z" fill="#fff"/><line x1="702.2" y1="93.56" x2="702.2" y2="88.71" fill="none" stroke="#fff" stroke-linecap="round" stroke-miterlimit="10" stroke-width="2"/><line x1="736.89" y1="127.47" x2="741.74" y2="127.47" fill="none" stroke="#fff" stroke-linecap="round" stroke-miterlimit="10" stroke-width="2"/><line x1="701.73" y1="160.61" x2="701.73" y2="165.45" fill="none" stroke="#fff" stroke-linecap="round" stroke-miterlimit="10" stroke-width="2"/><line x1="667.19" y1="126.85" x2="662.18" y2="126.85" fill="none" stroke="#fff" stroke-linecap="round" stroke-miterlimit="10" stroke-width="2"/><g opacity="0.5"><line x1="684.85" y1="97.93" x2="682.35" y2="93.71" fill="none" stroke="#dee3fc" stroke-linecap="round" stroke-miterlimit="10"/><line x1="732.2" y1="110.44" x2="736.74" y2="108.09" fill="none" stroke="#dee3fc" stroke-linecap="round" stroke-miterlimit="10"/><line x1="719.23" y1="156.23" x2="721.89" y2="160.45" fill="none" stroke="#dee3fc" stroke-linecap="round" stroke-miterlimit="10"/><line x1="671.72" y1="143.73" x2="667.34" y2="146.23" fill="none" stroke="#dee3fc" stroke-linecap="round" stroke-miterlimit="10"/></g><g opacity="0.5"><line x1="672.03" y1="110.12" x2="667.5" y2="107.78" fill="none" stroke="#dee3fc" stroke-linecap="round" stroke-miterlimit="10"/><line x1="719.54" y1="98.09" x2="722.04" y2="94.03" fill="none" stroke="#dee3fc" stroke-linecap="round" stroke-miterlimit="10"/><line x1="732.05" y1="144.2" x2="736.42" y2="146.54" fill="none" stroke="#dee3fc" stroke-linecap="round" stroke-miterlimit="10"/><line x1="684.38" y1="156.07" x2="681.88" y2="160.29" fill="none" stroke="#dee3fc" stroke-linecap="round" stroke-miterlimit="10"/></g><path d="M106.88,369.72H52a14.39,14.39,0,0,1-14.67-14.09V302.5A14.48,14.48,0,0,1,52,288.3h55a14.39,14.39,0,0,1,14.69,14.07v53.15A14.62,14.62,0,0,1,106.88,369.72Z" fill="#bad7e7"/><path d="M103.29,362.69h-61a11.69,11.69,0,0,1-11.88-11.41V292.67a11.58,11.58,0,0,1,11.74-11.41h61.14a11.68,11.68,0,0,1,11.87,11.41v58.61A11.68,11.68,0,0,1,103.29,362.69Z" fill="#9fe0b8" stroke="#dee3fc" stroke-miterlimit="10"/><path d="M87.66,312.68h-.47V308a14.39,14.39,0,0,0-28.76,0v4.69h-.31a4,4,0,0,0-3.91,3.75v17.5a3.94,3.94,0,0,0,3.91,3.75H87.34a3.94,3.94,0,0,0,3.91-3.75v-17.5a3.48,3.48,0,0,0-3.19-3.75ZM61.87,308a10.61,10.61,0,0,1,10.78-10.32c5.79,0,10.79,4.69,10.79,10.32v4.69H61.87Z" fill="#dee3fc"/><path d="M77.5,321.74a4.65,4.65,0,0,0-4.79-4.51A5.19,5.19,0,0,0,68,320.81a4.56,4.56,0,0,0,2,4.84,1.11,1.11,0,0,1,.47.78l-.79,3a2.78,2.78,0,0,0,2.06,3.36,2.47,2.47,0,0,0,.6.08,2.72,2.72,0,0,0,2.77-2.67,3.09,3.09,0,0,0-.11-.8l-.78-2.81a.58.58,0,0,1,.36-.75l.11,0C76.72,324.87,77.5,323.62,77.5,321.74Z" fill="#9fe0b8" stroke="#dee3fc" stroke-miterlimit="10"/><path d="M90,344.25H56.09a1.73,1.73,0,0,1-1.72-1.72h0a1.85,1.85,0,0,1,1.72-1.72H90a1.73,1.73,0,0,1,1.72,1.72h0A2,2,0,0,1,90,344.25Z" fill="#dee3fc"/><path d="M90,349.88H56.09a1.73,1.73,0,0,1-1.72-1.72h0a1.85,1.85,0,0,1,1.72-1.72H90a1.73,1.73,0,0,1,1.72,1.72h0A2,2,0,0,1,90,349.88Z" fill="#dee3fc"/><path d="M772.53,465.22H740.17a8.55,8.55,0,0,1-8.75-8.29v-31.1a8.45,8.45,0,0,1,8.61-8.28h32.5a8.55,8.55,0,0,1,8.75,8.28v31.1A8.66,8.66,0,0,1,772.53,465.22Z" fill="#bad7e7"/><path d="M770.34,461.15H734.55a6.7,6.7,0,0,1-6.88-6.52V420.05a6.81,6.81,0,0,1,6.88-6.72h35.79a6.71,6.71,0,0,1,6.87,6.53v34.73A6.76,6.76,0,0,1,770.34,461.15Z" fill="#9fe0b8" stroke="#dee3fc" stroke-miterlimit="10"/><path d="M742.36,451.46h-.47a1.5,1.5,0,0,1-1.09-1.71l7.5-25.64a1.61,1.61,0,0,1,1.88-1.09,1.52,1.52,0,0,1,1.09,1.72l-7.5,25.63A1.49,1.49,0,0,1,742.36,451.46Z" fill="#fff"/><path d="M754.87,451.46h-.47a1.52,1.52,0,0,1-1.1-1.71l7.5-25.64a1.61,1.61,0,0,1,1.88-1.09,1.52,1.52,0,0,1,1.09,1.72l-7.5,25.63A1.48,1.48,0,0,1,754.87,451.46Z" fill="#fff"/><path d="M765.65,432.87H738.92a1.42,1.42,0,1,1-.34-2.82h27.07a1.42,1.42,0,1,1,.34,2.82Z" fill="#fff"/><path d="M765.65,444.74H738.92a1.41,1.41,0,0,1-.24-2.81h27a1.44,1.44,0,0,1,1.56,1.31v.1A1.65,1.65,0,0,1,765.65,444.74Z" fill="#fff"/><path d="M236.34,275.18s12.34,9.38,14.41,17.45c0,0-11.44-3.5-19.94-4.37a8.23,8.23,0,0,0-2.22-1.62,2.39,2.39,0,0,1-1.21-2.11v-5" fill="#36465b"/><path d="M542.66,573.77H339.29c-17.84,0-32-13.87-32-30.79V107.13c0-17.08,14.33-30.8,32-30.8H542.66c17.83,0,32,13.88,32,30.8V542.82C574.82,560.05,560.19,573.77,542.66,573.77Z" fill="#bad7e7"/><path d="M541.59,566.91H340.2c-15.55,0-28.05-12-28.05-27V107.74c0-14.94,12.66-27,28.05-27H541.59c15.55,0,28,12,28,27v432C569.79,554.56,557.14,566.91,541.59,566.91Z" fill="#fff"/><path d="M558.51,107V538.4c0,10.07-8.54,18.45-19.06,18.45h-197c-10.52,0-19.05-8.23-19.05-18.45V107c0-10.07,8.53-18.45,19.05-18.45h32.78a5.27,5.27,0,0,1,4.42,2.59l3.5,6.71a9.7,9.7,0,0,0,8.54,5h98.79a9.41,9.41,0,0,0,8.54-5l3.5-6.71A4.76,4.76,0,0,1,507,88.53h32.78A18.69,18.69,0,0,1,558.51,107Z" fill="#bad7e7"/><path d="M527.26,541.61H350.11c-6.86,0-12.65-5.49-12.65-12.05V469.34c0-6.7,5.64-12,12.65-12H527.26c6.86,0,12.65,5.49,12.65,12v60.22A12.49,12.49,0,0,1,527.26,541.61Z" fill="none" stroke="#fff" stroke-linecap="round" stroke-linejoin="round" stroke-dasharray="2.84"/><path d="M589.36,610.47,570.6,606a52.79,52.79,0,0,1-8.74-2.93c-11-4.81-42.69-16.71-49,3,0,0-9.06,26.15,50.87,30.47a59.78,59.78,0,0,0,26.44-2.13Z" fill="#9fe0b8"/><path d="M627.21,551.34s-61.4-24.62-88.9-33.58c0,0-33.58-16.79-44.77,9.52,0,0-16.47,20.31,35.32,51.67l64,33.47,63.43-35.82,14.62-10.39Z" fill="#3aa0ee"/><path d="M627.21,551.34s-61.4-24.62-88.9-33.58c0,0-33.58-16.79-44.77,9.52,0,0-16.47,20.31,35.32,51.67l64,33.47,63.43-35.82,14.62-10.39Z" opacity="0.2" style="isolation:isolate"/><path d="M694,616.9c10,8.12,25.9,10.55,25.9,10.55,47.33,4.48,46.06-42.53,46.06-42.53,2.51-41-14.37-49.79-14.87-50,5.47,5.63,16.87,21.77-3.68,43.85,0,0-8.62,12-52.47,26.6Z" fill="#3aa0ee"/><path d="M694,616.9c10,8.12,25.9,10.55,25.9,10.55,47.33,4.48,46.06-42.53,46.06-42.53,2.51-41-14.37-49.79-14.87-50,5.47,5.63,16.87,21.77-3.68,43.85,0,0-8.62,12-52.47,26.6Z" opacity="0.2" style="isolation:isolate"/><polygon points="605.78 533.75 589.08 547.33 584.3 532.3 577.02 531.75 579.67 522.45 583.53 510.39 598.19 510.39 608.21 525.47 605.78 533.75" fill="#f8b69b"/><path d="M482.44,95.08H403a3.13,3.13,0,0,1-3.2-3v-.16h0a3.33,3.33,0,0,1,3.2-3.2h79.43a3.13,3.13,0,0,1,3.2,3v.16h0a3,3,0,0,1-2.79,3.2A2.67,2.67,0,0,1,482.44,95.08Z" fill="#bad7e7"/><path d="M518.11,335.08h-2.84a.5.5,0,0,1,0-1h3.1a9.44,9.44,0,0,0,2.64-.46.5.5,0,0,1,.63.31.49.49,0,0,1-.3.62h0a10,10,0,0,1-2.92.52h-.29Zm-5.67,0H509.6a.5.5,0,0,1,0-1h2.84a.5.5,0,0,1,0,1Zm-5.68,0h-2.83a.5.5,0,0,1,0-1h2.83a.5.5,0,0,1,0,1Zm-5.67,0h-2.84a.5.5,0,0,1,0-1h2.84a.5.5,0,0,1,0,1Zm-5.68,0h-2.83a.5.5,0,0,1,0-1h2.83a.5.5,0,0,1,0,1Zm-5.67,0H486.9a.5.5,0,0,1,0-1h2.84a.5.5,0,0,1,0,1Zm-5.67,0h-2.84a.5.5,0,0,1,0-1h2.84a.5.5,0,0,1,0,1Zm-5.68,0h-2.83a.5.5,0,0,1,0-1h2.83a.5.5,0,0,1,0,1Zm-5.67,0h-2.84a.5.5,0,0,1,0-1h2.84a.5.5,0,0,1,0,1Zm-5.68,0h-2.83a.5.5,0,0,1,0-1H467a.5.5,0,0,1,0,1Zm-5.67,0h-2.84a.5.5,0,0,1,0-1h2.84a.5.5,0,0,1,0,1Zm-5.67,0h-2.84a.5.5,0,0,1,0-1h2.84a.5.5,0,0,1,0,1Zm-5.68,0h-2.83a.5.5,0,0,1,0-1H450a.5.5,0,0,1,0,1Zm-5.67,0h-2.84a.5.5,0,0,1,0-1h2.84a.5.5,0,0,1,0,1Zm-5.67,0h-2.84a.5.5,0,0,1,0-1h2.84a.5.5,0,0,1,0,1Zm-5.68,0h-2.84a.5.5,0,0,1-.5-.5h0a.52.52,0,0,1,.51-.49H433a.5.5,0,0,1,0,1Zm-5.62-.46h-.16a9.78,9.78,0,0,1-2.66-1.34.51.51,0,0,1-.11-.7.5.5,0,0,1,.69-.11,8.94,8.94,0,0,0,2.39,1.2.49.49,0,0,1,.42.57.5.5,0,0,1-.57.43h0Zm96.3-1.32a.49.49,0,0,1-.4-.21.5.5,0,0,1,.11-.69,8.43,8.43,0,0,0,1.88-1.89.51.51,0,0,1,.7-.11.5.5,0,0,1,.11.69,9.6,9.6,0,0,1-2.1,2.12.53.53,0,0,1-.3.09Zm-100.85-1.93a.52.52,0,0,1-.4-.2,8.84,8.84,0,0,1-1.37-2.66.5.5,0,1,1,1-.3,8,8,0,0,0,1.21,2.36.5.5,0,0,1-.1.7h0a.47.47,0,0,1-.3.1Zm104.09-2.6h-.14a.49.49,0,0,1-.34-.62h0a8.09,8.09,0,0,0,.32-2.24v-.43a.5.5,0,0,1,.5-.5.52.52,0,0,1,.5.5v.43a9,9,0,0,1-.36,2.52.51.51,0,0,1-.48.34Zm-105.77-2.71a.5.5,0,0,1-.5-.5v-2.83a.5.5,0,0,1,1,0v2.83a.5.5,0,0,1-.5.5Zm106.11-2.93a.5.5,0,0,1-.5-.5v-2.84a.5.5,0,1,1,1,0v2.84a.52.52,0,0,1-.5.5Zm-106.11-2.74a.5.5,0,0,1-.5-.5v-2.84a.52.52,0,0,1,.5-.5.5.5,0,0,1,.5.5v2.84a.5.5,0,0,1-.5.5Zm106.11-2.94a.5.5,0,0,1-.5-.5v-2.83a.5.5,0,0,1,1,0V317a.5.5,0,0,1-.5.45Zm-106.11-2.73a.52.52,0,0,1-.5-.5v-2.84a.5.5,0,0,1,1,0v2.84a.5.5,0,0,1-.5.5Zm106.11-2.94a.5.5,0,0,1-.5-.5v-2.84a.5.5,0,0,1,.5-.5.52.52,0,0,1,.5.5v2.84a.5.5,0,0,1-.5.5ZM421.15,309a.5.5,0,0,1-.5-.5v-2.83a.5.5,0,1,1,1,0v2.83A.5.5,0,0,1,421.15,309Zm106.11-2.93a.5.5,0,0,1-.5-.5v-2.84a.5.5,0,0,1,1,0v2.84a.51.51,0,0,1-.48.54h0Zm-106.11-2.74a.52.52,0,0,1-.5-.5V300a.5.5,0,0,1,1,0v2.84a.5.5,0,0,1-.47.53h0Zm106.11-2.94a.5.5,0,0,1-.5-.5v-2.84a.5.5,0,0,1,.5-.5.52.52,0,0,1,.5.5v2.84a.5.5,0,0,1-.46.54h0Zm-106.11-2.74a.5.5,0,0,1-.5-.5v-2.83a.5.5,0,0,1,1,0v2.83a.5.5,0,0,1-.46.54h0Zm106.11-2.93a.5.5,0,0,1-.5-.5v-2.84a.5.5,0,0,1,1,0v2.84a.51.51,0,0,1-.48.54h0ZM421.15,292a.5.5,0,0,1-.5-.5v-2.84a.52.52,0,0,1,.5-.5.5.5,0,0,1,.5.5v2.84A.5.5,0,0,1,421.15,292Zm106.11-2.94a.5.5,0,0,1-.5-.5v-2.83a.5.5,0,0,1,1,0v2.83a.5.5,0,0,1-.48.52h0Zm-106.11-2.73a.52.52,0,0,1-.5-.5V284.1a9.2,9.2,0,0,1,.08-1.17.51.51,0,0,1,.57-.44.51.51,0,0,1,.43.57,8.4,8.4,0,0,0-.07,1v1.73a.51.51,0,0,1-.44.56h-.07Zm106-2.94a.51.51,0,0,1-.5-.42,7.73,7.73,0,0,0-.84-2.52.5.5,0,0,1,.89-.47,9,9,0,0,1,.94,2.84.51.51,0,0,1-.42.57h-.07Zm-105.08-2.58a.46.46,0,0,1-.23-.06.51.51,0,0,1-.21-.68,9.09,9.09,0,0,1,1.78-2.39.51.51,0,0,1,.71,0,.5.5,0,0,1,0,.71h0a8.15,8.15,0,0,0-1.6,2.14.5.5,0,0,1-.43.3Zm102.47-2.34a.48.48,0,0,1-.34-.14,9.29,9.29,0,0,0-2.2-1.52.5.5,0,0,1,.44-.9h0a9.86,9.86,0,0,1,2.45,1.7.5.5,0,0,1,0,.71A.48.48,0,0,1,524.54,278.47Zm-98.48-1.56a.5.5,0,0,1-.24-.94h0a9.68,9.68,0,0,1,2.83-.92.51.51,0,0,1,.16,1h0a8.78,8.78,0,0,0-2.54.82.52.52,0,0,1-.21.07Zm93.46-.89h-.07a10.24,10.24,0,0,0-1.36-.1h-1.4a.5.5,0,0,1,0-1h1.4a10.84,10.84,0,0,1,1.51.11.5.5,0,1,1-.08,1Zm-5.67-.11H511a.5.5,0,0,1,0-1h2.83a.5.5,0,0,1,0,1Zm-5.67,0h-2.84a.5.5,0,0,1,0-1h2.84a.5.5,0,0,1,0,1Zm-5.67,0h-2.84a.5.5,0,0,1,0-1h2.84a.5.5,0,0,1,0,1Zm-5.68,0H494a.5.5,0,0,1,0-1h2.84a.5.5,0,0,1,0,1Zm-5.67,0h-2.84a.5.5,0,0,1,0-1h2.84a.5.5,0,0,1,0,1Zm-5.68,0h-2.83a.5.5,0,0,1,0-1h2.83a.5.5,0,0,1,0,1Zm-5.67,0H477a.5.5,0,0,1,0-1h2.84a.5.5,0,0,1,0,1Zm-5.67,0H471.3a.5.5,0,0,1,0-1h2.84a.5.5,0,0,1,0,1Zm-5.68,0h-2.84a.5.5,0,0,1,0-1h2.84a.5.5,0,0,1,0,1Zm-5.67,0H460a.5.5,0,0,1,0-1h2.84a.5.5,0,0,1,0,1Zm-5.68,0H454.3a.5.5,0,0,1,0-1h2.83a.5.5,0,0,1,0,1Zm-5.67,0H448.6a.5.5,0,0,1,0-1h2.84a.5.5,0,0,1,0,1Zm-5.68,0H443a.5.5,0,0,1,0-1h2.83a.5.5,0,0,1,0,1Zm-5.67,0h-2.84a.5.5,0,0,1,0-1h2.84a.5.5,0,0,1,0,1Zm-5.67,0H431.6a.5.5,0,0,1,0-1h2.84a.5.5,0,0,1,0,1Z" fill="#9fe0b8"/><path d="M537.17,443.28H355.75a10.59,10.59,0,0,1-10.82-10.36h0V359.28a10.57,10.57,0,0,1,10.79-10.37H537.17A10.58,10.58,0,0,1,548,359.23v73.68a10.57,10.57,0,0,1-10.78,10.37Z" fill="#fff" opacity="0.25" style="isolation:isolate"/><path d="M539.76,351.5v73.63A10.57,10.57,0,0,1,529,435.5H348.28a10.58,10.58,0,0,1-10.82-10.34V351.5a10.58,10.58,0,0,1,10.8-10.36H528.94a10.58,10.58,0,0,1,10.82,10.33Z" fill="#9fe0b8"/><path d="M407.43,427.88h-53.2a7.19,7.19,0,0,1-7.32-7.06V369.49a7.19,7.19,0,0,1,7.22-7.16h53.3a7.19,7.19,0,0,1,7.32,7.06v51.32A7.29,7.29,0,0,1,407.43,427.88Z" fill="#fff"/><g opacity="0.2"><path d="M470.4,370.86h-47a2.34,2.34,0,0,1-2.29-2.28h0a2.35,2.35,0,0,1,2.29-2.29h47a2.35,2.35,0,0,1,2.28,2.29h0a2.08,2.08,0,0,1-1.86,2.28Z" fill="#fff"/><path d="M449.05,379.71H423.59a2.34,2.34,0,0,1-2.28-2.29h0a2.34,2.34,0,0,1,2.28-2.29h25.46a2.35,2.35,0,0,1,2.29,2.29h0a2.16,2.16,0,0,1-2,2.29A1.22,1.22,0,0,1,449.05,379.71Z" fill="#fff"/><path d="M527.41,379.71H458.5a2.34,2.34,0,0,1-2.28-2.29h0a2.34,2.34,0,0,1,2.28-2.29h68.91a2.35,2.35,0,0,1,2.29,2.29h0A2.35,2.35,0,0,1,527.41,379.71Z" fill="#fff"/><path d="M462.93,388.55H423.44a2.35,2.35,0,0,1-2.29-2.29h0a2.35,2.35,0,0,1,2.29-2.29h39.49a2.35,2.35,0,0,1,2.28,2.29h0a2.09,2.09,0,0,1-1.85,2.29Z" fill="#fff"/><path d="M496.62,388.55H471.77a2.35,2.35,0,0,1-2.29-2.29h0a2.35,2.35,0,0,1,2.29-2.29h24.85a2.34,2.34,0,0,1,2.28,2.29h0A2.34,2.34,0,0,1,496.62,388.55Z" fill="#fff"/><path d="M527.41,388.55H504.54a2.34,2.34,0,0,1-2.28-2.29h0a2.34,2.34,0,0,1,2.28-2.29h22.87a2.35,2.35,0,0,1,2.29,2.29h0A2.35,2.35,0,0,1,527.41,388.55Z" fill="#fff"/><path d="M527.41,397.54h-104a2.35,2.35,0,0,1-2.29-2.29h0a2.35,2.35,0,0,1,2.29-2.28h104a2.35,2.35,0,0,1,2.29,2.28h0A2.35,2.35,0,0,1,527.41,397.54Z" fill="#fff"/><path d="M480.76,406.38H423.59a2.33,2.33,0,0,1-2.28-2.28h0a2.34,2.34,0,0,1,2.28-2.29h57.17a2.35,2.35,0,0,1,2.29,2.29h0a2.24,2.24,0,0,1-2.2,2.28Z" fill="#fff"/><path d="M527.41,406.38H489.76a2.34,2.34,0,0,1-2.29-2.28h0a2.35,2.35,0,0,1,2.29-2.29h37.65a2.35,2.35,0,0,1,2.29,2.29h0A2.34,2.34,0,0,1,527.41,406.38Z" fill="#fff"/><path d="M457.13,415.23H423.44a2.35,2.35,0,0,1-2.29-2.29h0a2.35,2.35,0,0,1,2.29-2.29h33.69a2.35,2.35,0,0,1,2.29,2.29h0a2.16,2.16,0,0,1-2,2.29Z" fill="#fff"/><path d="M499.82,415.23H466.13a2.35,2.35,0,0,1-2.29-2.29h0a2.35,2.35,0,0,1,2.29-2.29h33.69a2.34,2.34,0,0,1,2.28,2.29h0a2.16,2.16,0,0,1-2,2.29Z" fill="#fff"/><path d="M527.41,415.23H507.74a2.35,2.35,0,0,1-2.28-2.29h0a2.35,2.35,0,0,1,2.28-2.29h19.67a2.35,2.35,0,0,1,2.29,2.29h0A2.35,2.35,0,0,1,527.41,415.23Z" fill="#fff"/><path d="M470.4,424.22h-47a2.35,2.35,0,0,1-2.29-2.29h0a2.34,2.34,0,0,1,2.29-2.28h47a2.33,2.33,0,0,1,2.28,2.28h0a2.16,2.16,0,0,1-2,2.29Z" fill="#fff"/><path d="M527.41,370.86H480.46a2.34,2.34,0,0,1-2.29-2.28h0a2.35,2.35,0,0,1,2.29-2.29h46.95a2.35,2.35,0,0,1,2.29,2.29h0a2.24,2.24,0,0,1-2.2,2.28Z" fill="#fff"/></g><path d="M539.76,351.5v3.05H337.61V351.5a10.58,10.58,0,0,1,10.79-10.36H529.09A10.54,10.54,0,0,1,539.76,351.5Z" fill="#9fe0b8"/><path d="M539.76,351.5v3.05H337.61V351.5a10.58,10.58,0,0,1,10.79-10.36H529.09A10.54,10.54,0,0,1,539.76,351.5Z" opacity="0.2" style="isolation:isolate"/><path d="M501.65,348a2.54,2.54,0,0,1-2.59,2.44,2.46,2.46,0,0,1-2.6-2.3V348a2.6,2.6,0,0,1,5.19,0Z" fill="#dee3fc"/><path d="M514.45,348a2.54,2.54,0,0,1-2.59,2.44,2.46,2.46,0,0,1-2.59-2.31V348a2.59,2.59,0,0,1,5.18,0Z" fill="#dee3fc"/><path d="M527.26,348a2.6,2.6,0,1,1-2.76-2.44h.17A2.65,2.65,0,0,1,527.26,348Z" fill="#dee3fc"/><path d="M400.27,335H360.33c-6.11,0-11.27-4.95-11.27-10.82V285.8A11.06,11.06,0,0,1,360.33,275h39.94c6.11,0,11.27,5,11.27,10.82v38.41A11.34,11.34,0,0,1,400.27,335Zm-39.94-59.15c-5.63,0-10.38,4.54-10.38,9.92v38.41c0,5.38,4.75,9.92,10.38,9.92h39.94a10.45,10.45,0,0,0,10.38-9.94V285.8c0-5.38-4.75-9.92-10.37-9.92Z" fill="#9fe0b8"/><path d="M370.54,314.38a.83.83,0,0,1-.58-.24l-8.84-8.53a.89.89,0,0,1-.26-.6.84.84,0,0,1,.25-.6l8.85-8.69a.83.83,0,0,1,1.17,1.19h0L362.9,305l8.22,7.94a.85.85,0,0,1-.58,1.44Z" fill="#9fe0b8"/><path d="M389.75,314.38a.86.86,0,0,1-.6-.25.85.85,0,0,1,0-1.18l8.09-7.95-8.09-8.09a.83.83,0,0,1,1.18-1.18h0l8.69,8.68a.84.84,0,0,1,.25.6.93.93,0,0,1-.25.59l-8.69,8.54A.84.84,0,0,1,389.75,314.38Z" fill="#9fe0b8"/><path d="M376,314.38a.9.9,0,0,1-.36-.08.84.84,0,0,1-.39-1.12L383.51,296a.82.82,0,0,1,1.1-.4h0a.85.85,0,0,1,.4,1.12l-8.24,17.22A.82.82,0,0,1,376,314.38Z" fill="#9fe0b8"/><path d="M539.76,130.76V251.34c0,6.56-5.64,11.89-12.35,11.89H349.81c-6.71,0-12.35-5.33-12.35-11.89V130.76c0-6.56,5.64-11.89,12.35-11.89H527.56A12.07,12.07,0,0,1,539.76,130.76Z" fill="#9fe0b8"/><ellipse cx="498.75" cy="157.13" rx="29.27" ry="28.2" fill="#f0f4ff"/><path d="M456.52,263.23H350c-6.71,0-12.35-5.33-12.35-11.89v-18.9l46.65-77.75a6.43,6.43,0,0,1,11,0l35.21,58.69,26,43.62A5.8,5.8,0,0,1,456.52,263.23Z" fill="#fff"/><path d="M502.41,263.23H400.57l29.88-50,16.16-26.83a5.84,5.84,0,0,1,9.91,0Z" fill="#f0f4ff"/><path d="M670,221.31H524.67c-7.93,0-14.64-6.1-14.64-14h0a14.32,14.32,0,0,1,14.63-14H670c7.93,0,14.63,6.1,14.63,14h0A14.61,14.61,0,0,1,670,221.31Z" fill="#fff" stroke="#bad7e7" stroke-miterlimit="10"/><path d="M667.82,206.22a7.63,7.63,0,1,1-7.93-7.31h.3A7.6,7.6,0,0,1,667.82,206.22Z" fill="none" stroke="#bad7e7" stroke-miterlimit="10"/><line x1="665.53" y1="211.55" x2="669.8" y2="215.67" fill="none" stroke="#bad7e7" stroke-miterlimit="10"/><path d="M373.05,402.15a3.23,3.23,0,0,1,3.21,3.22v13.79a3.22,3.22,0,0,1-6.43,0V405.37a3.22,3.22,0,0,1,3.22-3.22Z" fill="#9fe0b8"/><path d="M365.71,385.57a2.29,2.29,0,0,0,0,.37v20.9a4,4,0,0,0,4,4.05H391a4,4,0,0,0,4-4V385.57Z" fill="#9fe0b8"/><path d="M387.55,402.15a3.22,3.22,0,0,1,3.22,3.22h0v13.79a3.22,3.22,0,0,1-6.43,0V405.37A3.23,3.23,0,0,1,387.55,402.15Zm-27-14.72a3.21,3.21,0,0,1,3.21,3.21v13.8a3.22,3.22,0,0,1-6.43,0v-13.8A3.23,3.23,0,0,1,360.55,387.43Zm39.56,0a3.21,3.21,0,0,1,3.21,3.21v13.8a3.22,3.22,0,0,1-6.43,0v-13.8A3.23,3.23,0,0,1,400.11,387.43ZM365.8,384.2c.09-6.42,5.69-11.68,12.88-12.38h3.23c7.2.7,12.8,6,12.89,12.38Z" fill="#9fe0b8"/><path d="M370.31,377.42a.34.34,0,0,1-.29-.17l-3.4-5.88a.34.34,0,1,1,.59-.34l3.39,5.88a.32.32,0,0,1-.11.45h0A.34.34,0,0,1,370.31,377.42Zm20,0a.34.34,0,0,1-.17-.05.34.34,0,0,1-.13-.46l3.4-5.88a.34.34,0,0,1,.46-.12.33.33,0,0,1,.13.45h0l-3.39,5.88a.36.36,0,0,1-.31.17Z" fill="#9fe0b8"/><path d="M376,378.44a1.67,1.67,0,0,1-3.33,0h0a1.67,1.67,0,0,1,3.33,0Zm12.42,0a1.67,1.67,0,0,1-3.33,0h0a1.67,1.67,0,0,1,3.33,0Z" fill="#fff"/><ellipse cx="225.55" cy="253.92" rx="16.82" ry="25.69" transform="translate(-27.41 27.3) rotate(-6.53)" fill="#f8b69b"/><path d="M233.24,300.2a7.22,7.22,0,0,1-2.3,3.37c-2.78,2.22-9,4.76-18.58-4.18a26.57,26.57,0,0,1-7.49-12.68,2.75,2.75,0,0,1,.11-1.77v-.08a2.59,2.59,0,0,1,.73-1l1.11-.77.42-.3,4-2.8h0a4.26,4.26,0,0,0,1.88-3.15,4.51,4.51,0,0,0,0-.52v-.21l-.27-6.92s5.58,10.61,14.39,10.36v5a2.38,2.38,0,0,0,1.22,2.1,12,12,0,0,1,2.2,1.62h0C233.06,290.35,235.25,294.09,233.24,300.2Z" fill="#f8b69b"/><path d="M213.22,276.79a4.26,4.26,0,0,1-1.88,3.15A4.58,4.58,0,0,0,213.22,276.79Z" fill="#f8b69b"/><path d="M130.23,335.84c1.41,12.34,6.86,19.23,11,22.78a20,20,0,0,0,5,3.22c4.87-1,26.09-13.22,26.09-13.22C177,349.67,179.1,369,179.1,369c-5.74,3.66-4.87,9.22-4.87,9.22-.17,5-1.73,7.13-1.73,7.13-22.26,36.17-10.79,83.47-10.79,83.47,3.76,19.83,4.39,33.43,4.49,38.63a4.29,4.29,0,0,0,2.18,3.65c36.18,20.63,83.78-3,83.78-3a89.88,89.88,0,0,1,8.41-4.71c6.31-3.15,13.2-6,17.11-7.56a2.28,2.28,0,0,0,1.29-2.95,2.17,2.17,0,0,0-.4-.67,154.86,154.86,0,0,1-10.45-14.5C260.6,463,248.4,413.87,248.4,413.87c-4.51-15.21-5.44-33.22-5.44-33.22a56.61,56.61,0,0,1,3-24.21c11.46-20.09,5.08-33,5.08-33,10.32,1.13,37.72-5.25,37.72-5.25,3.19-11.07-1.89-23.65-1.89-23.65-6.48.6-23.53-.33-30.51-.74a21.85,21.85,0,0,1-5.6-1.13c-8.34-2.8-19.94-4.37-19.94-4.37,2.25,2.09,4.44,5.83,2.43,11.94a7.1,7.1,0,0,1-2.3,3.37c-2.77,2.22-9,4.76-18.57-4.19a26.44,26.44,0,0,1-7.5-12.67A2.86,2.86,0,0,1,205,285a77.54,77.54,0,0,0-22.06,4.75C151.36,303.77,130.23,335.84,130.23,335.84Z" fill="#3aa0ee"/><path d="M227.38,279.49v5s-11.91-1-11.95-11.93C215.43,272.6,220.12,279.61,227.38,279.49Z" fill="#fe8f69"/><path d="M179.88,291.11c-3,1.62,4.77-5.69,6.62-7.26a11.62,11.62,0,0,0,3.45-4.74c1.63-4.35,1.62-9.58,1.34-13.11a31.4,31.4,0,0,0-1-5.69c-7-25.31,5.39-30.37,5.39-30.37,18.55-19.1,39.11-2.91,39.11-2.91,19.64-3.09,18.55,8.37,18.55,8.37,2,18.55-10.84,19.44-10.84,19.44a25.62,25.62,0,0,0-1.61-9,5.07,5.07,0,0,0-6.7-2.54,5,5,0,0,0-1.95,1.54c-3.32,4.33-11,13.07-20.62,15.89l1,7.75.37.68.27,6.93s.38,2-1.94,3.88l-5.56,3.87A2.51,2.51,0,0,0,205,285a55.4,55.4,0,0,0-10.73,1.45S185.45,288.13,179.88,291.11Z" fill="#36465b"/><path d="M252.88,245c-2.36,9.29-10.38,9.86-10.38,9.86-.14-9.4-3-10.83-3-10.83a5.17,5.17,0,0,0-7.27.76l0,0c-9.92,13.3-20.61,15.89-20.61,15.89a56,56,0,0,0,1.35,8.44l.27,6.92v.21a4.51,4.51,0,0,1,0,.52,4.26,4.26,0,0,1-1.88,3.15h0l-4,2.8-.42.3-1.11.77a2.59,2.59,0,0,0-.73,1v.08a67.36,67.36,0,0,0-10,1.27c3.82-3.08,4.28-14.09,4.28-14.09-2.06-16.32,7.49-16.13,7.49-16.13,9.91-1.27,24-18.56,24-18.56,6.28-5.31,10,4.48,13.17,8.71S252.88,245,252.88,245Z" opacity="0.2" style="isolation:isolate"/><path d="M245.77,247.52s10.76-12.75-3-18.83" fill="none" stroke="#ed1c24" stroke-miterlimit="10" stroke-width="0.1"/><path d="M210.29,225.65a16.25,16.25,0,0,0-6.95,4.62,22.26,22.26,0,0,0-4.3,7.14,38.81,38.81,0,0,0-1.9,8.14,74.44,74.44,0,0,0,.24,8.43c.18,2.82.47,5.63.83,8.44a43.76,43.76,0,0,1,.2,8.56,49.29,49.29,0,0,1-1.22,8.46,19.8,19.8,0,0,1-1.43,4,7.94,7.94,0,0,1-2.66,3.29,8.31,8.31,0,0,0,2.42-3.4,20.19,20.19,0,0,0,1.2-4,50.1,50.1,0,0,0,.92-8.39,48.21,48.21,0,0,0-.34-8.41c-.38-2.81-.71-5.64-.92-8.48a74.09,74.09,0,0,1-.14-8.57,34.65,34.65,0,0,1,2.09-8.35,22.7,22.7,0,0,1,4.66-7.2A15.89,15.89,0,0,1,210.29,225.65Z" opacity="0.2" style="isolation:isolate"/><path d="M141.24,358.59h0a20,20,0,0,0,5,3.22c4.87-1,26.09-13.22,26.09-13.22,4.7,1.05,6.78,20.35,6.78,20.35-5.74,3.66-4.87,9.22-4.87,9.22-.17,5-1.73,7.13-1.73,7.13-22.26,36.17-10.79,83.47-10.79,83.47,3.76,19.83,4.39,33.43,4.49,38.63a4.29,4.29,0,0,0,2.18,3.65c36.18,20.63,83.78-3,83.78-3a89.88,89.88,0,0,1,8.41-4.71s4.25-5.28-6.64-4.64c0,0-67.2,16-71.36-28.16,0,0-12.49-39.36-3.36-63.36,0,0,8.15-17.29,2.71-40.65,0,0-1-24.64,0-32.32C181.91,334.23,155.92,359,141.24,358.59Z" opacity="0.2" style="isolation:isolate"/><g opacity="0.2"><path d="M249.78,304.15c-.37,1-.73,1.89-1.06,2.84s-.66,1.9-.93,2.87a23.43,23.43,0,0,0-1,5.81v.89l-.72-.46a5.48,5.48,0,0,1-1.46-1.42,9.2,9.2,0,0,1-1-1.68,12.94,12.94,0,0,1-1.05-3.65,23.51,23.51,0,0,1-.19-3.75,30.43,30.43,0,0,1,.43-3.69v1.85l.08,1.84a21.92,21.92,0,0,0,.48,3.6,14.05,14.05,0,0,0,1.12,3.39,8.32,8.32,0,0,0,.9,1.49,4.91,4.91,0,0,0,1.16,1.16l-.74.43a19,19,0,0,1,1.34-6c.36-.95.75-1.89,1.2-2.81A28.11,28.11,0,0,1,249.78,304.15Z"/></g><g opacity="0.2"><path d="M236.78,304.41a9.85,9.85,0,0,1-1.12,3.07,13.28,13.28,0,0,1-1.9,2.68,12.71,12.71,0,0,1-2.5,2.13,10.1,10.1,0,0,1-3,1.38c.86-.68,1.71-1.29,2.49-2a23.05,23.05,0,0,0,2.23-2.19A32.4,32.4,0,0,0,236.78,304.41Z"/></g><g opacity="0.2"><path d="M205.74,301a39.78,39.78,0,0,0,4.39,4.12,30.49,30.49,0,0,0,5,3.27,20.71,20.71,0,0,0,5.55,2l1.47.26c.49,0,1,.05,1.48.09h1.5l1.52-.07a15.28,15.28,0,0,1-6.09.48,17.45,17.45,0,0,1-5.89-1.85,23.83,23.83,0,0,1-5-3.57A21.75,21.75,0,0,1,205.74,301Z"/></g><g opacity="0.2"><path d="M179.19,324.29a72.94,72.94,0,0,1-4.52,6.39c-1.6,2.07-3.3,4.05-5.09,6a59.37,59.37,0,0,1-5.71,5.39,32.36,32.36,0,0,1-6.54,4.32l1.59-1.14c.53-.37,1-.81,1.52-1.21s1-.82,1.49-1.25,1-.84,1.44-1.3c1.89-1.76,3.71-3.61,5.48-5.5s3.5-3.82,5.23-5.76c.87-1,1.71-2,2.56-2.94Z"/></g><g opacity="0.2"><path d="M234,380.81a31.54,31.54,0,0,1,1,7.55,27.2,27.2,0,0,1-.87,7.62,17.5,17.5,0,0,1-3.49,6.87,15.29,15.29,0,0,1-2.9,2.55,15.14,15.14,0,0,1-3.46,1.61,16,16,0,0,0,5.76-4.65,19.3,19.3,0,0,0,3.13-6.64,34.58,34.58,0,0,0,1.06-7.37,36.27,36.27,0,0,0,0-3.76C234.17,383.34,234.16,382.07,234,380.81Z"/></g><g opacity="0.2"><path d="M236.78,388.53a16.27,16.27,0,0,1,1.57,8.32A11,11,0,0,1,237.1,401a8,8,0,0,1-3.07,3,11.68,11.68,0,0,0,2.38-3.32,13.81,13.81,0,0,0,.94-3.9,21.39,21.39,0,0,0,0-4.08A41.78,41.78,0,0,0,236.78,388.53Z"/></g><g opacity="0.2"><path d="M190.42,386.05a52.53,52.53,0,0,0,2,5.86c.37,1,.8,1.9,1.2,2.85l1.35,2.78a66.3,66.3,0,0,0,10.62,15c1.5,1.39,2.92,2.89,4.55,4.14.81.64,1.57,1.33,2.41,1.93l2.56,1.73a20.86,20.86,0,0,0,2.63,1.62c.9.5,1.8,1,2.7,1.54-.94-.43-1.89-.86-2.82-1.31a22,22,0,0,1-2.77-1.43l-2.66-1.64c-.88-.56-1.68-1.23-2.53-1.84l-1.25-.94c-.42-.31-.78-.69-1.17-1l-2.3-2.12a58.09,58.09,0,0,1-4.14-4.71,56.92,56.92,0,0,1-6.52-10.65A49.65,49.65,0,0,1,190.42,386.05Z"/></g><g opacity="0.2"><path d="M188.76,399c.94,2.59,1.93,5.17,3,7.7s2.15,5.07,3.33,7.56a133.23,133.23,0,0,0,7.81,14.51c1.45,2.33,3,4.6,4.63,6.79a70.51,70.51,0,0,0,5.37,6.21,38.47,38.47,0,0,0,6.3,5.23,27.47,27.47,0,0,0,7.4,3.56,26,26,0,0,1-7.66-3.14,39.13,39.13,0,0,1-6.58-5.1,68.81,68.81,0,0,1-10.31-13,120.29,120.29,0,0,1-7.66-14.73A122.79,122.79,0,0,1,188.76,399Z"/></g><g opacity="0.2"><path d="M250.52,486.14a42,42,0,0,1-9.64-.29,43.65,43.65,0,0,1-9.4-2.38,34.1,34.1,0,0,1-8.52-4.66,28.83,28.83,0,0,1-6.63-7c.56.59,1.11,1.17,1.64,1.76l.81.88.91.78c.6.53,1.17,1.08,1.79,1.58l1.93,1.39a41,41,0,0,0,8.42,4.35A56.18,56.18,0,0,0,241,485.1c1.56.3,3.14.54,4.73.7A48,48,0,0,0,250.52,486.14Z"/></g><g opacity="0.2"><path d="M233.43,492.48a33.86,33.86,0,0,1-5.6-2.92,40.89,40.89,0,0,1-5.08-3.79,32.86,32.86,0,0,1-4.35-4.63,23.78,23.78,0,0,1-3.17-5.48c.63.86,1.12,1.77,1.8,2.57a28.85,28.85,0,0,0,2,2.42,53.61,53.61,0,0,0,4.42,4.37c1.55,1.37,3.18,2.65,4.85,3.91.83.62,1.68,1.22,2.55,1.81S232.55,491.9,233.43,492.48Z"/></g><path d="M189,633.92c5.52,1.11,14.62,6.35,14.62,6.35,13.23,9.1,25.37,7.17,25.37,7.17L217.16,632c-5-5-2.48-14.9-2.48-14.9l20.12-79.4c6.08-17.09,4.59-24.58,4.59-24.58-6.55,2.61-14.74,4.19-21.14,5.1-.55.09-1.38.2-2.34.32-4.32.56-7.46.8-8.11.84h-.12l-7.62,28.79c-2.26,7.92-3.71,19.15-4.65,30.48-1.63,19.65-1.69,39.62-1.69,43.35a8.59,8.59,0,0,1-.07,1.24C192.88,628.81,189,633.92,189,633.92Z" fill="#f8b69b"/><path d="M207.68,519.39,205,529.5l-63.77,52.6a55.54,55.54,0,0,0-13.73,12.3,20.45,20.45,0,0,0-3.69,16l3.47,18.6s-15.45-7.72-15.17-22.33c0,0-.83-10.76-3.86-14.07,0,0,10.47-6.06,14.06-15.71,0,0,.5-.93,1.43-2.55h0l.64-1.12c6.54-11.47,27.65-46.54,47.94-60a54.54,54.54,0,0,0,11,3.9A108.26,108.26,0,0,0,207.68,519.39Z" fill="#f8b69b"/><path d="M195.41,578.66l22.84-60.44c-.55.09-1.38.2-2.34.32-3,.34-7.33.77-8.11.84h-.12l-7.62,28.79C197.8,556.1,196.35,567.33,195.41,578.66Z" fill="#fe8f69"/><path d="M183.33,517c-3.37,3.09-48.29,44.43-59.57,57.25l.64-1.12c4.18-7.2,27.41-46.25,47.94-60A58.79,58.79,0,0,0,183.33,517Z" fill="#fe8f69"/><path d="M97.85,618.93c5.85,4.38,8.77,11.49,8.77,11.49,7.53,16.5,17.12,13.58,17.12,13.58,7.29-1.68,3.54-15,3.54-15s-15.45-7.72-15.17-22.33c0,0-.82-10.76-3.86-14.07l-14,7.35C83.43,609.52,97.85,618.93,97.85,618.93Z" fill="#3aa0ee"/><path d="M195.41,654.45c6.88,0,13.18,4,13.18,4,26.95,13.37,31,4.8,31,4.8,3.8-7.11-10.53-15.78-10.53-15.78s-12.14,1.93-25.37-7.17c0,0-9.1-5.24-14.62-6.35-3.32,6-3,8.2-3,8.2C182.89,655.49,195.41,654.45,195.41,654.45Z" fill="#3aa0ee"/><path d="M77.19,417.29a5.89,5.89,0,0,0,3.24.35h0c6.27-1,12.41-10.63,12.41-10.63,4-4.31,5.23-2.2,5.23-2.2,4.72,9.13,6.7,6.52,6.7,6.52,3-1.24-3.22-9.09-3.22-9.09-2.24-6.62,3.22-11.53,3.22-11.53,6.21-6.7,41.45-28.86,41.45-28.86-8.45-4-12.46-12-14.35-18a38.27,38.27,0,0,1-1.64-8C101,356.52,88.38,392.19,88.38,392.19c-1.26,5.72-8.95,12.61-8.95,12.61C73.71,411.7,77.19,417.29,77.19,417.29Z" fill="#f8b69b"/><path d="M77.19,417.29a5.89,5.89,0,0,0,3.24.35h0a21.73,21.73,0,0,1,6.21-15.4c4.22-3.88,7.2-10.78,7.2-10.78,10.93-27.83,38-47.65,38-47.65a70,70,0,0,1-1.64-8c-29.2,20.71-41.82,56.38-41.82,56.38-1.26,5.72-8.95,12.61-8.95,12.61C73.71,411.7,77.19,417.29,77.19,417.29Z" fill="#fe8f69"/><path d="M405.61,267.92l-28.38,40.67a8.39,8.39,0,0,1-11.68,2.08l-.2-.14L329,283.61a8.38,8.38,0,0,1-1.9-11.53l27.81-40a8.39,8.39,0,0,1,11.67-2.15l.1.07,36.92,26.3A8.39,8.39,0,0,1,405.61,267.92Z" fill="#e6e7e8"/><path d="M642.15,364.43c0,16.52,6.62,30.57,15.9,35.92a16.42,16.42,0,0,0,8.28,2.3c8.72,0,16.35-7.27,20.6-18.18h0a55.53,55.53,0,0,0,3.58-20c0-21.11-10.82-38.22-24.19-38.22S642.15,343.32,642.15,364.43Z" fill="#f8b69b"/><path d="M681.14,370a12.18,12.18,0,0,0,.17,2c.65,4,3.19,6.94,6.23,6.94a4.82,4.82,0,0,0,1.2-.16c3-.78,5.19-4.43,5.19-8.8,0-5-2.86-9-6.39-9S681.14,365.07,681.14,370Z" fill="#f8b69b"/><path d="M637.66,351.47s7.46,10.82,22.17,2.64c0,0,14.28-6.47,19.61-3.49,0,0-3.84,19.83,1.7,21.54l.17-.12a12.18,12.18,0,0,1-.17-2c0-5,2.87-9,6.4-9s6.39,4,6.39,9c0,4.37-2.23,8-5.19,8.8a48.3,48.3,0,0,1-1.8,5.65s12.33-2.94,15.74-33.85c0,0-.22-11.51-13.22-14.5,0,0-10.88-19-31.55-9.91C657.91,326.21,633.16,338.52,637.66,351.47Z" fill="#36465b"/><path d="M668.3,437.67c4.63-1.64,9.39-5.62,12.09-8.12a19.46,19.46,0,0,0,4-5.24c5.8-11.17,5.17-25.05,5.17-25.05-2-4.63-2.65-14.79-2.65-14.79h0c-4.25,10.91-11.88,18.18-20.6,18.18a16.42,16.42,0,0,1-8.28-2.3v4.95a25.87,25.87,0,0,0-2,2.31,1.09,1.09,0,0,1-.13.17c-3.65,4.8-3.51,8.28-3.51,8.28-1,12,3.76,17.78,7.32,20.37A9.35,9.35,0,0,0,668.3,437.67Z" fill="#f8b69b"/><path d="M655.86,407.85c31.79-1.6,31.08-23.38,31.08-23.38h0c-4.25,10.91-11.88,18.18-20.6,18.18a16.42,16.42,0,0,1-8.28-2.3v4.95a18.31,18.31,0,0,0-2,2.31,1.09,1.09,0,0,1-.13.17Z" fill="#fe8f69"/><path d="M673.73,450.61v19.18L677.89,535l9.4-5.92c10.52.49,15.07,10.4,15.07,10.4l.15-.14c.73-.63,1.45-1.21,2.18-1.77l.92-.69c1.17-.87,2.34-1.67,3.51-2.38a14.17,14.17,0,0,1,1.5-.9c8.34-3.9,15-5.84,20-6.24a24.47,24.47,0,0,1,6.88.48c1.61-18.87,8-45,8-45,12.47-51.81-7-56.61-7-56.61-25.26-12.15-37.81-22.86-37.81-22.86.08-8.47-13.39-15.26-13.39-15.26.72,7.7,2.3,11.08,2.3,11.08.19,17.56-6.22,26.81-6.22,26.81a41.83,41.83,0,0,1-6.91,14.31A27,27,0,0,0,673.73,450.61Z" fill="#9fe0b8"/><path d="M700.68,403.44q.21,6.53.31,13c.07,4.35.13,8.7.14,13v3.26a3,3,0,0,1-.47,1.82,2.78,2.78,0,0,1-1.55,1.14,16.32,16.32,0,0,1-6.71-.17,22.2,22.2,0,0,1-6.19-2.39,14.19,14.19,0,0,1-1.43-.85l-.18-.11h-.2c-.08,0-.21.15-.3.34a8.28,8.28,0,0,0-.44,3h0a14.57,14.57,0,0,1-.77,4.9,19.55,19.55,0,0,1-2.12,4.42,22.44,22.44,0,0,1-3.18,3.7c-.57.58-1.24,1-1.86,1.57a16.48,16.48,0,0,1-2,1.37c.63-.5,1.28-1,1.89-1.5a12.32,12.32,0,0,0,1.76-1.64,22.41,22.41,0,0,0,2.94-3.78,18.44,18.44,0,0,0,1.92-4.33,14,14,0,0,0,.6-4.63h0a8.37,8.37,0,0,1,.49-3.4,1.43,1.43,0,0,1,.81-.79,1,1,0,0,1,.67,0,1.11,1.11,0,0,1,.29.14l.17.1c.46.27.9.56,1.38.8a21.51,21.51,0,0,0,6,2.24,18.56,18.56,0,0,0,3.15.38,14,14,0,0,0,3.1-.2,1.9,1.9,0,0,0,1.35-2v-3.26c0-4.35.07-8.7.14-13S700.54,407.79,700.68,403.44Z" opacity="0.2" style="isolation:isolate"/><path d="M658.05,400.35a48,48,0,0,0-9.6,8.1,8.28,8.28,0,0,1-4.43,2.73c-7.77,1.8-29.13,8.22-33.58,25.07,0,0-8.82,31.63-17.56,50.17,0,0-12.36,30.28-13.21,36,0,0,1-5.18,8.66-5.43a17.31,17.31,0,0,1,9.75,2.82c4.16,2.61,9.53,7.4,7.7,13.91l15.67-25.26s3.2,32.14,5.76,42.85h4.47a97.4,97.4,0,0,1,17.91-4.16s-.79-66.52,1-98.17c0,0-2.25-25.93,1.84-33,0,0-.43-4.42,5.66-10.76Z" fill="#9fe0b8"/><path d="M648.38,408.53a46.16,46.16,0,0,0-3.72,4.85,40.78,40.78,0,0,0-3,5.26,30.8,30.8,0,0,0-2,5.67,17.58,17.58,0,0,0-.26,5.92l-.48-.41h6.3l-.45.73-3.77,5.9v-.36a30.37,30.37,0,0,0,1.66,4,35.66,35.66,0,0,0,2.19,3.78c.82,1.2,1.66,2.39,2.6,3.51s1.93,2.2,3,3.25a36,36,0,0,1-8.38-10.19,23.71,23.71,0,0,1-1.84-4.08l-.06-.18.11-.17,3.64-5.94.41.73h-5.87l-.05-.41a18.76,18.76,0,0,1,.36-6.25,25.64,25.64,0,0,1,2.22-5.8,36.56,36.56,0,0,1,3.32-5.19A38,38,0,0,1,648.38,408.53Z" opacity="0.2" style="isolation:isolate"/><path d="M618.86,450.61l2.59,57.88-15.67,25.26s1.56-5-1.57-8.37c0,0,10.63-10.39,9.78-29.15C614,496.23,612.21,456.16,618.86,450.61Z" opacity="0.2" style="isolation:isolate"/><g opacity="0.2"><rect x="619.69" y="448.18" width="1" height="60.28" transform="translate(-20.04 27.17) rotate(-2.47)"/></g><path d="M625.18,627.38a214.91,214.91,0,0,0-26.11,5.19s-22.93,6.41-36.71-.88a13.09,13.09,0,0,1-7.15-11.57c0-3.64,1.62-7.66,7.62-9.54a15.69,15.69,0,0,1,9.49.16,40.54,40.54,0,0,0,9.06,1.68s7.32,0,17.69-7.36l10.38-7a7.15,7.15,0,0,0,1.3,3.81S614.36,612.92,625.18,627.38Z" fill="#f8b69b"/><path d="M675.65,645.1a6.08,6.08,0,0,0,5.36.58l.33-.14.73-.36.25-.15c23.83-15.28,20.19-42.31,20.19-42.31l-27,8.82-2.7.88C665.65,634.32,671.26,642.26,675.65,645.1Z" fill="#e6e7e8"/><path d="M681.34,645.54l.73-.36A5,5,0,0,1,681.34,645.54Z" fill="none" stroke="#ed1c24" stroke-miterlimit="10" stroke-width="0.1"/><path d="M641.37,627.75c11.81-2.79,19.17,7.42,19.17,7.42C668.72,649,677.7,647,681,645.68a6.08,6.08,0,0,1-5.36-.58c-4.39-2.84-10-10.78-2.81-32.68l2.7-.88c-2.57-3.3-4.61-5.88-4.61-5.88l-7.22-7.6Z" fill="#9fe0b8"/><path d="M625.18,598.06A53.73,53.73,0,0,0,644,626.37" fill="none" stroke="#ed1c24" stroke-miterlimit="10" stroke-width="0.1"/><path d="M714.9,445.38s-17.75,10.83-18.25,40.24l3,35.4,9.45-5L708,477S708.59,458.23,714.9,445.38Z" opacity="0.2" style="isolation:isolate"/><polygon points="602.06 595.05 582.71 534.88 510.53 515.9 531.48 574.19 602.06 595.05" fill="#9fe0b8"/><polygon points="590.13 549.75 653.64 567.44 604.21 591.95 590.13 549.75" fill="#9fe0b8"/><path d="M690.47,526.06a175.49,175.49,0,0,1,18.13-10.35l-1-26.84c-2-28.21,8.67-47.66,8.78-47.85l.87.49c-.1.19-10.62,19.4-8.66,47.31l1,27.5-.29.14c-.15.08-14.25,7.06-20.76,12.24,2.71.35,9.14,2.06,14.37,10.41l-.85.53c-6.36-10.15-14.68-10-14.79-10h-1.38l1-.91a39.67,39.67,0,0,1,3.51-2.68" fill="#9fe0b8"/><g opacity="0.2"><path d="M690.47,526.06a175.49,175.49,0,0,1,18.13-10.35l-1-26.84c-2-28.21,8.67-47.66,8.78-47.85l.87.49c-.1.19-10.62,19.4-8.66,47.31l1,27.5-.29.14c-.15.08-14.25,7.06-20.76,12.24,2.71.35,9.14,2.06,14.37,10.41l-.85.53c-6.36-10.15-14.68-10-14.79-10h-1.38l1-.91a39.67,39.67,0,0,1,3.51-2.68"/></g><path d="M610.75,601.86c4.07,11.83,14.43,25.52,14.43,25.52,1.82,4.79,8.63,3.28,13.07,1.68a34.68,34.68,0,0,0,5.72-2.69,218.78,218.78,0,0,1,30.95-14.75q1.92-.72,3.87-1.29c5.87-1.69,11.25-3.36,16.19-5,43.85-14.6,52.47-26.6,52.47-26.6,20.55-22.08,9.15-38.22,3.68-43.85h0a23.71,23.71,0,0,0-2.41-2.18,29.32,29.32,0,0,0-17.21-5.41,48.42,48.42,0,0,0-20.89,6.35c-.52.29-1,.6-1.5.9-1.35.85-2.53,1.66-3.51,2.38l-.92.69c-.73.56-1.45,1.14-2.18,1.77l-.15.14L663,564.67l-37.85,20.17C603,591.5,610.75,601.86,610.75,601.86Z" fill="#3aa0ee"/><path d="M687.29,529.11l-20.22,12.32-17.48,5.75s-9.85,1.16-16.87,3.76a6.72,6.72,0,0,1-2.31.4h-3.2s-18.55-.75-25.8,3.09l-8.53,3.63,6,20.67,17.48-5.11a25.44,25.44,0,0,0,15.57-4.91s5.54-2.77,18.54-3.83l12.58-.22s29.15-18.24,39.34-25.15C702.36,539.51,699.19,530.23,687.29,529.11Z" fill="#f8b69b"/><polygon points="510.53 515.9 512.4 514.31 584.3 532.3 604.21 591.95 653.64 567.44 653.64 569.67 602.06 595.05 582.71 534.88 510.53 515.9" fill="#9fe0b8"/><polygon points="510.53 515.9 512.4 514.31 584.3 532.3 604.21 591.95 653.64 567.44 653.64 569.67 602.06 595.05 582.71 534.88 510.53 515.9" opacity="0.2" style="isolation:isolate"/><ellipse cx="208.34" cy="264.79" rx="4.83" ry="6.26" transform="translate(-56.82 56.92) rotate(-13.71)" fill="#f8b69b"/><path d="M289.46,314.92a29.51,29.51,0,0,1-.71,3.23s42.07-9.43,55.37-23.51c0,0-3.39-1.42-2.35-7.23a14,14,0,0,1,9.66-12.23s3.9-1.93,0-3.25c0,0-8.54-1.44-12.21,3.25A6.86,6.86,0,0,0,338,277.7c-.42,1.53-2.65,5.86-14.51,9.07,0,0-20.34,7.77-36.66,7.73a40.76,40.76,0,0,1,2.77,19.17v.17s-.05.42-.09.75C289.49,314.7,289.47,314.81,289.46,314.92Z" fill="#f8b69b"/><path d="M341.77,287.41a14,14,0,0,1,9.66-12.23s-10.53-.88-12.77,13.07a13.29,13.29,0,0,1-2.38,5.86c-4.24,5.77-16.2,16.78-46.65,19.56h0v.17c0,.1-.05.42-.09.75a.81.81,0,0,1-.05.33,19.81,19.81,0,0,1-.71,3.23s42.07-9.43,55.37-23.51C344.12,294.64,340.73,293.22,341.77,287.41Z" fill="#fe8f69"/><path d="M457.74,605.36H408.82c-8.75,0-15.47-6.72-15.47-14.85v-47.2c0-8.28,6.88-14.85,15.47-14.85h48.92c8.75,0,15.47,6.72,15.47,14.85v47.2C473.37,598.64,466.49,605.36,457.74,605.36Z" fill="#9fe0b8"/><path d="M457.74,605.36H408.82c-8.75,0-15.47-6.72-15.47-14.85v-47.2c0-8.28,6.88-14.85,15.47-14.85h48.92c8.75,0,15.47,6.72,15.47,14.85v47.2C473.37,598.64,466.49,605.36,457.74,605.36Z" opacity="0.2" style="isolation:isolate"/><path d="M443.36,605.36H394.44c-8.75,0-15.47-6.72-15.47-14.85v-47.2c0-8.28,6.88-14.85,15.47-14.85h48.92c8.76,0,15.48,6.72,15.48,14.85v47.2C458.84,598.64,451.8,605.36,443.36,605.36Z" fill="#9fe0b8"/><path d="M428.36,547.22a9.54,9.54,0,1,1-9.85-9.21h.32A9.51,9.51,0,0,1,428.36,547.22Z" fill="#fff"/><path d="M438.83,578.79v13.6a2.4,2.4,0,0,1-2.34,2.34H401a2.41,2.41,0,0,1-2.35-2.34v-13.6c0-10.63,8.91-19.38,20.17-19.38h0a19.61,19.61,0,0,1,20,19.2Z" fill="#fff"/><path d="M78.15,155.27H41.56A11.39,11.39,0,0,1,30,144.14V108.93A11.38,11.38,0,0,1,41.56,97.8H78.15a11.4,11.4,0,0,1,11.59,11.13v35.21A11.4,11.4,0,0,1,78.15,155.27Z" fill="#3aa0ee"/><path d="M78.15,155.27H41.56A11.39,11.39,0,0,1,30,144.14V108.93A11.38,11.38,0,0,1,41.56,97.8H78.15a11.4,11.4,0,0,1,11.59,11.13v35.21A11.4,11.4,0,0,1,78.15,155.27Z" opacity="0.2" style="isolation:isolate"/><path d="M67.17,155.27H30.59A11.39,11.39,0,0,1,19,144.14V108.93A11.39,11.39,0,0,1,30.59,97.8H67.17a11.39,11.39,0,0,1,11.59,11.13v35.21C78.76,150.39,73.73,155.27,67.17,155.27Z" fill="#3aa0ee"/><path d="M41.71,115.79l17.23,9.6a1.45,1.45,0,0,1,.64,2,1.47,1.47,0,0,1-.64.64l-17.23,9.61a1.63,1.63,0,0,1-2.23-.59,1.74,1.74,0,0,1-.21-.63V117.31C39.58,115.94,40.8,115,41.71,115.79Z" fill="#fff"/></svg>