<?xml version="1.0" encoding="UTF-8"?>
<svg xmlns="http://www.w3.org/2000/svg" width="865.76" height="682.89" viewBox="0 0 865.76 682.89">
  <path d="M536.47,162.81A46.7,46.7,0,1,1,472,148.6,46.7,46.7,0,0,1,536.47,162.81Z" fill="#64af65"></path>
  <g opacity="0.1">
    <path d="M472,148.6a46.7,46.7,0,0,0-14.19,64.5s28.43-16.42,28-31.82S472,148.6,472,148.6Z" fill="#fff"></path>
  </g>
  <path d="M526,168.61a35.5,35.5,0,1,1-49-10.8,35.51,35.51,0,0,1,49,10.8Z" fill="#64af65"></path>
  <g opacity="0.2">
    <path d="M526,168.61a35.5,35.5,0,1,1-49-10.8,35.51,35.51,0,0,1,49,10.8Z"></path>
  </g>
  <path d="M527.65,169.33a35,35,0,1,1-48.39-10.7,35,35,0,0,1,48.39,10.7Z" fill="#64af65"></path>
  <g opacity="0.2">
    <path d="M527.65,169.33a35,35,0,1,1-48.39-10.7,35,35,0,0,1,48.39,10.7Z" fill="#fff"></path>
  </g>
  <path d="M497.67,184.87l-4.81-7.55h0a18.22,18.22,0,0,1,4.67-1.51,14.55,14.55,0,0,1,2.64,0l-.05-.29-.57-3.47-.13-.8-2.26-.56-.45.72a16.37,16.37,0,0,0-6.48,1.91l-2.65-4.16-1.93-.24.64,1.07-1.82,1.08,2.7,4.24c-5.46,4.28-6.11,9.38-3.68,13.19,3.31,5.19,8.64,3.7,13.44,2.06l4.78,7.48A16.93,16.93,0,0,1,492.4,200l.76,4.9A19.33,19.33,0,0,0,504.33,202l2,3.14-1.44,1,2.1.06,3.06-2-2.68-4.18c5.5-4.36,6.19-9.44,3.76-13.25C507.84,181.65,502.47,183.23,497.67,184.87Zm-3.57,1.18c-2.57.75-4.68,1-5.85-.84s-.79-3.72,1.6-5.82Zm10.69,10-4.22-6.61c2.65-.8,4.82-1.06,6,.83,1,1.61.68,3.62-1.8,5.78Z" fill="#64af65"></path>
  <g opacity="0.3">
    <path d="M497.67,184.87l-4.81-7.55h0a18.22,18.22,0,0,1,4.67-1.51,14.55,14.55,0,0,1,2.64,0l-.05-.29-.57-3.47-.13-.8-2.26-.56-.45.72a16.37,16.37,0,0,0-6.48,1.91l-2.65-4.16-1.93-.24.64,1.07-1.82,1.08,2.7,4.24c-5.46,4.28-6.11,9.38-3.68,13.19,3.31,5.19,8.64,3.7,13.44,2.06l4.78,7.48A16.93,16.93,0,0,1,492.4,200l.76,4.9A19.33,19.33,0,0,0,504.33,202l2,3.14-1.44,1,2.1.06,3.06-2-2.68-4.18c5.5-4.36,6.19-9.44,3.76-13.25C507.84,181.65,502.47,183.23,497.67,184.87Zm-3.57,1.18c-2.57.75-4.68,1-5.85-.84s-.79-3.72,1.6-5.82Zm10.69,10-4.22-6.61c2.65-.8,4.82-1.06,6,.83,1,1.61.68,3.62-1.8,5.78Z"></path>
  </g>
  <path d="M505.48,199.88l2.68,4.2-3.07,2-2.65-4.15a19.6,19.6,0,0,1-11.16,2.75l-.75-4.91a17.16,17.16,0,0,0,9.3-1.92l-4.78-7.5c-4.79,1.65-10.11,3.15-13.43-2.05-2.49-3.88-1.8-8.92,3.68-13.21l-2.71-4.23,3.07-2,2.66,4.16a19.05,19.05,0,0,1,9.05-2.57l.91,4.81a18.39,18.39,0,0,0-7.35,1.85l4.83,7.55c4.8-1.64,10.17-3.22,13.49,2C511.68,190.45,511,195.53,505.48,199.88Zm-13.3-14-4.25-6.67c-2.34,2.08-2.66,4.18-1.61,5.83s3.29,1.59,5.86.84Zm12.48,4.2c-1.17-1.83-3.33-1.6-6-.85l4.23,6.63c2.46-2.15,2.81-4.17,1.78-5.78Z" fill="#64af65"></path>
  <path d="M475.39,227.83a3.34,3.34,0,0,1-.38-.19l-1-.59c-.46-.26-1-.59-1.63-1s-1.34-.87-2.07-1.45c-.38-.3-.76-.59-1.18-.9s-.79-.67-1.23-1.06c-.86-.7-1.69-1.53-2.58-2.4A46,46,0,0,1,456.09,207a33.7,33.7,0,0,1-1.35-3.25,13.46,13.46,0,0,1-.53-1.48c-.13-.45-.31-1-.43-1.42-.31-.87-.47-1.72-.66-2.43a17.5,17.5,0,0,1-.38-1.89c-.08-.52-.14-.88-.2-1.18a1.53,1.53,0,0,1,0-.43,2,2,0,0,1,.11.42c.06.3.15.69.25,1.17s.25,1.14.45,1.84.38,1.56.69,2.44l.44,1.39c.17.49.38,1,.55,1.47.37,1,.87,2.08,1.37,3.22a56.43,56.43,0,0,0,4,7,54,54,0,0,0,5.13,6.17c.88.85,1.69,1.69,2.54,2.4.41.37.81.73,1.22,1.07l1.15.91c.72.59,1.42,1.05,2,1.48s1.14.79,1.59,1.06l1,.65A1.42,1.42,0,0,1,475.39,227.83Z" fill="#fff"></path>
  <path d="M486.19,189.79a3,3,0,0,1-1.41-.3,5.47,5.47,0,0,1-3.38-5.72,2.93,2.93,0,0,1,.42-1.41,7.82,7.82,0,0,0-.18,1.43,5.73,5.73,0,0,0,3.24,5.48C485.66,189.65,486.21,189.73,486.19,189.79Z" fill="#fff"></path>
  <path d="M485.56,174.06a6.32,6.32,0,0,1-1.61-2.51c.09-.05.5.45.94,1.14A3.25,3.25,0,0,1,485.56,174.06Z" fill="#fff"></path>
  <path d="M479.19,155.31a6.16,6.16,0,0,1-1,.59l-1.14.67-1.52.9a9.06,9.06,0,0,0-1.75,1.23c-.58.54-1.22,1-1.93,1.51a41.33,41.33,0,0,0-4,3.95,38.87,38.87,0,0,0-3.34,4.53c-.44.74-.93,1.45-1.23,2.11s-.69,1.32-1,1.91-.51,1.14-.71,1.62-.38.9-.5,1.24a5,5,0,0,1-.43,1.05,10.34,10.34,0,0,1,.3-1.09c.11-.36.25-.79.44-1.27s.39-1,.67-1.65.56-1.26.93-1.94.78-1.4,1.21-2.16a38.26,38.26,0,0,1,3.35-4.57,38.82,38.82,0,0,1,4-4c.69-.55,1.32-1.09,2-1.52s1.27-.87,1.79-1.2,1.09-.64,1.54-.9l1.15-.68Z" fill="#fff"></path>
  <path d="M525.75,222.22a4.34,4.34,0,0,1-.58.63,18.64,18.64,0,0,1-1.74,1.58,33.54,33.54,0,0,1-6.43,4.23,34.12,34.12,0,0,1-7.33,2.7c-1,.21-1.76.38-2.31.44a4.12,4.12,0,0,1-.86.09,4,4,0,0,1,.84-.22c.54-.11,1.32-.3,2.27-.56a38.56,38.56,0,0,0,7.19-2.73,39,39,0,0,0,6.49-4.13c.77-.62,1.38-1.14,1.81-1.5A3.35,3.35,0,0,1,525.75,222.22Z" fill="#fff"></path>
  <path d="M248,290.2a46.7,46.7,0,1,1-49.86-43.32A46.71,46.71,0,0,1,248,290.2Z" fill="#64af65"></path>
  <g opacity="0.1">
    <path d="M198.18,246.88a46.7,46.7,0,0,0-43.31,49.86s32.83-.82,39.78-14.57S198.18,246.88,198.18,246.88Z" fill="#fff"></path>
  </g>
  <path d="M236.08,290.3a35.5,35.5,0,1,1-37.9-32.93,35.5,35.5,0,0,1,37.9,32.93Z" fill="#64af65"></path>
  <g opacity="0.2">
    <path d="M236.08,290.3a35.5,35.5,0,1,1-37.9-32.93,35.5,35.5,0,0,1,37.9,32.93Z"></path>
  </g>
  <path d="M237.18,291.71a35,35,0,1,1-37.39-32.54,35,35,0,0,1,37.39,32.54Z" fill="#64af65"></path>
  <g opacity="0.2">
    <path d="M237.18,291.71a35,35,0,1,1-37.39-32.54,35,35,0,0,1,37.39,32.54Z" fill="#fff"></path>
  </g>
  <path d="M203.42,291l-.62-8.93h0a18.08,18.08,0,0,1,4.83.9,13.65,13.65,0,0,1,2.32,1.25l.1-.28,1.16-3.32.26-.76-1.71-1.57-.74.41a16.36,16.36,0,0,0-6.61-1.42l-.34-4.92-1.58-1.13,0,1.24-2.11.07.35,5c-6.85,1.15-9.86,5.32-9.55,9.83.43,6.14,5.83,7.38,10.83,8.23l.62,8.86a16.91,16.91,0,0,1-9.1-2.76l-1.68,4.67a19.31,19.31,0,0,0,11.16,2.87l.25,3.72-1.72.15,1.81,1.06L205,314l-.36-4.95c6.91-1.2,9.95-5.34,9.64-9.85C213.89,293.06,208.42,291.88,203.42,291Zm-3.7-.67c-2.62-.57-4.59-1.38-4.74-3.54s1.09-3.64,4.19-4.35Zm4.62,13.86-.55-7.82c2.71.56,4.74,1.37,4.9,3.61.12,1.9-1.14,3.5-4.35,4.21Z" fill="#64af65"></path>
  <g opacity="0.3">
    <path d="M203.42,291l-.62-8.93h0a18.08,18.08,0,0,1,4.83.9,13.65,13.65,0,0,1,2.32,1.25l.1-.28,1.16-3.32.26-.76-1.71-1.57-.74.41a16.36,16.36,0,0,0-6.61-1.42l-.34-4.92-1.58-1.13,0,1.24-2.11.07.35,5c-6.85,1.15-9.86,5.32-9.55,9.83.43,6.14,5.83,7.38,10.83,8.23l.62,8.86a16.91,16.91,0,0,1-9.1-2.76l-1.68,4.67a19.31,19.31,0,0,0,11.16,2.87l.25,3.72-1.72.15,1.81,1.06L205,314l-.36-4.95c6.91-1.2,9.95-5.34,9.64-9.85C213.89,293.06,208.42,291.88,203.42,291Zm-3.7-.67c-2.62-.57-4.59-1.38-4.74-3.54s1.09-3.64,4.19-4.35Zm4.62,13.86-.55-7.82c2.71.56,4.74,1.37,4.9,3.61.12,1.9-1.14,3.5-4.35,4.21Z"></path>
  </g>
  <path d="M203.1,307.94l.35,5-3.64.25-.34-4.91a19.71,19.71,0,0,1-11.12-2.92l1.68-4.68a17.23,17.23,0,0,0,9.1,2.76l-.62-8.87c-5-.84-10.38-2.06-10.81-8.22-.33-4.6,2.68-8.69,9.55-9.84l-.36-5,3.63-.25.35,4.93a19.05,19.05,0,0,1,9.17,2.06l-1.49,4.67a18.57,18.57,0,0,0-7.35-1.9l.64,8.95c5,.85,10.47,2,10.9,8.19C213.05,302.63,210,306.75,203.1,307.94Zm-5-18.7-.55-7.88c-3.05.7-4.33,2.39-4.2,4.34s2.13,3,4.75,3.54Zm9,9.66c-.15-2.17-2.16-3-4.88-3.62l.56,7.85c3.19-.72,4.45-2.33,4.32-4.23Z" fill="#64af65"></path>
  <path d="M163.31,318.11a3.75,3.75,0,0,1-.24-.35l-.64-1c-.27-.44-.6-1-1-1.66s-.75-1.41-1.12-2.27c-.19-.44-.39-.88-.6-1.35s-.38-1-.58-1.52c-.42-1-.75-2.15-1.12-3.34a46.25,46.25,0,0,1-1.76-16c.1-1.23.18-2.42.37-3.5.08-.56.13-1.08.24-1.55s.2-1,.3-1.46c.16-.91.42-1.73.59-2.45s.39-1.33.57-1.83.29-.84.39-1.14a1.71,1.71,0,0,1,.17-.39,1.58,1.58,0,0,1-.09.42c-.1.3-.21.68-.35,1.15s-.33,1.12-.48,1.83-.41,1.55-.56,2.47c-.09.46-.18.94-.28,1.44s-.13,1-.22,1.54c-.16,1.09-.23,2.26-.34,3.49a55,55,0,0,0,.21,8,51.42,51.42,0,0,0,1.55,7.87c.36,1.17.68,2.3,1.08,3.33.19.52.36,1,.56,1.52l.57,1.35c.36.86.75,1.6,1.08,2.27s.63,1.24.89,1.69l.58,1.06A1.21,1.21,0,0,1,163.31,318.11Z" fill="#fff"></path>
  <path d="M191,289.86a3,3,0,0,1-1.1-.94,5.59,5.59,0,0,1-1.23-3.28,5.65,5.65,0,0,1,1-3.36,3,3,0,0,1,1-1,8.14,8.14,0,0,0-.83,1.17,5.71,5.71,0,0,0,.22,6.36C190.58,289.48,191,289.82,191,289.86Z" fill="#fff"></path>
  <path d="M197.94,275.74a3.35,3.35,0,0,1-.28-1.43,3.48,3.48,0,0,1,.07-1.54c.11,0,.23.64.28,1.45A3.13,3.13,0,0,1,197.94,275.74Z" fill="#fff"></path>
  <path d="M201.32,256.23a5.54,5.54,0,0,1-1.15,0l-1.32.05-1.77.06a9.86,9.86,0,0,0-2.13.24c-.76.2-1.53.26-2.41.41a41.57,41.57,0,0,0-5.39,1.56A38.84,38.84,0,0,0,182,261c-.73.44-1.5.83-2.09,1.27s-1.23.83-1.76,1.21-1,.76-1.39,1.08-.76.61-1,.86a5.12,5.12,0,0,1-.88.72,7.46,7.46,0,0,1,.78-.81c.27-.27.6-.58,1-.92s.84-.73,1.38-1.12,1.09-.84,1.74-1.26l2.09-1.32a37.45,37.45,0,0,1,5.13-2.41,39.8,39.8,0,0,1,5.45-1.55c.88-.15,1.68-.32,2.45-.39s1.53-.16,2.15-.2l1.78-.06,1.34-.05Z" fill="#fff"></path>
  <path d="M210.22,337.26a4.71,4.71,0,0,1-.8.27,20.12,20.12,0,0,1-2.29.56,34,34,0,0,1-15.4-.49c-.95-.28-1.73-.51-2.24-.72a5.6,5.6,0,0,1-.8-.33,3.43,3.43,0,0,1,.84.2c.53.17,1.31.37,2.27.6a37.64,37.64,0,0,0,15.29.51c1-.17,1.76-.34,2.31-.45A2.83,2.83,0,0,1,210.22,337.26Z" fill="#fff"></path>
  <path d="M338.79,159.94a27.61,27.61,0,1,1-29.48-25.61A27.61,27.61,0,0,1,338.79,159.94Z" fill="#64af65"></path>
  <g opacity="0.1">
    <path d="M309.31,134.33a27.61,27.61,0,0,0-25.6,29.48s19.4-.49,23.51-8.62S309.31,134.33,309.31,134.33Z" fill="#fff"></path>
  </g>
  <path d="M331.71,160a21,21,0,1,1-22.4-19.47A21,21,0,0,1,331.71,160Z" fill="#64af65"></path>
  <g opacity="0.2">
    <path d="M331.71,160a21,21,0,1,1-22.4-19.47A21,21,0,0,1,331.71,160Z"></path>
  </g>
  <path d="M332.36,160.83a20.7,20.7,0,1,1-22.1-19.23,20.69,20.69,0,0,1,22.1,19.23Z" fill="#64af65"></path>
  <g opacity="0.2">
    <path d="M332.36,160.83a20.7,20.7,0,1,1-22.1-19.23,20.69,20.69,0,0,1,22.1,19.23Z" fill="#fff"></path>
  </g>
  <path d="M312.41,160.43l-.37-5.28h0a10.64,10.64,0,0,1,2.85.54,8.29,8.29,0,0,1,1.38.73l.05-.17.69-2,.16-.45-1-.93-.43.25a9.58,9.58,0,0,0-3.91-.84l-.2-2.91-.93-.67,0,.74-1.24,0,.2,3c-4.05.67-5.83,3.14-5.64,5.8.25,3.63,3.44,4.37,6.4,4.87l.36,5.24a10,10,0,0,1-5.37-1.63l-1,2.76a11.54,11.54,0,0,0,6.6,1.7l.15,2.19-1,.09,1.07.63,2.15-.16-.21-2.93c4.09-.71,5.88-3.15,5.7-5.82C318.59,161.63,315.36,160.93,312.41,160.43Zm-2.19-.4c-1.55-.33-2.71-.81-2.8-2.09s.64-2.15,2.47-2.57Zm2.73,8.2-.32-4.63c1.6.34,2.8.81,2.89,2.14.08,1.12-.67,2.07-2.57,2.49Z" fill="#64af65"></path>
  <g opacity="0.3">
    <path d="M312.41,160.43l-.37-5.28h0a10.64,10.64,0,0,1,2.85.54,8.29,8.29,0,0,1,1.38.73l.05-.17.69-2,.16-.45-1-.93-.43.25a9.58,9.58,0,0,0-3.91-.84l-.2-2.91-.93-.67,0,.74-1.24,0,.2,3c-4.05.67-5.83,3.14-5.64,5.8.25,3.63,3.44,4.37,6.4,4.87l.36,5.24a10,10,0,0,1-5.37-1.63l-1,2.76a11.54,11.54,0,0,0,6.6,1.7l.15,2.19-1,.09,1.07.63,2.15-.16-.21-2.93c4.09-.71,5.88-3.15,5.7-5.82C318.59,161.63,315.36,160.93,312.41,160.43Zm-2.19-.4c-1.55-.33-2.71-.81-2.8-2.09s.64-2.15,2.47-2.57Zm2.73,8.2-.32-4.63c1.6.34,2.8.81,2.89,2.14.08,1.12-.67,2.07-2.57,2.49Z"></path>
  </g>
  <path d="M312.22,170.43l.2,2.94-2.15.15-.2-2.91a11.53,11.53,0,0,1-6.57-1.72l1-2.76a10.29,10.29,0,0,0,5.38,1.63l-.37-5.25c-2.95-.49-6.13-1.22-6.39-4.86-.19-2.72,1.59-5.14,5.65-5.81l-.22-3,2.15-.15.21,2.91a11.33,11.33,0,0,1,5.42,1.22l-.88,2.76a10.94,10.94,0,0,0-4.34-1.12l.37,5.29c3,.5,6.19,1.2,6.45,4.84C318.1,167.29,316.3,169.72,312.22,170.43Zm-2.93-11.06-.33-4.66c-1.81.42-2.56,1.42-2.49,2.57s1.27,1.76,2.82,2.09Zm5.29,5.71c-.09-1.28-1.28-1.77-2.89-2.14l.33,4.64c1.89-.42,2.63-1.37,2.56-2.5Z" fill="#64af65"></path>
  <path d="M288.7,176.44a2.09,2.09,0,0,1-.15-.21l-.37-.6c-.17-.26-.36-.59-.57-1s-.44-.83-.66-1.34c-.11-.26-.23-.52-.36-.8s-.22-.58-.34-.9c-.25-.61-.44-1.27-.66-2a27.17,27.17,0,0,1-1-9.45c.06-.73.11-1.43.22-2.08,0-.32.08-.63.14-.91s.12-.59.18-.86c.09-.54.25-1,.35-1.45a11.12,11.12,0,0,1,.33-1.08c.11-.3.18-.5.24-.68a.67.67,0,0,1,.1-.23,1,1,0,0,1-.06.25c-.06.17-.12.4-.2.68s-.2.66-.29,1.08-.24.92-.33,1.46c-.05.28-.11.56-.16.85s-.08.61-.14.92c-.09.64-.13,1.33-.2,2.06a34.08,34.08,0,0,0,.12,4.74,31.87,31.87,0,0,0,.92,4.65c.22.69.4,1.36.64,2,.12.31.22.6.34.9l.33.8c.21.51.45.94.64,1.34s.37.73.53,1l.34.62A1.63,1.63,0,0,1,288.7,176.44Z" fill="#fff"></path>
  <path d="M305.05,159.74a1.75,1.75,0,0,1-.65-.56,3.22,3.22,0,0,1-.13-3.92,1.73,1.73,0,0,1,.61-.62,4.46,4.46,0,0,0-.49.69,3.39,3.39,0,0,0,.13,3.76C304.82,159.51,305.08,159.71,305.05,159.74Z" fill="#fff"></path>
  <path d="M309.17,151.39a1.88,1.88,0,0,1-.17-.85,2.15,2.15,0,0,1,0-.91c.07,0,.14.38.17.86A1.83,1.83,0,0,1,309.17,151.39Z" fill="#fff"></path>
  <path d="M311.17,139.86a3.19,3.19,0,0,1-.69,0l-.78,0-1,0a5.9,5.9,0,0,0-1.26.15c-.45.11-.9.15-1.43.24a21.43,21.43,0,0,0-6.2,2.33c-.44.26-.89.49-1.24.75s-.73.49-1,.72-.58.45-.82.64l-.61.5a3.6,3.6,0,0,1-.52.43,5.22,5.22,0,0,1,.46-.48c.16-.16.36-.34.59-.54s.5-.44.82-.67.64-.49,1-.74l1.23-.78a22.76,22.76,0,0,1,3-1.43,22.3,22.3,0,0,1,3.22-.91c.51-.09,1-.19,1.45-.23s.9-.1,1.27-.12l1.05,0,.79,0Z" fill="#fff"></path>
  <path d="M316.43,187.76a3,3,0,0,1-.48.16,10.23,10.23,0,0,1-1.35.33,19.68,19.68,0,0,1-4.53.38,20.27,20.27,0,0,1-4.58-.67,12.13,12.13,0,0,1-1.32-.43,2.72,2.72,0,0,1-.47-.19,2.15,2.15,0,0,1,.5.12c.31.1.77.22,1.34.35a22.68,22.68,0,0,0,4.5.62,23.8,23.8,0,0,0,4.54-.31l1.36-.27A2,2,0,0,1,316.43,187.76Z" fill="#fff"></path>
  <path d="M206.22,570.12H514.44a0,0,0,0,1,0,0v11.06a0,0,0,0,1,0,0H206.22a4.77,4.77,0,0,1-4.77-4.77v-1.52A4.77,4.77,0,0,1,206.22,570.12Z" fill="#e6e7e8"></path>
  <path d="M752,643.57l-195.22-.94a42.54,42.54,0,0,1-42.34-42.72l2.07-489.41a42.54,42.54,0,0,1,42.73-42.36h.06L754.47,69A42.54,42.54,0,0,1,796.8,111.7l-2.06,489.47a42.53,42.53,0,0,1-42.64,42.4Z" fill="#594440"></path>
  <g opacity="0.2">
    <path d="M752,643.57l-195.22-.94a42.54,42.54,0,0,1-42.34-42.72l2.07-489.41a42.54,42.54,0,0,1,42.73-42.36h.06L754.47,69A42.54,42.54,0,0,1,796.8,111.7l-2.06,489.47a42.53,42.53,0,0,1-42.64,42.4Z"></path>
  </g>
  <path d="M754.19,87.59l-37.79-.18-110.56-.52H592.53l-33.15-.14a29.78,29.78,0,0,0-29.92,29.63v0l-2,477.76a29.78,29.78,0,0,0,29.65,29.91h0l194.85.89a29.77,29.77,0,0,0,29.88-29.67v0l2-477.76a29.77,29.77,0,0,0-29.63-29.92Z" fill="#fafafa"></path>
  <rect x="544.85" y="465.77" width="220.98" height="54.27" rx="9.17" fill="#7f81b4"></rect>
  <rect x="544.53" y="161.87" width="105.04" height="76.91" rx="7.81" fill="#64af65"></rect>
  <rect x="661.26" y="161.87" width="105.04" height="76.91" rx="7.81" fill="#f35733"></rect>
  <path d="M549.94,139.66a3.41,3.41,0,0,1-1.3-1.31,4,4,0,0,1,0-3.79,3.41,3.41,0,0,1,1.3-1.31,3.82,3.82,0,0,1,3.67,0,3.45,3.45,0,0,1,1.3,1.3,3.77,3.77,0,0,1,.47,1.9,3.72,3.72,0,0,1-.47,1.9,3.41,3.41,0,0,1-1.3,1.31,3.82,3.82,0,0,1-3.67,0Zm3.19-.7a2.48,2.48,0,0,0,1-1,3.52,3.52,0,0,0,0-3,2.54,2.54,0,0,0-1-1,2.82,2.82,0,0,0-2.72,0,2.61,2.61,0,0,0-.95,1,3.52,3.52,0,0,0,0,3,2.55,2.55,0,0,0,.95,1,2.82,2.82,0,0,0,2.72,0Z" fill="#594440"></path>
  <path d="M559.35,139.19l1.75-4.79h1l-2.22,5.66h-1.09l-2.22-5.66h1Z" fill="#594440"></path>
  <path d="M568.78,137.58h-4.52a1.86,1.86,0,0,0,.57,1.3,1.8,1.8,0,0,0,1.27.47,1.77,1.77,0,0,0,1-.28,1.5,1.5,0,0,0,.57-.76h1a2.38,2.38,0,0,1-.91,1.33,2.74,2.74,0,0,1-1.69.51,2.85,2.85,0,0,1-1.44-.36,2.61,2.61,0,0,1-1-1,3.18,3.18,0,0,1-.36-1.54,3.27,3.27,0,0,1,.35-1.54,2.5,2.5,0,0,1,1-1,2.9,2.9,0,0,1,1.46-.35,2.75,2.75,0,0,1,1.42.35,2.4,2.4,0,0,1,1,1,2.91,2.91,0,0,1,.33,1.39Q568.81,137.28,568.78,137.58Zm-1.17-1.69a1.61,1.61,0,0,0-.65-.59,2,2,0,0,0-.9-.2,1.73,1.73,0,0,0-1.22.46,1.86,1.86,0,0,0-.57,1.26h3.57A1.83,1.83,0,0,0,567.61,135.89Z" fill="#594440"></path>
  <path d="M572.32,134.56a2.26,2.26,0,0,1,1.12-.26v1h-.25c-1.05,0-1.58.57-1.58,1.71v3.08h-.94V134.4h.94v.92A1.86,1.86,0,0,1,572.32,134.56Z" fill="#594440"></path>
  <path d="M577.25,139.19,579,134.4h1l-2.21,5.66h-1.1l-2.22-5.66h1Z" fill="#594440"></path>
  <path d="M581.58,133.3a.65.65,0,0,1-.18-.46.61.61,0,0,1,.18-.45.62.62,0,0,1,.46-.19.58.58,0,0,1,.44.19.61.61,0,0,1,.18.45.65.65,0,0,1-.18.46.6.6,0,0,1-.44.18A.65.65,0,0,1,581.58,133.3Zm.91,1.1v5.66h-.94V134.4Z" fill="#594440"></path>
  <path d="M589.84,137.58h-4.52a1.78,1.78,0,0,0,.57,1.3,1.8,1.8,0,0,0,1.27.47,1.72,1.72,0,0,0,1-.28,1.46,1.46,0,0,0,.58-.76h1a2.43,2.43,0,0,1-.91,1.33,2.74,2.74,0,0,1-1.69.51,2.85,2.85,0,0,1-1.44-.36,2.54,2.54,0,0,1-1-1,3.18,3.18,0,0,1-.36-1.54,3.27,3.27,0,0,1,.35-1.54,2.43,2.43,0,0,1,1-1,2.9,2.9,0,0,1,1.46-.35,2.77,2.77,0,0,1,1.42.35,2.46,2.46,0,0,1,1,1,2.91,2.91,0,0,1,.33,1.39Q589.87,137.28,589.84,137.58Zm-1.18-1.69a1.52,1.52,0,0,0-.64-.59,2,2,0,0,0-.9-.2,1.73,1.73,0,0,0-1.22.46,1.86,1.86,0,0,0-.57,1.26h3.57A1.74,1.74,0,0,0,588.66,135.89Z" fill="#594440"></path>
  <path d="M599.27,134.4l-1.77,5.66h-1l-1.36-4.49-1.36,4.49h-1l-1.78-5.66h1l1.3,4.75,1.4-4.75h1l1.38,4.76,1.28-4.76Z" fill="#594440"></path>
  <path d="M563.91,221.17a2.8,2.8,0,0,1-1,1,3.33,3.33,0,0,1-1.52.48v1.1h-.88v-1.1a3.57,3.57,0,0,1-2-.79,2.25,2.25,0,0,1-.78-1.79h1.65a1.47,1.47,0,0,0,.33.87,1.37,1.37,0,0,0,.85.44v-3a11.92,11.92,0,0,1-1.47-.46,2.33,2.33,0,0,1-1-.75,2.21,2.21,0,0,1-.4-1.41,2.44,2.44,0,0,1,.78-1.85,3.37,3.37,0,0,1,2-.86V212h.88v1.09a3.2,3.2,0,0,1,1.91.75,2.57,2.57,0,0,1,.82,1.76H562.5a1.33,1.33,0,0,0-.32-.75,1.43,1.43,0,0,0-.76-.45v2.92a9.35,9.35,0,0,1,1.47.45,2.31,2.31,0,0,1,1,.74,2.24,2.24,0,0,1,.39,1.4A2.59,2.59,0,0,1,563.91,221.17Zm-4.3-4.59a2.54,2.54,0,0,0,.93.5v-2.73a1.49,1.49,0,0,0-.92.42,1.28,1.28,0,0,0-.34.94A1.15,1.15,0,0,0,559.61,216.58Zm2.74,4.32a1.31,1.31,0,0,0,.34-.92,1.08,1.08,0,0,0-.33-.84,2.37,2.37,0,0,0-.94-.5v2.74A1.45,1.45,0,0,0,562.35,220.9Z" fill="#fff"></path>
  <path d="M568.23,213.2a3.56,3.56,0,0,1,2.26-.7,3.64,3.64,0,0,1,1.64.34,2.38,2.38,0,0,1,1,.92,2.41,2.41,0,0,1,.36,1.31,2.32,2.32,0,0,1-.45,1.43,2.15,2.15,0,0,1-1.07.79v.06a2.24,2.24,0,0,1,1.25.88,2.88,2.88,0,0,1,.44,1.64,2.8,2.8,0,0,1-.36,1.42,2.64,2.64,0,0,1-1.08,1,3.8,3.8,0,0,1-1.72.36,3.69,3.69,0,0,1-2.39-.75,2.79,2.79,0,0,1-1-2.16h1.49a1.67,1.67,0,0,0,.55,1.17,1.93,1.93,0,0,0,1.35.45,1.71,1.71,0,0,0,1.27-.45,1.58,1.58,0,0,0,.44-1.17,1.49,1.49,0,0,0-.6-1.34,3.33,3.33,0,0,0-1.84-.4h-.35v-1.27h.36a3.37,3.37,0,0,0,1.67-.36,1.21,1.21,0,0,0,.57-1.11,1.31,1.31,0,0,0-.41-1,1.69,1.69,0,0,0-1.19-.39,1.66,1.66,0,0,0-1.18.39,1.61,1.61,0,0,0-.5.95h-1.49A2.57,2.57,0,0,1,568.23,213.2Z" fill="#fff"></path>
  <path d="M582.47,214.05h-4.53v2.69a2.24,2.24,0,0,1,.85-.64,2.82,2.82,0,0,1,1.19-.25,3.18,3.18,0,0,1,1.85.49,2.7,2.7,0,0,1,1,1.22,4.18,4.18,0,0,1,.3,1.57,4,4,0,0,1-.38,1.77,2.9,2.9,0,0,1-1.15,1.23,3.72,3.72,0,0,1-1.87.44,3.58,3.58,0,0,1-2.36-.73,2.93,2.93,0,0,1-1.07-1.93h1.5a1.68,1.68,0,0,0,.66,1,2.11,2.11,0,0,0,1.28.37,1.78,1.78,0,0,0,1.44-.58,2.34,2.34,0,0,0,.48-1.54,2.06,2.06,0,0,0-.49-1.49,1.84,1.84,0,0,0-1.43-.52,1.76,1.76,0,0,0-1.76,1.23h-1.46V212.7h5.94Z" fill="#fff"></path>
  <path d="M585.37,220.52v-1.16l4.53-6.51h1.87v6.33H593v1.34h-1.25v2h-1.51v-2Zm5-6.1-3.18,4.76h3.18Z" fill="#fff"></path>
  <path d="M597,220.72l-1.63,3.73h-1l1-3.73Z" fill="#fff"></path>
  <path d="M599.8,220.48c.86-.75,1.54-1.36,2-1.84a8.55,8.55,0,0,0,1.25-1.51,2.82,2.82,0,0,0,.5-1.56,1.92,1.92,0,0,0-.38-1.27,1.48,1.48,0,0,0-1.21-.46,1.59,1.59,0,0,0-1.24.5,2.14,2.14,0,0,0-.46,1.36h-1.49a3.31,3.31,0,0,1,5.48-2.36,2.89,2.89,0,0,1,.83,2.16,3.83,3.83,0,0,1-.5,1.87,6.94,6.94,0,0,1-1.17,1.6c-.45.48-1,1-1.73,1.64l-.61.54h4.28v1.29h-6.56v-1.12Z" fill="#fff"></path>
  <path d="M607.8,215.21a2.47,2.47,0,0,1,.37-1.33,2.53,2.53,0,0,1,1.09-1,4.58,4.58,0,0,1,3.56,0,2.5,2.5,0,0,1,1.1,1,2.55,2.55,0,0,1,.36,1.33,2.28,2.28,0,0,1-.38,1.33,2.58,2.58,0,0,1-1,.89,2.44,2.44,0,0,1,1.21.92,2.57,2.57,0,0,1,.45,1.51,2.74,2.74,0,0,1-.45,1.55,2.83,2.83,0,0,1-1.24,1,4.71,4.71,0,0,1-3.61,0,2.8,2.8,0,0,1-1.23-1,2.74,2.74,0,0,1-.45-1.55,2.52,2.52,0,0,1,.45-1.51,2.41,2.41,0,0,1,1.2-.92A2.33,2.33,0,0,1,607.8,215.21Zm1.79,3.33a1.52,1.52,0,0,0-.56,1.26,1.58,1.58,0,0,0,.54,1.25,2.13,2.13,0,0,0,1.47.48,2.06,2.06,0,0,0,1.45-.48,1.61,1.61,0,0,0,.54-1.25,1.49,1.49,0,0,0-.55-1.25,2.18,2.18,0,0,0-1.44-.45A2.32,2.32,0,0,0,609.59,218.54Zm2.75-4.3a1.94,1.94,0,0,0-1.3-.4,1.91,1.91,0,0,0-1.28.4,1.48,1.48,0,0,0-.47,1.18,1.39,1.39,0,0,0,.49,1.1,1.88,1.88,0,0,0,1.26.42,1.84,1.84,0,0,0,1.27-.43,1.39,1.39,0,0,0,.5-1.11A1.46,1.46,0,0,0,612.34,214.24Z" fill="#fff"></path>
  <path d="M617.76,213.87a3.46,3.46,0,0,1,5.44,0,7.09,7.09,0,0,1,.79,3.65,7.18,7.18,0,0,1-.79,3.69,3.45,3.45,0,0,1-5.44,0,7.18,7.18,0,0,1-.79-3.69A7.09,7.09,0,0,1,617.76,213.87Zm4.58,1.8a2.52,2.52,0,0,0-.58-1.23,1.95,1.95,0,0,0-2.56,0,2.52,2.52,0,0,0-.58,1.23,10.73,10.73,0,0,0-.14,1.85,11.11,11.11,0,0,0,.14,1.9,2.42,2.42,0,0,0,.57,1.25,2,2,0,0,0,2.58,0,2.42,2.42,0,0,0,.57-1.25,11.11,11.11,0,0,0,.14-1.9A10.73,10.73,0,0,0,622.34,215.67Z" fill="#fff"></path>
  <path d="M558.37,198.2v6.09h-.8V198.2Z" fill="#fff"></path>
  <path d="M564,199.94a2,2,0,0,1,.54,1.53v2.82h-.78v-2.71a1.55,1.55,0,0,0-.36-1.1,1.3,1.3,0,0,0-1-.38,1.29,1.29,0,0,0-1,.4,1.58,1.58,0,0,0-.37,1.14v2.65h-.8V199.5h.8v.68a1.68,1.68,0,0,1,.64-.57,2,2,0,0,1,.9-.2A1.94,1.94,0,0,1,564,199.94Z" fill="#fff"></path>
  <path d="M566.36,200.59a2.13,2.13,0,0,1,.82-.86,2.61,2.61,0,0,1,2.67.12,2,2,0,0,1,.75,1.19h-.85a1.22,1.22,0,0,0-.48-.69,1.46,1.46,0,0,0-.88-.26,1.42,1.42,0,0,0-1.1.47,1.9,1.9,0,0,0-.42,1.32,1.94,1.94,0,0,0,.42,1.34,1.39,1.39,0,0,0,1.1.47,1.54,1.54,0,0,0,.88-.24,1.27,1.27,0,0,0,.48-.7h.85a2.06,2.06,0,0,1-.77,1.17,2.25,2.25,0,0,1-1.44.45,2.45,2.45,0,0,1-1.21-.31,2.09,2.09,0,0,1-.82-.87,3,3,0,0,1,0-2.6Z" fill="#fff"></path>
  <path d="M573.05,204.06a2.1,2.1,0,0,1-.85-.87,2.62,2.62,0,0,1-.31-1.31,2.5,2.5,0,0,1,.32-1.29,2.14,2.14,0,0,1,.87-.87,2.49,2.49,0,0,1,1.23-.3,2.54,2.54,0,0,1,1.23.3,2.18,2.18,0,0,1,.87.86,2.64,2.64,0,0,1,.32,1.3,2.52,2.52,0,0,1-.33,1.31,2.25,2.25,0,0,1-.89.87,2.56,2.56,0,0,1-1.24.31A2.51,2.51,0,0,1,573.05,204.06Zm2-.59a1.53,1.53,0,0,0,.6-.61,1.87,1.87,0,0,0,.23-1,1.93,1.93,0,0,0-.22-1,1.45,1.45,0,0,0-.6-.6,1.68,1.68,0,0,0-1.59,0,1.4,1.4,0,0,0-.58.6,1.93,1.93,0,0,0-.22,1,2.13,2.13,0,0,0,.21,1,1.46,1.46,0,0,0,.58.6,1.59,1.59,0,0,0,.78.2A1.73,1.73,0,0,0,575.08,203.47Z" fill="#fff"></path>
  <path d="M585.05,199.64a1.72,1.72,0,0,1,.69.7,2.3,2.3,0,0,1,.25,1.13v2.82h-.78v-2.71a1.55,1.55,0,0,0-.36-1.1,1.23,1.23,0,0,0-1-.38,1.3,1.3,0,0,0-1,.4,1.65,1.65,0,0,0-.37,1.15v2.64h-.78v-2.71a1.55,1.55,0,0,0-.36-1.1,1.23,1.23,0,0,0-.95-.38,1.29,1.29,0,0,0-1,.4,1.65,1.65,0,0,0-.37,1.15v2.64h-.79V199.5h.79v.69a1.63,1.63,0,0,1,.64-.58,1.92,1.92,0,0,1,.87-.2,2.07,2.07,0,0,1,1.07.27,1.65,1.65,0,0,1,.69.8,1.55,1.55,0,0,1,.66-.79,2,2,0,0,1,1-.28A2.14,2.14,0,0,1,585.05,199.64Z" fill="#fff"></path>
  <path d="M592.16,202.19h-3.83a1.6,1.6,0,0,0,.49,1.11,1.55,1.55,0,0,0,1.07.39,1.48,1.48,0,0,0,.86-.24,1.23,1.23,0,0,0,.48-.64h.86a2,2,0,0,1-.77,1.12,2.3,2.3,0,0,1-1.43.44,2.46,2.46,0,0,1-1.22-.31,2.07,2.07,0,0,1-.84-.87,2.62,2.62,0,0,1-.31-1.31,2.74,2.74,0,0,1,.3-1.3,2.09,2.09,0,0,1,.83-.86,2.5,2.5,0,0,1,1.24-.3,2.38,2.38,0,0,1,1.2.3,2.06,2.06,0,0,1,.81.82,2.36,2.36,0,0,1,.29,1.17A4.12,4.12,0,0,1,592.16,202.19Zm-1-1.43a1.3,1.3,0,0,0-.54-.5,1.77,1.77,0,0,0-.77-.17,1.44,1.44,0,0,0-1,.39,1.52,1.52,0,0,0-.49,1.06h3A1.42,1.42,0,0,0,591.16,200.76Z" fill="#fff"></path>
  <path d="M552.11,274a1.73,1.73,0,0,1-.62.64,2.09,2.09,0,0,1-1,.29v.7h-.47v-.7a2.27,2.27,0,0,1-1.3-.51,1.46,1.46,0,0,1-.5-1.13h.84a1.07,1.07,0,0,0,1,1V272a5.89,5.89,0,0,1-.95-.31,1.58,1.58,0,0,1-.61-.49,1.42,1.42,0,0,1-.25-.89,1.53,1.53,0,0,1,.49-1.17,2,2,0,0,1,1.32-.51v-.73h.47v.73a2,2,0,0,1,1.19.47,1.64,1.64,0,0,1,.53,1.08h-.85a1,1,0,0,0-.27-.55,1,1,0,0,0-.6-.33v2.13a7.55,7.55,0,0,1,.94.3,1.4,1.4,0,0,1,.86,1.39A1.61,1.61,0,0,1,552.11,274Zm-2.81-3a2,2,0,0,0,.75.38v-2a1.24,1.24,0,0,0-.73.29.91.91,0,0,0-.27.7A.86.86,0,0,0,549.3,271Zm2,2.93a1,1,0,0,0,.26-.69.8.8,0,0,0-.26-.66,1.89,1.89,0,0,0-.74-.37v2.06A1.19,1.19,0,0,0,551.26,273.89Z" fill="#594440"></path>
  <path d="M554.62,271a1.45,1.45,0,0,1-.27-.89,1.56,1.56,0,0,1,.94-1.45,2.59,2.59,0,0,1,1.13-.23,2.56,2.56,0,0,1,1.13.23,1.51,1.51,0,0,1,.71.6,1.53,1.53,0,0,1,.24.85,1.51,1.51,0,0,1-.27.89,1.61,1.61,0,0,1-.74.56,1.64,1.64,0,0,1,.86.58,1.62,1.62,0,0,1,.32,1,1.72,1.72,0,0,1-.28,1,1.91,1.91,0,0,1-.79.66,2.89,2.89,0,0,1-1.18.23,2.79,2.79,0,0,1-1.16-.23,1.82,1.82,0,0,1-.78-.66,1.72,1.72,0,0,1-.28-1,1.61,1.61,0,0,1,.31-1,1.55,1.55,0,0,1,.86-.58A1.55,1.55,0,0,1,554.62,271Zm.75,1.21a1,1,0,0,0-.41.9,1.12,1.12,0,0,0,.39.9,1.58,1.58,0,0,0,1.07.35,1.57,1.57,0,0,0,1.07-.35,1.12,1.12,0,0,0,.39-.9,1.05,1.05,0,0,0-.4-.89,1.67,1.67,0,0,0-1.06-.31A1.72,1.72,0,0,0,555.37,272.19Zm2-2.83a1.77,1.77,0,0,0-1.91,0,1,1,0,0,0-.35.83,1,1,0,0,0,.36.79,1.64,1.64,0,0,0,1.89,0,1,1,0,0,0,.36-.79A1,1,0,0,0,557.38,269.36Z" fill="#594440"></path>
  <path d="M563.05,274.82l-1.88-2.11v2.11h-.79v-6.46h.79v3.8L563,270h1.11l-2.26,2.38,2.27,2.4Z" fill="#594440"></path>
  <path d="M552.08,300.87a1.78,1.78,0,0,1-.62.63,2,2,0,0,1-1,.29v.71H550v-.71a2.21,2.21,0,0,1-1.29-.51,1.48,1.48,0,0,1-.51-1.12h.85a1.1,1.1,0,0,0,1,1V299a7,7,0,0,1-.94-.3,1.6,1.6,0,0,1-.61-.49,1.42,1.42,0,0,1-.25-.89,1.54,1.54,0,0,1,.49-1.18,2.07,2.07,0,0,1,1.31-.51v-.73h.48v.73a1.92,1.92,0,0,1,1.19.48,1.64,1.64,0,0,1,.53,1.07h-.85a1.08,1.08,0,0,0-.87-.88v2.13a7.34,7.34,0,0,1,.93.3,1.56,1.56,0,0,1,.62.49,1.5,1.5,0,0,1,.25.9A1.73,1.73,0,0,1,552.08,300.87Zm-2.81-3a2,2,0,0,0,.74.37v-2a1.12,1.12,0,0,0-.72.29.87.87,0,0,0-.27.69A.83.83,0,0,0,549.27,297.88Zm2,2.92a1,1,0,0,0,.27-.69.87.87,0,0,0-.26-.66,2.13,2.13,0,0,0-.74-.37v2.06A1.05,1.05,0,0,0,551.22,300.8Z" fill="#594440"></path>
  <path d="M556.5,296a1.31,1.31,0,0,0-1.16.59,3.79,3.79,0,0,0-.37,2,1.46,1.46,0,0,1,.66-.71,2.18,2.18,0,0,1,1-.26,1.92,1.92,0,0,1,1.44.56,2.19,2.19,0,0,1,.53,1.55,2.27,2.27,0,0,1-.23,1.06,1.77,1.77,0,0,1-.7.76,2.53,2.53,0,0,1-2.54-.13,2.05,2.05,0,0,1-.7-1.11,6.21,6.21,0,0,1-.2-1.74c0-2.14.74-3.21,2.23-3.21a1.9,1.9,0,0,1,1.35.47,1.81,1.81,0,0,1,.57,1.16h-.73A1.1,1.1,0,0,0,556.5,296Zm-.7,2.42a1.25,1.25,0,0,0-.53.46,1.33,1.33,0,0,0-.21.76,1.52,1.52,0,0,0,.39,1.08,1.43,1.43,0,0,0,1.1.41,1.3,1.3,0,0,0,1-.38,1.42,1.42,0,0,0,.36-1,1.48,1.48,0,0,0-.35-1.06,1.29,1.29,0,0,0-1-.39A1.74,1.74,0,0,0,555.8,298.38Z" fill="#594440"></path>
  <path d="M563.05,301.74l-1.87-2.12v2.12h-.8v-6.47h.8v3.8L563,297h1.11l-2.26,2.39,2.27,2.4Z" fill="#594440"></path>
  <path d="M552.13,325.81a1.78,1.78,0,0,1-.62.63,2,2,0,0,1-1,.29v.71h-.47v-.71a2.24,2.24,0,0,1-1.3-.51,1.45,1.45,0,0,1-.5-1.12h.84a1.13,1.13,0,0,0,.28.63,1.07,1.07,0,0,0,.68.35v-2.19a7.25,7.25,0,0,1-1-.3,1.6,1.6,0,0,1-.61-.49,1.42,1.42,0,0,1-.25-.89,1.54,1.54,0,0,1,.49-1.18,2.07,2.07,0,0,1,1.32-.51v-.73h.47v.73a1.92,1.92,0,0,1,1.19.48,1.6,1.6,0,0,1,.53,1.07h-.85a1.08,1.08,0,0,0-.87-.88v2.13a8.15,8.15,0,0,1,.94.3,1.6,1.6,0,0,1,.61.49,1.5,1.5,0,0,1,.25.9A1.65,1.65,0,0,1,552.13,325.81Zm-2.81-3a2,2,0,0,0,.75.37v-2a1.19,1.19,0,0,0-.73.3.87.87,0,0,0-.27.69A.83.83,0,0,0,549.32,322.82Zm2,2.92a1,1,0,0,0,.26-.69.87.87,0,0,0-.26-.66,2,2,0,0,0-.74-.37v2.06A1.14,1.14,0,0,0,551.28,325.74Z" fill="#594440"></path>
  <path d="M554,325.27v-.6l3.07-4.25h.95v4.16h.87v.69h-.87v1.41h-.79v-1.41Zm3.27-4L555,324.58h2.35Z" fill="#594440"></path>
  <path d="M563.05,326.68l-1.87-2.12v2.12h-.8v-6.47h.8V324l1.84-2.12h1.11l-2.26,2.39,2.27,2.4Z" fill="#594440"></path>
  <path d="M552.6,352a1.78,1.78,0,0,1-.62.63,2,2,0,0,1-1,.29v.71h-.47v-.71a2.27,2.27,0,0,1-1.3-.51,1.44,1.44,0,0,1-.5-1.12h.84a1.16,1.16,0,0,0,.28.64,1.11,1.11,0,0,0,.68.34v-2.19a7.25,7.25,0,0,1-.95-.3,1.6,1.6,0,0,1-.61-.49,1.42,1.42,0,0,1-.25-.89,1.52,1.52,0,0,1,.49-1.17,2.08,2.08,0,0,1,1.32-.52V346H551v.72a1.92,1.92,0,0,1,1.19.48,1.6,1.6,0,0,1,.53,1.08h-.85a1.05,1.05,0,0,0-.27-.56,1.17,1.17,0,0,0-.6-.33v2.14a5.51,5.51,0,0,1,.94.3,1.48,1.48,0,0,1,.61.48,1.5,1.5,0,0,1,.25.9A1.62,1.62,0,0,1,552.6,352Zm-2.81-3a2,2,0,0,0,.75.37v-2a1.18,1.18,0,0,0-.73.29.89.89,0,0,0-.27.69A.83.83,0,0,0,549.79,349Zm2,2.92a1,1,0,0,0,.26-.69.83.83,0,0,0-.26-.65,1.9,1.9,0,0,0-.74-.38v2.06A1.1,1.1,0,0,0,551.75,351.92Z" fill="#594440"></path>
  <path d="M556.34,350.76a7,7,0,0,0,1.07-1.2,2.18,2.18,0,0,0,.43-1.22,1.33,1.33,0,0,0-.28-.9,1.08,1.08,0,0,0-.88-.33,1.2,1.2,0,0,0-.93.37,1.62,1.62,0,0,0-.35,1h-.77a2.11,2.11,0,0,1,.6-1.51,2.26,2.26,0,0,1,2.87,0,1.79,1.79,0,0,1,.52,1.37,2.61,2.61,0,0,1-.43,1.41,6.17,6.17,0,0,1-1,1.21c-.37.34-.84.75-1.41,1.21h3v.66h-4.2v-.57C555.35,351.63,555.93,351.14,556.34,350.76Z" fill="#594440"></path>
  <path d="M563.05,352.86l-1.88-2.11v2.11h-.79V346.4h.79v3.79l1.85-2.12h1.11l-2.26,2.39,2.27,2.4Z" fill="#594440"></path>
  <path d="M554.83,377.26a1.8,1.8,0,0,1-.62.64,2,2,0,0,1-1,.28v.71h-.48v-.71a2.09,2.09,0,0,1-1.29-.51,1.42,1.42,0,0,1-.5-1.12h.84a1.13,1.13,0,0,0,.28.64,1.11,1.11,0,0,0,.67.34v-2.19a5.83,5.83,0,0,1-.94-.3,1.6,1.6,0,0,1-.61-.49,1.42,1.42,0,0,1-.25-.89,1.53,1.53,0,0,1,.49-1.17,2.07,2.07,0,0,1,1.31-.52v-.72h.48V372a1.92,1.92,0,0,1,1.19.48,1.64,1.64,0,0,1,.53,1.08h-.85a1,1,0,0,0-.87-.88v2.13a8.15,8.15,0,0,1,.94.3,1.48,1.48,0,0,1,.61.48,1.52,1.52,0,0,1,.25.9A1.62,1.62,0,0,1,554.83,377.26Zm-2.81-3a2,2,0,0,0,.74.38v-2a1.24,1.24,0,0,0-.72.29.91.91,0,0,0-.27.7A.82.82,0,0,0,552,374.27Zm2,2.93a1,1,0,0,0,.27-.69.84.84,0,0,0-.26-.66,1.83,1.83,0,0,0-.74-.37v2.06A1.14,1.14,0,0,0,554,377.2Z" fill="#594440"></path>
  <path d="M556.72,372.54v-.72h1.64v6.31h-.8v-5.59Z" fill="#594440"></path>
  <path d="M563.05,378.13,561.18,376v2.11h-.8v-6.46h.8v3.8l1.84-2.13h1.11l-2.26,2.39,2.27,2.4Z" fill="#594440"></path>
  <path d="M580.61,414v4.5a1.6,1.6,0,0,1-.47,1.2,1.67,1.67,0,0,1-1.22.45,1.57,1.57,0,0,1-1.69-1.71H578a1.2,1.2,0,0,0,.23.73.82.82,0,0,0,.67.28.78.78,0,0,0,.66-.27,1,1,0,0,0,.22-.68V414Z" fill="#594440"></path>
  <path d="M582.69,416.43a2.19,2.19,0,0,1,.82-.86,2.28,2.28,0,0,1,1.16-.3,2.12,2.12,0,0,1,1.09.27,1.8,1.8,0,0,1,.69.68v-.87h.8v4.78h-.8v-.89a2,2,0,0,1-.7.7,2.18,2.18,0,0,1-1.09.27,2.13,2.13,0,0,1-1.15-.31,2.21,2.21,0,0,1-.82-.89,2.7,2.7,0,0,1-.29-1.29A2.67,2.67,0,0,1,582.69,416.43Zm3.54.36a1.54,1.54,0,0,0-.59-.62,1.69,1.69,0,0,0-1.63,0,1.49,1.49,0,0,0-.58.61,1.89,1.89,0,0,0-.22.94,2,2,0,0,0,.22,1,1.51,1.51,0,0,0,.58.62,1.69,1.69,0,0,0,1.63,0,1.54,1.54,0,0,0,.59-.62,1.93,1.93,0,0,0,.22-.95A1.89,1.89,0,0,0,586.23,416.79Z" fill="#594440"></path>
  <path d="M592.87,415.79a2,2,0,0,1,.54,1.52v2.82h-.79v-2.71a1.57,1.57,0,0,0-.35-1.09,1.47,1.47,0,0,0-2,0,1.61,1.61,0,0,0-.37,1.15v2.64h-.8v-4.78h.8V416a1.48,1.48,0,0,1,.64-.57,2,2,0,0,1,.89-.2A1.91,1.91,0,0,1,592.87,415.79Z" fill="#594440"></path>
  <path d="M584.11,437v6.09h-.79V437Z" fill="#594440"></path>
  <path d="M589.74,438.71a2.05,2.05,0,0,1,.54,1.53v2.82h-.79v-2.71a1.55,1.55,0,0,0-.35-1.09,1.27,1.27,0,0,0-1-.39,1.31,1.31,0,0,0-1,.4,1.58,1.58,0,0,0-.37,1.14v2.65H586v-4.79h.8V439a1.52,1.52,0,0,1,.64-.56,1.91,1.91,0,0,1,.89-.21A2,2,0,0,1,589.74,438.71Z" fill="#594440"></path>
  <path d="M592.1,439.36a2.15,2.15,0,0,1,.83-.86,2.32,2.32,0,0,1,1.21-.31,2.38,2.38,0,0,1,1.45.43,2,2,0,0,1,.76,1.19h-.86a1.25,1.25,0,0,0-.47-.69,1.47,1.47,0,0,0-.88-.25,1.41,1.41,0,0,0-1.1.46,2.32,2.32,0,0,0,0,2.66,1.39,1.39,0,0,0,1.1.47,1.49,1.49,0,0,0,.87-.24,1.18,1.18,0,0,0,.48-.7h.86a2.17,2.17,0,0,1-.77,1.18,2.31,2.31,0,0,1-1.44.44,2.42,2.42,0,0,1-1.21-.31,2.15,2.15,0,0,1-.83-.86,2.87,2.87,0,0,1-.29-1.31A2.8,2.8,0,0,1,592.1,439.36Z" fill="#594440"></path>
  <path d="M598.8,442.83a2.18,2.18,0,0,1-.86-.87,2.71,2.71,0,0,1-.31-1.3,2.64,2.64,0,0,1,.32-1.3,2.06,2.06,0,0,1,.87-.86,2.44,2.44,0,0,1,1.23-.31,2.39,2.39,0,0,1,1.23.31,2.09,2.09,0,0,1,.87.85,2.55,2.55,0,0,1,.32,1.31,2.51,2.51,0,0,1-.33,1.3,2.17,2.17,0,0,1-.88.87,2.59,2.59,0,0,1-1.24.31A2.48,2.48,0,0,1,598.8,442.83Zm2-.59a1.62,1.62,0,0,0,.61-.61,1.93,1.93,0,0,0,.23-1,2,2,0,0,0-.23-1,1.48,1.48,0,0,0-.59-.6,1.7,1.7,0,0,0-1.6,0,1.46,1.46,0,0,0-.58.6,2.09,2.09,0,0,0-.21,1,2.06,2.06,0,0,0,.21,1,1.38,1.38,0,0,0,.57.6,1.63,1.63,0,0,0,.79.2A1.72,1.72,0,0,0,600.82,442.24Z" fill="#594440"></path>
  <path d="M610.8,438.42a1.64,1.64,0,0,1,.69.69,2.3,2.3,0,0,1,.25,1.13v2.82H611v-2.71a1.51,1.51,0,0,0-.35-1.09,1.24,1.24,0,0,0-1-.39,1.28,1.28,0,0,0-1,.4,1.62,1.62,0,0,0-.37,1.15v2.64h-.79v-2.71a1.51,1.51,0,0,0-.35-1.09,1.24,1.24,0,0,0-1-.39,1.28,1.28,0,0,0-1,.4,1.62,1.62,0,0,0-.37,1.15v2.64H604v-4.79h.8V439a1.57,1.57,0,0,1,.63-.57,1.87,1.87,0,0,1,.88-.21,2.1,2.1,0,0,1,1.07.27,1.81,1.81,0,0,1,.69.8,1.55,1.55,0,0,1,.66-.79,2,2,0,0,1,1-.28A2.08,2.08,0,0,1,610.8,438.42Z" fill="#594440"></path>
  <path d="M617.91,441h-3.83a1.5,1.5,0,0,0,1.56,1.5,1.48,1.48,0,0,0,.86-.24,1.23,1.23,0,0,0,.48-.64h.86a2.06,2.06,0,0,1-.77,1.12,2.32,2.32,0,0,1-1.43.44,2.43,2.43,0,0,1-1.22-.31,2.16,2.16,0,0,1-.85-.87,2.71,2.71,0,0,1-.3-1.3,2.75,2.75,0,0,1,.3-1.31,2,2,0,0,1,.83-.85,2.4,2.4,0,0,1,1.24-.31,2.38,2.38,0,0,1,1.2.3,2.06,2.06,0,0,1,.81.82,2.36,2.36,0,0,1,.28,1.17C617.93,440.63,617.92,440.79,617.91,441Zm-1-1.43a1.31,1.31,0,0,0-.55-.49,1.6,1.6,0,0,0-.76-.17,1.48,1.48,0,0,0-1,.38,1.58,1.58,0,0,0-.48,1.07h3A1.52,1.52,0,0,0,616.91,439.53Z" fill="#594440"></path>
  <path d="M610.23,414v.65h-2.65v2.05h2.15v.65h-2.15v2.74h-.79V414Z" fill="#594440"></path>
  <path d="M616.05,418h-3.82a1.55,1.55,0,0,0,.48,1.1,1.53,1.53,0,0,0,1.07.4,1.48,1.48,0,0,0,.86-.24,1.35,1.35,0,0,0,.49-.64H616a2,2,0,0,1-.77,1.12,2.29,2.29,0,0,1-1.43.43,2.48,2.48,0,0,1-1.22-.3,2.2,2.2,0,0,1-.84-.87,2.76,2.76,0,0,1-.31-1.31,2.71,2.71,0,0,1,.3-1.3,2.11,2.11,0,0,1,.84-.86,2.46,2.46,0,0,1,1.23-.3,2.49,2.49,0,0,1,1.21.29,2,2,0,0,1,.8.82,2.43,2.43,0,0,1,.29,1.18A4.12,4.12,0,0,1,616.05,418Zm-1-1.43a1.32,1.32,0,0,0-.55-.5,1.73,1.73,0,0,0-.76-.17,1.49,1.49,0,0,0-1,.38,1.58,1.58,0,0,0-.48,1.07h3A1.51,1.51,0,0,0,615.06,416.61Z" fill="#594440"></path>
  <path d="M619.16,415.54a2.14,2.14,0,0,1,1.08-.27,2.28,2.28,0,0,1,1.16.3,2.24,2.24,0,0,1,.81.86,2.67,2.67,0,0,1,.3,1.29,2.7,2.7,0,0,1-.3,1.29,2.21,2.21,0,0,1-.82.89,2.16,2.16,0,0,1-1.15.31,2.12,2.12,0,0,1-1.09-.27,1.79,1.79,0,0,1-.7-.69v.88h-.8v-6.46h.8v2.57A1.84,1.84,0,0,1,619.16,415.54Zm2.32,1.24a1.58,1.58,0,0,0-.59-.61,1.69,1.69,0,0,0-1.63,0,1.54,1.54,0,0,0-.59.62,2.14,2.14,0,0,0,0,1.89,1.54,1.54,0,0,0,.59.62,1.69,1.69,0,0,0,1.63,0,1.6,1.6,0,0,0,.59-.62,2.06,2.06,0,0,0,.21-1A2,2,0,0,0,621.48,416.78Z" fill="#594440"></path>
  <path d="M644.74,414.09v6H644v-4.5l-2,4.5h-.56l-2-4.51v4.51h-.79v-6h.85l2.24,5,2.24-5Z" fill="#594440"></path>
  <path d="M646.61,416.43a2.19,2.19,0,0,1,.82-.86,2.28,2.28,0,0,1,1.16-.3,2.12,2.12,0,0,1,1.09.27,1.8,1.8,0,0,1,.69.68v-.87h.8v4.78h-.8v-.89a2,2,0,0,1-.7.7,2.18,2.18,0,0,1-1.09.27,2.13,2.13,0,0,1-1.15-.31,2.21,2.21,0,0,1-.82-.89,2.7,2.7,0,0,1-.29-1.29A2.67,2.67,0,0,1,646.61,416.43Zm3.54.36a1.54,1.54,0,0,0-.59-.62,1.69,1.69,0,0,0-1.63,0,1.49,1.49,0,0,0-.58.61,1.89,1.89,0,0,0-.22.94,2,2,0,0,0,.22,1,1.51,1.51,0,0,0,.58.62,1.69,1.69,0,0,0,1.63,0,1.54,1.54,0,0,0,.59-.62,1.93,1.93,0,0,0,.22-.95A1.89,1.89,0,0,0,650.15,416.79Z" fill="#594440"></path>
  <path d="M654.43,415.49a1.88,1.88,0,0,1,1-.23v.82h-.21c-.89,0-1.33.48-1.33,1.45v2.6H653v-4.78h.8v.77A1.5,1.5,0,0,1,654.43,415.49Z" fill="#594440"></path>
  <path d="M674.87,418.78h-2.66l-.49,1.35h-.84l2.2-6.05H674l2.19,6.05h-.83Zm-.23-.65-1.1-3.07-1.1,3.07Z" fill="#594440"></path>
  <path d="M679.18,415.54a2.11,2.11,0,0,1,1.08-.27,2.25,2.25,0,0,1,1.16.3,2.19,2.19,0,0,1,.82.86,2.67,2.67,0,0,1,.3,1.29,2.7,2.7,0,0,1-.3,1.29,2.21,2.21,0,0,1-.82.89,2.17,2.17,0,0,1-1.16.31,2.1,2.1,0,0,1-1.07-.27,2.08,2.08,0,0,1-.72-.69v3.15h-.79v-7h.79v.88A2,2,0,0,1,679.18,415.54Zm2.32,1.24a1.45,1.45,0,0,0-.59-.61,1.6,1.6,0,0,0-.81-.21,1.63,1.63,0,0,0-.81.21,1.47,1.47,0,0,0-.59.62,2.06,2.06,0,0,0,0,1.89,1.47,1.47,0,0,0,.59.62,1.63,1.63,0,0,0,.81.21,1.6,1.6,0,0,0,.81-.21,1.47,1.47,0,0,0,.59-.62,2,2,0,0,0,.22-1A1.89,1.89,0,0,0,681.5,416.78Z" fill="#594440"></path>
  <path d="M685.5,415.49a1.86,1.86,0,0,1,1-.23v.82h-.21c-.89,0-1.34.48-1.34,1.45v2.6h-.79v-4.78h.79v.77A1.52,1.52,0,0,1,685.5,415.49Z" fill="#594440"></path>
  <path d="M707.92,414.09v6h-.8v-4.5l-2,4.5h-.55l-2-4.51v4.51h-.8v-6h.86l2.23,5,2.24-5Z" fill="#594440"></path>
  <path d="M709.79,416.43a2.24,2.24,0,0,1,.81-.86,2.31,2.31,0,0,1,1.16-.3,2.12,2.12,0,0,1,1.09.27,1.8,1.8,0,0,1,.69.68v-.87h.81v4.78h-.81v-.89a1.88,1.88,0,0,1-.7.7,2.12,2.12,0,0,1-1.09.27,2.16,2.16,0,0,1-1.15-.31,2.25,2.25,0,0,1-.81-.89,2.7,2.7,0,0,1-.3-1.29A2.67,2.67,0,0,1,709.79,416.43Zm3.54.36a1.6,1.6,0,0,0-.59-.62,1.64,1.64,0,0,0-.82-.21,1.58,1.58,0,0,0-.81.21,1.51,1.51,0,0,0-.59.61,2,2,0,0,0-.22.94,2.06,2.06,0,0,0,.22,1,1.54,1.54,0,0,0,.59.62,1.58,1.58,0,0,0,.81.21,1.64,1.64,0,0,0,.82-.21,1.6,1.6,0,0,0,.59-.62,2,2,0,0,0,.21-.95A2,2,0,0,0,713.33,416.79Z" fill="#594440"></path>
  <path d="M720.34,415.35l-2.88,7h-.83l1-2.31-1.93-4.73h.88l1.5,3.87,1.49-3.87Z" fill="#594440"></path>
  <path d="M739.16,414v4.5a1.59,1.59,0,0,1-.46,1.2,1.67,1.67,0,0,1-1.22.45,1.59,1.59,0,0,1-1.7-1.71h.8a1.14,1.14,0,0,0,.23.73.82.82,0,0,0,.67.28.78.78,0,0,0,.66-.27,1,1,0,0,0,.22-.68V414Z" fill="#594440"></path>
  <path d="M745.5,415.35v4.78h-.8v-.71a1.54,1.54,0,0,1-.63.58,2,2,0,0,1-.9.2,2.08,2.08,0,0,1-1-.23,1.61,1.61,0,0,1-.7-.69,2.22,2.22,0,0,1-.26-1.13v-2.8H742V418a1.51,1.51,0,0,0,.36,1.09,1.27,1.27,0,0,0,1,.38,1.29,1.29,0,0,0,1-.39,1.58,1.58,0,0,0,.37-1.14v-2.63Z" fill="#594440"></path>
  <path d="M751.11,415.79a2,2,0,0,1,.54,1.52v2.82h-.78v-2.71a1.52,1.52,0,0,0-.36-1.09,1.3,1.3,0,0,0-1-.38,1.32,1.32,0,0,0-1,.39,1.61,1.61,0,0,0-.37,1.15v2.64h-.79v-4.78h.79V416a1.53,1.53,0,0,1,.64-.57,2,2,0,0,1,.9-.2A1.9,1.9,0,0,1,751.11,415.79Z" fill="#594440"></path>
  <path d="M681,221.25a2.78,2.78,0,0,1-1,1,3.33,3.33,0,0,1-1.52.49v1.09h-.88v-1.09a3.58,3.58,0,0,1-2-.8,2.23,2.23,0,0,1-.78-1.78h1.65a1.47,1.47,0,0,0,.33.87,1.4,1.4,0,0,0,.85.44v-3a11.92,11.92,0,0,1-1.47-.46,2.4,2.4,0,0,1-1-.75,2.23,2.23,0,0,1-.4-1.41,2.44,2.44,0,0,1,.78-1.85,3.37,3.37,0,0,1,2-.86v-1.09h.88v1.09a3.2,3.2,0,0,1,1.91.75,2.53,2.53,0,0,1,.82,1.76h-1.65a1.27,1.27,0,0,0-.32-.75,1.43,1.43,0,0,0-.76-.45v2.91a9.63,9.63,0,0,1,1.47.46,2.11,2.11,0,0,1,1.35,2.14A2.59,2.59,0,0,1,681,221.25Zm-4.3-4.59a2.54,2.54,0,0,0,.93.5v-2.73a1.44,1.44,0,0,0-.92.42,1.28,1.28,0,0,0-.34.94A1.15,1.15,0,0,0,676.73,216.66Zm2.74,4.32a1.31,1.31,0,0,0,.34-.92,1.11,1.11,0,0,0-.33-.85,2.5,2.5,0,0,0-.94-.49v2.74A1.45,1.45,0,0,0,679.47,221Z" fill="#fff"></path>
  <path d="M684.21,214.21v-1.4H687v9.84h-1.55v-8.44Z" fill="#fff"></path>
  <path d="M690.8,220.56c.86-.75,1.55-1.36,2-1.85a8.16,8.16,0,0,0,1.25-1.5,2.82,2.82,0,0,0,.5-1.57,2,2,0,0,0-.38-1.27,1.81,1.81,0,0,0-2.44,0,2.09,2.09,0,0,0-.47,1.36h-1.49a3,3,0,0,1,3.18-3.17,3.15,3.15,0,0,1,2.3.81,2.89,2.89,0,0,1,.83,2.16,3.89,3.89,0,0,1-.49,1.86,7.34,7.34,0,0,1-1.18,1.61c-.45.47-1,1-1.73,1.64l-.61.54h4.28v1.28h-6.56v-1.12Z" fill="#fff"></path>
  <path d="M703.3,214.16a1.7,1.7,0,0,0-1.09-.31,1.77,1.77,0,0,0-1.6.81,5.42,5.42,0,0,0-.55,2.71,2.38,2.38,0,0,1,1-.92,3.38,3.38,0,0,1,1.45-.32,3.24,3.24,0,0,1,1.58.38,2.67,2.67,0,0,1,1.06,1.12,3.61,3.61,0,0,1,.39,1.74,3.85,3.85,0,0,1-.37,1.69,2.79,2.79,0,0,1-1.1,1.16,3.38,3.38,0,0,1-1.76.43,3.47,3.47,0,0,1-2.18-.62,3.21,3.21,0,0,1-1.11-1.73,10.53,10.53,0,0,1-.31-2.79c0-3.3,1.16-4.94,3.48-4.94a3,3,0,0,1,2.13.72,3,3,0,0,1,.91,1.8h-1.42A1.65,1.65,0,0,0,703.3,214.16Zm-2.49,3.76a1.77,1.77,0,0,0-.57,1.42,1.87,1.87,0,0,0,2,2,1.73,1.73,0,0,0,1.34-.53,2,2,0,0,0,.5-1.4,2.15,2.15,0,0,0-.48-1.47,1.79,1.79,0,0,0-1.41-.55A2.07,2.07,0,0,0,700.81,217.92Z" fill="#fff"></path>
  <path d="M709.91,220.8l-1.63,3.73h-1l1-3.73Z" fill="#fff"></path>
  <path d="M711.68,220.6v-1.16l4.54-6.51h1.86v6.33h1.26v1.34h-1.26v2.05h-1.51V220.6Zm5-6.1-3.19,4.76h3.19Z" fill="#fff"></path>
  <path d="M727.76,214.13h-4.52v2.69a2.18,2.18,0,0,1,.84-.64,2.84,2.84,0,0,1,1.2-.25,3.22,3.22,0,0,1,1.84.48,2.78,2.78,0,0,1,1,1.23,4.18,4.18,0,0,1,.3,1.57,3.9,3.9,0,0,1-.38,1.77,2.82,2.82,0,0,1-1.15,1.22,3.62,3.62,0,0,1-1.87.45,3.58,3.58,0,0,1-2.36-.73A3,3,0,0,1,721.6,220h1.5a1.71,1.71,0,0,0,.66,1,2.21,2.21,0,0,0,1.29.37,1.77,1.77,0,0,0,1.43-.58,2.34,2.34,0,0,0,.48-1.54,2.1,2.1,0,0,0-.48-1.49,1.86,1.86,0,0,0-1.43-.52,1.77,1.77,0,0,0-1.77,1.22h-1.46v-5.68h5.94Z" fill="#fff"></path>
  <path d="M731.64,214a3.46,3.46,0,0,1,5.44,0,7.06,7.06,0,0,1,.79,3.65,7.2,7.2,0,0,1-.79,3.69,3.45,3.45,0,0,1-5.44,0,7.2,7.2,0,0,1-.79-3.69A7.06,7.06,0,0,1,731.64,214Zm4.58,1.8a2.52,2.52,0,0,0-.58-1.23,1.95,1.95,0,0,0-2.56,0,2.52,2.52,0,0,0-.58,1.23,10.73,10.73,0,0,0-.14,1.85,11.11,11.11,0,0,0,.14,1.9,2.42,2.42,0,0,0,.57,1.25,2,2,0,0,0,2.58,0,2.42,2.42,0,0,0,.57-1.25,11.11,11.11,0,0,0,.14-1.9A10.73,10.73,0,0,0,736.22,215.75Z" fill="#fff"></path>
  <path d="M676.16,198.84v2h2.22v.66h-2.22v2.09h2.48v.66h-3.27v-6.1h3.27v.65Z" fill="#fff"></path>
  <path d="M682.87,204.29l-1.14-1.78-1.09,1.78h-.83l1.55-2.38-1.55-2.41h.9l1.14,1.77,1.08-1.77h.83l-1.54,2.37,1.55,2.42Z" fill="#fff"></path>
  <path d="M686.58,199.7a2,2,0,0,1,1.08-.28,2.19,2.19,0,0,1,1.16.31,2.13,2.13,0,0,1,.82.86,2.79,2.79,0,0,1,.29,1.29,2.85,2.85,0,0,1-.29,1.29,2.23,2.23,0,0,1-3.06.92,2,2,0,0,1-.71-.69v3.16h-.79V199.5h.79v.88A1.86,1.86,0,0,1,686.58,199.7Zm2.32,1.23a1.51,1.51,0,0,0-.59-.61,1.6,1.6,0,0,0-.81-.21,1.54,1.54,0,0,0-.81.22,1.42,1.42,0,0,0-.59.62,1.89,1.89,0,0,0-.23.93,1.91,1.91,0,0,0,.23,1,1.47,1.47,0,0,0,.59.62,1.64,1.64,0,0,0,.81.22,1.61,1.61,0,0,0,.81-.22,1.47,1.47,0,0,0,.59-.62,1.93,1.93,0,0,0,.22-1A1.91,1.91,0,0,0,688.9,200.93Z" fill="#fff"></path>
  <path d="M695.85,202.19H692a1.5,1.5,0,0,0,1.56,1.5,1.48,1.48,0,0,0,.86-.24,1.23,1.23,0,0,0,.48-.64h.86a2.09,2.09,0,0,1-.77,1.12,2.32,2.32,0,0,1-1.43.44,2.46,2.46,0,0,1-1.22-.31,2.07,2.07,0,0,1-.84-.87,2.62,2.62,0,0,1-.31-1.31,2.74,2.74,0,0,1,.3-1.3,2,2,0,0,1,.83-.86,2.5,2.5,0,0,1,1.24-.3,2.38,2.38,0,0,1,1.2.3,2.06,2.06,0,0,1,.81.82,2.36,2.36,0,0,1,.28,1.17A4,4,0,0,1,695.85,202.19Zm-1-1.43a1.3,1.3,0,0,0-.54-.5,1.77,1.77,0,0,0-.77-.17,1.44,1.44,0,0,0-1,.39,1.52,1.52,0,0,0-.49,1.06h3A1.42,1.42,0,0,0,694.85,200.76Z" fill="#fff"></path>
  <path d="M701.19,199.94a2,2,0,0,1,.54,1.53v2.82H701v-2.71a1.55,1.55,0,0,0-.36-1.1,1.45,1.45,0,0,0-2,0,1.58,1.58,0,0,0-.37,1.14v2.65h-.79V199.5h.79v.68a1.68,1.68,0,0,1,.64-.57,2,2,0,0,1,.9-.2A1.94,1.94,0,0,1,701.19,199.94Z" fill="#fff"></path>
  <path d="M704.27,204.18a1.62,1.62,0,0,1-.69-.53,1.32,1.32,0,0,1-.28-.77h.82a.81.81,0,0,0,.33.59,1.32,1.32,0,0,0,.79.22,1.1,1.1,0,0,0,.72-.2.59.59,0,0,0,.26-.5.5.5,0,0,0-.28-.47,3.91,3.91,0,0,0-.86-.3,6.27,6.27,0,0,1-.87-.29,1.6,1.6,0,0,1-.58-.42,1.13,1.13,0,0,1-.24-.75,1.14,1.14,0,0,1,.22-.67,1.46,1.46,0,0,1,.62-.49,2.25,2.25,0,0,1,.92-.18,2,2,0,0,1,1.28.4,1.47,1.47,0,0,1,.53,1.1h-.8a.83.83,0,0,0-.3-.6,1.13,1.13,0,0,0-.74-.23,1.17,1.17,0,0,0-.68.19.56.56,0,0,0-.25.48.53.53,0,0,0,.15.39,1.08,1.08,0,0,0,.39.24c.15.06.36.13.64.21a7,7,0,0,1,.84.27,1.47,1.47,0,0,1,.55.41,1.12,1.12,0,0,1,.24.71,1.16,1.16,0,0,1-.22.7,1.45,1.45,0,0,1-.61.5,2.22,2.22,0,0,1-.92.18A2.55,2.55,0,0,1,704.27,204.18Z" fill="#fff"></path>
  <path d="M713,202.19h-3.82a1.59,1.59,0,0,0,.48,1.11,1.57,1.57,0,0,0,1.07.39,1.46,1.46,0,0,0,.86-.24,1.31,1.31,0,0,0,.49-.64h.85a2,2,0,0,1-.76,1.12,2.35,2.35,0,0,1-1.44.44,2.48,2.48,0,0,1-1.22-.31,2.2,2.2,0,0,1-.84-.87,2.72,2.72,0,0,1-.3-1.31,2.86,2.86,0,0,1,.29-1.3,2.11,2.11,0,0,1,.84-.86,2.49,2.49,0,0,1,1.23-.3,2.39,2.39,0,0,1,1.21.3,2.06,2.06,0,0,1,.81.82,2.36,2.36,0,0,1,.28,1.17A4.12,4.12,0,0,1,713,202.19Zm-1-1.43a1.39,1.39,0,0,0-.55-.5,1.73,1.73,0,0,0-.76-.17,1.47,1.47,0,0,0-1,.39,1.55,1.55,0,0,0-.48,1.06h3A1.51,1.51,0,0,0,712,200.76Z" fill="#fff"></path>
  <path d="M715.29,204.18a1.68,1.68,0,0,1-.69-.53,1.39,1.39,0,0,1-.28-.77h.82a.83.83,0,0,0,.34.59,1.28,1.28,0,0,0,.79.22,1.09,1.09,0,0,0,.71-.2.6.6,0,0,0,.27-.5.51.51,0,0,0-.28-.47,4.24,4.24,0,0,0-.87-.3,7.33,7.33,0,0,1-.87-.29,1.57,1.57,0,0,1-.57-.42,1.23,1.23,0,0,1,0-1.42,1.52,1.52,0,0,1,.62-.49,2.25,2.25,0,0,1,.92-.18,2,2,0,0,1,1.29.4,1.47,1.47,0,0,1,.52,1.1h-.79a.81.81,0,0,0-.31-.6,1.12,1.12,0,0,0-.73-.23,1.18,1.18,0,0,0-.69.19.58.58,0,0,0-.25.48.53.53,0,0,0,.15.39,1.17,1.17,0,0,0,.39.24c.15.06.37.13.64.21a7,7,0,0,1,.84.27,1.47,1.47,0,0,1,.55.41,1,1,0,0,1,.24.71,1.23,1.23,0,0,1-.21.7,1.55,1.55,0,0,1-.62.5,2.21,2.21,0,0,1-.91.18A2.57,2.57,0,0,1,715.29,204.18Z" fill="#fff"></path>
  <path d="M722.47,134.46l-2.35,4.48v2.71h-.93v-2.71l-2.36-4.48h1l1.78,3.64,1.78-3.64Z" fill="#594440"></path>
  <path d="M729.21,139.17h-4.52a1.8,1.8,0,0,0,.57,1.31,1.84,1.84,0,0,0,1.26.47,1.8,1.8,0,0,0,1-.28,1.54,1.54,0,0,0,.57-.76h1a2.5,2.5,0,0,1-.91,1.32,2.77,2.77,0,0,1-1.7.51,2.9,2.9,0,0,1-1.44-.36,2.56,2.56,0,0,1-1-1,3.22,3.22,0,0,1-.36-1.55,3.18,3.18,0,0,1,.35-1.54,2.45,2.45,0,0,1,1-1,2.93,2.93,0,0,1,1.46-.36,2.88,2.88,0,0,1,1.43.35,2.46,2.46,0,0,1,.95,1,2.78,2.78,0,0,1,.34,1.39C729.24,138.78,729.23,139,729.21,139.17ZM728,137.49a1.52,1.52,0,0,0-.64-.59,2,2,0,0,0-.91-.2,1.75,1.75,0,0,0-1.21.45,1.82,1.82,0,0,0-.57,1.26h3.57A1.68,1.68,0,0,0,728,137.49Z" fill="#594440"></path>
  <path d="M731.1,137.28a2.49,2.49,0,0,1,1-1,2.67,2.67,0,0,1,1.37-.36,2.52,2.52,0,0,1,1.29.32,2.06,2.06,0,0,1,.82.81v-1h1v5.66h-1V140.6a2.28,2.28,0,0,1-.84.82,2.41,2.41,0,0,1-1.28.32,2.56,2.56,0,0,1-2.32-1.41,3.2,3.2,0,0,1-.35-1.53A3.1,3.1,0,0,1,731.1,137.28Zm4.18.42a1.83,1.83,0,0,0-.7-.73,1.86,1.86,0,0,0-1-.25,2,2,0,0,0-1,.24,1.89,1.89,0,0,0-.7.73,2.3,2.3,0,0,0-.25,1.11,2.36,2.36,0,0,0,.25,1.13,1.92,1.92,0,0,0,.7.74,2,2,0,0,0,1.92,0,1.85,1.85,0,0,0,.7-.74,2.34,2.34,0,0,0,.26-1.12A2.3,2.3,0,0,0,735.28,137.7Z" fill="#594440"></path>
  <path d="M740.34,136.16a2.19,2.19,0,0,1,1.12-.27v1h-.25c-1.05,0-1.57.57-1.57,1.72v3.07h-.94V136h.94v.92A1.81,1.81,0,0,1,740.34,136.16Z" fill="#594440"></path>
  <path d="M744.11,134v7.64h-.94V134Z" fill="#594440"></path>
  <path d="M751.2,136l-3.41,8.32h-1l1.11-2.72-2.28-5.6h1.05l1.77,4.59,1.76-4.59Z" fill="#594440"></path>
  <path d="M757.32,140.56a.51.51,0,0,1-.37-.16l-3.74-4.06a.5.5,0,0,1,0-.71.48.48,0,0,1,.7,0l3.34,3.62,2.7-3.58a.49.49,0,0,1,.7-.1.5.5,0,0,1,.1.7l-3.06,4.06a.51.51,0,0,1-.38.2Z" fill="#594440"></path>
  <g opacity="0.5">
    <rect x="556.9" y="174.06" width="15.08" height="15.08" rx="3.64" fill="#fff"></rect>
  </g>
  <path d="M566.88,184h-4.56a.38.38,0,0,1-.38-.38V178.9a.38.38,0,0,1,.38-.37.37.37,0,0,1,.37.37v4.34h4.19a.36.36,0,0,1,.37.37A.37.37,0,0,1,566.88,184Z" fill="#fff"></path>
  <path d="M562.32,184a.4.4,0,0,1-.26-.11.37.37,0,0,1,0-.52l5.45-5.86a.37.37,0,0,1,.53,0,.38.38,0,0,1,0,.53l-5.45,5.86A.36.36,0,0,1,562.32,184Z" fill="#fff"></path>
  <g opacity="0.5">
    <rect x="674.83" y="173.14" width="15.08" height="15.08" rx="3.64" transform="translate(1364.74 361.36) rotate(180)" fill="#fff"></rect>
  </g>
  <path d="M684.49,183.75a.36.36,0,0,1-.37-.37v-4.33h-4.19a.38.38,0,0,1-.38-.38.37.37,0,0,1,.38-.37h4.56a.37.37,0,0,1,.38.37v4.71A.37.37,0,0,1,684.49,183.75Z" fill="#fff"></path>
  <path d="M679,184.9a.35.35,0,0,1-.25-.1.38.38,0,0,1,0-.53l5.45-5.85a.36.36,0,0,1,.52,0,.35.35,0,0,1,0,.52l-5.44,5.86A.36.36,0,0,1,679,184.9Z" fill="#fff"></path>
  <g opacity="0.44">
    <rect x="568.25" y="273.13" width="1.5" height="0.75" fill="#594440"></rect>
    <path d="M760.33,273.88h-3v-.75h3Zm-6,0h-3v-.75h3Zm-6,0h-3v-.75h3Zm-6,0h-3v-.75h3Zm-6,0h-3v-.75h3Zm-6,0h-3v-.75h3Zm-6,0h-3v-.75h3Zm-6,0h-3v-.75h3Zm-6,0h-3v-.75h3Zm-5.95,0h-3v-.75h3Zm-6,0h-3v-.75h3Zm-5.95,0h-3v-.75h3Zm-6,0h-3v-.75h3Zm-6,0h-3v-.75h3Zm-6,0h-3v-.75h3Zm-6,0h-3v-.75h3Zm-6,0h-3v-.75h3Zm-6,0h-3v-.75h3Zm-6,0h-3v-.75h3Zm-6,0h-3v-.75h3Zm-5.95,0h-3v-.75h3Zm-6,0h-3v-.75h3Zm-6,0h-3v-.75h3Zm-6,0h-3v-.75h3Zm-6,0h-3v-.75h3Zm-6,0h-3v-.75h3Zm-6,0h-3v-.75h3Zm-6,0h-3v-.75h3Zm-6,0h-3v-.75h3Zm-6,0h-3v-.75h3Zm-6,0h-3v-.75h3Zm-5.95,0h-3v-.75h3Z" fill="#594440"></path>
    <rect x="763.3" y="273.13" width="1.5" height="0.75" fill="#594440"></rect>
  </g>
  <g opacity="0.44">
    <rect x="568.25" y="297.96" width="1.5" height="0.75" fill="#594440"></rect>
    <path d="M760.33,298.71h-3V298h3Zm-6,0h-3V298h3Zm-6,0h-3V298h3Zm-6,0h-3V298h3Zm-6,0h-3V298h3Zm-6,0h-3V298h3Zm-6,0h-3V298h3Zm-6,0h-3V298h3Zm-6,0h-3V298h3Zm-5.95,0h-3V298h3Zm-6,0h-3V298h3Zm-5.95,0h-3V298h3Zm-6,0h-3V298h3Zm-6,0h-3V298h3Zm-6,0h-3V298h3Zm-6,0h-3V298h3Zm-6,0h-3V298h3Zm-6,0h-3V298h3Zm-6,0h-3V298h3Zm-6,0h-3V298h3Zm-5.95,0h-3V298h3Zm-6,0h-3V298h3Zm-6,0h-3V298h3Zm-6,0h-3V298h3Zm-6,0h-3V298h3Zm-6,0h-3V298h3Zm-6,0h-3V298h3Zm-6,0h-3V298h3Zm-6,0h-3V298h3Zm-6,0h-3V298h3Zm-6,0h-3V298h3Zm-5.95,0h-3V298h3Z" fill="#594440"></path>
    <rect x="763.3" y="297.96" width="1.5" height="0.75" fill="#594440"></rect>
  </g>
  <g opacity="0.44">
    <rect x="568.25" y="322.79" width="1.5" height="0.75" fill="#594440"></rect>
    <path d="M760.33,323.54h-3v-.75h3Zm-6,0h-3v-.75h3Zm-6,0h-3v-.75h3Zm-6,0h-3v-.75h3Zm-6,0h-3v-.75h3Zm-6,0h-3v-.75h3Zm-6,0h-3v-.75h3Zm-6,0h-3v-.75h3Zm-6,0h-3v-.75h3Zm-5.95,0h-3v-.75h3Zm-6,0h-3v-.75h3Zm-5.95,0h-3v-.75h3Zm-6,0h-3v-.75h3Zm-6,0h-3v-.75h3Zm-6,0h-3v-.75h3Zm-6,0h-3v-.75h3Zm-6,0h-3v-.75h3Zm-6,0h-3v-.75h3Zm-6,0h-3v-.75h3Zm-6,0h-3v-.75h3Zm-5.95,0h-3v-.75h3Zm-6,0h-3v-.75h3Zm-6,0h-3v-.75h3Zm-6,0h-3v-.75h3Zm-6,0h-3v-.75h3Zm-6,0h-3v-.75h3Zm-6,0h-3v-.75h3Zm-6,0h-3v-.75h3Zm-6,0h-3v-.75h3Zm-6,0h-3v-.75h3Zm-6,0h-3v-.75h3Zm-5.95,0h-3v-.75h3Z" fill="#594440"></path>
    <rect x="763.3" y="322.79" width="1.5" height="0.75" fill="#594440"></rect>
  </g>
  <g opacity="0.44">
    <rect x="568.25" y="350.33" width="1.5" height="0.75" fill="#594440"></rect>
    <path d="M760.33,351.08h-3v-.75h3Zm-6,0h-3v-.75h3Zm-6,0h-3v-.75h3Zm-6,0h-3v-.75h3Zm-6,0h-3v-.75h3Zm-6,0h-3v-.75h3Zm-6,0h-3v-.75h3Zm-6,0h-3v-.75h3Zm-6,0h-3v-.75h3Zm-5.95,0h-3v-.75h3Zm-6,0h-3v-.75h3Zm-5.95,0h-3v-.75h3Zm-6,0h-3v-.75h3Zm-6,0h-3v-.75h3Zm-6,0h-3v-.75h3Zm-6,0h-3v-.75h3Zm-6,0h-3v-.75h3Zm-6,0h-3v-.75h3Zm-6,0h-3v-.75h3Zm-6,0h-3v-.75h3Zm-5.95,0h-3v-.75h3Zm-6,0h-3v-.75h3Zm-6,0h-3v-.75h3Zm-6,0h-3v-.75h3Zm-6,0h-3v-.75h3Zm-6,0h-3v-.75h3Zm-6,0h-3v-.75h3Zm-6,0h-3v-.75h3Zm-6,0h-3v-.75h3Zm-6,0h-3v-.75h3Zm-6,0h-3v-.75h3Zm-5.95,0h-3v-.75h3Z" fill="#594440"></path>
    <rect x="763.3" y="350.33" width="1.5" height="0.75" fill="#594440"></rect>
  </g>
  <g opacity="0.44">
    <rect x="568.25" y="375.16" width="1.5" height="0.75" fill="#594440"></rect>
    <path d="M760.33,375.91h-3v-.75h3Zm-6,0h-3v-.75h3Zm-6,0h-3v-.75h3Zm-6,0h-3v-.75h3Zm-6,0h-3v-.75h3Zm-6,0h-3v-.75h3Zm-6,0h-3v-.75h3Zm-6,0h-3v-.75h3Zm-6,0h-3v-.75h3Zm-5.95,0h-3v-.75h3Zm-6,0h-3v-.75h3Zm-5.95,0h-3v-.75h3Zm-6,0h-3v-.75h3Zm-6,0h-3v-.75h3Zm-6,0h-3v-.75h3Zm-6,0h-3v-.75h3Zm-6,0h-3v-.75h3Zm-6,0h-3v-.75h3Zm-6,0h-3v-.75h3Zm-6,0h-3v-.75h3Zm-5.95,0h-3v-.75h3Zm-6,0h-3v-.75h3Zm-6,0h-3v-.75h3Zm-6,0h-3v-.75h3Zm-6,0h-3v-.75h3Zm-6,0h-3v-.75h3Zm-6,0h-3v-.75h3Zm-6,0h-3v-.75h3Zm-6,0h-3v-.75h3Zm-6,0h-3v-.75h3Zm-6,0h-3v-.75h3Zm-5.95,0h-3v-.75h3Z" fill="#594440"></path>
    <rect x="763.3" y="375.16" width="1.5" height="0.75" fill="#594440"></rect>
  </g>
  <circle cx="573.14" cy="439.84" r="4.89" fill="#64af65"></circle>
  <path d="M650.8,437.69v2H653v.66H650.8v2.09h2.48v.66H650V437h3.27v.65Z" fill="#594440"></path>
  <path d="M657.51,443.14l-1.14-1.79-1.09,1.79h-.83l1.55-2.38-1.55-2.41h.9l1.14,1.77,1.08-1.77h.83l-1.54,2.37,1.55,2.42Z" fill="#594440"></path>
  <path d="M661.22,438.55a2,2,0,0,1,1.08-.28,2.19,2.19,0,0,1,1.16.31,2.13,2.13,0,0,1,.82.86,2.79,2.79,0,0,1,.29,1.29,2.85,2.85,0,0,1-.29,1.29,2.26,2.26,0,0,1-3.06.92,2,2,0,0,1-.71-.68v3.15h-.79v-7.06h.79v.88A1.86,1.86,0,0,1,661.22,438.55Zm2.32,1.23a1.45,1.45,0,0,0-.59-.61,1.6,1.6,0,0,0-.81-.21,1.63,1.63,0,0,0-.81.21,1.5,1.5,0,0,0-.59.63,1.89,1.89,0,0,0-.23.93,1.94,1.94,0,0,0,.23.95,1.47,1.47,0,0,0,.59.62,1.64,1.64,0,0,0,.81.22,1.61,1.61,0,0,0,.81-.22,1.47,1.47,0,0,0,.59-.62,1.93,1.93,0,0,0,.22-.95A1.91,1.91,0,0,0,663.54,439.78Z" fill="#594440"></path>
  <path d="M670.49,441h-3.83a1.5,1.5,0,0,0,1.56,1.5,1.48,1.48,0,0,0,.86-.24,1.23,1.23,0,0,0,.48-.64h.86a2.06,2.06,0,0,1-.77,1.12,2.31,2.31,0,0,1-1.43.43,2.45,2.45,0,0,1-1.22-.3,2.07,2.07,0,0,1-.84-.87,2.62,2.62,0,0,1-.31-1.31,2.74,2.74,0,0,1,.3-1.3,2,2,0,0,1,.83-.86,2.5,2.5,0,0,1,1.24-.3,2.38,2.38,0,0,1,1.2.3,2.1,2.1,0,0,1,.81.81,2.42,2.42,0,0,1,.28,1.18C670.51,440.71,670.5,440.87,670.49,441Zm-1-1.43a1.3,1.3,0,0,0-.54-.5,1.77,1.77,0,0,0-.77-.17,1.44,1.44,0,0,0-1,.39,1.54,1.54,0,0,0-.49,1.06h3A1.51,1.51,0,0,0,669.49,439.61Z" fill="#594440"></path>
  <path d="M675.83,438.79a2,2,0,0,1,.54,1.53v2.82h-.78v-2.71a1.55,1.55,0,0,0-.36-1.1,1.3,1.3,0,0,0-1-.38,1.32,1.32,0,0,0-1,.39,1.62,1.62,0,0,0-.37,1.15v2.65h-.79v-4.79h.79V439a1.68,1.68,0,0,1,.64-.57,2,2,0,0,1,.9-.2A1.94,1.94,0,0,1,675.83,438.79Z" fill="#594440"></path>
  <path d="M678.91,443a1.62,1.62,0,0,1-.69-.53,1.32,1.32,0,0,1-.28-.77h.82a.81.81,0,0,0,.33.59,1.3,1.3,0,0,0,.79.22,1.1,1.1,0,0,0,.72-.2.59.59,0,0,0,.26-.5.5.5,0,0,0-.28-.47,3.91,3.91,0,0,0-.86-.3,6.27,6.27,0,0,1-.87-.29,1.45,1.45,0,0,1-.58-.43,1.08,1.08,0,0,1-.24-.74,1.2,1.2,0,0,1,.22-.68,1.52,1.52,0,0,1,.62-.48,2.25,2.25,0,0,1,.92-.18,2,2,0,0,1,1.28.4,1.47,1.47,0,0,1,.53,1.1h-.8a.83.83,0,0,0-.3-.6,1.13,1.13,0,0,0-.74-.23,1.17,1.17,0,0,0-.68.19.58.58,0,0,0-.1.87,1.08,1.08,0,0,0,.39.24c.15.06.36.13.64.21a7,7,0,0,1,.84.27,1.47,1.47,0,0,1,.55.41,1.12,1.12,0,0,1,.24.71,1.16,1.16,0,0,1-.22.7,1.45,1.45,0,0,1-.61.5,2.22,2.22,0,0,1-.92.17A2.55,2.55,0,0,1,678.91,443Z" fill="#594440"></path>
  <path d="M687.62,441H683.8a1.59,1.59,0,0,0,.48,1.11,1.57,1.57,0,0,0,1.07.39,1.46,1.46,0,0,0,.86-.24,1.31,1.31,0,0,0,.49-.64h.85a2,2,0,0,1-.76,1.12,2.34,2.34,0,0,1-1.44.43,2.48,2.48,0,0,1-1.22-.3,2.14,2.14,0,0,1-.84-.87,3,3,0,0,1,0-2.61,2.11,2.11,0,0,1,.84-.86,2.49,2.49,0,0,1,1.23-.3,2.39,2.39,0,0,1,1.21.3,2.1,2.1,0,0,1,.81.81,2.42,2.42,0,0,1,.28,1.18A4.12,4.12,0,0,1,687.62,441Zm-1-1.43a1.39,1.39,0,0,0-.55-.5,1.73,1.73,0,0,0-.76-.17,1.47,1.47,0,0,0-1,.39,1.57,1.57,0,0,0-.48,1.06h3A1.51,1.51,0,0,0,686.63,439.61Z" fill="#594440"></path>
  <path d="M689.93,443a1.68,1.68,0,0,1-.69-.53,1.39,1.39,0,0,1-.28-.77h.82a.83.83,0,0,0,.34.59,1.28,1.28,0,0,0,.79.22,1.09,1.09,0,0,0,.71-.2.6.6,0,0,0,.27-.5.51.51,0,0,0-.28-.47,4.24,4.24,0,0,0-.87-.3,7.33,7.33,0,0,1-.87-.29,1.49,1.49,0,0,1-.57-.43,1.08,1.08,0,0,1-.24-.74,1.19,1.19,0,0,1,.21-.68,1.59,1.59,0,0,1,.62-.48,2.25,2.25,0,0,1,.92-.18,2,2,0,0,1,1.29.4,1.47,1.47,0,0,1,.52,1.1h-.79a.81.81,0,0,0-.31-.6,1.12,1.12,0,0,0-.73-.23,1.18,1.18,0,0,0-.69.19.58.58,0,0,0-.25.48.56.56,0,0,0,.15.39,1.17,1.17,0,0,0,.39.24c.15.06.37.13.64.21a7,7,0,0,1,.84.27,1.47,1.47,0,0,1,.55.41,1,1,0,0,1,.24.71,1.23,1.23,0,0,1-.21.7,1.55,1.55,0,0,1-.62.5,2.21,2.21,0,0,1-.91.17A2.57,2.57,0,0,1,689.93,443Z" fill="#594440"></path>
  <path d="M604.24,483.78l-2,3.79v2.3h-.79v-2.3l-2-3.79h.88l1.5,3.08,1.5-3.08Z" fill="#fafafa"></path>
  <path d="M605.94,489.64a2.1,2.1,0,0,1-.85-.87,2.6,2.6,0,0,1-.31-1.3,2.53,2.53,0,0,1,.32-1.3,2.12,2.12,0,0,1,.87-.86,2.39,2.39,0,0,1,1.23-.31,2.44,2.44,0,0,1,1.23.31,2.12,2.12,0,0,1,.87.86,2.58,2.58,0,0,1,.32,1.3,2.51,2.51,0,0,1-.33,1.3,2.19,2.19,0,0,1-.89.87,2.56,2.56,0,0,1-1.24.31A2.51,2.51,0,0,1,605.94,489.64Zm2-.59a1.53,1.53,0,0,0,.6-.61,1.83,1.83,0,0,0,.23-1,2,2,0,0,0-.22-1,1.45,1.45,0,0,0-.6-.6,1.68,1.68,0,0,0-1.59,0,1.4,1.4,0,0,0-.58.6,2,2,0,0,0-.22,1,2.06,2.06,0,0,0,.21,1,1.46,1.46,0,0,0,.58.6,1.62,1.62,0,0,0,.78.2A1.73,1.73,0,0,0,608,489.05Z" fill="#fafafa"></path>
  <path d="M614.91,485.08v4.79h-.79v-.71a1.53,1.53,0,0,1-.64.57,1.91,1.91,0,0,1-.89.21,2.21,2.21,0,0,1-1-.23,1.75,1.75,0,0,1-.7-.7,2.29,2.29,0,0,1-.26-1.12v-2.81h.79v2.7a1.54,1.54,0,0,0,.36,1.09,1.26,1.26,0,0,0,1,.38,1.3,1.3,0,0,0,1-.4,1.63,1.63,0,0,0,.37-1.14v-2.63Z" fill="#fafafa"></path>
  <path d="M617.65,485.22a1.86,1.86,0,0,1,1-.22v.82h-.21c-.9,0-1.34.48-1.34,1.45v2.6h-.8v-4.79h.8v.78A1.54,1.54,0,0,1,617.65,485.22Z" fill="#fafafa"></path>
  <path d="M621.84,486.17a2.13,2.13,0,0,1,.82-.86,2.19,2.19,0,0,1,1.16-.31,2.12,2.12,0,0,1,1.09.27,1.76,1.76,0,0,1,.69.69v-.88h.8v4.79h-.8V489a1.86,1.86,0,0,1-.7.69,2.06,2.06,0,0,1-1.09.28,2.14,2.14,0,0,1-1.15-.32,2.18,2.18,0,0,1-.82-.88,2.85,2.85,0,0,1-.29-1.29A2.79,2.79,0,0,1,621.84,486.17Zm3.54.35a1.51,1.51,0,0,0-.59-.61,1.54,1.54,0,0,0-.81-.22,1.64,1.64,0,0,0-.82.21,1.55,1.55,0,0,0-.58.61,1.93,1.93,0,0,0-.22.95,2,2,0,0,0,.22,1,1.6,1.6,0,0,0,2.21.61,1.51,1.51,0,0,0,.59-.61,2,2,0,0,0,.22-.95A1.93,1.93,0,0,0,625.38,486.52Z" fill="#fafafa"></path>
  <path d="M629.53,489.14l1.49-4.06h.84L630,489.87h-.92l-1.88-4.79H628Z" fill="#fafafa"></path>
  <path d="M632.65,486.17a2.13,2.13,0,0,1,.82-.86,2.16,2.16,0,0,1,1.15-.31,2.1,2.1,0,0,1,1.09.27,1.86,1.86,0,0,1,.7.69v-.88h.8v4.79h-.8V489a1.89,1.89,0,0,1-.71.69,2,2,0,0,1-1.09.28,2.16,2.16,0,0,1-1.15-.32,2.23,2.23,0,0,1-.81-.88,2.73,2.73,0,0,1-.3-1.29A2.67,2.67,0,0,1,632.65,486.17Zm3.54.35a1.65,1.65,0,0,0-.59-.61,1.55,1.55,0,0,0-.82-.22,1.56,1.56,0,0,0-1.4.82,2,2,0,0,0-.22.95,2.09,2.09,0,0,0,.22,1,1.57,1.57,0,0,0,.59.61,1.49,1.49,0,0,0,.81.22,1.55,1.55,0,0,0,.82-.22,1.65,1.65,0,0,0,.59-.61,2.08,2.08,0,0,0,.22-.95A2,2,0,0,0,636.19,486.52Z" fill="#fafafa"></path>
  <path d="M640,485.22a1.84,1.84,0,0,1,.94-.22v.82h-.21c-.89,0-1.33.48-1.33,1.45v2.6h-.8v-4.79h.8v.78A1.54,1.54,0,0,1,640,485.22Z" fill="#fafafa"></path>
  <path d="M641.81,486.17a2.13,2.13,0,0,1,.82-.86,2.33,2.33,0,0,1,2.25,0,1.76,1.76,0,0,1,.69.69v-.88h.8v4.79h-.8V489a1.82,1.82,0,0,1-.71.69,2,2,0,0,1-1.08.28,2.2,2.2,0,0,1-1.16-.32,2.23,2.23,0,0,1-.81-.88,2.73,2.73,0,0,1-.3-1.29A2.67,2.67,0,0,1,641.81,486.17Zm3.54.35a1.57,1.57,0,0,0-.59-.61,1.55,1.55,0,0,0-.82-.22,1.6,1.6,0,0,0-.81.21,1.65,1.65,0,0,0-.59.61,2,2,0,0,0-.21.95,2.09,2.09,0,0,0,.21,1,1.65,1.65,0,0,0,.59.61,1.52,1.52,0,0,0,.81.22,1.55,1.55,0,0,0,.82-.22,1.57,1.57,0,0,0,.59-.61,2.08,2.08,0,0,0,.22-.95A2,2,0,0,0,645.35,486.52Z" fill="#fafafa"></path>
  <path d="M650.78,485.27a1.76,1.76,0,0,1,.69.69v-.88h.81V490a2.36,2.36,0,0,1-.29,1.17,2,2,0,0,1-.79.8,2.49,2.49,0,0,1-1.21.29,2.66,2.66,0,0,1-1.58-.45,1.73,1.73,0,0,1-.74-1.21h.79a1.24,1.24,0,0,0,.54.7,1.74,1.74,0,0,0,1,.27,1.49,1.49,0,0,0,1.07-.41,1.59,1.59,0,0,0,.41-1.16v-1a2,2,0,0,1-.7.7,2.12,2.12,0,0,1-1.08.28,2.2,2.2,0,0,1-1.16-.32,2.16,2.16,0,0,1-.81-.88,2.73,2.73,0,0,1-.3-1.29,2.67,2.67,0,0,1,.3-1.29,2.1,2.1,0,0,1,.81-.86,2.19,2.19,0,0,1,1.16-.31A2.15,2.15,0,0,1,650.78,485.27Zm.47,1.25a1.59,1.59,0,0,0-1.4-.83,1.64,1.64,0,0,0-.82.21,1.55,1.55,0,0,0-.58.61,1.93,1.93,0,0,0-.22.95,2,2,0,0,0,.22,1,1.56,1.56,0,0,0,1.4.83,1.59,1.59,0,0,0,1.4-.83,2,2,0,0,0,.22-.95A1.93,1.93,0,0,0,651.25,486.52Z" fill="#fafafa"></path>
  <path d="M658,487.77h-3.83a1.6,1.6,0,0,0,.49,1.11,1.55,1.55,0,0,0,1.07.39,1.48,1.48,0,0,0,.86-.24,1.31,1.31,0,0,0,.49-.64h.85a2,2,0,0,1-.77,1.12,2.3,2.3,0,0,1-1.43.44,2.48,2.48,0,0,1-1.22-.31,2.07,2.07,0,0,1-.84-.87,2.6,2.6,0,0,1-.31-1.3,2.68,2.68,0,0,1,.3-1.3,2.09,2.09,0,0,1,.83-.86,2.61,2.61,0,0,1,2.45,0,2.1,2.1,0,0,1,.8.82,2.36,2.36,0,0,1,.29,1.17A4.12,4.12,0,0,1,658,487.77Zm-1-1.43a1.28,1.28,0,0,0-.54-.49,1.63,1.63,0,0,0-.76-.17,1.44,1.44,0,0,0-1,.38,1.58,1.58,0,0,0-.49,1.07h3A1.43,1.43,0,0,0,657,486.34Z" fill="#fafafa"></path>
  <path d="M662.16,483.78v6.09h-.79v-6.09Z" fill="#fafafa"></path>
  <path d="M667.26,485.52a2.05,2.05,0,0,1,.54,1.53v2.82H667v-2.71a1.51,1.51,0,0,0-.36-1.09,1.27,1.27,0,0,0-1-.39,1.32,1.32,0,0,0-1,.4,1.58,1.58,0,0,0-.37,1.14v2.65h-.79v-4.79h.79v.68a1.58,1.58,0,0,1,.64-.56,2.15,2.15,0,0,1,2.31.32Z" fill="#fafafa"></path>
  <path d="M669.11,486.17a2.06,2.06,0,0,1,.82-.86,2.32,2.32,0,0,1,1.21-.31,2.38,2.38,0,0,1,1.45.43,2,2,0,0,1,.76,1.19h-.86a1.25,1.25,0,0,0-.47-.69,1.47,1.47,0,0,0-.88-.25,1.41,1.41,0,0,0-1.1.46,2.32,2.32,0,0,0,0,2.66,1.39,1.39,0,0,0,1.1.47A1.49,1.49,0,0,0,672,489a1.18,1.18,0,0,0,.48-.7h.86a2.12,2.12,0,0,1-.77,1.18,2.31,2.31,0,0,1-1.44.44,2.42,2.42,0,0,1-1.21-.31,2.06,2.06,0,0,1-.82-.86,2.75,2.75,0,0,1-.3-1.31A2.68,2.68,0,0,1,669.11,486.17Z" fill="#fafafa"></path>
  <path d="M675.28,489.64a2.12,2.12,0,0,1-.86-.87,2.6,2.6,0,0,1-.31-1.3,2.64,2.64,0,0,1,.32-1.3,2.12,2.12,0,0,1,.87-.86,2.42,2.42,0,0,1,1.23-.31,2.44,2.44,0,0,1,1.23.31,2.12,2.12,0,0,1,.87.86,2.58,2.58,0,0,1,.32,1.3,2.51,2.51,0,0,1-.33,1.3,2.19,2.19,0,0,1-.89.87,2.56,2.56,0,0,1-1.24.31A2.47,2.47,0,0,1,675.28,489.64Zm2-.59a1.62,1.62,0,0,0,.61-.61,1.93,1.93,0,0,0,.23-1,2,2,0,0,0-.23-1,1.48,1.48,0,0,0-.59-.6,1.69,1.69,0,0,0-.8-.2,1.67,1.67,0,0,0-.8.2,1.46,1.46,0,0,0-.58.6,2,2,0,0,0-.22,1,2,2,0,0,0,.22,1,1.38,1.38,0,0,0,.57.6,1.62,1.62,0,0,0,.78.2A1.73,1.73,0,0,0,677.3,489.05Z" fill="#fafafa"></path>
  <path d="M686.75,485.23a1.64,1.64,0,0,1,.69.69,2.3,2.3,0,0,1,.25,1.13v2.82h-.78v-2.71a1.51,1.51,0,0,0-.36-1.09,1.21,1.21,0,0,0-.95-.39,1.29,1.29,0,0,0-1,.4,1.62,1.62,0,0,0-.37,1.15v2.64h-.78v-2.71a1.51,1.51,0,0,0-.36-1.09,1.21,1.21,0,0,0-1-.39,1.29,1.29,0,0,0-1,.4,1.62,1.62,0,0,0-.37,1.15v2.64H680v-4.79h.79v.69a1.57,1.57,0,0,1,.63-.57,1.87,1.87,0,0,1,.88-.2,2.2,2.2,0,0,1,1.07.26,1.69,1.69,0,0,1,.69.8,1.55,1.55,0,0,1,.66-.79,2.19,2.19,0,0,1,2,0Z" fill="#fafafa"></path>
  <path d="M693.33,487.77h-3.82a1.59,1.59,0,0,0,.48,1.11,1.57,1.57,0,0,0,1.07.39,1.46,1.46,0,0,0,.86-.24,1.25,1.25,0,0,0,.49-.64h.85a2,2,0,0,1-.76,1.12,2.35,2.35,0,0,1-1.44.44,2.42,2.42,0,0,1-1.21-.31,2.16,2.16,0,0,1-.85-.87,2.71,2.71,0,0,1-.3-1.3,2.8,2.8,0,0,1,.29-1.3,2.05,2.05,0,0,1,.84-.86,2.59,2.59,0,0,1,2.44,0,2.06,2.06,0,0,1,.81.82,2.36,2.36,0,0,1,.28,1.17A4.12,4.12,0,0,1,693.33,487.77Zm-1-1.43a1.37,1.37,0,0,0-.55-.49,1.6,1.6,0,0,0-.76-.17,1.48,1.48,0,0,0-1,.38,1.58,1.58,0,0,0-.48,1.07h3A1.52,1.52,0,0,0,692.34,486.34Z" fill="#fafafa"></path>
  <path d="M700.09,485.23a1.54,1.54,0,0,1,.69.69,2.3,2.3,0,0,1,.25,1.13v2.82h-.79v-2.71a1.55,1.55,0,0,0-.35-1.09,1.27,1.27,0,0,0-1-.39,1.31,1.31,0,0,0-1,.4,1.58,1.58,0,0,0-.37,1.14v2.65h-.8v-6.46h.8v2.35a1.49,1.49,0,0,1,.65-.56,2,2,0,0,1,.93-.2A2,2,0,0,1,700.09,485.23Z" fill="#fafafa"></path>
  <path d="M702.33,486.17a2.13,2.13,0,0,1,.82-.86,2.33,2.33,0,0,1,2.25,0,1.83,1.83,0,0,1,.69.69v-.88h.8v4.79h-.8V489a1.82,1.82,0,0,1-.71.69,2,2,0,0,1-1.08.28,2.2,2.2,0,0,1-1.16-.32,2.23,2.23,0,0,1-.81-.88,2.73,2.73,0,0,1-.3-1.29A2.67,2.67,0,0,1,702.33,486.17Zm3.54.35a1.57,1.57,0,0,0-.59-.61,1.55,1.55,0,0,0-.82-.22,1.58,1.58,0,0,0-.81.21,1.65,1.65,0,0,0-.59.61,2,2,0,0,0-.21.95,2.09,2.09,0,0,0,.21,1,1.65,1.65,0,0,0,.59.61,1.49,1.49,0,0,0,.81.22,1.55,1.55,0,0,0,.82-.22,1.57,1.57,0,0,0,.59-.61,2.08,2.08,0,0,0,.22-.95A2,2,0,0,0,705.87,486.52Z" fill="#fafafa"></path>
  <path d="M708.94,489.76a1.75,1.75,0,0,1-.69-.52,1.45,1.45,0,0,1-.28-.78h.82a.84.84,0,0,0,.34.59,1.28,1.28,0,0,0,.79.22,1.14,1.14,0,0,0,.72-.2.61.61,0,0,0,.26-.5.5.5,0,0,0-.28-.47,4.24,4.24,0,0,0-.87-.3,5.34,5.34,0,0,1-.86-.29,1.42,1.42,0,0,1-.58-.42,1.13,1.13,0,0,1-.24-.75,1.08,1.08,0,0,1,.22-.67,1.4,1.4,0,0,1,.62-.49,2.22,2.22,0,0,1,.92-.18,2,2,0,0,1,1.28.41,1.43,1.43,0,0,1,.52,1.1h-.79a.86.86,0,0,0-.3-.61,1.36,1.36,0,0,0-1.42,0,.56.56,0,0,0-.26.48.5.5,0,0,0,.16.39,1.12,1.12,0,0,0,.38.24l.64.21a6,6,0,0,1,.84.27,1.51,1.51,0,0,1,.56.41,1.14,1.14,0,0,1,.24.71,1.21,1.21,0,0,1-.22.7,1.48,1.48,0,0,1-.62.5,2.17,2.17,0,0,1-.91.18A2.57,2.57,0,0,1,708.94,489.76Z" fill="#fafafa"></path>
  <path d="M600,496.65a2.19,2.19,0,0,1,.82-.86,2.32,2.32,0,0,1,1.17-.3,2.19,2.19,0,0,1,1,.25,1.92,1.92,0,0,1,.73.68v-2.53h.8v6.46h-.8v-.9a1.81,1.81,0,0,1-.7.7,2,2,0,0,1-1.08.28,2.2,2.2,0,0,1-1.16-.32,2.12,2.12,0,0,1-.82-.88,2.85,2.85,0,0,1-.29-1.29A2.79,2.79,0,0,1,600,496.65Zm3.54.36a1.47,1.47,0,0,0-.59-.62,1.64,1.64,0,0,0-.81-.22,1.75,1.75,0,0,0-.82.21,1.51,1.51,0,0,0-.58.62,1.87,1.87,0,0,0-.22.94,2,2,0,0,0,.22,1,1.58,1.58,0,0,0,.58.62,1.69,1.69,0,0,0,1.63,0,1.53,1.53,0,0,0,.59-.62,2,2,0,0,0,.22-.95A1.87,1.87,0,0,0,603.51,497Z" fill="#fafafa"></path>
  <path d="M610.22,498.25h-3.83a1.54,1.54,0,0,0,.49,1.11,1.56,1.56,0,0,0,1.07.4,1.48,1.48,0,0,0,.86-.24,1.26,1.26,0,0,0,.48-.65h.86a2,2,0,0,1-.77,1.13,2.58,2.58,0,0,1-2.65.12,2.07,2.07,0,0,1-.84-.87,2.6,2.6,0,0,1-.31-1.3,2.68,2.68,0,0,1,.3-1.3,2,2,0,0,1,.83-.86,2.5,2.5,0,0,1,1.24-.3,2.37,2.37,0,0,1,1.2.29,2.06,2.06,0,0,1,.81.82,2.39,2.39,0,0,1,.29,1.17A4,4,0,0,1,610.22,498.25Zm-1-1.42a1.24,1.24,0,0,0-.54-.5,1.64,1.64,0,0,0-.77-.17,1.48,1.48,0,0,0-1,.38,1.54,1.54,0,0,0-.49,1.07h3A1.39,1.39,0,0,0,609.22,496.83Z" fill="#fafafa"></path>
  <path d="M611.29,496.65a2.21,2.21,0,0,1,.83-.86,2.66,2.66,0,0,1,2.66.12,2,2,0,0,1,.76,1.19h-.86a1.25,1.25,0,0,0-.47-.69,1.47,1.47,0,0,0-.88-.25,1.4,1.4,0,0,0-1.1.46,2.32,2.32,0,0,0,0,2.66,1.38,1.38,0,0,0,1.1.48,1.49,1.49,0,0,0,.87-.25,1.15,1.15,0,0,0,.48-.7h.86a2.17,2.17,0,0,1-.77,1.18,2.55,2.55,0,0,1-2.65.13,2.15,2.15,0,0,1-.83-.86A2.84,2.84,0,0,1,611,498,2.8,2.8,0,0,1,611.29,496.65Z" fill="#fafafa"></path>
  <path d="M618,495.7a1.86,1.86,0,0,1,1-.22v.82h-.21c-.89,0-1.34.48-1.34,1.45v2.6h-.79v-4.79h.79v.78A1.54,1.54,0,0,1,618,495.7Z" fill="#fafafa"></path>
  <path d="M624.19,498.25h-3.82a1.5,1.5,0,0,0,1.55,1.51,1.46,1.46,0,0,0,.86-.24,1.33,1.33,0,0,0,.49-.65h.85a2,2,0,0,1-.76,1.13,2.41,2.41,0,0,1-1.44.43,2.38,2.38,0,0,1-1.22-.31,2.2,2.2,0,0,1-.84-.87,2.71,2.71,0,0,1-.3-1.3,2.8,2.8,0,0,1,.29-1.3,2.05,2.05,0,0,1,.84-.86,2.49,2.49,0,0,1,1.23-.3,2.38,2.38,0,0,1,1.21.29,2.06,2.06,0,0,1,.81.82,2.38,2.38,0,0,1,.28,1.17A4,4,0,0,1,624.19,498.25Zm-1-1.42a1.32,1.32,0,0,0-.55-.5,1.6,1.6,0,0,0-.76-.17,1.51,1.51,0,0,0-1,.38,1.58,1.58,0,0,0-.48,1.07h3A1.48,1.48,0,0,0,623.2,496.83Z" fill="#fafafa"></path>
  <path d="M625.27,496.65a2.24,2.24,0,0,1,.81-.86,2.31,2.31,0,0,1,1.16-.3,2.1,2.1,0,0,1,1.09.27,1.74,1.74,0,0,1,.69.68v-.88h.81v4.79H629v-.89a1.79,1.79,0,0,1-.7.69,2,2,0,0,1-1.09.28,2.18,2.18,0,0,1-2-1.2,2.73,2.73,0,0,1-.3-1.29A2.67,2.67,0,0,1,625.27,496.65Zm3.54.36a1.6,1.6,0,0,0-.59-.62,1.65,1.65,0,0,0-.82-.22,1.68,1.68,0,0,0-.81.21,1.54,1.54,0,0,0-.59.62,2,2,0,0,0-.22.94,2.09,2.09,0,0,0,.22,1,1.6,1.6,0,0,0,.59.62,1.58,1.58,0,0,0,.81.21,1.64,1.64,0,0,0,.82-.21,1.68,1.68,0,0,0,.59-.62A2.08,2.08,0,0,0,629,498,2,2,0,0,0,628.81,497Z" fill="#fafafa"></path>
  <path d="M631.88,500.24a1.66,1.66,0,0,1-.69-.52,1.42,1.42,0,0,1-.28-.78h.82a.81.81,0,0,0,.34.59,1.28,1.28,0,0,0,.79.23,1.15,1.15,0,0,0,.71-.2.63.63,0,0,0,.27-.51.51.51,0,0,0-.28-.47,4.24,4.24,0,0,0-.87-.3,7.51,7.51,0,0,1-.87-.28,1.59,1.59,0,0,1-.57-.43,1.13,1.13,0,0,1-.24-.75,1.16,1.16,0,0,1,.21-.67,1.52,1.52,0,0,1,.62-.49,2.25,2.25,0,0,1,.92-.17,2,2,0,0,1,1.29.4,1.45,1.45,0,0,1,.52,1.1h-.79a.85.85,0,0,0-.31-.61,1.12,1.12,0,0,0-.73-.22,1.18,1.18,0,0,0-.69.18.58.58,0,0,0-.25.48.53.53,0,0,0,.15.39,1.17,1.17,0,0,0,.39.24,4,4,0,0,0,.64.21,7,7,0,0,1,.84.27,1.47,1.47,0,0,1,.55.41,1,1,0,0,1,.24.71,1.26,1.26,0,0,1-.21.71,1.52,1.52,0,0,1-.62.49,2.21,2.21,0,0,1-.91.18A2.4,2.4,0,0,1,631.88,500.24Z" fill="#fafafa"></path>
  <path d="M640.07,498.25h-3.82a1.5,1.5,0,0,0,1.55,1.51,1.46,1.46,0,0,0,.86-.24,1.33,1.33,0,0,0,.49-.65H640a2,2,0,0,1-.77,1.13,2.36,2.36,0,0,1-1.43.43,2.38,2.38,0,0,1-1.22-.31,2.14,2.14,0,0,1-.84-.87,2.71,2.71,0,0,1-.3-1.3,2.68,2.68,0,0,1,.29-1.3,2.05,2.05,0,0,1,.84-.86,2.46,2.46,0,0,1,1.23-.3,2.38,2.38,0,0,1,1.21.29,2.06,2.06,0,0,1,.81.82,2.5,2.5,0,0,1,.28,1.17A4,4,0,0,1,640.07,498.25Zm-1-1.42a1.32,1.32,0,0,0-.55-.5,1.6,1.6,0,0,0-.76-.17,1.51,1.51,0,0,0-1,.38,1.58,1.58,0,0,0-.48,1.07h3A1.48,1.48,0,0,0,639.08,496.83Z" fill="#fafafa"></path>
  <path d="M641.15,496.65a2.17,2.17,0,0,1,.81-.86,2.32,2.32,0,0,1,1.17-.3,2.19,2.19,0,0,1,1,.25,1.92,1.92,0,0,1,.73.68v-2.53h.81v6.46h-.81v-.9a1.75,1.75,0,0,1-.7.7,2,2,0,0,1-1.08.28,2.22,2.22,0,0,1-1.16-.32,2.1,2.1,0,0,1-.81-.88,2.73,2.73,0,0,1-.3-1.29A2.67,2.67,0,0,1,641.15,496.65Zm3.53.36a1.47,1.47,0,0,0-.59-.62,1.58,1.58,0,0,0-.81-.22,1.68,1.68,0,0,0-.81.21,1.54,1.54,0,0,0-.59.62,2,2,0,0,0-.22.94,2.09,2.09,0,0,0,.22,1,1.6,1.6,0,0,0,.59.62,1.67,1.67,0,0,0,1.62,0,1.53,1.53,0,0,0,.59-.62,2,2,0,0,0,.22-.95A1.87,1.87,0,0,0,644.68,497Z" fill="#fafafa"></path>
  <path d="M651.33,496.22h-1v4.13h-.8v-4.13h-.62v-.66h.62v-.34a1.49,1.49,0,0,1,.42-1.17,1.94,1.94,0,0,1,1.33-.37v.66a1,1,0,0,0-.74.21.9.9,0,0,0-.21.67v.34h1Z" fill="#fafafa"></path>
  <path d="M653.65,495.7a1.88,1.88,0,0,1,1-.22v.82h-.21c-.89,0-1.34.48-1.34,1.45v2.6h-.79v-4.79h.79v.78A1.54,1.54,0,0,1,653.65,495.7Z" fill="#fafafa"></path>
  <path d="M656.38,500.12a2.16,2.16,0,0,1-.85-.87,2.6,2.6,0,0,1-.31-1.3,2.53,2.53,0,0,1,.32-1.3,2.12,2.12,0,0,1,.87-.86,2.49,2.49,0,0,1,1.23-.3,2.54,2.54,0,0,1,1.23.3,2.12,2.12,0,0,1,.87.86,2.58,2.58,0,0,1,.32,1.3,2.51,2.51,0,0,1-.33,1.3,2.19,2.19,0,0,1-.89.87,2.46,2.46,0,0,1-1.24.31A2.41,2.41,0,0,1,656.38,500.12Zm2-.59a1.51,1.51,0,0,0,.6-.6,1.9,1.9,0,0,0,.23-1,2,2,0,0,0-.22-1,1.45,1.45,0,0,0-.6-.6,1.68,1.68,0,0,0-1.59,0,1.4,1.4,0,0,0-.58.6,2,2,0,0,0-.22,1,2.06,2.06,0,0,0,.21,1,1.46,1.46,0,0,0,.58.6,1.51,1.51,0,0,0,.78.2A1.73,1.73,0,0,0,658.41,499.53Z" fill="#fafafa"></path>
  <path d="M667.86,495.71a1.64,1.64,0,0,1,.69.69,2.33,2.33,0,0,1,.25,1.13v2.82H668v-2.71a1.52,1.52,0,0,0-.35-1.09,1.22,1.22,0,0,0-1-.38,1.27,1.27,0,0,0-1,.39,1.62,1.62,0,0,0-.37,1.15v2.64h-.79v-2.71a1.52,1.52,0,0,0-.35-1.09,1.22,1.22,0,0,0-1-.38,1.27,1.27,0,0,0-1,.39,1.62,1.62,0,0,0-.37,1.15v2.64h-.79v-4.79h.79v.69a1.57,1.57,0,0,1,.63-.57,1.87,1.87,0,0,1,.88-.2,2.1,2.1,0,0,1,1.07.27,1.62,1.62,0,0,1,.69.79,1.49,1.49,0,0,1,.66-.78,1.92,1.92,0,0,1,1-.28A2,2,0,0,1,667.86,495.71Z" fill="#fafafa"></path>
  <path d="M673.23,493.89v6.46h-.8v-6.46Z" fill="#fafafa"></path>
  <path d="M674.58,496.65a2.19,2.19,0,0,1,.82-.86,2.28,2.28,0,0,1,1.16-.3,2.12,2.12,0,0,1,1.09.27,1.74,1.74,0,0,1,.69.68v-.88h.8v4.79h-.8v-.89a1.86,1.86,0,0,1-.7.69,2.08,2.08,0,0,1-1.09.28,2.14,2.14,0,0,1-1.15-.32,2.12,2.12,0,0,1-.82-.88,2.72,2.72,0,0,1-.29-1.29A2.67,2.67,0,0,1,674.58,496.65Zm3.54.36a1.54,1.54,0,0,0-.59-.62,1.65,1.65,0,0,0-.82-.22,1.74,1.74,0,0,0-.81.21,1.51,1.51,0,0,0-.58.62,1.87,1.87,0,0,0-.22.94,2,2,0,0,0,.22,1,1.58,1.58,0,0,0,.58.62,1.69,1.69,0,0,0,1.63,0,1.6,1.6,0,0,0,.59-.62,2,2,0,0,0,.22-.95A1.87,1.87,0,0,0,678.12,497Z" fill="#fafafa"></path>
  <path d="M681.19,500.24a1.66,1.66,0,0,1-.69-.52,1.5,1.5,0,0,1-.28-.78h.83a.8.8,0,0,0,.33.59,1.3,1.3,0,0,0,.79.23,1.18,1.18,0,0,0,.72-.2.64.64,0,0,0,.26-.51.5.5,0,0,0-.28-.47,3.91,3.91,0,0,0-.86-.3,6.42,6.42,0,0,1-.87-.28,1.55,1.55,0,0,1-.58-.43,1.13,1.13,0,0,1-.24-.75,1.1,1.1,0,0,1,.22-.67,1.4,1.4,0,0,1,.62-.49,2.22,2.22,0,0,1,.92-.17,1.94,1.94,0,0,1,1.28.4,1.42,1.42,0,0,1,.52,1.1h-.79a.87.87,0,0,0-.3-.61,1.13,1.13,0,0,0-.74-.22,1.16,1.16,0,0,0-.68.18.56.56,0,0,0-.25.48.53.53,0,0,0,.15.39,1.12,1.12,0,0,0,.38.24,4.36,4.36,0,0,0,.64.21,6,6,0,0,1,.84.27,1.51,1.51,0,0,1,.56.41,1.14,1.14,0,0,1,.24.71,1.19,1.19,0,0,1-.22.71,1.46,1.46,0,0,1-.62.49,2.14,2.14,0,0,1-.91.18A2.43,2.43,0,0,1,681.19,500.24Z" fill="#fafafa"></path>
  <path d="M686,496.22V499a.7.7,0,0,0,.14.49.73.73,0,0,0,.52.15h.59v.67h-.72a1.41,1.41,0,0,1-1-.31,1.29,1.29,0,0,1-.33-1v-2.82h-.62v-.66h.62v-1.2h.8v1.2h1.25v.66Z" fill="#fafafa"></path>
  <path d="M694.68,495.56l-2.88,7H691l.94-2.3L690,495.56h.88l1.5,3.88,1.49-3.88Z" fill="#fafafa"></path>
  <path d="M699.82,498.25H696a1.54,1.54,0,0,0,.49,1.11,1.56,1.56,0,0,0,1.07.4,1.48,1.48,0,0,0,.86-.24,1.26,1.26,0,0,0,.48-.65h.86A2.08,2.08,0,0,1,699,500a2.58,2.58,0,0,1-2.65.12,2.07,2.07,0,0,1-.84-.87,2.6,2.6,0,0,1-.31-1.3,2.68,2.68,0,0,1,.3-1.3,2,2,0,0,1,.83-.86,2.5,2.5,0,0,1,1.24-.3,2.37,2.37,0,0,1,1.2.29,2.06,2.06,0,0,1,.81.82,2.38,2.38,0,0,1,.28,1.17C699.84,497.92,699.83,498.09,699.82,498.25Zm-1-1.42a1.24,1.24,0,0,0-.54-.5,1.64,1.64,0,0,0-.77-.17,1.48,1.48,0,0,0-1,.38,1.54,1.54,0,0,0-.49,1.07h3A1.48,1.48,0,0,0,698.82,496.83Z" fill="#fafafa"></path>
  <path d="M700.89,496.65a2.19,2.19,0,0,1,.82-.86,2.25,2.25,0,0,1,1.16-.3,2.15,2.15,0,0,1,1.09.27,1.74,1.74,0,0,1,.69.68v-.88h.8v4.79h-.8v-.89a1.82,1.82,0,0,1-.71.69,2,2,0,0,1-1.08.28,2.2,2.2,0,0,1-1.16-.32,2.16,2.16,0,0,1-.81-.88,2.73,2.73,0,0,1-.3-1.29A2.67,2.67,0,0,1,700.89,496.65Zm3.54.36a1.54,1.54,0,0,0-.59-.62,1.65,1.65,0,0,0-.82-.22,1.71,1.71,0,0,0-.81.21,1.6,1.6,0,0,0-.59.62,2,2,0,0,0-.21.94,2.09,2.09,0,0,0,.21,1,1.68,1.68,0,0,0,.59.62,1.6,1.6,0,0,0,.81.21,1.64,1.64,0,0,0,.82-.21,1.6,1.6,0,0,0,.59-.62,2.08,2.08,0,0,0,.22-.95A2,2,0,0,0,704.43,497Z" fill="#fafafa"></path>
  <path d="M708.19,495.7a1.86,1.86,0,0,1,.95-.22v.82h-.21c-.89,0-1.34.48-1.34,1.45v2.6h-.79v-4.79h.79v.78A1.54,1.54,0,0,1,708.19,495.7Z" fill="#fafafa"></path>
  <circle cx="638.71" cy="439.84" r="4.89" fill="#f35733"></circle>
  <g opacity="0.5">
    <rect x="556.9" y="477.57" width="30.5" height="30.5" rx="5.41" fill="#fff"></rect>
  </g>
  <path d="M745.59,496.54a.35.35,0,0,1-.26-.1.38.38,0,0,1,0-.53l3.64-3.68-3.48-3.57a.38.38,0,0,1,0-.53.39.39,0,0,1,.54,0l3.74,3.82a.39.39,0,0,1,0,.53l-3.9,3.94A.36.36,0,0,1,745.59,496.54Z" fill="#fff"></path>
  <path d="M572.15,502.29a9.47,9.47,0,1,1,9.47-9.47A9.48,9.48,0,0,1,572.15,502.29Zm0-18.44a9,9,0,1,0,9,9A9,9,0,0,0,572.15,483.85Z" fill="#fff"></path>
  <path d="M572.15,502.63a9.72,9.72,0,0,1-.93-19.4.54.54,0,0,1,.55.45.51.51,0,0,1-.46.55,8.72,8.72,0,1,0,6.69,2.21.5.5,0,0,1,.67-.74,9.72,9.72,0,0,1-6.52,16.93Z" fill="#fff"></path>
  <polygon points="578.78 566.47 572.25 561.18 565.85 566.47 565.85 576.73 570.59 576.73 570.59 571.65 574.32 571.65 574.32 576.73 578.78 576.73 578.78 566.47" fill="#e6e7e8"></polygon>
  <path d="M626.11,564a6.59,6.59,0,1,0,6.58,6.59h-6.58Z" fill="#e6e7e8"></path>
  <path d="M628,561.89v6h6.68S634,561.83,628,561.89Z" fill="#d1d3d4"></path>
  <path d="M681.9,575.68a6.49,6.49,0,0,1-3.45-1,.5.5,0,0,1-.15-.69.51.51,0,0,1,.69-.16,5.47,5.47,0,1,0-1-8.51.5.5,0,0,1-.71,0,.5.5,0,0,1,0-.7,6.48,6.48,0,1,1,4.58,11Z" fill="#e6e7e8"></path>
  <path d="M679.22,567.35h-3.66a.5.5,0,0,1-.5-.5v-3.62a.5.5,0,0,1,.5-.5.5.5,0,0,1,.5.5v3.12h3.16a.51.51,0,0,1,.5.5A.5.5,0,0,1,679.22,567.35Z" fill="#e6e7e8"></path>
  <path d="M684.58,571.05h-3.07a.51.51,0,0,1-.5-.5v-4.47a.5.5,0,0,1,.5-.5.5.5,0,0,1,.5.5v4h2.57a.5.5,0,0,1,.5.5A.51.51,0,0,1,684.58,571.05Z" fill="#e6e7e8"></path>
  <path d="M744.62,569.2a7.46,7.46,0,1,1-7.46-7.44A7.43,7.43,0,0,1,744.62,569.2Z" fill="#e6e7e8"></path>
  <path d="M742.56,574.35a7.46,7.46,0,0,1-10.79,0,5.73,5.73,0,0,1,10.79,0Z" fill="#d1d3d4"></path>
  <circle cx="737.16" cy="567.12" r="2.08" fill="#d1d3d4"></circle>
  <path d="M369.92,507.89l-8.53,57.76a5.61,5.61,0,0,0,5.55,6.42h72.57l-12.08-50.58L391,507.89Z" fill="#594440"></path>
  <g opacity="0.2">
    <path d="M369.92,507.89l-8.53,57.76a5.61,5.61,0,0,0,5.55,6.42h72.57l-12.08-50.58L391,507.89Z"></path>
  </g>
  <path d="M459.5,360s3.71,2.59,6.7,11.08l14-2.52V353.38l-12.42-12.92S470.47,353.31,459.5,360Z" fill="#f5ae97"></path>
  <path d="M459.5,360a18.84,18.84,0,0,1,3.79,4.7s6.61-2.53,9.12-8.74c0,0-2.3-9.39-3.81-16.08C468.6,339.91,468.86,353.38,459.5,360Z" fill="#f49a82"></path>
  <rect x="433.86" y="298.87" width="34.3" height="63.41" rx="17.15" fill="#f5ae97"></rect>
  <path d="M433.86,320.36s-9.35-15.25,3.47-23.22l17-8.66s13.16-6.59,19.75,0c0,0,19.4-5.89,31.53,24.95l22.86,56.47s20.45,52.67-12.12,51.28c0,0,.48-47.63-38.12-55.43,0,0-7.16-7.08-9.35-23.57l-6.12-11.6s-20.63-11.33-26-24.12a17.41,17.41,0,0,0-2.91,9.56Z" fill="#5a1f20"></path>
  <path d="M518.5,503.93,455.15,473.6S470.55,462,479,424.33c0,0-15.6-15.28-29.82-15.14,0,0,5.68-45.14,29-43.44,0,0,36.45,3.71,38.12,55.43C516.33,421.18,522.63,453.69,518.5,503.93Z" fill="#64af65"></path>
  <g opacity="0.2">
    <polygon points="479.04 424.33 484.56 430.3 477.58 430.3 479.04 424.33"></polygon>
  </g>
  <g opacity="0.2">
    <path d="M484.56,430.79a.5.5,0,0,1-.44-.74c20-35.56,9.9-57.15,9.79-57.37a.49.49,0,0,1,.23-.66.5.5,0,0,1,.67.22c.11.22,10.48,22.24-9.81,58.3A.52.52,0,0,1,484.56,430.79Z"></path>
  </g>
  <path d="M518.5,503.93c-15,75.59-60.33,72.49-60.33,72.49-33.6-1.46-47.29-25.16-51.47-34.77a19.78,19.78,0,0,0-5.39-7.25l-5.69-4.78a3.05,3.05,0,0,1-.73-3.8L427,466.54l28.18,7.06Z" fill="#594440"></path>
  <g opacity="0.2">
    <path d="M488.07,497.38a.46.46,0,0,1-.23-.05l-35-17.7a.5.5,0,1,1,.45-.89l35,17.7a.49.49,0,0,1,.22.67A.5.5,0,0,1,488.07,497.38Z"></path>
  </g>
  <g opacity="0.2">
    <path d="M404.84,532.16a.53.53,0,0,1-.24-.06.49.49,0,0,1-.2-.67l29.72-55a.49.49,0,0,1,.67-.21.5.5,0,0,1,.21.68l-29.72,55A.49.49,0,0,1,404.84,532.16Z"></path>
  </g>
  <path d="M374.77,467.88l-.48-.12c0-.15,3.7-14.92,2.39-27l.5-.06C378.5,452.87,374.81,467.73,374.77,467.88Z" fill="#ed1c24"></path>
  <path d="M224.09,640.36l-58.79-12a42,42,0,0,1-9.39-3.08c-12.21-5.73-10.4-10.76-10.4-10.76.54-4.28,5-3.71,5-3.71a41.57,41.57,0,0,0,22.73,10.37l56,11.39C229.38,641.76,224.09,640.36,224.09,640.36Z" fill="#594440"></path>
  <path d="M201.52,602.26l87-98.2a13,13,0,0,1,11.21-4.29l70.17,8.12-8.14,55.16-65.26-14.18s-10.77,28.6-52.41,53.39c0,0-11.45,7.94-16.22,13.34C227.89,615.6,199.93,628.63,201.52,602.26Z" fill="#f49a82"></path>
  <rect x="339.81" y="329.34" width="8.36" height="55.1" rx="3.61" transform="translate(-86.37 110.94) rotate(-16.31)" fill="#594440"></rect>
  <path d="M343.38,339.91s14.95,5,17.06,17c0,0,.39,11.45,5.29,18.94,0,0,31.43,47,52.48,63.15,0,0,3.46-.57,6.63-7.49l1.44,28.63-61.71-42.78-12.85-34s3.56-.85,2.84-5.19Z" fill="#f49a82"></path>
  <path d="M337.49,351c4,.68,9.68,2.48,7.62,7.09,0,0,3.43,2.92.44,5.85,0,0,3.47,2.23,1.22,4.45,0,0,5,3,1.39,4.1,0,0-9.84,2.93-9.37-4,0,0-3.16-3.05-1.29-6.27,0,0-4.57-1.24-2.22-5.39l0,0A3.18,3.18,0,0,1,337.49,351Z" fill="#f49a82"></path>
  <path d="M345.11,358.63h-.06l-9.87-1.25a.51.51,0,0,1-.44-.56.5.5,0,0,1,.56-.44l9.88,1.26a.5.5,0,0,1-.07,1Z" fill="#f28670"></path>
  <path d="M345.55,364.48h-.1l-8.05-1.7a.5.5,0,0,1-.39-.59.51.51,0,0,1,.59-.39l8,1.7a.51.51,0,0,1,.39.6A.5.5,0,0,1,345.55,364.48Z" fill="#f28670"></path>
  <path d="M338.79,369.05a.5.5,0,0,1,0-1l8-.12h0a.5.5,0,0,1,.5.5.49.49,0,0,1-.49.5l-8,.12Z" fill="#f28670"></path>
  <ellipse cx="468.86" cy="333.69" rx="6.58" ry="8.49" fill="#f5ae97"></ellipse>
  <path d="M430.57,459.4l-33.71,62.78-22.33-54.36s-6.87,28.82-33.37,54.36A129.2,129.2,0,0,0,321,547.06s-18.39,11.11-23.53-.66c0,0-1.32-7-7.11-5.62l58.46-107s12.08-27.6,38.83-15.73a44.54,44.54,0,0,1,14.47,10.55Z" fill="#f5ae97"></path>
  <path d="M453.12,350.92s-2.29-18.35-7.57-14.91a4.09,4.09,0,0,0-3.21,3.9s-3.67.92-3.21,4.59c0,0-2.32.19-1.82,4.12.05.35.12.74.21,1.16.82,3.6.65,9,.26,13.57A38.67,38.67,0,0,1,436,372c-3.91,11.9-15.66,50.59-13.17,79.18,0,0,1.25,13.8,8.51,22.58a15.27,15.27,0,0,0,21.47,1.9c7.91-6.45,19.27-20.66,26.22-51.32,0,0-16.06-15.83-29.82-15.14,0,0,2.29-45.88,6-52.07,0,0,2.68-6.88,4.32-8.26C459.5,348.86,456.56,345.65,453.12,350.92Z" fill="#f49a82"></path>
  <path d="M448.76,349.82a.5.5,0,0,1-.49-.4c-1.36-6.56-3.18-13.21-3.2-13.27a.5.5,0,1,1,1-.27c0,.07,1.86,6.74,3.22,13.34a.5.5,0,0,1-.39.59Z" fill="#f28670"></path>
  <path d="M444.4,351.19a.5.5,0,0,1-.5-.46,49.94,49.94,0,0,0-2-10.66.51.51,0,0,1,.32-.63.49.49,0,0,1,.63.31,51.12,51.12,0,0,1,2.09,10.91.49.49,0,0,1-.46.53Z" fill="#f28670"></path>
  <path d="M440.73,355.32a.49.49,0,0,1-.49-.41c-.81-4.57-1.6-10.28-1.61-10.34a.5.5,0,0,1,1-.14c0,.06.79,5.76,1.6,10.31a.5.5,0,0,1-.4.58Z" fill="#f28670"></path>
  <path d="M449.22,460.62a.5.5,0,0,1-.5-.5V409.19a.5.5,0,0,1,1,0v50.93A.5.5,0,0,1,449.22,460.62Z" fill="#f28670"></path>
  <path d="M326.42,564.79H269.29a41.55,41.55,0,0,1-24.35-5.64c1-3.3,6-2.14,6-2.14.82.07,1.66.09,2.49.08A31.37,31.37,0,0,0,273,549.72c10-8.33,17.34-8.94,17.34-8.94,5.79-1.34,7.11,5.62,7.11,5.62,5.14,11.77,23.53.66,23.53.66C326.26,549.72,326.42,564.79,326.42,564.79Z" fill="#64af65"></path>
  <path d="M322.94,573.4h-60a41.56,41.56,0,0,1-9.81-1.15c-13.11-3.18-12.34-8.46-12.34-8.46-.33-4.3,4.15-4.64,4.15-4.64a41.55,41.55,0,0,0,24.35,5.64h57.13C328.4,573.73,322.94,573.4,322.94,573.4Z" fill="#594440"></path>
  <path d="M229.22,632.61l-56-11.39a41.57,41.57,0,0,1-22.73-10.37c1.62-3.05,6.27-.92,6.27-.92.79.23,1.6.42,2.42.58a31.37,31.37,0,0,0,20.67-3.32c11.48-6.16,18.77-5.31,18.77-5.31,5.94-.15,5.85,6.93,5.85,6.93,2.69,12.56,22.92,5.34,22.92,5.34C232.07,617.81,229.22,632.61,229.22,632.61Z" fill="#64af65"></path>
  <path d="M578.61,309.73h1.08a1.74,1.74,0,0,1,1.74,1.74v88.2a0,0,0,0,1,0,0h-4.57a0,0,0,0,1,0,0v-88.2A1.74,1.74,0,0,1,578.61,309.73Z" fill="#64af65"></path>
  <path d="M586.72,334.41h1.08a1.74,1.74,0,0,1,1.74,1.74v63.52a0,0,0,0,1,0,0H585a0,0,0,0,1,0,0V336.15A1.74,1.74,0,0,1,586.72,334.41Z" fill="#f35733"></path>
  <path d="M610.09,297.49h1.08a1.74,1.74,0,0,1,1.74,1.74V399.67a0,0,0,0,1,0,0h-4.57a0,0,0,0,1,0,0V299.23A1.74,1.74,0,0,1,610.09,297.49Z" fill="#64af65"></path>
  <path d="M618.2,314.16h1.08A1.74,1.74,0,0,1,621,315.9v83.77a0,0,0,0,1,0,0h-4.57a0,0,0,0,1,0,0V315.9A1.74,1.74,0,0,1,618.2,314.16Z" fill="#f35733"></path>
  <path d="M641.85,309.73h1.08a1.74,1.74,0,0,1,1.74,1.74v88.2a0,0,0,0,1,0,0H640.1a0,0,0,0,1,0,0v-88.2A1.74,1.74,0,0,1,641.85,309.73Z" fill="#64af65"></path>
  <path d="M650,321.36H651a1.74,1.74,0,0,1,1.74,1.74v76.57a0,0,0,0,1,0,0h-4.57a0,0,0,0,1,0,0V323.11A1.74,1.74,0,0,1,650,321.36Z" fill="#f35733"></path>
  <path d="M673.36,277.92h1.08a1.74,1.74,0,0,1,1.74,1.74v120a0,0,0,0,1,0,0h-4.57a0,0,0,0,1,0,0v-120A1.74,1.74,0,0,1,673.36,277.92Z" fill="#64af65"></path>
  <path d="M681.47,301.74h1.08a1.74,1.74,0,0,1,1.74,1.74v96.19a0,0,0,0,1,0,0h-4.57a0,0,0,0,1,0,0V303.48a1.74,1.74,0,0,1,1.74-1.74Z" fill="#f35733"></path>
  <path d="M705.7,314.16h1.08a1.74,1.74,0,0,1,1.74,1.74v83.77a0,0,0,0,1,0,0H704a0,0,0,0,1,0,0V315.9A1.74,1.74,0,0,1,705.7,314.16Z" fill="#64af65"></path>
  <path d="M713.81,298.34h1.08a1.74,1.74,0,0,1,1.74,1.74v99.6a0,0,0,0,1,0,0h-4.57a0,0,0,0,1,0,0v-99.6A1.74,1.74,0,0,1,713.81,298.34Z" fill="#f35733"></path>
  <path d="M737.17,314.16h1.08A1.74,1.74,0,0,1,740,315.9v83.77a0,0,0,0,1,0,0h-4.57a0,0,0,0,1,0,0V315.9A1.74,1.74,0,0,1,737.17,314.16Z" fill="#64af65"></path>
  <path d="M745.28,318.75h1.08a1.74,1.74,0,0,1,1.74,1.74v79.18a0,0,0,0,1,0,0h-4.57a0,0,0,0,1,0,0V320.5A1.74,1.74,0,0,1,745.28,318.75Z" fill="#f35733"></path>
  <path d="M766.75,400.05H568.25a.37.37,0,0,1-.37-.38V256.23a.37.37,0,0,1,.37-.37.38.38,0,0,1,.38.37V399.3H766.75a.38.38,0,1,1,0,.75Z" fill="#594440"></path>
  <path d="M566.62,492.42a1.17,1.17,0,0,1-.22-.73,1.38,1.38,0,0,1,.19-.7,1.35,1.35,0,0,1,.58-.49,2.47,2.47,0,0,1,1.85,0,1.35,1.35,0,0,1,.58.49,1.3,1.3,0,0,1,.2.7,1.28,1.28,0,0,1-.22.73,1.42,1.42,0,0,1-.61.46,1.39,1.39,0,0,1,.7.47,1.28,1.28,0,0,1,.26.82,1.38,1.38,0,0,1-.23.81,1.49,1.49,0,0,1-.64.54,2.42,2.42,0,0,1-1,.19,2.38,2.38,0,0,1-1-.19,1.55,1.55,0,0,1-.64-.54,1.45,1.45,0,0,1-.23-.81,1.34,1.34,0,0,1,.26-.82,1.27,1.27,0,0,1,.7-.47A1.32,1.32,0,0,1,566.62,492.42Zm.61,1a.86.86,0,0,0-.33.74.93.93,0,0,0,.32.74,1.55,1.55,0,0,0,1.75,0,1,1,0,0,0,.32-.74.86.86,0,0,0-.33-.73,1.38,1.38,0,0,0-.86-.26A1.45,1.45,0,0,0,567.23,493.41Zm1.65-2.31a1.39,1.39,0,0,0-1.56,0,.83.83,0,0,0-.29.68.79.79,0,0,0,.3.64,1.18,1.18,0,0,0,.77.24,1.2,1.2,0,0,0,.77-.24.81.81,0,0,0,.3-.65A.83.83,0,0,0,568.88,491.1Z" fill="#fafafa"></path>
  <path d="M570.63,491v-.59H572v5.16h-.66V491Z" fill="#fafafa"></path>
  <path d="M573.23,490.79a1.13,1.13,0,0,1,1.51,0,1.18,1.18,0,0,1,0,1.55,1.13,1.13,0,0,1-1.51,0,1.18,1.18,0,0,1,0-1.55Zm.37.28a.75.75,0,0,0-.14.49.78.78,0,0,0,.14.5.46.46,0,0,0,.39.17.47.47,0,0,0,.38-.17.75.75,0,0,0,.14-.5.7.7,0,0,0-.14-.49.44.44,0,0,0-.38-.17A.46.46,0,0,0,573.6,491.07Zm3.52-.49-2.9,5h-.64l2.89-5ZM576,493.8a1,1,0,0,1,.75-.29,1,1,0,0,1,.75.29,1.06,1.06,0,0,1,.29.78,1.09,1.09,0,0,1-.29.78,1,1,0,0,1-.75.29,1.11,1.11,0,0,1-.75-1.85Zm.36.28a.73.73,0,0,0-.14.5.72.72,0,0,0,.14.49.47.47,0,0,0,.38.17.48.48,0,0,0,.39-.17.72.72,0,0,0,.14-.49.73.73,0,0,0-.14-.5.48.48,0,0,0-.39-.17A.47.47,0,0,0,576.33,494.08Z" fill="#fafafa"></path>
</svg>
