<svg xmlns="http://www.w3.org/2000/svg" viewBox="0 0 865.76 682.89"><rect x="396.87" y="28.02" width="311.33" height="601.48" rx="36.96" fill="#1e3163"/><g opacity="0.2"><rect x="403.23" y="32.9" width="300.63" height="588.83" rx="40.06"/></g><path d="M477,42.3H436.77A20.8,20.8,0,0,0,416,63.11V587a23.87,23.87,0,0,0,23.82,23.87l225.57.5a25.72,25.72,0,0,0,25.78-25.72V66a25.72,25.72,0,0,0-25.48-25.72L630.1,39.9a5.51,5.51,0,0,0-4.83,2.75l-7,12.14a7.76,7.76,0,0,1-6.72,3.87H494.32a6.11,6.11,0,0,1-5-2.63l-7.87-11.4A5.44,5.44,0,0,0,477,42.3Z" fill="#fff"/><rect x="504.94" y="40.76" width="102.05" height="8.83" rx="4.42" fill="#1e3163"/><rect x="425.46" y="153.61" width="255.61" height="167.3" rx="8.68" fill="#08aa2b"/><rect x="438.02" y="210.58" width="44.83" height="33.53" fill="#1e3163"/><rect x="437.97" y="216.16" width="44.85" height="1" fill="#fff"/><rect x="437.97" y="237.6" width="44.85" height="1" fill="#fff"/><path d="M462,232.71H438v-1h24a4.33,4.33,0,1,0,0-8.66H438v-1h24a5.33,5.33,0,1,1,0,10.66Z" fill="#fff"/><rect x="466.81" y="226.88" width="15.86" height="1" fill="#fff"/><rect x="459.96" y="210.62" width="1" height="11.78" fill="#fff"/><rect x="459.96" y="232.21" width="1" height="11.78" fill="#fff"/><g opacity="0.2"><rect x="437.84" y="255.02" width="52.21" height="17.2"/></g><g opacity="0.2"><rect x="495.06" y="255.02" width="52.21" height="17.2"/></g><g opacity="0.2"><rect x="553.21" y="255.02" width="52.21" height="17.2"/></g><g opacity="0.2"><rect x="610.43" y="255.02" width="52.21" height="17.2"/></g><g opacity="0.2"><rect x="553.21" y="283.78" width="110.68" height="4.69"/></g><g opacity="0.2"><rect x="552.58" y="294.41" width="110.68" height="4.69"/></g><path d="M669.41,352.78v92A12.46,12.46,0,0,1,657,457.26H444.42A12.46,12.46,0,0,1,432,444.79v-92a12.47,12.47,0,0,1,12.46-12.47H657A12.47,12.47,0,0,1,669.41,352.78Z" fill="#e6e7e8"/><path d="M669.41,352.78v5.34H432v-5.34a12.47,12.47,0,0,1,12.46-12.47H657A12.47,12.47,0,0,1,669.41,352.78Z" fill="#d1d3d4"/><circle cx="621.63" cy="349.22" r="2.96" fill="#e6e7e8"/><circle cx="636.31" cy="349.22" r="2.96" fill="#e6e7e8"/><circle cx="650.99" cy="349.22" r="2.96" fill="#e6e7e8"/><g opacity="0.05"><rect x="443.43" y="367.57" width="79.6" height="79.6"/></g><g opacity="0.05"><rect x="529.5" y="371.61" width="61.01" height="6.47" rx="3.23"/></g><g opacity="0.05"><rect x="596.57" y="372.02" width="61.01" height="6.47" rx="3.23"/></g><g opacity="0.05"><rect x="529.9" y="382.93" width="35.96" height="6.47" rx="3.23"/></g><g opacity="0.05"><rect x="571.32" y="383.13" width="86.27" height="6.47" rx="3.23"/></g><g opacity="0.05"><rect x="529.9" y="393.63" width="51.92" height="6.47" rx="3.23"/></g><g opacity="0.05"><rect x="529.9" y="426.09" width="45.46" height="6.47" rx="3.23"/></g><g opacity="0.05"><rect x="529.9" y="436.8" width="60.81" height="6.47" rx="3.23"/></g><g opacity="0.05"><rect x="580.01" y="426.09" width="45.46" height="6.47" rx="3.23"/></g><g opacity="0.05"><rect x="629.91" y="426.09" width="27.88" height="6.47" rx="3.23"/></g><g opacity="0.05"><rect x="529.9" y="404.14" width="127.89" height="6.47" rx="3.23"/></g><g opacity="0.05"><rect x="529.9" y="414.85" width="72.53" height="6.47" rx="3.23"/></g><g opacity="0.05"><rect x="607.48" y="414.85" width="50.31" height="6.47" rx="3.23"/></g><g opacity="0.05"><rect x="587.08" y="393.63" width="33.94" height="6.47" rx="3.23"/></g><g opacity="0.05"><rect x="625.67" y="393.63" width="31.92" height="6.47" rx="3.23"/></g><rect x="435.1" y="486.95" width="235.8" height="101.66" fill="#e6e7e8"/><rect x="452.39" y="519.97" width="202.79" height="34.58" rx="17.29" fill="#fff"/><path d="M627.15,545.46a9.53,9.53,0,1,1,9.53-9.53A9.54,9.54,0,0,1,627.15,545.46Zm0-18.59a9.06,9.06,0,1,0,9.06,9.06A9.07,9.07,0,0,0,627.15,526.87Z" fill="#e6e7e8"/><path d="M639,547.21a.2.2,0,0,1-.16-.07l-5-5a.24.24,0,0,1,0-.33.25.25,0,0,1,.34,0l5,5a.24.24,0,0,1-.17.4Z" fill="#e6e7e8"/><circle cx="647.44" cy="189.2" r="16.09" fill="#1e3163"/><g opacity="0.4"><path d="M427,187.13l.67-24.89a6,6,0,0,1,5.68-5.8l23.25-1.1S432.22,161.37,427,187.13Z" fill="#fff"/></g><g opacity="0.4"><path d="M436.41,318h232a8.8,8.8,0,0,0,8.8-8.81V223.82S627,296.23,436.41,318Z" fill="#fff"/></g><path d="M394,169.65,379.83,205a4.41,4.41,0,0,1-4.89,2.7l-14.71-2.71a4.4,4.4,0,0,1-3.31-5.94l13.36-34.07a3.15,3.15,0,0,1,3.37-2l17.82,2.37A3.18,3.18,0,0,1,394,169.65Z" fill="#1e3163"/><path d="M330.94,226.86l6.4,9-17.65,39.18s-2.82,3.89-18,1.06l-2.83-41.3Z" fill="#f19e9d"/><path d="M228.23,211.54l-35.44-8.62s8.75-45.89,38.14-44.25l51-2.93,4,4.8,1-6.92s17.72-5.29,25.38,9.08c0,0,22,35.43,18.67,64.16l-24.42,6s-34.47,12.93-66.8,3.11A148,148,0,0,1,228.23,211.54Z" fill="#08aa2b"/><circle cx="237.08" cy="82.57" r="17.03" fill="#51261e"/><g opacity="0.2"><circle cx="237.08" cy="82.57" r="17.03"/></g><circle cx="249.23" cy="137.04" r="13.15" fill="#51261e"/><g opacity="0.2"><circle cx="249.23" cy="137.04" r="13.15"/></g><ellipse cx="264.09" cy="109.25" rx="30.06" ry="33.1" transform="translate(74.71 323.29) rotate(-70.97)" fill="#51261e"/><path d="M295.44,110.75v12A22.4,22.4,0,0,1,273,145.18h-1.75a22.41,22.41,0,0,1-22.42-22.41v-12a22.42,22.42,0,0,1,22.42-22.42H273A22.42,22.42,0,0,1,295.44,110.75Z" fill="#f1c4b3"/><circle cx="246.35" cy="123.14" r="6.51" fill="#f1c4b3"/><path d="M295.58,115.3s-.95-14.68-9.57-17.78c0,0-3.09,10.64-16.7,3.64,0,0-3,13.87-20.47,15.89l-2-7.14,5.66-19.8,11.58-6.33,15.22.94S298,92.13,295.58,115.3Z" fill="#51261e"/><path d="M230.92,158.67s19.4,25.05,39.2,26.06c0,0,15.15.61,17.37-18.18a43.45,43.45,0,0,0-.6-12.93s-7,5.52-9.21-1.12a8.34,8.34,0,0,1-.28-1.12,10.21,10.21,0,0,1-.11-2.47l.3-4.28s-15.25,3.53-24.24-8.79a22.13,22.13,0,0,1,0,2.81C253.12,144.82,250.38,159,230.92,158.67Z" fill="#f1c4b3"/><path d="M286.89,153.62a9.91,9.91,0,0,1-4.95,2.12s4,9.19.1,23.74C282,179.48,290.22,173.62,286.89,153.62Z" fill="#f19e9d"/><path d="M230.93,158.67a34.93,34.93,0,0,0,8.35-.94s3.9,12.79,13.47,20.87A89.92,89.92,0,0,1,230.93,158.67Z" fill="#f19e9d"/><g opacity="0.2"><path d="M299.1,176.58l12.52,12.12a11,11,0,0,1,3.31,9.25,34.36,34.36,0,0,1-2.42,8.56s-6.71,10.54-1.68,18.68l3.83,5.74-8.14,1.92s-5.26-15.56,1.92-27.3c0,0,5-7.66.48-14.6Z"/></g><g opacity="0.2"><path d="M268.5,239.48s-14.17-2.56-25.9-9.5l6.7-.72s-16-4.31-17.72-29l-3.35,11.25s6.7,17.24,11.49,24.42A85.41,85.41,0,0,0,268.5,239.48Z"/></g><path d="M228.5,251.6c28.8,2.92,59.94-1.17,71.19-2.91,2.8-.43,4.37-.72,4.37-.72l2.47-15.12a145.82,145.82,0,0,1-39.62,6.53c-17.49.29-27.19-3.42-27.19-3.42Z" fill="#f1c4b3"/><path d="M304.06,248l1.75,5.38s-39.73,13.61-79.73,5.53l2.42-7.28S253.55,255.64,304.06,248Z" fill="#f1f2f2"/><path d="M305.81,253.35s17.1,39.4,21.83,154.13c0,0,2,93.13-2.7,146.45l-62.76,14.84L256.1,428.4l-31,143.07L167,558l18.22-200.44s2-63.11,40.84-98.66C226.08,258.88,258.67,267.23,305.81,253.35Z" fill="#1e3163"/><path d="M203.45,577.28l-7.27,27.07s-9.3,7.88-18.79,1l4-30.51Z" fill="#f1c4b3"/><path d="M203.45,577.28l-3,11.11S187.49,584.56,180,585l1.42-10.1Z" fill="#f19e9d"/><path d="M158,643.84c1.39,6.46,9.92,5.77,9.92,5.77,26.07-.4,28.29-45.25,28.29-45.25-11.32,8.28-18.79,1-18.79,1-14.75,13.73-19.2,33.33-19.2,33.33A11.79,11.79,0,0,0,158,643.84Z" fill="#08aa2b"/><path d="M170.72,654.46c28.69-8.69,25.46-50.1,25.46-50.1s-2.22,44.85-28.29,45.25c0,0-8.53.69-9.92-5.77C154.82,658.08,170.72,654.46,170.72,654.46Z" fill="#1e3163"/><polygon points="293.03 581.22 291.36 610.43 271.72 616.17 269.81 581.22 293.03 581.22" fill="#f1c4b3"/><polygon points="293.03 581.22 292.61 589.81 270.52 589.81 269.81 581.22 293.03 581.22" fill="#f19e9d"/><path d="M336.26,633.85H267.09s-1-13.53,4.63-17.67l19.64-5.75s15.34-1.36,45.51,21.61A1,1,0,0,1,336.26,633.85Z" fill="#08aa2b"/><rect x="267.09" y="633.85" width="69.17" height="3.84" transform="translate(603.35 1271.54) rotate(-180)" fill="#1e3163"/><path d="M380.41,209.42s-35,67.55-58.63,67a4.75,4.75,0,0,1-3.82-2c-1.71-2.43-3.59-7.64-.18-17.44a47.44,47.44,0,0,1,9.75-16.24l37.7-41.5Z" fill="#f1c4b3"/><g opacity="0.2"><polygon points="256.1 428.4 274.83 345.56 291.94 547.58 325.06 547.03 324.94 553.93 262.18 568.77 256.1 428.4"/></g><g opacity="0.2"><rect x="69.62" y="432.89" width="241.67" height="1" transform="translate(-262.27 571.76) rotate(-83.27)"/></g><g opacity="0.2"><path d="M192.82,315.05l0-1c47.09-1.53,60.29-52.19,60.42-52.7l1,.24C254,262.11,240.65,313.49,192.82,315.05Z"/></g><g opacity="0.2"><rect x="247.34" y="293.56" width="69.96" height="1" transform="translate(-15.03 572.92) rotate(-89.33)"/></g><g opacity="0.2"><rect x="273.93" y="328.93" width="18.74" height="1" transform="translate(-51.28 52.24) rotate(-9.66)"/></g><path d="M253.39,138.65c6.42,11.2,19.83,12.58,24,12.73a10.21,10.21,0,0,1-.11-2.47l.3-4.28s-15.25,3.53-24.24-8.79A22.13,22.13,0,0,1,253.39,138.65Z" fill="#f19e9d"/><path d="M396.16,172.08,382,207.39a4.42,4.42,0,0,1-4.89,2.69l-14.71-2.7a4.42,4.42,0,0,1-3.31-5.95l13.36-34.07a3.18,3.18,0,0,1,3.37-2l17.82,2.37A3.18,3.18,0,0,1,396.16,172.08Z" fill="#08aa2b"/><ellipse cx="381.05" cy="181.4" rx="5.54" ry="3.38" transform="translate(70.35 467.01) rotate(-68.05)" fill="#fff"/><path d="M228.5,251.6c28.8,2.92,59.94-1.17,71.19-2.91l.56-.22s-15.14-4-33.34-9.09c-17.49.29-27.19-3.42-27.19-3.42Z" fill="#f19e9d"/><path d="M228.23,211.54l-5.45,27.39a1.46,1.46,0,0,0,.92,1.65c3.71,1.37,16.77,5.12,45.87,4a.76.76,0,0,0,.71-.59c.44-2.07,2.67-8.75,12.45-2.75L293.24,248a1,1,0,0,1,.27,1.49h0a1,1,0,0,1-1.14.37l-2.55-.78a.29.29,0,0,0-.26.5l3.69,2.83a1.56,1.56,0,0,1,.25,2.24h0a1.54,1.54,0,0,1-1.91.39l-7.07-3.66a1.89,1.89,0,0,0-2.61.91h0a1.9,1.9,0,0,0,.7,2.36l4.61,3a1.5,1.5,0,0,1,.33,2.22h0a1.48,1.48,0,0,1-1.82.38l-7.24-3.62a.9.9,0,0,0-1.3.81h0a.92.92,0,0,0,.29.66l6.68,6.08a1.15,1.15,0,0,1,0,1.68h0a1.14,1.14,0,0,1-1.36.19l-8.78-4.78a.13.13,0,0,0-.2.11c-.06,1.11-.88,6.05-10.71,6.05l-49.85-4.8s-28.43-1.47-21.41-25.84l8.49-32.13Z" fill="#f1c4b3"/><polygon points="229.71 567.18 226.88 583.75 159.81 576.07 162.64 549.81 229.71 567.18" fill="#08aa2b"/><polygon points="257.19 581.32 256.38 566.37 328.71 550.21 326.29 580.92 257.19 581.32" fill="#08aa2b"/><path d="M392.81,197.76s4.06-4.06-1.62-6.49l-10.46-4.51a1.71,1.71,0,0,0-2.19.75l-.07.14a1.7,1.7,0,0,0,.63,2.3l5.72,3.4a.21.21,0,0,1-.17.39l-10.46-3.13a1.71,1.71,0,0,0-2,.87h0a1.73,1.73,0,0,0,.64,2.24l8.95,5.49a.22.22,0,0,1-.18.39l-7.79-2.6a1.89,1.89,0,0,0-2.38,1.19h0a1.89,1.89,0,0,0,.85,2.23l8.08,4.67a.61.61,0,0,1-.39,1.14l-5.73-.82a2.48,2.48,0,0,0-2.8,2.14h0a2.47,2.47,0,0,0,1.51,2.58c3.67,1.51,12.06,4.5,13.94,1.14,0,0,3-2.16,3.25-7.29C390.11,204,392,203.16,392.81,197.76Z" fill="#f1c4b3"/><path d="M288.82,111.39a.48.48,0,0,1-.4-.21s-1.56-2-6.29-.93a.5.5,0,0,1-.21-1c5.47-1.19,7.24,1.23,7.31,1.34a.49.49,0,0,1-.12.69A.52.52,0,0,1,288.82,111.39Z" fill="#51261e"/><path d="M269.62,112.93a.47.47,0,0,1-.32-.12.49.49,0,0,1-.06-.7c2.88-3.41,7.64-2.63,7.84-2.6a.5.5,0,0,1,.4.58.49.49,0,0,1-.57.41c-.05,0-4.41-.72-6.91,2.25A.49.49,0,0,1,269.62,112.93Z" fill="#51261e"/><ellipse cx="284.92" cy="117.43" rx="1.57" ry="3.08" fill="#51261e"/><ellipse cx="275.02" cy="118.04" rx="1.57" ry="3.08" fill="#51261e"/><path d="M280.22,117.88l1.49,6.67a1.06,1.06,0,0,1-1.2,1.27l-3.42-.56Z" fill="#f19e9d"/><path d="M285.48,131.82s-9.6-.9-12.93-3.83c0,0-2,9.92,3.95,11.68a5.8,5.8,0,0,0,5.65-1.46A12.87,12.87,0,0,0,285.48,131.82Z" fill="#fff"/><circle cx="263.09" cy="124.18" r="5.99" fill="#f19e9d"/><path d="M295.44,121.45v1.32a22.33,22.33,0,0,1-2.55,10.39,6,6,0,0,1,1.17-11.87A5.73,5.73,0,0,1,295.44,121.45Z" fill="#f19e9d"/><path d="M478.18,97.71h-10l-2,5h-2.78l8.54-20.86h2.44l8.77,20.86h-2.84Zm-9.05-2.4h8.06l-4.07-9.86Z" fill="#1e3163"/><path d="M503,94.66a8.32,8.32,0,0,1-14.28,5.89v7.9h-2.53V86.61h1.74l.51,2.46A8.32,8.32,0,0,1,503,94.66Zm-2.56,0a5.92,5.92,0,1,0-5.9,6A5.75,5.75,0,0,0,500.4,94.66Z" fill="#1e3163"/><path d="M523.62,94.66a8.11,8.11,0,0,1-8.27,8.4,8.22,8.22,0,0,1-6-2.51v7.9H506.8V86.61h1.74l.51,2.46a8.33,8.33,0,0,1,14.57,5.59Zm-2.56,0a5.92,5.92,0,1,0-5.9,6A5.75,5.75,0,0,0,521.06,94.66Z" fill="#1e3163"/><path d="M527.45,80.87H530V102.7h-2.54Z" fill="#1e3163"/><path d="M535,80.92h2.74v2.91H535Zm.1,5.69h2.54V102.7h-2.54Z" fill="#1e3163"/><path d="M541.44,94.66a8.19,8.19,0,0,1,8.36-8.4A7.83,7.83,0,0,1,557.62,92h-2.51a5.68,5.68,0,0,0-5.31-3.33,6,6,0,0,0,0,11.9,5.64,5.64,0,0,0,5.29-3.41h2.57a7.93,7.93,0,0,1-7.86,5.86A8.2,8.2,0,0,1,541.44,94.66Z" fill="#1e3163"/><path d="M576.93,86.61V102.7h-2.1l-.27-2.43a8.4,8.4,0,1,1,0-11.19l.32-2.47Zm-2.59,8a5.92,5.92,0,1,0-5.9,6A5.75,5.75,0,0,0,574.34,94.66Z" fill="#1e3163"/><path d="M590.45,100.36v2.34h-2.09c-3.45,0-5.59-2.13-5.59-5.62V88.9h-2.83v-.45l5-5.24h.39v3.4h5.05V88.9H585.3V97a3,3,0,0,0,3.39,3.36Z" fill="#1e3163"/><path d="M593.72,80.92h2.74v2.91h-2.74Zm.1,5.69h2.54V102.7h-2.54Z" fill="#1e3163"/><path d="M600.18,94.66a8.53,8.53,0,1,1,8.53,8.4A8.24,8.24,0,0,1,600.18,94.66Zm8.53,6a6,6,0,1,0-5.94-6,5.76,5.76,0,0,0,5.94,6Z" fill="#1e3163"/><path d="M635.36,93.07v9.63h-2.53v-9c0-3.26-1.54-5.08-4.34-5.08a5,5,0,0,0-4.87,5.34v8.78h-2.53V86.61h1.8l.49,2.52a6.78,6.78,0,0,1,5.77-2.87C633,86.26,635.36,89.13,635.36,93.07Z" fill="#1e3163"/><path d="M522.18,113.49v6.89h8.33v2.42h-8.33v9.07h-2.61V111h11.72v2.48Z" fill="#1e3163"/><path d="M533.41,123.82a8.53,8.53,0,1,1,8.53,8.4A8.23,8.23,0,0,1,533.41,123.82Zm8.53,6a6,6,0,1,0-6-6,5.75,5.75,0,0,0,6,6Z" fill="#1e3163"/><path d="M563.1,115.69v2.4h-1.65c-2.94,0-4.6,1.91-4.6,5v8.75h-2.53V115.78h1.8l.41,2.45a5.85,5.85,0,0,1,5.14-2.54Z" fill="#1e3163"/><path d="M589.26,121.58v10.29h-2.53v-9.51c0-2.89-1.34-4.62-3.64-4.62S578.8,120,578.8,123v8.92h-2.48v-9.51c0-2.9-1.34-4.62-3.67-4.62s-4.29,2.26-4.29,5.21v8.92h-2.54V115.78h1.83l.41,2.2a6.5,6.5,0,0,1,5.16-2.56,5.26,5.26,0,0,1,4.93,3,6.47,6.47,0,0,1,5.46-3C587,115.42,589.26,118,589.26,121.58Z" fill="#1e3163"/><path d="M436.5,189.81a6.56,6.56,0,0,1,6.77-6.81,6.25,6.25,0,0,1,6.26,4.67h-1.69a4.65,4.65,0,0,0-4.57-3,5.19,5.19,0,0,0,0,10.38,4.68,4.68,0,0,0,4.63-3.24h1.69a6.29,6.29,0,0,1-6.32,4.86A6.56,6.56,0,0,1,436.5,189.81Z" fill="#fff"/><path d="M456.69,191.24h-3v5.17H452v-13.2h5a4,4,0,0,1,4.3,4,3.88,3.88,0,0,1-2.91,3.81l3.16,5.36h-1.86Zm-3-1.56H457a2.46,2.46,0,1,0,0-4.9h-3.27Z" fill="#fff"/><path d="M471.86,194.83v1.58h-7.68v-13.2h7.47v1.57h-5.82v4.08h5.33v1.53h-5.33v4.44Z" fill="#fff"/><path d="M485.7,189.81a6.42,6.42,0,0,1-6.69,6.6h-4.4v-13.2H479A6.42,6.42,0,0,1,485.7,189.81Zm-1.69,0a4.87,4.87,0,0,0-5.05-5.05h-2.7v10.1H479A4.87,4.87,0,0,0,484,189.81Z" fill="#fff"/><path d="M488.43,183.21h1.65v13.2h-1.65Z" fill="#fff"/><path d="M502,184.76h-4v11.65H496.3V184.76h-4v-1.55H502Z" fill="#fff"/><path d="M507.59,189.81a6.56,6.56,0,0,1,6.77-6.81,6.25,6.25,0,0,1,6.26,4.67h-1.69a4.65,4.65,0,0,0-4.57-3,5.19,5.19,0,0,0,0,10.38,4.68,4.68,0,0,0,4.63-3.24h1.69a6.29,6.29,0,0,1-6.32,4.86A6.56,6.56,0,0,1,507.59,189.81Z" fill="#fff"/><path d="M530.72,193.25h-6.35l-1.29,3.16h-1.76l5.4-13.2h1.55l5.55,13.2H532ZM525,191.73h5.1l-2.57-6.24Z" fill="#fff"/><path d="M540.61,191.24h-3v5.17H536v-13.2h5a4,4,0,0,1,4.3,4,3.88,3.88,0,0,1-2.91,3.81l3.16,5.36h-1.86Zm-3-1.56h3.27a2.46,2.46,0,1,0,0-4.9H537.6Z" fill="#fff"/><path d="M559.19,189.81a6.43,6.43,0,0,1-6.7,6.6h-4.4v-13.2h4.4A6.42,6.42,0,0,1,559.19,189.81Zm-1.69,0a4.88,4.88,0,0,0-5.06-5.05h-2.7v10.1h2.7A4.88,4.88,0,0,0,557.5,189.81Z" fill="#fff"/></svg>