<?xml version="1.0" encoding="UTF-8"?>
<svg xmlns="http://www.w3.org/2000/svg" xmlns:xlink="http://www.w3.org/1999/xlink" width="865.76" height="682.89" viewBox="0 0 865.76 682.89">
  <defs>
    <clipPath id="a">
      <circle cx="350.95" cy="280.1" r="49.17" fill="#0dab59"></circle>
    </clipPath>
  </defs>
  <rect x="-0.41" y="598.2" width="866.57" height="0.43" fill="#ebebeb"></rect>
  <path d="M410.35,520.9H75.7a9.9,9.9,0,0,1-9.88-9.9V40.58a9.89,9.89,0,0,1,9.88-9.81H410.35a9.9,9.9,0,0,1,9.9,9.89h0V511A9.9,9.9,0,0,1,410.35,520.9ZM75.7,31.11a9.47,9.47,0,0,0-9.45,9.47V511a9.47,9.47,0,0,0,9.45,9.47H410.35a9.48,9.48,0,0,0,9.46-9.47V40.58a9.48,9.48,0,0,0-9.46-9.47Z" fill="#ebebeb"></path>
  <path d="M785.25,520.9H450.58a9.91,9.91,0,0,1-9.9-9.9V40.58a9.92,9.92,0,0,1,9.9-9.81H785.25a9.9,9.9,0,0,1,9.86,9.81V511A9.89,9.89,0,0,1,785.25,520.9ZM450.58,31.11a9.48,9.48,0,0,0-9.47,9.47V511a9.48,9.48,0,0,0,9.47,9.47H785.25a9.48,9.48,0,0,0,9.46-9.47V40.58a9.48,9.48,0,0,0-9.46-9.47Z" fill="#ebebeb"></path>
  <rect x="734.27" y="626.08" width="45.06" height="0.43" fill="#ebebeb"></rect>
  <rect x="538.6" y="630.8" width="78.04" height="0.43" fill="#ebebeb"></rect>
  <rect x="627.18" y="610" width="105.36" height="0.43" fill="#ebebeb"></rect>
  <rect x="90.51" y="612.91" width="33.33" height="0.43" fill="#ebebeb"></rect>
  <rect x="139.29" y="612.91" width="95.83" height="0.43" fill="#ebebeb"></rect>
  <rect x="293.66" y="620.23" width="129.07" height="0.43" fill="#ebebeb"></rect>
  <rect x="79.73" y="471.02" width="36.74" height="127.18" fill="#fafafa"></rect>
  <rect x="111.9" y="498.92" width="36.74" height="99.27" fill="#fafafa"></rect>
  <rect x="135.4" y="417.12" width="36.74" height="181.08" fill="#fafafa"></rect>
  <rect x="159.82" y="270.29" width="36.74" height="327.91" fill="#fafafa"></rect>
  <rect x="188.85" y="295.82" width="98.6" height="302.38" fill="#fafafa"></rect>
  <rect x="670.81" y="511.16" width="41.98" height="87.04" fill="#fafafa"></rect>
  <rect x="634.03" y="530.26" width="41.98" height="67.94" fill="#fafafa"></rect>
  <rect x="607.2" y="474.26" width="41.98" height="123.94" fill="#fafafa"></rect>
  <rect x="579.3" y="373.77" width="41.98" height="224.42" fill="#fafafa"></rect>
  <rect x="473.04" y="324.03" width="128.82" height="274.17" fill="#f0f0f0"></rect>
  <rect x="583.46" y="335.52" width="6.14" height="33.36" fill="#f5f5f5"></rect>
  <rect x="583.46" y="387.71" width="6.14" height="33.36" fill="#f5f5f5"></rect>
  <rect x="583.46" y="439.88" width="6.14" height="33.36" fill="#f5f5f5"></rect>
  <rect x="583.46" y="492.04" width="6.14" height="33.36" fill="#f5f5f5"></rect>
  <rect x="583.46" y="544.23" width="6.14" height="33.36" fill="#f5f5f5"></rect>
  <rect x="561.72" y="335.52" width="6.14" height="33.36" fill="#f5f5f5"></rect>
  <rect x="561.72" y="387.71" width="6.14" height="33.36" fill="#f5f5f5"></rect>
  <rect x="561.72" y="439.88" width="6.14" height="33.36" fill="#f5f5f5"></rect>
  <rect x="561.72" y="492.04" width="6.14" height="33.36" fill="#f5f5f5"></rect>
  <rect x="561.72" y="544.23" width="6.14" height="33.36" fill="#f5f5f5"></rect>
  <rect x="539.99" y="335.52" width="6.14" height="33.36" fill="#f5f5f5"></rect>
  <rect x="539.99" y="387.71" width="6.14" height="33.36" fill="#f5f5f5"></rect>
  <rect x="539.99" y="439.88" width="6.14" height="33.36" fill="#f5f5f5"></rect>
  <rect x="539.99" y="492.04" width="6.14" height="33.36" fill="#f5f5f5"></rect>
  <rect x="539.99" y="544.23" width="6.14" height="33.36" fill="#f5f5f5"></rect>
  <rect x="518.25" y="335.52" width="6.14" height="33.36" fill="#f5f5f5"></rect>
  <rect x="518.25" y="387.71" width="6.14" height="33.36" fill="#f5f5f5"></rect>
  <rect x="518.25" y="439.88" width="6.14" height="33.36" fill="#f5f5f5"></rect>
  <rect x="518.25" y="492.04" width="6.14" height="33.36" fill="#f5f5f5"></rect>
  <rect x="518.25" y="544.23" width="6.14" height="33.36" fill="#f5f5f5"></rect>
  <rect x="496.5" y="335.52" width="6.14" height="33.36" fill="#f5f5f5"></rect>
  <rect x="496.5" y="387.71" width="6.14" height="33.36" fill="#f5f5f5"></rect>
  <rect x="496.5" y="439.88" width="6.14" height="33.36" fill="#f5f5f5"></rect>
  <rect x="496.5" y="492.04" width="6.14" height="33.36" fill="#f5f5f5"></rect>
  <rect x="496.5" y="544.23" width="6.14" height="33.36" fill="#f5f5f5"></rect>
  <g opacity="0.5" style="isolation:isolate">
    <polygon points="473.04 324.03 499.57 324.03 511.11 598.2 473.04 598.2 473.04 324.03" fill="#e0e0e0"></polygon>
  </g>
  <polygon points="409.71 218.1 486.11 232.56 486.11 598.2 409.71 598.2 409.71 218.1" fill="#f0f0f0"></polygon>
  <rect x="348.58" y="218.1" width="61.13" height="380.1" fill="#e6e6e6"></rect>
  <rect x="348.58" y="249.61" width="137.52" height="1.94" fill="#e0e0e0"></rect>
  <rect x="348.58" y="270.31" width="137.52" height="1.94" fill="#e0e0e0"></rect>
  <rect x="348.58" y="291" width="137.52" height="1.94" fill="#e0e0e0"></rect>
  <rect x="348.58" y="311.68" width="137.52" height="1.94" fill="#e0e0e0"></rect>
  <rect x="348.58" y="332.39" width="137.52" height="1.94" fill="#e0e0e0"></rect>
  <rect x="348.58" y="353.08" width="137.52" height="1.94" fill="#e0e0e0"></rect>
  <rect x="348.58" y="373.77" width="137.52" height="1.94" fill="#e0e0e0"></rect>
  <rect x="348.58" y="394.47" width="137.52" height="1.94" fill="#e0e0e0"></rect>
  <rect x="348.58" y="415.18" width="137.52" height="1.94" fill="#e0e0e0"></rect>
  <rect x="348.58" y="435.87" width="137.52" height="1.94" fill="#e0e0e0"></rect>
  <rect x="348.58" y="456.57" width="137.52" height="1.94" fill="#e0e0e0"></rect>
  <rect x="348.58" y="477.24" width="137.52" height="1.94" fill="#e0e0e0"></rect>
  <rect x="348.58" y="497.95" width="137.52" height="1.94" fill="#e0e0e0"></rect>
  <rect x="348.58" y="518.65" width="137.52" height="1.94" fill="#e0e0e0"></rect>
  <rect x="348.58" y="539.34" width="137.52" height="1.94" fill="#e0e0e0"></rect>
  <rect x="348.58" y="560.03" width="137.52" height="1.94" fill="#e0e0e0"></rect>
  <rect x="348.58" y="580.75" width="137.52" height="1.94" fill="#e0e0e0"></rect>
  <rect x="251.25" y="137.32" width="63.9" height="460.88" fill="#f0f0f0"></rect>
  <polygon points="315.15 137.32 251.25 137.32 274.76 96.63 366.27 96.63 315.15 137.32" fill="#fafafa"></polygon>
  <polygon points="315.15 137.32 366.27 96.63 366.27 598.2 315.15 598.2 315.15 137.32" fill="#ebebeb"></polygon>
  <rect x="251.25" y="158.79" width="115.03" height="2.46" fill="#e0e0e0"></rect>
  <rect x="251.25" y="184.88" width="115.03" height="2.46" fill="#e0e0e0"></rect>
  <rect x="251.25" y="210.96" width="115.03" height="2.46" fill="#e0e0e0"></rect>
  <rect x="251.25" y="237.06" width="115.03" height="2.46" fill="#e0e0e0"></rect>
  <rect x="251.25" y="263.15" width="115.03" height="2.46" fill="#e0e0e0"></rect>
  <rect x="251.25" y="289.23" width="115.03" height="2.46" fill="#e0e0e0"></rect>
  <rect x="251.25" y="315.32" width="115.03" height="2.46" fill="#e0e0e0"></rect>
  <rect x="251.25" y="341.4" width="115.03" height="2.46" fill="#e0e0e0"></rect>
  <rect x="251.25" y="367.48" width="115.03" height="2.46" fill="#e0e0e0"></rect>
  <rect x="251.25" y="393.58" width="115.03" height="2.46" fill="#e0e0e0"></rect>
  <rect x="251.25" y="419.67" width="115.03" height="2.46" fill="#e0e0e0"></rect>
  <rect x="251.25" y="445.75" width="115.03" height="2.46" fill="#e0e0e0"></rect>
  <rect x="251.25" y="471.84" width="115.03" height="2.46" fill="#e0e0e0"></rect>
  <rect x="251.25" y="497.92" width="115.03" height="2.46" fill="#e0e0e0"></rect>
  <rect x="251.25" y="524" width="115.03" height="2.46" fill="#e0e0e0"></rect>
  <rect x="251.25" y="550.1" width="115.03" height="2.46" fill="#e0e0e0"></rect>
  <rect x="251.25" y="576.19" width="115.03" height="2.46" fill="#e0e0e0"></rect>
  <rect x="170.4" y="360.34" width="69.76" height="237.86" fill="#f0f0f0"></rect>
  <rect x="184.12" y="372.63" width="11.2" height="38.18" fill="#e6e6e6"></rect>
  <rect x="211.59" y="372.63" width="11.2" height="38.18" fill="#e6e6e6"></rect>
  <rect x="184.12" y="422.08" width="11.2" height="38.18" fill="#e6e6e6"></rect>
  <rect x="211.59" y="422.08" width="11.2" height="38.18" fill="#e6e6e6"></rect>
  <rect x="184.12" y="471.51" width="11.2" height="38.18" fill="#e6e6e6"></rect>
  <rect x="211.59" y="471.51" width="11.2" height="38.18" fill="#e6e6e6"></rect>
  <rect x="184.12" y="520.95" width="11.2" height="38.18" fill="#e6e6e6"></rect>
  <rect x="211.59" y="520.95" width="11.2" height="38.18" fill="#e6e6e6"></rect>
  <polygon points="240.14 360.34 170.4 360.34 186.76 343.86 256.51 343.86 240.14 360.34" fill="#fff"></polygon>
  <polygon points="240.14 360.34 256.51 343.86 272.88 360.34 272.88 598.2 240.14 598.2 240.14 360.34" fill="#e6e6e6"></polygon>
  <rect x="219.34" y="130.54" width="266.97" height="518.51" rx="8.77" fill="#323232"></rect>
  <path d="M471.74,184.73V577.07a27.65,27.65,0,0,1-27.65,27.65H265a27.64,27.64,0,0,1-27.65-27.65V184.73a27.64,27.64,0,0,1,27.53-27.65h39.63l6.8,14.61h96.06l9.07-14.61h27.68a27.65,27.65,0,0,1,25.92,18,26.94,26.94,0,0,1,1.7,8.82A7.31,7.31,0,0,1,471.74,184.73Z" fill="#fff"></path>
  <path d="M384.11,444.28a35.15,35.15,0,1,0,35.15,35.15A35.15,35.15,0,0,0,384.11,444.28Zm0,60.62a25.47,25.47,0,1,1,25.47-25.47A25.47,25.47,0,0,1,384.11,504.9Z" fill="#e6e7e8"></path>
  <path d="M471.74,500.13v76.94a27.65,27.65,0,0,1-27.65,27.65H265a27.64,27.64,0,0,1-27.65-27.65V500.13Z" fill="#d1d3d4"></path>
  <path d="M293.77,533a4.37,4.37,0,0,1-4.35,4.6H256.83a3,3,0,0,1-.52,0,4.35,4.35,0,0,1-3.84-4.56,4.52,4.52,0,0,1,4.6-4.13h1.2v-7.64a4.59,4.59,0,0,1,4.6-4.6h20.51a4.6,4.6,0,0,1,4.58,4.6v7.64h1.21A4.53,4.53,0,0,1,293.77,533Z" fill="#0dab59"></path>
  <path d="M409.76,224.93v-41h61.95a26.94,26.94,0,0,0-1.7-8.82H358.21v-3.49h-10v12.31h52.53v41H275.55V157.08h-10.7v205.3H237.23v11.13h27.62V500.33h10.7V235.16H471.73V224.93Z" fill="#e6e7e8"></path>
  <path d="M472.23,412.27H451.77V281H336.82V412.27H275.16V423H441v77h10.77V423h20.46Zm-124.64,0V289.59H441V412.27Z" fill="#e6e7e8"></path>
  <rect x="237.4" y="475.43" width="234.48" height="10.95" fill="#e6e7e8"></rect>
  <rect x="378.85" y="422.81" width="10.52" height="24.84" fill="#e6e7e8"></rect>
  <rect x="320.75" y="436.71" width="2" height="1" fill="#e0dbb3"></rect>
  <path d="M417.92,437.71h-4v-1h4Zm-7.93,0h-4v-1h4Zm-7.93,0h-4v-1h4Zm-7.93,0h-4v-1h4Zm-7.93,0h-4v-1h4Zm-7.93,0h-4v-1h4Zm-7.93,0h-4v-1h4Zm-7.93,0h-4v-1h4Zm-7.93,0h-4v-1h4Zm-7.94,0h-4v-1h4Zm-7.93,0h-4v-1h4Zm-7.93,0h-4v-1h4Z" fill="#e0dbb3"></path>
  <polygon points="424.39 437.71 421.89 437.71 421.89 436.71 423.39 436.71 423.39 435.21 424.39 435.21 424.39 437.71" fill="#e0dbb3"></polygon>
  <path d="M424.39,431.2h-1v-4h1Zm0-8h-1v-4h1Zm0-8h-1v-4h1Zm0-8h-1v-4h1Zm0-8h-1v-4h1Zm0-8h-1v-4h1Zm0-8h-1v-4h1Zm0-8h-1v-4h1Zm0-8h-1v-4h1Zm0-8h-1v-4h1Zm0-8h-1v-4h1Zm0-8h-1v-4h1Zm0-8h-1v-4h1Zm0-8h-1v-4h1Zm0-8h-1v-4h1Z" fill="#e0dbb3"></path>
  <polygon points="424.39 311.15 423.39 311.15 423.39 309.65 421.89 309.65 421.89 308.65 424.39 308.65 424.39 311.15" fill="#e0dbb3"></polygon>
  <path d="M418.14,309.65H414.4v-1h3.74Zm-7.49,0h-3.74v-1h3.74Z" fill="#e0dbb3"></path>
  <rect x="401.16" y="308.65" width="2" height="1" fill="#e0dbb3"></rect>
  <path d="M314,444a7.24,7.24,0,1,1,7.24-7.23A7.23,7.23,0,0,1,314,444Zm0-13.47a6.24,6.24,0,1,0,6.24,6.24A6.24,6.24,0,0,0,314,430.48Z" fill="#e0dbb3"></path>
  <path d="M289.59,571.2a16,16,0,1,1-16-16A16,16,0,0,1,289.59,571.2Z" fill="#0dab59"></path>
  <path d="M284.29,583.08v0a16,16,0,0,1-20.78.6,4.36,4.36,0,0,1,0-.63,10.39,10.39,0,0,1,5.41-9.12,6,6,0,1,1,9.1-.43A10.41,10.41,0,0,1,284.29,583.08Z" fill="#fff"></path>
  <rect x="261.41" y="520.35" width="23.41" height="8.26" rx="2.89" fill="#fff"></rect>
  <rect x="265.21" y="531.23" width="15.66" height="2.92" rx="1.02" fill="#fff"></rect>
  <circle cx="259.77" cy="532.69" r="1.73" fill="#fff"></circle>
  <circle cx="286.22" cy="532.69" r="1.73" fill="#fff"></circle>
  <path d="M261.22,537.64v2.16a2.46,2.46,0,0,1-4.91,0v-2.2a3,3,0,0,0,.52,0Z" fill="#0dab59"></path>
  <path d="M289.37,537.71v2.15a2.46,2.46,0,1,1-4.91,0v-2.2a2.94,2.94,0,0,0,.51.05Z" fill="#0dab59"></path>
  <rect x="405.12" y="523.45" width="43.21" height="15.94" fill="#0dab59"></rect>
  <rect x="311.75" y="547.36" width="2.52" height="9.65" fill="#0dab59"></rect>
  <rect x="320.17" y="547.36" width="9.7" height="9.65" fill="#0dab59"></rect>
  <rect x="334.75" y="547.36" width="2.52" height="9.65" fill="#0dab59"></rect>
  <rect x="342.7" y="547.36" width="2.52" height="9.65" fill="#0dab59"></rect>
  <rect x="350.86" y="547.36" width="2.52" height="9.65" fill="#0dab59"></rect>
  <rect x="358.72" y="547.36" width="2.52" height="9.65" fill="#0dab59"></rect>
  <rect x="368" y="547.36" width="9.68" height="9.65" fill="#0dab59"></rect>
  <circle cx="378.88" cy="576.77" r="2.63" fill="#0dab59"></circle>
  <circle cx="391.8" cy="576.77" r="2.63" fill="#0dab59"></circle>
  <circle cx="404.49" cy="576.77" r="2.63" fill="#0dab59"></circle>
  <circle cx="417.41" cy="576.77" r="2.63" fill="#0dab59"></circle>
  <circle cx="430.33" cy="577.01" r="2.63" fill="#0dab59"></circle>
  <g opacity="0.2">
    <rect x="315.47" y="621.76" width="82.31" height="11.49"></rect>
  </g>
  <g opacity="0.2">
    <rect x="319.14" y="142.49" width="65.37" height="9.38"></rect>
  </g>
  <g opacity="0.2">
    <circle cx="398.44" cy="147.18" r="5.66"></circle>
  </g>
  <path d="M520.83,262.09l1.18-1.81a1.21,1.21,0,0,1,2.14.35,11.88,11.88,0,0,1-.06,6.62Z" fill="#ffb799"></path>
  <path d="M620.34,417.73c.35,9.83-3.37,12.69-6.27,13.44a7.66,7.66,0,0,1-3.26.13c-31.88-4.74-60.67-.17-70.07,1.63l-.54.11a2.14,2.14,0,0,1-2.54-2.21l1.88-39.65c-.57-51.05,9.89-71.51,9.89-71.51,35.56,6.69,56.61-3.3,56.61-3.3,15.42,6.27,16.9,53.46,16.9,53.46Z" fill="#e0dbb3"></path>
  <path d="M641.63,342.3l-3.84,20.15-1.32,6.94a2.72,2.72,0,0,1-3.18,2.16l-49.49-9.42a2.7,2.7,0,0,1-2.15-3.17l1.47-7.77,3.68-19.33A2.72,2.72,0,0,1,590,329.7l49.49,9.41A2.75,2.75,0,0,1,641.63,342.3Z" fill="#0dab59"></path>
  <g opacity="0.2">
    <path d="M641.63,342.3l-3.84,20.15-1.32,6.94a2.72,2.72,0,0,1-3.18,2.16l-49.49-9.42a2.7,2.7,0,0,1-2.15-3.17l1.47-7.77,3.68-19.33A2.72,2.72,0,0,1,590,329.7l49.49,9.41A2.75,2.75,0,0,1,641.63,342.3Z" fill="#fff"></path>
  </g>
  <g opacity="0.2">
    <path d="M641.63,342.3l-3.26,17.08a3.08,3.08,0,0,1-3.64,2.44l-48.64-10a3.08,3.08,0,0,1-2.4-3.6l3.11-16.35A2.72,2.72,0,0,1,590,329.7l49.49,9.41A2.75,2.75,0,0,1,641.63,342.3Z" fill="#fff"></path>
  </g>
  <rect x="536.24" y="167.94" width="36.87" height="52.18" rx="18.44" fill="#ffb799"></rect>
  <path d="M607.68,233.28c-9.8-4.8-22.56-4.57-22.56-4.57-11.17.23-10.94-7.51-10.94-7.51l.68-12.54,1.37-4.33L571,195c-20.14,9.69-21.91-3.89-22-8.69a14.6,14.6,0,0,0-.86-5.2c-1.33-3.51-3.45-4.52-5.42-4.55a6.07,6.07,0,0,0-5.63,4,.32.32,0,0,0,0,.09,4,4,0,0,0-.24.74,18.79,18.79,0,0,0-.35,2c0,.15,0,.31-.07.47a1.07,1.07,0,0,1,0,.25c-.08.85-.14,1.66-.17,2.32v.14c0,.93,0,1.56,0,1.56l0,13.68a17.09,17.09,0,0,0,1.4,7.18,1.22,1.22,0,0,0,.1.23,17.91,17.91,0,0,0,2.17,3.62l.05,0a18.16,18.16,0,0,0,20.29,6.42c2,13.57-9.55,15-9.55,15-23,3.43-19.6,21-19.6,21h0c-6.09-1.88-6.31-6.22-5.43-9.51a13.65,13.65,0,0,1,2.48-4.93c4.79-6.08-.66-11.54-.66-11.54-4.33-4.22-3.36-8.2-1.32-11.14,4.63-6.6,6.94-14.54,5.67-22.5-.14-.92-.28-1.72-.4-2.37a17.32,17.32,0,0,1-.31-3.37c.35-27.16,19.15-26.95,19.15-26.95,19.38-7.52,22.11,1.83,22.11,1.83a30.41,30.41,0,0,1,8-.61,14.72,14.72,0,0,1,13.93,13c.85,8.38-2.82,17.43-2.82,17.43-4.78,13.45,4.78,16.87,4.78,16.87C613.38,219.6,607.68,233.28,607.68,233.28Z" fill="#323232"></path>
  <path d="M572.2,207.24a17.93,17.93,0,0,1-12,11.94s2.41,13-9.55,15L550.57,249l15.37-4.22,18.77,2.31.41-18.38s-10.19,1-10.94-7.51l1.05-13S572.77,208.22,572.2,207.24Z" fill="#ffb799"></path>
  <path d="M547.9,301.32l1.53,18.36S580,328.22,606,316.62c0,0,0-31.22,1.23-36.42,0,0,7.34,8,13.77,26.32l-15,37s.92,9.18,16.22,8.57l20.5-29.69A36,36,0,0,0,644,293.67s-15.69-52.23-36.31-60.39c0,0-6.15-4-22.56-4.57l-.41,18.38-18.77-2.31L550.57,249l.13-14.82s-21.49,1.74-19.64,21l-3.56,29.57L514,289.62s-10,33.07,3.06,36.44a8,8,0,0,0,4.79-.34C526,324.21,535.14,319,547.9,301.32Z" fill="#0dab59"></path>
  <g opacity="0.2">
    <path d="M607.27,280.2l-6.17,15.2a9.63,9.63,0,0,0-.15,6.85l5,14.14c0,.05.08,0,.08,0l.2-19.93S606.58,284,607.27,280.2Z"></path>
  </g>
  <g opacity="0.2">
    <polygon points="525.87 285.18 530 299.72 528.47 274.93 527.5 284.72 525.87 285.18"></polygon>
  </g>
  <g opacity="0.2">
    <path d="M545.15,264.07c-7.73,11-8.64,23.17.77,33.51a40.3,40.3,0,0,1-3.38-3.28c-7.93-8.86-5.46-22.35,2.61-30.23Z"></path>
  </g>
  <g opacity="0.2">
    <circle cx="571.09" cy="258.02" r="2.68"></circle>
  </g>
  <g opacity="0.2">
    <circle cx="571.4" cy="267.81" r="2.68"></circle>
  </g>
  <path d="M619.51,476s.58,80.15-20.2,94.83a416.28,416.28,0,0,0-15.22-58.78,1.07,1.07,0,0,1,0,.18c.9,12.83-3.2,70.64-3.2,70.64-14.35,14.68-20.09,5.43-20.09,5.43-.19-.64-.37-1.29-.54-1.93-16.46-58.8-19.09-125.38-19.49-146.58-.1-4.41-.08-6.85-.08-6.85l0,0c9.4-1.8,38.19-6.37,70.07-1.63a7.66,7.66,0,0,0,3.26-.13c-1.48,13.27,2.42,31.32,2.84,33.21,0,.06,0,.1,0,.16a84.81,84.81,0,0,1,2.64,11.54A.24.24,0,0,0,619.51,476Z" fill="#ffb799"></path>
  <path d="M580.9,582.89c-14.35,14.68-20.09,5.43-20.09,5.43-.19-.64-.37-1.29-.54-1.93,20.32-1.9,18.4-100.16,18.4-100.16l5.42,25.84a1.07,1.07,0,0,1,0,.18C585,525.08,580.9,582.89,580.9,582.89Z" fill="#ff8d7e"></path>
  <path d="M620.15,564.71c.31,10.21-6.71,14-6.71,14-13.07,7-14-7.34-14-7.34,0-.19-.07-.37-.1-.56,20.78-14.68,20.2-94.83,20.2-94.83a.24.24,0,0,1,.08.06C625.18,509.64,620.15,564.71,620.15,564.71Z" fill="#ff8d7e"></path>
  <path d="M570.52,431l2.38,30.47c-5.56-17.53-32.06-21.71-32.06-21.71h-.06c-.1-4.41-.08-6.85-.08-6.85l0,0c9.4-1.8,38.19-6.37,70.07-1.63a7.66,7.66,0,0,0,3.26-.13c-1.48,13.27,2.42,31.32,2.84,33.21C607.1,433.7,570.52,431,570.52,431Z" fill="#ff8d7e"></path>
  <path d="M606.42,345s-9.87,3.07-14.88,2.47a.82.82,0,0,0-.87.52c-.5,1.28-.24,4.2,12.39,4.2l-3.2,10.57a3.88,3.88,0,0,0,2.61,4.93A4.46,4.46,0,0,0,606,367s.52,2.46,5.31,1c0,0,5.26,3.28,8.23-2.93a13.08,13.08,0,0,0,1.18-5.11l.19-7.73S609.92,352.38,606.42,345Z" fill="#ffb799"></path>
  <path d="M491.94,263.08c.77,1.53,19.49,31.71,19.49,31.71l19.1-11.27-19.67-30.95Z" fill="#323232"></path>
  <g opacity="0.2">
    <path d="M491.94,263.08c.77,1.53,19.49,31.71,19.49,31.71l19.1-11.27-19.67-30.95Z"></path>
  </g>
  <path d="M494.86,261.48c.77,1.53,19.49,31.71,19.49,31.71l19.1-11.27L513.77,251Z" fill="#323232"></path>
  <path d="M497.27,271.82s-4.42,2.36.15,5.16c0,0,0,3.68,4.42,4.27,0,0,.15,4.86,3.53,4.57v0a3.23,3.23,0,0,0,5.32,2.84c2.49-2.11,5.73-5.93.43-8.48,0,0,1.91-5.89-2.95-4.86,0,0,1-5-4.86-3.54C503.31,271.82,502.72,266.67,497.27,271.82Z" fill="#ffb799"></path>
  <path d="M498.48,276.81a.5.5,0,0,1-.33-.88l4.34-3.81a.5.5,0,0,1,.7,0,.51.51,0,0,1,0,.71l-4.34,3.81A.46.46,0,0,1,498.48,276.81Z" fill="#ff8d7e"></path>
  <path d="M502.3,281a.52.52,0,0,1-.38-.17.51.51,0,0,1,.05-.71l5.87-5.11a.5.5,0,1,1,.66.76l-5.88,5.11A.49.49,0,0,1,502.3,281Z" fill="#ff8d7e"></path>
  <path d="M505.94,285.82a.48.48,0,0,1-.38-.17.49.49,0,0,1,.05-.7l4.5-4a.5.5,0,0,1,.67.75l-4.51,4A.54.54,0,0,1,505.94,285.82Z" fill="#ff8d7e"></path>
  <g opacity="0.2">
    <path d="M607.68,233.28c-9-12.12-23.45-16.85-23.45-16.85C573,208.67,582.8,194,582.8,194c5.3-11.21,0-19.38,0-19.38,2.64-.62,3.46.81,3.46.81-2-5.95-6.19-6.41-9.32-5.77a12.33,12.33,0,0,0-5.12,2.47c-5.11,4.09-7.58,3.91-7.58,3.91,2.24-2.65,7.14-8.15,7.14-8.15-24.83-6.38-32.11,5.06-34.25,12.62a.32.32,0,0,0,0,.09,25.14,25.14,0,0,0-.59,2.69c0,.15,0,.31-.07.47a2.13,2.13,0,0,1,0,.25,20.51,20.51,0,0,0-.17,2.32v15.38a24.93,24.93,0,0,0,1.4,7.18,1.22,1.22,0,0,0,.1.23,9.65,9.65,0,0,0,2.17,3.62l.05,0c-12.46,8.35-3.69,17.54-3.69,17.54,4.9,7.14-6.11,15.51-6.11,15.51-5.47,6.64.38,9.14.9,9.34-6.09-1.88-6.31-6.22-5.43-9.51a13.65,13.65,0,0,1,2.48-4.93c4.79-6.08-.66-11.54-.66-11.54-4.33-4.22-3.36-8.2-1.32-11.14,4.63-6.6,6.94-14.54,5.67-22.5-.14-.92-.28-1.72-.4-2.37a17.32,17.32,0,0,1-.31-3.37c.35-27.16,19.15-26.95,19.15-26.95,19.38-7.52,22.11,1.83,22.11,1.83a30.41,30.41,0,0,1,8-.61,14.72,14.72,0,0,1,13.93,13c.85,8.38-2.82,17.43-2.82,17.43-4.78,13.45,4.78,16.87,4.78,16.87C613.38,219.6,607.68,233.28,607.68,233.28Z"></path>
  </g>
  <path d="M557.11,231.05s4.15-3.88,3.14-11.87c0,0,8.33-1.63,12-11.94l3.23.29-1.25,13.67S566.62,231.17,557.11,231.05Z" fill="#ff8d7e"></path>
  <ellipse cx="574.46" cy="200.91" rx="5.89" ry="7.73" fill="#ffb799"></ellipse>
  <circle cx="350.95" cy="280.1" r="49.17" fill="#0dab59"></circle>
  <g clip-path="url(#a)">
    <rect x="334.89" y="565.61" width="12.12" height="13.23" transform="translate(681.89 1144.45) rotate(-180)" fill="#ffb799"></rect>
    <rect x="367.63" y="566.87" width="10.63" height="12.1" transform="translate(745.9 1145.84) rotate(-180)" fill="#ffb799"></rect>
    <path d="M323.34,412.59l8.91,153.47a3.23,3.23,0,0,0,3.33,3l11.36-.39c9.1-.24,7.13-11.8,7.13-11.8l1-124.74a1.36,1.36,0,0,1,2.72,0V450c1.11,30.58,7.21,102.29,8.4,116.16a2.94,2.94,0,0,0,2.6,2.65c9.9,1.1,13.7-1.23,15.07-2.69a2.92,2.92,0,0,0,.76-1.87l1.19-34.85c2-31.95,2-116.27,2-116.27l.69-3.65.2-1.06.83-4.39-4.86-.86c.28.93.52,1.75.72,2.4.39,1.26.6,2,.6,2-18.56,10.32-40.92,2-50.84-2.82-3.26-1.56-5.18-2.74-5.18-2.74,0-1.89.12-3.66.24-5.3.08-1.06.17-2.06.27-3l-6.83-1.2Z" fill="#0dab59"></path>
    <g opacity="0.1">
      <path d="M323.54,403.75l24.88,10.81a41.84,41.84,0,0,0,40-5.12l.05,0,.15-1,.4-2.67-3.71-.18c.39,1.26.6,2,.6,2-18.56,10.32-40.92,2-50.84-2.82-3.26-1.56-5.18-2.74-5.18-2.74,0-1.89.12-3.66.24-5.3l-6.56-4.22Z"></path>
    </g>
    <path d="M340.69,292.52c13.88,21.73,23.68,7.19,23.68,7.19l-.16-4.24,0,0a14.49,14.49,0,0,1-21-13l-.05,0-.49,5.12C342.32,291.92,340.69,292.52,340.69,292.52Z" fill="#ffb799"></path>
    <path d="M364.16,295.44s2.71,50.15,12.29,79.93c0,0,11.39,42.09,16.18,48.43a227.53,227.53,0,0,0-3.88-35s-1.17-7.12-2.33-15.41c0,0,4.14,3.89,5.57,1.43l8.28-13.08s3.24-6-2.07-12l-3.88-38.33s-.91-8-7.25-9.84l-19.94-8.16A14.42,14.42,0,0,1,364.16,295.44Z" fill="#e0dbb3"></path>
    <path d="M364.37,299.71C367,338,372.69,361,372.69,361l5.18-53.35-7.77-5,2.34-2.33-3.24-6.08-2.07-.78a13.71,13.71,0,0,1-3,2Z" fill="#e0dbb3"></path>
    <g opacity="0.4">
      <path d="M364.37,299.71C367,338,372.69,361,372.69,361l5.18-53.35-7.77-5,2.34-2.33-3.24-6.08-2.07-.78a13.71,13.71,0,0,1-3,2Z"></path>
    </g>
    <path d="M391.21,354.61a2.28,2.28,0,0,1,2.35.64,4.09,4.09,0,0,1,1.3,3c0,2.14-.12,6.46-1.06,9.2,0,0-3.31,3.19-10.39-3.91a10.58,10.58,0,0,1,3.18-1.46,7,7,0,0,0,5.14-4A2.67,2.67,0,0,0,391.21,354.61Z" fill="#ff8d7e"></path>
    <g opacity="0.1">
      <polygon points="386.42 373.43 387.32 379.74 372.78 362.1 374.91 338.91 385.12 350.92 386.42 373.43"></polygon>
    </g>
    <g opacity="0.1">
      <polygon points="388.95 352.59 389.52 331.81 385.85 349.2 388.95 352.59"></polygon>
    </g>
    <g opacity="0.1">
      <path d="M398.2,349.74c-.57-.15-1.14-.24-1.69-.34a6.11,6.11,0,0,1-1.7-.58c1.05-.84,3.09-.51,3.39.92Z"></path>
    </g>
    <path d="M315.37,375.82s-10.94,26.63-11.26,39.69c0,0,22.86,3.59,25.8-13.56,0,0-.49-17,6-25.8a12.24,12.24,0,0,0,7.36-10,26.14,26.14,0,0,0,1.53-3.55,47.54,47.54,0,0,0,2.22-22.1l-8.33-40.34a57.09,57.09,0,0,1-.77-6.92,3.87,3.87,0,0,0-.8-2.39c-.76-1-2.09-1.72-4.2,0l-1.16.92c-.38.3-.78.59-1.19.87-3.69,2.52-13.18,8.65-21.77,11.47,0,0-6.86,1.48-6.2,27.28,0,0-.16,19.76,0,35.44C302.64,366.84,301,376.48,315.37,375.82Z" fill="#e0dbb3"></path>
    <path d="M326,308.86c9.31,11.76,18.79,53.9,18.79,53.9l.06-.12a47.54,47.54,0,0,0,2.22-22.1l-8.33-40.34a57.09,57.09,0,0,1-.77-6.92,3.87,3.87,0,0,0-.8-2.39c-.76-1-2.09-1.72-4.2,0l-1.16.92A117.68,117.68,0,0,0,328,304l3.27.32Z" fill="#e0dbb3"></path>
    <g opacity="0.4">
      <path d="M326,308.86c9.31,11.76,18.79,53.9,18.79,53.9l.06-.12a47.54,47.54,0,0,0,2.22-22.1l-8.33-40.34a57.09,57.09,0,0,1-.77-6.92,3.87,3.87,0,0,0-.8-2.39c-.76-1-2.09-1.72-4.2,0l-1.16.92A117.68,117.68,0,0,0,328,304l3.27.32Z"></path>
    </g>
    <g opacity="0.1">
      <path d="M315.37,375.82l20.58.33a24.43,24.43,0,0,0-2.53,4.49s-17.47,3-19.68-.41Z"></path>
    </g>
    <g opacity="0.1">
      <path d="M343.31,366.19l-6.43,3.75.11,5.77A13.07,13.07,0,0,0,343.31,366.19Z"></path>
    </g>
    <g opacity="0.1">
      <path d="M320.33,328.68l5.88,25.69,12-2.18.11,2.51a11.39,11.39,0,0,0,3.59-3.92S335,322.41,326,308.86l5.23-4.58-8,4.25s18.38,29.67,11.16,35.5a2.5,2.5,0,0,1-2.37.42C329.93,343.75,325.66,340.79,320.33,328.68Z"></path>
    </g>
    <g opacity="0.1">
      <path d="M326.21,354.37c-4.7.23-9.33,0-14,.44-1.5.2-3.13.26-4.36,1.25,3.15-3.58,13.94-2.55,18.35-1.69Z"></path>
    </g>
    <g opacity="0.4">
      <circle cx="329.01" cy="372.8" r="1.71"></circle>
    </g>
    <path d="M329.91,402s1.92,1.18,5.18,2.74c9.92,4.78,32.28,13.14,50.84,2.82l-1.32-4.38c-2.83-9.37-9.4-31.32-11.82-41a513.14,513.14,0,0,1-8.42-62.39s-9.63,14.7-23.68-7.19A5.55,5.55,0,0,0,342.6,288a7.37,7.37,0,0,0-4.23,3.3,4.61,4.61,0,0,0-.45,1.28s.27,3.21.81,7.62l8.17,39a49.68,49.68,0,0,1-2.06,23.4l-1.53,3.55a13.45,13.45,0,0,1-6.32,9.53l-1,.43s-4.05,4.32-5.53,17.48C330.15,396.08,330,398.85,329.91,402Z" fill="#e6e7e8"></path>
    <path d="M329.91,402s1.92,1.18,5.18,2.74l.18-.09s1.37-10.51,9.15-24.68c0,0,11.66-19.66,6.63-41.15,0,0-5.49-16.23-6.63-26.06,0,0-2.43-15.94-5.85-21.33l-.2-.08a4.61,4.61,0,0,0-.45,1.28s.27,3.21.81,7.62l8.17,39a49.68,49.68,0,0,1-2.06,23.4l-1.53,3.55a13.45,13.45,0,0,1-6.32,9.53l-1,.43S330.24,382.24,329.91,402Z" fill="#f1f2f2"></path>
    <path d="M326.36,591.25h22.92a29,29,0,0,0-1.16-9.14,12,12,0,0,1-.46-1.86,8,8,0,0,0-7.35-7.12,5.59,5.59,0,0,0-6.2,4.34,4.5,4.5,0,0,1-1.48,2.41C330.39,581.74,326,586.09,326.36,591.25Z" fill="#e0dbb3"></path>
    <rect x="326.36" y="591.25" width="22.92" height="2.36" transform="translate(675.64 1184.86) rotate(-180)" fill="#0dab59"></rect>
    <polygon points="365.13 592.86 402.93 592.89 402.92 590.74 365.14 590.74 365.13 592.86" fill="#0dab59"></polygon>
    <path d="M402.92,590.74H365.14s-.79-20.82,4.42-15.39c0,0,3.28,2,6.1-.22a4.29,4.29,0,0,1,5.78.41,32.33,32.33,0,0,0,4.88,3.68c2.5,1.49,5.95,3.45,9,4.86a29,29,0,0,0,2.85,1.11A6.66,6.66,0,0,1,402.92,590.74Z" fill="#e0dbb3"></path>
    <path d="M342.07,577.66h0l-6.45-.11a.5.5,0,0,1-.49-.51.55.55,0,0,1,.51-.49l6.45.11a.52.52,0,0,1,.49.51A.5.5,0,0,1,342.07,577.66Z" fill="#fff"></path>
    <path d="M339.35,584.79h-6.44a.5.5,0,0,1,0-1h6.44a.5.5,0,0,1,0,1Z" fill="#fff"></path>
    <path d="M340.49,582.3H334a.5.5,0,1,1,0-1h6.45a.5.5,0,0,1,0,1Z" fill="#fff"></path>
    <path d="M341.05,580H334.6a.5.5,0,0,1,0-1h6.45a.5.5,0,0,1,0,1Z" fill="#fff"></path>
    <path d="M370.54,590.75a.78.78,0,0,1-.21,0,.51.51,0,0,1-.25-.67c.12-.26,2.83-6.62-4.05-11a.49.49,0,0,1-.16-.69.5.5,0,0,1,.69-.15c7.63,4.81,4.47,12.15,4.43,12.22A.49.49,0,0,1,370.54,590.75Z" fill="#fff"></path>
    <path d="M348.68,591.21a.46.46,0,0,1-.23-.05,5.23,5.23,0,0,1-2.7-3.13c-1-3.22,1-7,1.08-7.2a.49.49,0,0,1,.67-.21.5.5,0,0,1,.21.68s-1.88,3.62-1,6.43a4.26,4.26,0,0,0,2.2,2.54.49.49,0,0,1,.21.67A.48.48,0,0,1,348.68,591.21Z" fill="#fff"></path>
    <path d="M392.87,585.58a.5.5,0,0,1,0-1l3.88-.14a.5.5,0,1,1,0,1l-3.88.14Z" fill="#fff"></path>
    <path d="M390.33,584.34a.51.51,0,0,1-.5-.44.51.51,0,0,1,.43-.56l3.32-.45a.5.5,0,0,1,.14,1l-3.32.45Z" fill="#fff"></path>
    <path d="M387.18,583.09a.5.5,0,0,1-.08-1l3.69-.59a.51.51,0,0,1,.58.41.51.51,0,0,1-.42.57l-3.69.6Z" fill="#fff"></path>
    <path d="M384.87,581.74a.51.51,0,0,1-.49-.41.5.5,0,0,1,.4-.59l3.39-.62a.5.5,0,0,1,.58.4.5.5,0,0,1-.4.58l-3.38.63Z" fill="#fff"></path>
    <path d="M381.72,580a.51.51,0,0,1-.49-.41.5.5,0,0,1,.4-.58l3.76-.73a.5.5,0,0,1,.19,1l-3.76.72Z" fill="#fff"></path>
    <path d="M355.61,353a.5.5,0,0,1-.06-1l8.35-.88a.5.5,0,1,1,.1,1l-8.34.89Z" fill="#ff8d7e"></path>
    <path d="M364.37,299.71l-.21-4.27-19.31-5.73S351.62,302.09,364.37,299.71Z" fill="#ff8d7e"></path>
    <path d="M343.19,282.43a14.49,14.49,0,0,0,28.95.85l.79-14.32a14.49,14.49,0,0,0-13.67-15.26c-.28,0-.54,0-.82,0A14.48,14.48,0,0,0,344,267.36l-.79,14.33C343.2,281.94,343.19,282.18,343.19,282.43Z" fill="#ffb799"></path>
    <path d="M339.54,261.72c.22,11.22,3.93,12.51,3.93,12.51l4.9-12.57c18,9.66,24.39,4.43,26.1,2.26a4.59,4.59,0,0,0,.52-.79c2.63-1.66,3.88-3.51,4.31-5.3,1.07-4.39-2.73-8.45-3-8.73l0,0c.17,4.09-2,4.57-2,4.57-4.24-13.22-22.05-2.93-22.05-2.93-6.79-5.5-10.38,1.24-11.88,5.5a.11.11,0,0,0,0,.06A15.23,15.23,0,0,0,339.54,261.72Z" fill="#323232"></path>
    <g opacity="0.2">
      <path d="M343.47,274.23l4.9-12.57s-6.59-1.12-8-5.44l0,0a15.54,15.54,0,0,0-.84,5.45C339.76,273,343.47,274.23,343.47,274.23Z"></path>
    </g>
    <g opacity="0.2">
      <path d="M366.82,256.11c16,3.65,9.85-6.42,9.49-7l0,0c.17,4.09-2,4.57-2,4.57C372.21,256.43,366.82,256.11,366.82,256.11Z"></path>
    </g>
    <g opacity="0.2">
      <path d="M366.17,258.72a19.38,19.38,0,0,0,8.3,5.2,4.59,4.59,0,0,0,.52-.79c2.63-1.66,3.88-3.51,4.31-5.3C378,259.06,373.35,262.38,366.17,258.72Z"></path>
    </g>
    <path d="M381.69,345l7.26,7.56a15.47,15.47,0,0,0,2.26,2c.69.49,1.55,1.56.52,3.54a6.9,6.9,0,0,1-5.14,4,7.83,7.83,0,0,0-3.18,1.46c-.93.69-2.68,1.15-5.92-.37l-8.55-5.51a2.07,2.07,0,0,1-.33-3.2c1.35-1.33,3.95-2.61,8.75-1.52,0,0,7.38,2.46,6.21.39,0,0-4.18-4.4-2.83-8.15A.57.57,0,0,1,381.69,345Z" fill="#ffb799"></path>
    <path d="M382.53,360.72a.51.51,0,0,1-.2,0l-13.46-5.95a.5.5,0,1,1,.4-.92l13.47,6a.5.5,0,0,1-.21,1Z" fill="#ff8d7e"></path>
    <path d="M376.58,361.5a.45.45,0,0,1-.25-.07l-8.68-5.05a.49.49,0,0,1-.18-.68.51.51,0,0,1,.69-.18l8.67,5.05a.5.5,0,0,1-.25.93Z" fill="#ff8d7e"></path>
    <path d="M383.18,363.59s.26,7.51,3.24,9.84c0,0,4,3.76,5.57,1.43l1.81-7.38S390.3,370.58,383.18,363.59Z" fill="#e0dbb3"></path>
    <g opacity="0.4">
      <path d="M383.18,363.59s.26,7.51,3.24,9.84c0,0,4,3.76,5.57,1.43l1.81-7.38S390.3,370.58,383.18,363.59Z"></path>
    </g>
    <path d="M369.17,353.59l5-12.8a.75.75,0,0,0-.68-1L359,339.29a.76.76,0,0,0-.73.49l-5.11,13.34Z" fill="#0dab59"></path>
    <path d="M346.81,363.45a43.21,43.21,0,0,1-9.93,6.49l.66-14.64s2.81-1.17,8.66-10.07c0,0,3.63-6.44,11.36-3a29.07,29.07,0,0,0,3.74,1,1.07,1.07,0,0,1,.74,1.58c-.6,1-2.5,1.76-8.17-.11a.18.18,0,0,0-.23.12c-.18.65-.56,2.94,3.57,2.64h4.58a3.91,3.91,0,0,0,1.5-.31c1.88-.78,7.12-2.66,9.49-.28l-8.49,4a.65.65,0,0,0-.34.79h0a.63.63,0,0,0,.94.35c2.06-1.24,8.24-4.7,12.06-3.64a.76.76,0,0,1,.23,1.36l-5.33,3.5s-1.08,3.22-6.63,4.93a3.86,3.86,0,0,0-1.43.85l-1.56,1.45a8.89,8.89,0,0,1-6.61,2.37l-5.93-.36A3.92,3.92,0,0,0,346.81,363.45Z" fill="#ffb799"></path>
    <path d="M356.81,356.67a.5.5,0,0,1,0-1l8.13-.46a2.64,2.64,0,0,0,.75-.16l5.37-2.22a.5.5,0,1,1,.38.92L366,356a3.52,3.52,0,0,1-1.06.22l-8.14.47Z" fill="#ff8d7e"></path>
    <path d="M357,360a.5.5,0,0,1-.08-1l6.36-1a.5.5,0,0,1,.57.42.49.49,0,0,1-.41.57l-6.36,1Z" fill="#ff8d7e"></path>
    <path d="M340.17,353s1.27,8.54,5.24,11.68a60.81,60.81,0,0,1-8.53,5.28l.66-14.64A9.84,9.84,0,0,0,340.17,353Z" fill="#ff8d7e"></path>
    <ellipse cx="342.9" cy="275.13" rx="4" ry="4.82" fill="#ffb799"></ellipse>
    <path d="M355.51,275.73c-.16.9.17,1.71.76,1.88s1.2-.53,1.37-1.43a1.55,1.55,0,0,0-.77-1.88C356.27,274.13,355.68,274.83,355.51,275.73Z" fill="#323232"></path>
    <path d="M366.63,278.1c-.16.88.17,1.71.76,1.88s1.2-.53,1.37-1.43-.17-1.73-.75-1.88S366.8,277.2,366.63,278.1Z" fill="#323232"></path>
    <path d="M363,277.87a32.57,32.57,0,0,0,2.86,8.49,5.25,5.25,0,0,1-4.45,0Z" fill="#ff8d7e"></path>
    <path d="M359.85,290a7.51,7.51,0,0,1-4.88-3.44.28.28,0,0,1,.11-.37.29.29,0,0,1,.36.11,7.23,7.23,0,0,0,5.63,3.34.29.29,0,0,1,0,.55A7.2,7.2,0,0,1,359.85,290Z" fill="#ff8d7e"></path>
    <path d="M353.94,271.73a.81.81,0,0,1-.17-.23.58.58,0,0,1,.28-.71,5.39,5.39,0,0,1,4.89.46.55.55,0,0,1,.11.75.52.52,0,0,1-.73.11h0a4.32,4.32,0,0,0-3.92-.32A.54.54,0,0,1,353.94,271.73Z" fill="#323232"></path>
    <path d="M371.46,274.39a.55.55,0,0,1-.51-.06,4.13,4.13,0,0,0-3.8-.7.55.55,0,0,1-.7-.31.54.54,0,0,1,.3-.7,5.3,5.3,0,0,1,4.87.9.5.5,0,0,1,.16.7l0,0A.37.37,0,0,1,371.46,274.39Z" fill="#323232"></path>
    <path d="M342.69,277.1a.48.48,0,0,1-.26-.07,1.88,1.88,0,0,1-.54-.51,1.54,1.54,0,0,1,0-1.73,1.18,1.18,0,0,1,.95-.55.16.16,0,0,0-.07-.07c-.1-.07-.31,0-.41,0a.49.49,0,0,1-.66-.23.48.48,0,0,1,.21-.66,1.53,1.53,0,0,1,1.38,0,1.73,1.73,0,0,1,.69,1.56.51.51,0,0,1-.24.44.5.5,0,0,1-.5,0s-.38-.19-.52,0a.56.56,0,0,0,0,.61.73.73,0,0,0,.24.22.5.5,0,0,1,.17.69A.5.5,0,0,1,342.69,277.1Z" fill="#ff8d7e"></path>
  </g>
  <path d="M307.78,527.78a5.87,5.87,0,0,1,2.15-2.19,6,6,0,0,1,3-.78,6.12,6.12,0,0,1,3.41.94,5.38,5.38,0,0,1,2.12,2.67h-1.86a3.78,3.78,0,0,0-1.44-1.66,4.09,4.09,0,0,0-2.23-.58,4.36,4.36,0,0,0-2.25.58,4.14,4.14,0,0,0-1.56,1.65,5.88,5.88,0,0,0,0,5,4.14,4.14,0,0,0,1.56,1.65,4.36,4.36,0,0,0,2.25.58,4.18,4.18,0,0,0,2.23-.57,3.7,3.7,0,0,0,1.44-1.65h1.86a5.31,5.31,0,0,1-2.12,2.64A6.12,6.12,0,0,1,313,537a6,6,0,0,1-3-.78,5.74,5.74,0,0,1-2.15-2.17,6.64,6.64,0,0,1,0-6.28Z" fill="#e0dbb3"></path>
  <path d="M327.87,534.25h-5.21l-1,2.66h-1.65L324.37,525h1.8l4.3,11.88h-1.64Zm-.45-1.27-2.16-6-2.16,6Z" fill="#e0dbb3"></path>
  <path d="M338.65,536.91,335.8,532h-1.88v4.89h-1.56V525h3.85a5.08,5.08,0,0,1,2.29.46,3.24,3.24,0,0,1,1.4,1.25,3.72,3.72,0,0,1-.25,4,3.42,3.42,0,0,1-2.13,1.25l3,5Zm-4.73-6.14h2.29a2.62,2.62,0,0,0,1.91-.63,2.23,2.23,0,0,0,.63-1.67,2.15,2.15,0,0,0-.62-1.64,2.74,2.74,0,0,0-1.92-.58h-2.29Z" fill="#e0dbb3"></path>
  <path d="M354.32,530.93a4.32,4.32,0,0,1-3.11,1h-2.3v5h-1.56V525h3.86a4.4,4.4,0,0,1,3.08,1,3.52,3.52,0,0,1,0,5Zm-1.19-.86a2.09,2.09,0,0,0,.62-1.61c0-1.48-.85-2.21-2.54-2.21h-2.3v4.38h2.3A2.8,2.8,0,0,0,353.13,530.07Z" fill="#e0dbb3"></path>
  <path d="M358.84,535.64H363v1.27h-5.74V525h1.56Z" fill="#e0dbb3"></path>
  <path d="M371.74,534.25h-5.21l-1,2.66h-1.64L368.25,525H370l4.31,11.88H372.7ZM371.3,533l-2.16-6L367,533Z" fill="#e0dbb3"></path>
  <path d="M383.58,525v1.27h-3.25v10.68h-1.56V526.23H375.5V525Z" fill="#e0dbb3"></path>
  <path d="M387.06,526.23v4h4.36v1.29h-4.36v4.11h4.87v1.29H385.5v-12h6.43v1.29Z" fill="#e0dbb3"></path>
  <path d="M314.68,570.93a5.09,5.09,0,0,1,2.19,2.09,7,7,0,0,1,0,6.36,5,5,0,0,1-2.19,2.06,7.55,7.55,0,0,1-3.38.71h-3.72V570.21h3.72A7.42,7.42,0,0,1,314.68,570.93Zm.15,8.71A4.67,4.67,0,0,0,316,576.2a4.81,4.81,0,0,0-1.22-3.48,4.73,4.73,0,0,0-3.52-1.25h-2.16v9.4h2.16A4.77,4.77,0,0,0,314.83,579.64Z" fill="#e0dbb3"></path>
  <path d="M326,582.15l-2.84-4.88h-1.89v4.88h-1.56V570.21h3.86a5.14,5.14,0,0,1,2.29.46,3.15,3.15,0,0,1,1.39,1.25,3.48,3.48,0,0,1,.47,1.8,3.35,3.35,0,0,1-2.85,3.43l3,5ZM321.25,576h2.3a2.59,2.59,0,0,0,1.9-.63,2.25,2.25,0,0,0,.64-1.67,2.14,2.14,0,0,0-.63-1.65,2.76,2.76,0,0,0-1.91-.58h-2.3Z" fill="#e0dbb3"></path>
  <path d="M331.67,570.21v11.94h-1.56V570.21Z" fill="#e0dbb3"></path>
  <path d="M344.2,570.21l-4.51,11.94h-1.8l-4.5-11.94h1.66l3.75,10.3,3.75-10.3Z" fill="#e0dbb3"></path>
  <path d="M347.47,571.47v4h4.36v1.28h-4.36v4.12h4.87v1.28h-6.43v-12h6.43v1.28Z" fill="#e0dbb3"></path>
  <path d="M361,582.15l-2.85-4.88h-1.89v4.88h-1.55V570.21h3.85a5.11,5.11,0,0,1,2.29.46,3.23,3.23,0,0,1,1.4,1.25,3.47,3.47,0,0,1,.46,1.8,3.35,3.35,0,0,1-2.85,3.43l3,5ZM356.26,576h2.3a2.58,2.58,0,0,0,1.9-.63,2.22,2.22,0,0,0,.64-1.67,2.14,2.14,0,0,0-.63-1.65,2.74,2.74,0,0,0-1.91-.58h-2.3Z" fill="#e0dbb3"></path>
  <rect x="624.8" y="585.14" width="5.31" height="59.98" fill="#e0dbb3"></rect>
  <rect x="579.28" y="592.43" width="5.31" height="55.61" fill="#e0dbb3"></rect>
  <path d="M628.29,597.5c-4.47,6-2.23,21.14-2.23,21.14.75,48.71-34.8,44-34.8,44-10.2-1,0-23.11,0-23.11,9-19.9,8-68.67,8-68.67,0,.19.07.37.1.56,0,0,1,14.37,14,7.34,0,0,7-3.83,6.71-14C635.86,580.89,628.29,597.5,628.29,597.5Z" fill="#0dab59"></path>
  <circle cx="601.93" cy="597.65" r="3.92" fill="#e0dbb3"></circle>
  <circle cx="600.23" cy="607.83" r="3.92" fill="#e0dbb3"></circle>
  <circle cx="598.33" cy="617.79" r="3.92" fill="#e0dbb3"></circle>
  <path d="M582.86,612.14c-5,2-5,10.46-5,10.46-4.57,35.09-32.68,32-32.68,32-26.37,1.53-9.37-17-9.37-17,16.55-12.64,24.47-51.24,24.47-51.24.17.64.35,1.29.54,1.93,0,0,5.74,9.25,20.09-5.43C594.41,603.33,582.86,612.14,582.86,612.14Z" fill="#0dab59"></path>
  <circle cx="549.58" cy="617.36" r="3.92" fill="#e0dbb3"></circle>
  <circle cx="552.97" cy="608.67" r="3.92" fill="#e0dbb3"></circle>
  <circle cx="557.42" cy="599.98" r="3.92" fill="#e0dbb3"></circle>
  <path d="M550,204.91h0l-2-.13a2.86,2.86,0,0,1-2.7-2.95l.21-8.28a.49.49,0,0,1,.51-.49.51.51,0,0,1,.49.52l-.21,8.27a1.89,1.89,0,0,0,1.76,1.94l2,.12a.52.52,0,0,1,.47.53A.5.5,0,0,1,550,204.91Z" fill="#ff8d7e"></path>
  <ellipse cx="540.26" cy="193.18" rx="1.36" ry="2.6" fill="#323232"></ellipse>
  <ellipse cx="551.08" cy="193.83" rx="1.36" ry="2.6" fill="#323232"></ellipse>
  <path d="M543.63,207.46a58.4,58.4,0,0,0,9.43-.1S548.67,216.57,543.63,207.46Z" fill="#fff"></path>
  <path d="M541.81,189.21a.46.46,0,0,1-.23-.05,3.37,3.37,0,0,0-3.35,0,.5.5,0,0,1-.69-.14.51.51,0,0,1,.13-.69,4.35,4.35,0,0,1,4.37,0,.5.5,0,0,1,.21.68A.49.49,0,0,1,541.81,189.21Z" fill="#323232"></path>
  <path d="M552.53,190.5a.53.53,0,0,1-.24-.06,3.37,3.37,0,0,0-3.34,0,.5.5,0,0,1-.56-.82,4.31,4.31,0,0,1,4.37,0,.5.5,0,0,1-.23.94Z" fill="#323232"></path>
  <path d="M574.21,203.54a.47.47,0,0,1-.42-.24.49.49,0,0,1,.16-.68,2,2,0,0,0,.6-.57,1.48,1.48,0,0,0,0-1.64c-.49-.73-1.46-.24-1.57-.18a.52.52,0,0,1-.5,0,.48.48,0,0,1-.23-.43,2.85,2.85,0,0,1,1.09-2.59,2.43,2.43,0,0,1,2.16,0,.5.5,0,1,1-.45.89,1.5,1.5,0,0,0-1.2-.06,1.41,1.41,0,0,0-.54,1,1.92,1.92,0,0,1,2.07.78,2.51,2.51,0,0,1,0,2.76,3,3,0,0,1-.91.86A.48.48,0,0,1,574.21,203.54Z" fill="#ff8d7e"></path>
</svg>
