<?xml version="1.0" encoding="iso-8859-1"?>
<!-- Uploaded to: SVG Repo, www.svgrepo.com, Generator: SVG Repo Mixer Tools -->
<svg fill="#000000" height="800px" width="800px" version="1.1" id="Layer_1" xmlns="http://www.w3.org/2000/svg" xmlns:xlink="http://www.w3.org/1999/xlink" 
	 viewBox="0 0 512 512" xml:space="preserve">
<g>
	<g>
		<path d="M477.879,1.104l-255.682,94.26c-6.947,2.561-11.56,9.179-11.56,16.583V240.84c0,7.403,4.614,14.022,11.56,16.583
			l255.682,94.26c11.481,4.231,23.787-4.241,23.787-16.583V17.687C501.666,5.407,489.416-3.147,477.879,1.104z"/>
	</g>
</g>
<g>
	<g>
		<path d="M165.597,312.301c17.294-71.534,16.762-68.511,16.762-71.461V111.947c0-9.761-7.913-17.674-17.674-17.674H92.453
			c-45.281,0-82.12,36.839-82.12,82.12c0,35.409,22.527,65.653,54,77.159L17.739,445.79c-8.129,33.536,17.093,65.924,51.64,66.208
			L69.877,512c27.932,0,52.025-18.963,58.589-46.115l10.541-43.604c1.617,0.193-0.229,0.138,28.353,0.138
			c30.36,0,55.058-24.7,55.058-55.058C222.419,338.838,200.192,312.301,165.597,312.301z"/>
	</g>
</g>
</svg>